<svg width="393" height="399" viewBox="0 0 393 399" fill="none" xmlns="http://www.w3.org/2000/svg">
<path d="M173.081 23.9807L175.947 32.5188L144.891 43.1338C111.037 53.4223 79.9061 71.1389 53.766 94.9938C37.847 109.496 32.0669 118.614 20.4799 146.486C6.61117 179.069 -0.132934 219.733 5.47421 236.467C7.516 241.853 7.19173 241.976 2.63611 236.776C-0.617352 233.005 -0.207835 239.01 4.49443 255.314C30.2872 348.689 62.9667 377.49 160.796 393.911C269.23 412.082 346.808 379.986 378.648 303.249C389.792 277.11 395.69 220.58 391.461 182.152C388.737 155.475 387.268 150.638 374.276 127.079C367.665 114.439 359.901 102.436 351.084 91.2244C338.628 77.8539 310.606 56.5285 307.055 57.8747C305.46 58.4793 311.67 64.2098 321.122 70.6346C343.945 87.0032 359.27 106.981 374.033 139.109C384.557 162.063 386.666 170.498 388.557 197.881C389.71 215.536 390.166 230.375 388.896 230.856C387.928 231.223 382.569 217.086 377.356 199.436C358.217 134.329 342.425 101.44 318.12 75.2424C313.413 70.5338 309.038 65.5042 305.026 60.19C301.007 56.1741 296.467 52.7168 291.528 49.9111L278.796 41.6494L283.092 31.553C288.569 16.7726 291.531 2.1781 288.507 1.01729C287.156 0.372764 280.233 6.46054 272.982 14.6025C268.278 20.2896 263.125 25.5895 257.574 30.451C252.036 28.5599 246.97 25.4972 242.72 21.4714C235.89 16.1528 228.3 11.8925 220.205 8.8336C211.384 6.01654 210.411 6.3853 212.199 11.1012C215.27 16.7023 219.089 21.8596 223.549 26.4311C232.533 36.4972 232.533 36.4971 224.665 37.1723C211.95 37.7309 203.34 32.5511 206.079 26.1255C210.178 16.4874 206.319 14.1029 195.786 20.4028C187.258 25.1754 183.642 25.3893 177.597 21.1366L169.947 15.5686L173.081 23.9807ZM201.493 29.7631C202.345 33.7744 204.739 37.2905 208.158 39.5516C216.197 44.205 210.904 45.8159 200.801 41.5733C196.426 39.768 193.577 40.0502 194.225 41.7587C195.756 45.7987 213.917 50.8463 219.085 48.8874C221.02 48.1538 221.031 46.226 219.405 44.9189C214.584 40.9753 220.458 39.8995 230.803 42.9056C250.963 48.3519 240.148 59.7626 217.255 56.8923C210.355 56.228 203.598 54.5041 197.222 51.7813C194.733 50.028 193.873 50.7434 194.824 54.2303C195.52 57.0465 193.356 55.1703 190.003 50.2868C185.261 43.6165 184.358 43.1917 185.947 48.3605C188.043 54.8707 187.031 56.0337 175.588 58.0578C156.972 63.3558 138.656 69.6564 120.72 76.932C72.093 95.7478 58.056 106.456 31.2639 145.868L15.243 168.876L22.9278 150.184C40.1937 107.072 67.8901 82.7187 127.246 57.1396C159.348 43.4311 169.806 39.8505 167.275 43.8901C163.122 50.4681 167.427 53.067 176.471 49.6389C181.958 47.5591 182.028 46.7656 177.131 45.5415C171.915 44.4383 171.98 43.6467 176.824 41.8108C178.329 41.306 179.651 40.3645 180.62 39.106C181.59 37.8476 182.163 36.329 182.268 34.7429C183.143 32.7638 184.443 31.0027 186.076 29.585C187.709 28.1673 189.635 27.128 191.716 26.5414C198.87 23.8235 200.997 24.5575 201.493 29.7631ZM240.559 31.507C243.568 36.5268 247.555 39.2466 246.204 38.6021C244.726 37.6223 243.418 31.5737 240.421 26.5552C239.612 25.1025 238.484 23.8533 237.12 22.9028C235.757 21.9522 234.195 21.3254 232.553 21.07C235.729 24.126 238.427 27.6426 240.557 31.5016L240.559 31.507ZM92.072 98.566C51.615 131.22 31.8185 178.372 34.5473 234.274C37.0527 283.746 61.1385 321.959 109.941 354.266C134.31 370.816 169.229 379.136 207.269 378.188C256.149 376.595 296.009 358.023 331.112 320.081C353.454 296.217 360.919 283.763 366.429 261.275C371.478 240.49 373.47 242.827 369.555 264.71C365.337 286.708 353.124 309.046 328.435 338.414L307.06 363.836L271.417 376.962C241.064 388.468 232.159 390.303 210.175 389.785C195.8 389.847 183.348 391.103 182.103 392.725C180.678 394.806 179.97 393.917 180.566 390.611C181.226 386.514 180.326 386.081 177.088 389.233C176.04 390.262 174.69 390.927 173.236 391.133C171.781 391.338 170.3 391.071 169.007 390.372C166.518 388.619 167.343 387.923 170.756 388.169C173.85 388.536 171.47 387.131 165.546 385.14C163.219 384.12 160.71 383.583 158.171 383.562C155.631 383.541 153.114 384.036 150.772 385.018C148.572 387.008 147.475 387.034 147.934 385.326C148.716 383.49 137.785 376.085 123.761 368.313C107.506 359.235 92.3434 348.325 78.5683 335.794C67.9149 325.222 58.9726 318.202 58.6425 320.251C58.3125 322.3 65.4372 330.38 74.4304 338.513C93.8988 355.769 94.9657 361.52 75.7587 344.937C57.862 329.806 54.0475 324.683 56.1968 319.638C57.3675 316.887 54.8152 310.154 49.3088 301.466C33.4584 275.018 23.4048 245.504 19.8147 214.881C15.5219 181.097 16.0323 182.444 12.6351 187.165C10.5616 189.491 10.0511 188.145 10.7224 182.119C12.0518 171.991 14.5947 169.877 14.7312 179.06C14.9706 183.589 17.044 181.263 20.7623 172.512C34.3637 141.18 70.2475 101.402 92.0104 93.5427L103.314 89.2582L92.072 98.566ZM186.13 70.9974L215.137 73.4738L206.579 84.0228C202.485 88.1981 199.61 93.4135 198.262 99.1066C198.326 104.086 210.654 98.671 241.222 80.8992L253.891 73.4L252.661 89.6452C252.255 101.123 253.378 112.606 256.002 123.79C259.636 138.191 261.289 140.657 265.484 139.067C268.392 137.964 272.353 129.919 274.523 121.03C277.139 112.338 279.305 103.439 279.762 101.725C280.544 99.8891 285.116 101.236 290.254 105.054C294.948 108.662 297.064 111.324 294.27 110.836C291.049 110.134 290.335 111.171 292.451 113.833C293.755 115.067 295.34 115.966 297.069 116.451C298.797 116.936 300.617 116.993 302.372 116.617C310.198 114.806 317.068 105.658 312.421 103.183C310.315 102.441 308.29 103.982 307.89 106.824C307.443 110.457 303.174 108.995 293.94 102.104C279.091 91.1806 277.704 83.6223 290.341 83.836C298.141 83.9597 319.581 101.62 338.086 123.088C343.476 129.513 345.852 130.92 344.194 126.544C338.759 117.902 332.176 110.039 324.626 103.171C318.563 97.8899 313.095 91.9602 308.322 85.4881C311.264 85.2834 314.215 85.7439 316.956 86.8356C327.647 89.7107 342.058 113.115 357.309 152.37L369.115 182.538L354.363 163.11C346.219 152.342 335.125 137.688 329.824 130.457C324.375 122.898 318.017 116.841 315.818 116.895C311.432 117.017 314.185 121.361 342.39 154.914C350.921 165.038 358.415 175.994 364.759 187.617C371.142 202.516 367.922 245.691 358.681 269.983C339.714 320.284 278.394 367.007 224.021 372.605C165.384 378.664 122.503 364.9 84.2199 328.197C52.8812 298.121 41.0754 273.73 39.0788 236.379C36.0377 176.718 56.5957 131.591 102.389 96.5241C130.639 74.7063 152.135 68.0985 186.103 71.0075L186.13 70.9974ZM186.816 61.1131C196.48 63.2207 191.569 65.8555 177.639 66.1316C166.54 66.0776 165.65 65.6721 172.754 62.9797C177.127 60.9235 182.03 60.2749 186.789 61.1232L186.816 61.1131ZM271.816 59.331C277.766 55.5357 272.76 33.5703 272.87 37.7594C272.768 46.2656 265.671 94.7578 268.851 90.4724C270.727 88.6046 283.399 71.3765 281.377 76.7573C279.355 82.1382 287.363 73.058 288.843 72.1014C293.303 69.2541 282.208 73.8491 283.61 77.5484C284.375 79.5657 304.996 76.747 301.198 75.5021C297.721 74.1236 295.207 74.3094 295.717 75.656C296.355 77.338 293.26 76.9708 289.337 75.3779C284.922 73.7766 280.384 72.5363 275.77 71.6692C270.554 70.566 270.681 70.9014 276.466 74.4855C281.93 78.1852 282.187 78.8613 277.992 80.4513C275.408 81.4308 273.653 85.5596 274.211 89.9684C274.578 94.8333 278.114 86.949 274.892 86.2465C272.122 85.7563 266.441 96.7551 268.953 98.5057C270.685 100.156 273.496 59.8324 271.338 66.8111C267.211 78.3831 268.64 80.1485 267.701 72.81C267.01 68.0679 262.956 110.02 264.647 110.535C266.338 111.051 266.593 107.874 264.935 103.499C263.404 99.4586 283.317 82.5659 283.089 76.1084C282.483 66.7138 274.589 59.7957 266.869 55.0213C261.659 51.9923 243.369 63.1743 245.427 64.7072L246.15 65.5229C249.681 56.3256 257.951 64.9579 253.711 61.5674C252.106 60.2522 254.434 65.0796 257.73 61.1335C261.026 57.1875 281.664 59.0013 280.185 58.0214C279.032 56.9186 261.79 50.4145 263.955 47.2867C266.545 44.3815 257.294 41.7277 258.575 43.1658C259.855 44.6039 267.488 61.7082 271.78 59.3144L271.816 59.331ZM217.976 60.4965C232.868 61.7795 233.187 61.6586 225.105 66.6457C216.704 71.7537 201.361 70.2583 198.938 63.8657C197.368 59.8039 200.081 59.165 217.932 60.4766L217.976 60.4965ZM288.945 68.5864C289.583 70.2684 300.727 67.5844 300.105 67.8202C298.029 68.1955 295.888 67.7693 294.113 66.6275C292.381 64.977 291.243 63.8682 292.838 63.2636C294.784 62.526 288.181 66.5691 288.945 68.5864ZM16.0402 218.607C17.7546 240.663 34.2652 287.141 45.8697 303.141C51.0629 310.024 52.6472 315.182 51.2854 318.407C49.9236 321.632 49.2119 320.733 49.1697 315.745C49.0494 311.53 47.9685 309.657 46.7408 311.279C45.6563 313.23 43.0032 311.155 41.6009 307.456C39.7453 303.539 32.8346 291.147 26.3093 279.771C12.2228 256.244 8.60418 241.837 9.86986 215.948C10.8108 192.106 13.835 193.266 16.0508 218.603L16.0402 218.607ZM26.2514 291.329C42.5069 320.578 77.6308 355.763 104.717 369.743L123.568 379.532L107.752 368.976C82.1591 352.117 90.8016 353.486 119.157 370.813C133.563 379.591 142.437 385.468 138.764 384.553C135.286 383.175 131.677 383.392 131.22 385.106C130.312 386.607 113.824 380.134 94.4621 370.939C53.3404 351.115 41.4701 338.296 21.0836 293.288C5.69613 259.479 8.2588 258.507 26.2621 291.325L26.2514 291.329ZM381.726 224.711C387.401 243.741 386.546 264.121 379.297 282.598C376.727 287.454 375.356 292.856 375.297 298.353C378.12 301.903 361.566 329.344 347.641 344.247C329.733 363.147 307.568 377.486 282.993 386.07C249.286 398.464 247.952 393.966 281.405 380.902C316.15 367.348 331.155 356.273 356.299 325.186C379.106 297.67 373.042 299.207 348.942 327.208C338.312 340.088 328.397 350.007 327.184 349.694C326.157 348.927 330.629 342.228 337.111 334C357.975 309.155 369.083 288.777 372.971 268.828C374.822 258.118 374.802 247.351 372.686 244.689C370.733 241.433 370.057 237.567 370.788 233.842C371.841 228.823 372.549 229.711 373.355 236.717C374.567 244.725 374.997 244.946 375.844 238.47C376.286 236.446 376.313 234.354 375.922 232.319C375.531 230.284 374.731 228.35 373.571 226.633C371.004 223.759 371.396 222.837 374.485 223.206C377.707 223.909 377.648 222.775 374.932 219.573C372.689 216.576 372.12 214.095 373.731 213.484C375.725 212.747 379.186 217.979 381.739 224.712L381.726 224.711ZM230.362 393.328C229.67 394.247 228.755 394.974 227.704 395.439C226.652 395.905 225.499 396.094 224.354 395.989C221.386 395.957 221.994 394.576 225.524 393.238C228.947 391.551 231.271 391.827 230.362 393.328ZM244.551 391.797C243.859 392.716 242.944 393.442 241.893 393.908C240.841 394.374 239.688 394.563 238.543 394.458C235.576 394.426 236.183 393.045 239.714 391.707C243.143 390.023 245.46 390.296 244.551 391.797V391.797Z" fill="#5D6C7B" fill-opacity="0.47"/>
</svg>
