<svg width="277" height="267" viewBox="0 0 277 267" fill="none" xmlns="http://www.w3.org/2000/svg">
<path d="M121.259 266.163C120.519 265.361 120.004 264.374 119.769 263.305C119.533 262.236 119.585 261.123 119.917 260.08C120.291 259.158 120.902 258.355 121.689 257.752C122.476 257.15 123.409 256.772 124.391 256.656C125.372 256.541 126.367 256.692 127.27 257.096C128.174 257.5 128.954 258.141 129.528 258.952C131.351 262.077 126.782 266.999 123.339 266.999C122.954 267.01 122.572 266.942 122.214 266.798C121.856 266.654 121.531 266.438 121.259 266.163ZM152.818 263.348C151.254 261.311 152.594 260.876 158.184 261.548C167.351 262.677 168.023 263.349 160.42 264.701C159.594 264.878 158.751 264.967 157.906 264.966C156.067 265.118 154.244 264.538 152.826 263.348H152.818ZM136.12 263.575C133.88 262.899 135.223 262.447 138.8 262.447C142.603 262.447 144.167 262.899 142.842 263.575C141.798 263.823 140.728 263.937 139.656 263.913C138.468 263.925 137.281 263.811 136.116 263.575H136.12ZM176.911 261.771C171.544 261.771 171.321 261.547 175.342 259.734C181.603 257.029 185.851 257.029 184.286 259.734C182.47 261.242 180.14 261.973 177.795 261.771C177.48 261.799 177.202 261.791 176.907 261.771H176.911ZM108.458 258.634C106.894 255.929 108.902 255.929 115.162 258.634C119.41 260.435 119.411 260.671 114.718 260.671C114.48 260.691 114.242 260.701 114.004 260.701C112.988 260.759 111.97 260.606 111.016 260.251C110.062 259.896 109.192 259.344 108.458 258.634V258.634ZM212.333 247.356C213.671 243.975 214.116 243.975 215.911 246.905C217.932 250.73 216.132 257.498 213 257.498C210.534 257.494 210.312 252.759 212.325 247.356H212.333ZM190.136 254.792C189.243 253.44 189.465 252.988 190.584 253.664C191.478 254 192.443 254.093 193.385 253.935C194.326 253.777 195.21 253.373 195.948 252.763C201.316 249.606 204.217 250.51 199.524 254.116C197.807 255.764 195.657 256.881 193.329 257.335C192.032 257.335 191.078 256.487 190.132 254.792H190.136ZM97.5364 253.887C93.7371 250.734 93.7364 250.511 97.3134 251.639C99.3499 252.301 101.449 252.753 103.576 252.988C103.858 252.994 104.136 253.057 104.393 253.175C104.65 253.293 104.88 253.465 105.07 253.676C105.259 253.888 105.403 254.135 105.494 254.404C105.584 254.674 105.62 254.96 105.596 255.244C105.596 256.621 105.043 257.315 103.98 257.315C101.554 256.805 99.3187 255.615 97.5325 253.883L97.5364 253.887ZM223.999 252.988C221.537 251.635 219.532 249.381 219.532 248.029C219.532 246.452 220.648 246.681 222.883 248.482C225.79 250.963 226.016 250.734 224.904 247.356C223.789 244.423 224.01 243.751 225.796 244.876C226.683 245.609 227.389 246.542 227.855 247.599C228.321 248.656 228.534 249.808 228.48 250.963C228.48 253.253 228.238 254.255 227.235 254.255C226.08 254.059 224.978 253.627 223.995 252.984L223.999 252.988ZM77.1772 241.726C77.1772 240.598 79.6358 240.826 82.7683 242.174C85.9007 243.523 87.904 245.109 87.4594 245.781C87.0752 246.087 86.5894 246.233 86.1016 246.189C83.1511 246.164 77.1732 243.405 77.1732 241.723L77.1772 241.726ZM206.319 241.502C203.862 239.921 204.084 239.246 208.34 238.122C209.647 237.829 210.827 237.125 211.711 236.113C212.595 235.1 213.136 233.829 213.258 232.486C213.258 230.013 214.371 228.205 215.494 228.205C219.071 228.205 218.179 233.839 213.708 239.021C211.736 241.156 210.179 242.282 208.615 242.282C207.789 242.253 206.99 241.979 206.315 241.498L206.319 241.502ZM41.6214 238.193C32.026 233.032 28.8581 227.927 27.9446 215.171C27.7502 209.614 29.0248 204.104 31.6411 199.209C35.2788 192.026 37.4904 189.92 43.6502 187.752C45.267 187.28 47.3363 186.721 49.046 186.236C45.0041 188.734 41.7708 192.555 43.3108 196.161C44.4829 198.846 45.5856 198.023 49.5749 192.417C51.2089 189.788 53.1347 187.355 55.312 185.162C58.1202 185.494 60.8821 186.133 63.5517 187.072L71.144 189.35L66.0265 199.477C61.3201 209.168 59.065 219.883 59.4624 230.666C59.6282 233.066 58.8799 234.544 57.9665 234.072C55.0442 232.572 58.9806 208.849 63.6247 199.181C67.8121 190.894 67.8199 189.969 64.3075 193.269C57.8406 198.765 54.3929 206.966 54.0332 218.145C53.8787 223.339 52.913 228.477 51.1715 233.367C48.2856 239.071 49.4662 240.379 55.6179 239.136C66.2682 237.185 86.1343 204.709 76.3206 205.467C74.6675 205.549 74.6721 205.084 75.9614 204.355C77.0649 203.54 76.9033 201.129 75.4523 198.994C72.9099 195.368 72.5424 195.644 68.5369 204.025C64.5274 212.862 64.527 212.861 68.973 207.26C73.4191 201.658 73.5968 201.748 69.2316 209.02C66.8065 213.343 65.6953 216.48 66.6087 216.484C67.8213 216.403 67.0562 217.873 65.395 219.8C62.4363 223.381 62.255 223.288 62.7603 216.826C63.5795 211.402 65.1627 206.122 67.4613 201.148C71.7457 192.674 72.1132 192.405 75.3871 195.477C86.5871 206.098 84.2314 226.693 71.2328 236.019C66.5661 239.676 60.8704 241.752 54.9627 241.951C50.2741 241.832 45.6891 240.54 41.6175 238.193H41.6214ZM74.651 222.915C71.7719 227.699 68.4869 232.222 64.8305 236.431C63.2542 238.171 65.3722 236.707 69.798 233.415C74.6874 230.368 78.2083 225.523 79.6185 219.906C80.4268 216.618 80.883 214.833 80.4829 214.833C78.2046 217.266 76.2439 219.982 74.647 222.915H74.651ZM54.118 197.53C50.7065 202.001 48.8307 207.47 48.7716 213.11C48.7429 218.619 48.2719 224.117 47.3645 229.55C46.5036 234.439 46.6696 236.85 47.6882 235.285C49.7839 229.131 51.1576 222.751 51.7794 216.275C53.4325 203.442 54.7459 199.483 58.4401 196.272C64.1634 190.866 64.1629 190.866 60.1453 188.805C56.3055 186.833 52.7115 189.395 48.896 196.953C47.4045 199.898 45.5549 202.191 44.4515 202.089C42.8914 201.987 40.7034 212.226 41.3056 217.873C41.1352 220 40.2079 221.993 38.6946 223.486C36.3827 225.776 36.5655 225.874 39.3301 224.505C41.9088 223.05 42.3574 223.98 40.8498 229.236C39.904 232.923 39.8864 235.697 41.0747 235.611C43.7383 235.359 45.9979 227.236 46.4586 214.952C47.0851 204.604 50.2619 196.957 55.9771 192.471C56.3418 192.09 56.7913 191.801 57.2876 191.627C57.8413 191.619 56.7938 193.529 54.1141 197.526L54.118 197.53ZM32.7364 224.354C31.8957 226.012 31.9769 227.671 32.8904 228.147C33.8038 228.624 35.3726 226.873 36.4033 224.384C37.6159 221.988 37.7173 219.958 36.8079 219.945C35.7934 220.125 36.1693 218.928 37.6486 217.363C39.128 215.799 37.9389 215.888 34.9843 217.624C32.0297 219.359 30.7519 219.624 32.2312 218.064C32.8871 216.906 33.268 215.612 33.3423 214.282C33.4167 212.951 33.1843 211.621 32.6614 210.397C30.592 204.929 29.217 204.913 31.0076 210.478C31.6381 212.422 31.536 213.529 30.8004 213.154C30.0647 212.779 29.4191 214.527 29.4919 217.119C29.5646 219.71 30.5553 221.841 31.9174 221.853C32.0224 221.831 32.1299 221.821 32.2371 221.821C33.2516 221.817 33.4114 223.009 32.7364 224.354V224.354ZM38.5545 194.174C37.3303 194.879 36.2584 195.823 35.4027 196.953C34.5471 198.082 33.9236 199.372 33.5712 200.748C33.2189 202.124 33.1437 203.558 33.3502 204.964C33.5568 206.37 34.0422 207.72 34.7751 208.935C36.3919 212.084 38.1289 213.673 38.6907 212.573C40.0619 207.777 39.9096 202.666 38.2545 197.961C37.4461 196.385 37.7207 195.839 39.3617 196.678C40.6389 197.334 41.6531 196.679 41.4793 195.216C41.4793 194.084 41.1158 193.537 40.3761 193.537C39.7265 193.598 39.1023 193.817 38.5545 194.174V194.174ZM219.491 236.988C219.491 234.735 222.172 234.511 227.087 236.312C229.108 236.988 230.215 238.564 229.544 239.469C229.192 239.842 228.756 240.125 228.273 240.294C227.79 240.463 227.273 240.513 226.767 240.439C223.748 240.439 219.487 238.878 219.487 236.988H219.491ZM226.823 233.61C226.152 233.158 227.716 231.129 230.178 229.536C232.409 227.739 234.87 226.836 235.319 227.284C235.986 227.736 234.425 229.765 231.964 231.358C230.62 232.558 228.984 233.375 227.223 233.725C227.08 233.742 226.935 233.701 226.819 233.614L226.823 233.61ZM245.149 213.786C246.269 212.21 247.833 211.533 248.504 212.209C249.175 212.885 247.385 215.816 244.709 218.521C243.007 220.077 241.924 220.803 241.443 220.803C240.533 220.803 241.782 218.215 245.149 213.79V213.786ZM249.321 213.056C247.555 212.775 249.107 208.685 251.52 207.707C252.951 207.251 253.03 208.175 252.088 209.846C251.134 211.695 249.83 213.06 249.353 213.06L249.321 213.056ZM257 196.121C258.087 194.209 259.529 192.524 261.248 191.162C263.034 191.162 259.457 200.171 256.55 202.652C255.882 203.308 255.041 203.756 254.127 203.943C252.712 203.951 253.702 200.77 256.997 196.125L257 196.121ZM263.924 180.672C264.595 177.967 266.159 175.713 267.279 175.713C269.065 175.713 267.728 184.268 265.489 186.75C265.22 187.081 264.835 187.296 264.413 187.348C263.209 187.357 262.857 184.445 263.92 180.676L263.924 180.672ZM33.0601 184.746C31.8203 182.693 31.0574 180.383 30.826 177.991C30.826 175.061 31.0473 175.061 33.0601 177.991C34.3005 180.044 35.0655 182.354 35.2961 184.746C35.2961 186.209 35.2402 186.943 34.933 186.943C34.6258 186.943 34.0626 186.197 33.0561 184.734L33.0601 184.746ZM51.0057 185.154C53.7744 184.816 51.8995 185.418 49.046 186.228C49.6805 185.837 50.3389 185.476 51.0018 185.154H51.0057ZM269.594 166.071C270.253 161.842 270.977 160.131 271.325 162.241C271.364 164.888 270.953 167.521 270.111 170.029C269.828 170.628 269.611 170.911 269.458 170.911C269.062 170.915 269.113 169.085 269.59 166.071H269.594ZM26.3598 165.072C26.1337 163.15 25.6832 161.262 25.0178 159.446C24.3469 157.409 24.568 155.84 25.9099 155.84C27.0254 155.84 28.5953 158.316 29.0399 161.465C29.7109 164.623 29.2662 167.101 28.3689 167.101C27.8364 167.099 27.3249 166.885 26.948 166.506C26.5711 166.127 26.3591 165.613 26.3559 165.076L26.3598 165.072ZM273.318 158.012C272.994 155.485 273.197 152.918 273.912 150.474C274.72 147.712 275.846 146.285 276.335 147.536C276.656 150.062 276.451 152.628 275.734 155.07C275.119 157.143 274.336 158.467 273.774 158.467C273.612 158.471 273.447 158.325 273.326 158.016L273.318 158.012ZM22.4068 151.493C21.2073 149.585 20.4418 147.433 20.1668 145.191C20.158 144.544 20.3797 143.916 20.7904 143.42C21.2012 142.924 21.7745 142.592 22.4068 142.485C23.7447 142.485 24.6409 145.191 24.6409 148.573C24.6409 151.64 24.4724 153.052 23.9146 153.052C23.5832 153.065 23.0816 152.528 22.4147 151.497L22.4068 151.493ZM274.322 140.44C274.302 138.301 274.994 136.866 275.641 137.363C276.49 137.77 276.72 139.132 276.308 140.701C275.952 142.677 275.414 143.651 274.986 143.651C274.557 143.651 274.207 142.567 274.332 140.444L274.322 140.44ZM13.3402 139.29C11.8084 139.482 12.2571 134.601 14.6823 132.153C22.3618 124.412 20.7449 118.548 9.80361 121.4C-3.53452 124.66 -3.12994 119.772 10.2082 114.883C19.1003 111.217 22.0911 108.364 18.0452 103.475C17.0899 102.137 16.4642 100.591 16.2216 98.9608C15.9791 97.331 16.1259 95.666 16.6499 94.1049C19.075 94.1049 21.4371 100.178 22.6456 102.219C24.2623 104.664 26.635 109.96 31.4852 108.331C37.548 106.399 46.5518 103.365 42.9141 106.506C41.9416 108.561 40.474 110.336 38.6433 111.669C36.4245 112.65 34.6447 114.425 33.6502 116.652C32.6556 118.879 32.5169 121.399 33.2594 123.724C33.2594 123.724 38.747 135.253 37.102 136.161C35.4569 137.07 30.1385 129.347 28.1499 128.544C23.7038 126.914 25.1707 129.533 21.9331 134.019C19.3908 137.225 16.5304 139.897 14.6388 139.897C14.392 139.904 14.1462 139.853 13.9224 139.748C13.6987 139.643 13.5016 139.485 13.3481 139.29H13.3402ZM273.681 131.068C273.277 128.31 273.955 126.339 275.236 126.551C276.517 126.763 277.257 129.135 276.918 131.938C276.671 135.042 276.111 136.569 275.52 136.569C274.866 136.569 274.138 134.711 273.677 131.068H273.681ZM270.395 116.944C270.052 114.77 270.121 112.55 270.6 110.401C271.991 109.269 274.836 118.549 274.129 122.306C273.725 124.155 273.196 125.003 272.675 125.003C271.696 125.003 270.706 121.996 270.403 116.936L270.395 116.944ZM265.887 95.1592C265.887 90.4292 266.337 89.7525 268.123 92.4577C271.03 96.9596 271.03 101.467 268.123 101.467C267.016 101.455 265.895 98.7648 265.895 95.1592H265.887ZM30.2241 97.7951C28.8862 97.7014 28.7723 96.1129 29.5807 94.1287C30.3676 92.3613 30.9459 90.5074 31.3056 88.6044C31.346 88.0688 31.5956 87.5716 31.9983 87.2198C32.401 86.8681 32.9251 86.6906 33.4568 86.7265C34.35 86.7917 34.6244 89.2936 33.7311 92.3941C33.0804 95.4578 31.3949 97.7951 30.2793 97.7951H30.2241ZM35.7323 79.7221C37.0742 76.5728 38.6394 74.5454 39.3104 74.9895C40.8746 76.5702 37.2894 85.3539 35.2685 85.3539C34.1813 85.3579 34.3983 82.8755 35.7402 79.7221H35.7323ZM261.232 82.2048C259.66 80.2111 258.517 77.9084 257.877 75.445C257.877 74.0924 259.441 74.9924 261.232 77.2454C262.802 79.2414 263.945 81.545 264.587 84.0091C264.587 84.4409 264.426 84.6437 264.151 84.6437C263.573 84.6437 262.456 83.7365 261.24 82.2087L261.232 82.2048ZM250.723 66.4175C249.154 63.9363 248.933 61.9157 250.275 61.9157C251.394 61.9157 253.399 63.9526 254.741 66.4175C256.083 68.8823 256.305 70.9233 255.412 70.9233C254.312 70.9233 252.307 68.8946 250.738 66.4175H250.723ZM45.5547 62.2578C46.2257 60.2208 47.7942 58.6512 48.9098 58.6512C50.2517 58.6512 50.0287 60.6888 48.6868 63.3818C47.3651 65.8263 46.1364 66.9944 45.4008 66.9944C44.5318 66.9944 44.3538 65.3337 45.5745 62.2618L45.5547 62.2578ZM230.126 31.8729C232.882 28.8525 236.641 26.957 240.691 26.5475C246.265 26.5475 246.265 26.8414 241.867 31.8729C234.232 40.449 235.704 46.9462 246.564 51.6925L255.956 55.8363L248.621 58.496C246.386 59.3433 244.02 59.786 241.632 59.801C238.39 59.8769 235.201 58.9613 232.483 57.1771C229.765 55.3929 227.647 52.8227 226.404 49.8027C225.162 46.7827 224.854 43.4552 225.522 40.2559C226.19 37.0567 227.802 34.1361 230.146 31.8769L230.126 31.8729ZM228.072 42.8162C227.917 46.0448 228.981 49.211 231.05 51.6806C233.119 54.1502 236.041 55.7381 239.225 56.1247C242.159 56.1247 241.867 54.9437 238.342 51.0977C236.725 49.3299 235.538 47.2073 234.877 44.897C234.215 42.5867 234.098 40.1517 234.531 37.7872C235.238 35.0856 235.535 32.2929 235.412 29.5016C232.784 29.5098 228.088 38.086 228.088 42.8202L228.072 42.8162ZM68.7777 41.6385C63.6647 30.8502 63.8969 24.7496 69.7131 14.2057C74.9676 4.79043 85.4146 -1.83277 88.7087 0.90912C89.9859 0.701339 92.0839 0.419636 95.3497 0C95.3497 1.17335 102.515 2.94636 106.242 5.06084C113.683 9.28164 122.997 25.6961 120.665 30.6177C111.825 50.5565 109.751 52.8943 98.8015 55.0087C96.3161 55.5297 93.7852 55.8034 91.2467 55.8244C86.5201 56.028 81.8432 54.7817 77.8344 52.2495C73.8255 49.7174 70.6748 46.0187 68.7954 41.6425L68.7777 41.6385ZM79.7191 6.46132C75.3298 10.4288 71.974 15.4232 69.946 21.0033C68.0476 26.4558 68.1554 32.4133 70.248 37.7931C72.3406 43.173 76.2802 47.617 81.3493 50.3159C100.888 60.8679 123.452 39.2913 114.148 18.6559C113.01 15.7884 111.282 13.1976 109.076 11.0547C106.87 8.91172 104.236 7.26448 101.351 6.22459C96.8366 4.27715 90.144 4.73048 89.6994 3.88714C89.3842 5.5616 85.7622 5.92422 85.7622 4.82013C85.7622 4.33123 85.4263 4.098 84.8523 4.098C82.9706 4.42232 81.2078 5.23872 79.7369 6.4653L79.7191 6.46132ZM89.7192 3.65041C89.8378 3.48899 89.8937 3.28944 89.8751 3.08942C89.8564 2.88939 89.7649 2.70253 89.6185 2.56623C89.6961 2.93043 89.7346 3.30176 89.7349 3.67428L89.7192 3.65041ZM54.1022 52.3609C53.4313 51.4606 54.5511 48.7547 56.7863 46.2776C61.0343 41.5475 62.3675 40.8722 62.3675 43.3493C62.1654 46.4334 56.7374 52.528 54.6114 52.528C54.4331 52.5341 54.2582 52.4762 54.118 52.3649L54.1022 52.3609ZM91.1697 49.379C90.4745 48.2015 91.4043 47.0276 93.2676 47.0276C97.451 47.0276 98.1558 48.4342 94.886 50.5487C94.529 50.7623 94.1209 50.872 93.7058 50.869C93.1985 50.8448 92.7035 50.6975 92.2651 50.4393C91.8266 50.181 91.4575 49.8205 91.1875 49.3869L91.1697 49.379ZM83.2518 42.5178C82.9244 41.7722 83.1443 41.2963 83.6899 41.2963C83.8501 41.293 84.009 41.3216 84.1577 41.3819C84.3063 41.4421 84.4411 41.5323 84.5543 41.6465C84.6676 41.7606 84.7571 41.8965 84.8168 42.0463C84.8766 42.1961 84.905 42.3564 84.9017 42.5178C84.9017 43.137 84.6799 43.7392 84.4576 43.7392C84.1505 43.7677 83.605 43.145 83.2696 42.5257L83.2518 42.5178ZM100.228 42.3387C99.9131 41.7073 100.124 41.2784 100.633 41.2784C100.779 41.2673 100.926 41.2863 101.065 41.3341C101.204 41.382 101.331 41.4579 101.44 41.5569C101.549 41.656 101.635 41.7768 101.697 41.911C101.758 42.0453 101.793 42.191 101.797 42.3387C101.797 42.8725 101.587 43.405 101.393 43.405C101.09 43.4091 100.567 42.8763 100.252 42.3467L100.228 42.3387ZM92.3914 42.1637C92.1529 41.63 92.3109 41.2784 92.7111 41.2784C92.8261 41.2761 92.94 41.2983 93.0466 41.3421C93.1531 41.3859 93.2502 41.4523 93.3308 41.5351C93.4114 41.6178 93.4728 41.7153 93.5143 41.8235C93.5558 41.9317 93.576 42.0478 93.5716 42.1637C93.5716 42.6037 93.4133 43.0469 93.2597 43.0469C93.0415 43.051 92.6536 42.6116 92.4111 42.1716L92.3914 42.1637ZM75.9654 32.2588C78.2935 29.6758 78.757 30.3849 78.2922 35.3065C78.0538 37.8895 77.1259 39.9953 76.1963 39.9953C73.8924 40.0035 73.6611 34.3731 75.9851 32.2668L75.9654 32.2588ZM104.88 34.1328C104.189 32.2546 104.645 30.6137 105.814 30.6137C108.837 30.6137 110.936 34.8379 108.373 36.2435C108.13 36.3934 107.85 36.4742 107.564 36.4762C106.626 36.4844 105.623 35.5911 104.9 34.1407L104.88 34.1328ZM92.0065 35.1235C91.7721 34.5979 91.9302 34.2382 92.3223 34.2382C92.4372 34.2365 92.5515 34.2598 92.6578 34.3039C92.7641 34.3479 92.8595 34.4122 92.94 34.4948C93.0205 34.5775 93.0838 34.6754 93.1255 34.7833C93.1672 34.8912 93.1866 35.0077 93.1828 35.1235C93.1828 35.5635 93.0305 36.0067 92.8729 36.0067C92.6627 36.0149 92.2667 35.5714 92.0282 35.1314L92.0065 35.1235ZM95.6892 32.9591C94.994 31.5535 95.4627 30.6097 96.6227 30.6097C96.9455 30.587 97.2703 30.6298 97.5759 30.737C97.8816 30.8442 98.1617 31.0126 98.4009 31.2324C98.64 31.4521 98.8332 31.7193 98.9673 32.0161C99.1014 32.313 99.175 32.633 99.1824 32.9591C99.1824 34.1324 98.7177 35.3025 98.2529 35.3025C97.5738 35.3107 96.4082 34.1424 95.7089 32.969L95.6892 32.9591ZM87.4042 30.9877C88.5278 29.7654 88.7494 30.0845 88.5271 32.4598C88.4099 33.682 87.9653 34.7157 87.5167 34.7157C86.4173 34.7238 86.3084 32.0142 87.4239 30.9956L87.4042 30.9877ZM218.283 31.9127C216.297 31.165 214.531 29.9259 213.146 28.3081C213.146 25.8351 217.187 27.4059 220.069 31.0115C221.633 32.8286 222.293 33.6693 221.869 33.6693C220.615 33.2338 219.417 32.6461 218.303 31.9207L218.283 31.9127ZM82.8808 25.7697C83.6891 24.8734 83.8476 25.117 83.6899 26.824C83.6091 27.7163 83.2849 28.4533 82.9656 28.4533C82.1613 28.4573 82.0921 26.4906 82.9005 25.7776L82.8808 25.7697ZM78.4146 23.8102C79.6271 22.4454 79.8891 22.8198 79.6264 25.4394C79.5051 26.8002 79.0122 27.9122 78.5231 27.9122C77.3106 27.904 77.1897 24.9304 78.4225 23.8182L78.4146 23.8102ZM91.898 25.5568C91.898 25.2118 92.0332 24.8821 92.2749 24.6378C92.5166 24.3934 92.8444 24.2549 93.1867 24.2538C93.3593 24.2424 93.534 24.2679 93.6959 24.3294C93.8577 24.3909 94.004 24.4864 94.1261 24.6099C94.2483 24.7334 94.3419 24.8822 94.4024 25.0456C94.463 25.2089 94.4893 25.3829 94.4774 25.5568C94.4764 25.9012 94.3401 26.2324 94.0985 26.4759C93.8569 26.7194 93.5283 26.8568 93.1867 26.8578C92.8543 26.8332 92.5418 26.688 92.3065 26.45C92.0712 26.2121 91.9293 25.8959 91.9059 25.5608L91.898 25.5568ZM205.344 22.6246C203.109 20.8238 202.216 19.2467 203.558 19.2467C206.002 19.8916 208.286 21.0422 210.264 22.6246C212.5 24.4294 213.389 26.0044 212.047 26.0044C209.613 25.3559 207.34 24.2074 205.37 22.6285L205.344 22.6246ZM107.128 24.9222C106.877 24.25 107.043 23.663 107.463 23.663C108.543 23.663 109.287 25.1711 108.373 25.6722C108.287 25.7253 108.186 25.7536 108.085 25.7538C107.75 25.7619 107.394 25.4476 107.152 24.9302L107.128 24.9222ZM97.9213 21.23C97.9213 20.7978 98.0918 20.3838 98.3949 20.0782C98.6981 19.7726 99.1089 19.6008 99.5376 19.6008C99.7538 19.5857 99.9702 19.6177 100.173 19.6943C100.376 19.7709 100.561 19.89 100.714 20.0444C100.867 20.1989 100.985 20.3849 101.061 20.5895C101.137 20.794 101.169 21.0121 101.154 21.23C101.154 21.6623 100.984 22.0762 100.68 22.3819C100.377 22.6875 99.9664 22.8593 99.5376 22.8593C99.12 22.8316 98.7264 22.6523 98.4305 22.354C98.1345 22.0557 97.9567 21.6589 97.9292 21.238L97.9213 21.23ZM82.3025 21.23C82.3046 20.9397 82.4198 20.6627 82.6242 20.4582C82.8286 20.2537 83.1058 20.1379 83.3939 20.1379C83.5386 20.129 83.6845 20.1519 83.8202 20.2036C83.9558 20.2552 84.0786 20.3351 84.1813 20.4383C84.2841 20.5414 84.3644 20.6658 84.4162 20.8023C84.468 20.9389 84.4896 21.0841 84.4813 21.23C84.4813 21.5211 84.3674 21.8017 84.1636 22.0079C83.9598 22.214 83.6826 22.3291 83.3939 22.3301C83.1134 22.3094 82.8507 22.1884 82.6518 21.988C82.453 21.7875 82.331 21.5207 82.3104 21.238L82.3025 21.23ZM196.465 18.3793C194.497 17.6012 193.433 16.4157 194.129 16.0001C194.832 15.3646 196.151 15.6571 197.452 16.6268C199.792 18.122 200.216 19.2049 199.1 19.2049C198.181 19.1102 197.29 18.8345 196.477 18.3913L196.465 18.3793ZM90.0626 14.1978C90.0636 13.575 90.3101 12.9787 90.7474 12.5387C91.1846 12.0987 91.7775 11.8524 92.3953 11.8524C92.7056 11.8339 93.0166 11.8822 93.3071 11.9936C93.5976 12.1051 93.8611 12.2772 94.0807 12.4989C94.3004 12.7207 94.47 12.9857 94.58 13.2787C94.6901 13.5718 94.739 13.885 94.7202 14.1978C94.718 14.8184 94.4707 15.414 94.0353 15.8529C93.6 16.2918 93.011 16.5391 92.3953 16.5412C91.7946 16.4997 91.2296 16.2412 90.8026 15.8131C90.3757 15.385 90.1148 14.817 90.0705 14.2117L90.0626 14.1978ZM187.711 15.4212C185.031 14.7408 183.47 13.3846 184.133 12.2642C184.795 11.1438 187.266 11.3631 189.724 12.7157C193.838 14.7895 194.48 16.1831 192.123 16.1831C190.63 16.1094 189.152 15.8548 187.718 15.4252L187.711 15.4212ZM83.3623 14.1978C83.3618 14.0867 83.3817 13.9783 83.4235 13.8755C83.4653 13.7727 83.5273 13.6777 83.6051 13.599C83.6828 13.5203 83.7756 13.4586 83.8774 13.416C83.9792 13.3734 84.0889 13.3503 84.1991 13.3503C84.3107 13.3457 84.4207 13.3651 84.5247 13.406C84.6288 13.447 84.724 13.5094 84.803 13.5891C84.882 13.6687 84.9439 13.7647 84.9846 13.8696C85.0252 13.9744 85.0444 14.0853 85.0398 14.1978C85.0377 14.4215 84.9485 14.6368 84.7912 14.7946C84.6338 14.9524 84.421 15.0402 84.1991 15.0413C83.9855 15.0246 83.7845 14.933 83.6327 14.7807C83.4809 14.6284 83.3878 14.4269 83.3702 14.2117L83.3623 14.1978ZM119.621 9.31003C118.95 7.95742 121.185 6.83332 124.985 6.83332C128.562 6.83332 131.452 7.50786 131.452 8.18009C131.452 9.80974 127.575 10.7642 124.245 10.7642C122.001 10.7887 119.988 10.3401 119.629 9.33788L119.621 9.31003ZM133.893 7.95729C134.039 7.5667 134.262 7.20999 134.549 6.90892C134.835 6.60784 135.178 6.36743 135.559 6.2047C135.94 6.04196 136.351 5.95999 136.765 5.962C137.179 5.964 137.587 6.05022 137.967 6.21663C139.418 6.80738 140.578 7.52074 140.493 7.72852C139.343 8.60011 138.026 9.2226 136.625 9.55471C135.994 9.76907 135.338 9.89436 134.673 9.92871C133.578 9.95723 133.376 9.29701 133.901 7.98514L133.893 7.95729ZM166.305 9.53283C164.066 8.85653 165.412 8.41284 168.985 8.41284C172.789 8.41284 174.353 8.85653 173.027 9.53283C171.984 9.78219 170.914 9.89586 169.842 9.87102C168.658 9.89229 167.475 9.7898 166.313 9.56267L166.305 9.53283ZM144.006 7.49577C144.006 6.59131 146.69 5.69145 150.045 5.69145C153.174 5.69145 155.181 6.3686 154.292 7.26898C152.442 8.56679 150.214 9.20291 147.963 9.07728C145.825 9.11802 144.014 8.60904 144.014 7.53754L144.006 7.49577Z" fill="#5D6C7B" fill-opacity="0.47"/>
</svg>
