<svg width="289" height="285" viewBox="0 0 289 285" fill="none" xmlns="http://www.w3.org/2000/svg">
<path d="M84.8601 283.9C82.8159 282.513 88.6256 271.687 88.3731 268.877C87.8521 264.661 86.6772 264.837 83.7152 265.022C81.9047 265.164 80.0839 265.099 78.2881 264.829C71.6105 263.45 67.0643 260.392 68.4712 257.286C69.3971 254.42 74.1517 253.197 78.4525 254.592C92.0602 259.001 95.5948 254.224 85.7467 243.105C73.9747 229.385 79.9072 226.956 93.5791 239.714C103.167 247.975 108.261 249.791 111.532 242.147C112.518 240.238 113.944 238.59 115.693 237.34C117.441 236.091 119.461 235.275 121.587 234.961C123.038 237.806 117.375 244.179 115.728 246.808C113.848 250.159 109.09 256.079 113.888 260.805C119.764 266.781 128.67 275.539 122.842 273.13C119.871 273.208 116.929 272.537 114.285 271.178C111.818 269.161 108.689 268.13 105.506 268.285C102.322 268.439 99.3093 269.769 97.049 272.016C97.049 272.016 87.8992 284.004 85.2378 284.004C85.1043 284.01 84.9713 283.974 84.8601 283.9V283.9ZM140.722 278.112C138.562 277.31 139.377 276.509 142.327 276.509C145.293 276.236 146.912 277.046 145.834 277.851C145.075 278.408 144.142 278.677 143.204 278.609C142.351 278.61 141.505 278.441 140.718 278.112H140.722ZM149.414 275.395C150.215 273.791 151.573 272.701 152.379 272.701C152.916 272.701 153.457 273.779 153.457 275.395C153.392 276.134 153.05 276.822 152.5 277.321C151.95 277.82 151.232 278.094 150.49 278.088C149.139 278.088 148.602 276.757 149.408 275.395H149.414ZM124.517 271.387C123.797 269.166 123.886 266.761 124.77 264.6C125.447 263.947 126.081 265.955 126.157 269.01C126.085 273.27 126.99 274.749 129.52 274.929C132.037 275.37 132.032 275.639 129.619 276.661C128.798 277.072 127.914 277.344 127.003 277.463C125.672 277.467 125.347 275.956 124.513 271.387H124.517ZM138.659 270.276L145.946 265.037L141.135 270.957C138.329 274.34 135.26 277.202 133.921 277.274C133.753 277.274 133.592 277.274 133.444 277.274C130.257 277.282 131.705 275.278 138.655 270.272L138.659 270.276ZM168.319 275.002C165.474 273.687 163.133 271.924 162.976 270.805C162.844 269.871 164.839 270.544 167.364 272.28C170.767 274.841 172.495 274.982 174.126 273.042C175.966 271.258 176.183 271.439 175.59 273.976C175.069 276.096 174.789 277.086 173.658 277.086C171.768 276.695 169.957 275.989 168.3 274.998L168.319 275.002ZM146.554 274.172C146.282 271.206 147.091 269.595 147.897 270.669C148.358 271.434 148.626 272.301 148.674 273.194C148.721 274.086 148.549 274.977 148.171 275.787C147.858 276.617 147.549 276.99 147.284 276.99C146.839 277.006 146.515 275.996 146.515 274.168L146.554 274.172ZM129.889 270.332C129.884 269.589 130.157 268.871 130.657 268.321C131.157 267.772 131.846 267.431 132.586 267.366C134.19 267.366 135.279 267.907 135.279 268.448C135.279 269.25 134.202 270.601 132.586 271.411C132.211 271.648 131.779 271.779 131.336 271.791C131.141 271.805 130.947 271.776 130.764 271.708C130.582 271.641 130.416 271.535 130.277 271.398C130.138 271.261 130.03 271.097 129.96 270.915C129.89 270.733 129.857 270.539 129.868 270.344L129.889 270.332ZM171.005 270.91C170.618 270.274 170.486 269.517 170.635 268.788C170.783 268.059 171.202 267.414 171.807 266.982C173.19 266.148 174.396 266.055 174.668 266.516C174.846 267.189 174.866 267.893 174.727 268.574C174.588 269.255 174.293 269.895 173.866 270.444C173.722 270.777 173.492 271.064 173.198 271.275C172.905 271.487 172.559 271.616 172.198 271.647C171.945 271.648 171.696 271.581 171.478 271.451C171.261 271.321 171.084 271.134 170.965 270.91H171.005ZM184.333 269.01C186.737 267.254 188.537 267.11 188.031 268.36C187.613 269.151 187.006 269.826 186.264 270.327C185.523 270.827 184.669 271.137 183.779 271.23C183.508 271.284 183.233 271.313 182.957 271.318C181.622 271.314 182.135 270.312 184.311 269.01H184.333ZM179.923 266.156L171.2 265.799L178.436 264.159C181.448 263.196 184.658 263.025 187.756 263.663C190.281 265.43 189.186 266.244 183.603 266.244C182.515 266.241 181.274 266.212 179.882 266.156H179.923ZM189.996 263.791C189.881 263.105 189.923 262.402 190.124 261.736C190.324 261.07 190.674 260.459 191.149 259.951C191.614 259.675 192.625 260.32 193.462 261.707C193.788 262.374 193.851 263.14 193.637 263.851C193.423 264.562 192.948 265.166 192.308 265.543C192.068 265.695 191.792 265.778 191.507 265.783C190.63 265.783 189.955 264.989 189.955 263.787L189.996 263.791ZM202.534 260.011C199.688 258.701 197.347 256.937 197.191 255.819C197.059 254.885 199.054 255.554 201.579 257.29C204.982 259.855 206.709 259.991 208.34 258.051C210.18 256.272 210.398 256.448 209.804 258.989C209.283 261.11 209.003 262.095 207.873 262.095C205.975 261.708 204.156 261.003 202.493 260.011H202.534ZM214.895 255.787C215.556 252.885 216.822 251.594 217.259 252.873C217.46 253.745 217.444 254.652 217.212 255.516C216.98 256.38 216.539 257.173 215.928 257.827C215.439 258.44 215.059 258.725 214.803 258.725C214.254 258.721 214.253 257.646 214.854 255.783L214.895 255.787ZM58.2981 254.584C56.1457 253.234 55.6088 251.891 56.9555 251.891C59.3719 252.284 61.6728 253.203 63.6939 254.584C65.8543 255.935 66.6597 257.278 65.0404 257.278C62.6222 256.839 60.3174 255.917 58.2629 254.568L58.2981 254.584ZM207.495 256.139C207.108 255.504 206.976 254.746 207.125 254.018C207.274 253.289 207.693 252.644 208.297 252.211C209.68 251.378 210.886 251.282 211.163 251.747C211.34 252.419 211.36 253.123 211.221 253.804C211.082 254.485 210.787 255.125 210.36 255.674C210.217 256.007 209.986 256.294 209.693 256.506C209.399 256.717 209.053 256.845 208.693 256.877C208.434 256.88 208.181 256.811 207.959 256.678C207.737 256.544 207.556 256.35 207.438 256.119L207.495 256.139ZM219.837 253.294C222.242 251.538 224.041 251.394 223.532 252.644C223.113 253.435 222.507 254.11 221.766 254.61C221.025 255.111 220.172 255.421 219.283 255.514C219.011 255.568 218.734 255.598 218.457 255.602C217.106 255.578 217.623 254.58 219.799 253.274L219.837 253.294ZM65.469 249.326C65.8096 248.306 65.8106 247.202 65.4709 246.182C65.1313 245.161 64.4703 244.279 63.5862 243.666C60.3516 241.51 60.6198 241.241 63.8544 242.315C65.1855 242.667 66.3562 243.465 67.1697 244.576C67.3982 243.373 67.9226 242.925 68.4477 243.626C68.8768 244.322 69.1398 245.108 69.2149 245.922C69.29 246.736 69.1748 247.557 68.8802 248.32C69.281 250.436 68.6396 252.283 66.5473 252.283C64.896 252.267 64.3475 250.925 65.4337 249.306L65.469 249.326ZM225.483 248.071C225.367 247.386 225.413 246.683 225.612 246.017C225.812 245.351 226.16 244.74 226.634 244.231C227.099 243.955 228.117 244.6 228.951 245.987C229.275 246.655 229.335 247.419 229.121 248.13C228.907 248.84 228.435 249.445 227.796 249.823C227.556 249.974 227.28 250.057 226.996 250.063C226.118 250.043 225.448 249.25 225.448 248.051L225.483 248.071ZM230.217 242.199C231.019 239.71 232.371 238.051 233.18 238.051C233.275 238.056 233.364 238.097 233.429 238.167C233.562 237.564 233.894 237.025 234.374 236.638C234.854 236.25 235.452 236.037 236.069 236.035C236.428 236.013 236.789 236.068 237.126 236.196C237.462 236.323 237.768 236.521 238.022 236.775C238.277 237.03 238.474 237.336 238.601 237.672C238.729 238.009 238.786 238.369 238.764 238.728C238.762 239.442 238.476 240.126 237.971 240.63C237.467 241.135 236.783 241.419 236.069 241.421C235.71 241.406 235.358 241.321 235.032 241.169C234.706 241.016 234.413 240.801 234.171 240.536C234.231 241.088 234.261 241.643 234.259 242.199C234.259 244.275 232.907 246.351 231.292 246.351C229.913 246.331 229.372 244.255 230.182 242.179L230.217 242.199ZM57.3 244.752C54.9645 242.843 53.0747 240.446 51.7613 237.73C51.5343 237.976 51.2482 238.161 50.9295 238.265C50.6109 238.369 50.2699 238.389 49.9412 238.324C49.6125 238.259 49.3075 238.11 49.0527 237.892C48.7979 237.675 48.6028 237.395 48.4871 237.081C48.2915 236.739 48.1685 236.362 48.125 235.971C48.0815 235.58 48.1188 235.184 48.2346 234.808C48.3504 234.433 48.5404 234.085 48.7963 233.786C49.0522 233.487 49.3683 233.245 49.722 233.073C49.6178 232.451 49.8585 232.343 50.3796 232.716C50.5536 232.637 50.7307 232.568 50.9119 232.507C53.3369 231.429 54.6882 229.273 54.1471 227.658C53.3454 225.774 55.225 224.423 57.9145 224.423C61.4176 224.423 61.9575 225.225 59.8051 227.926C57.6527 230.628 58.2034 231.433 61.4099 231.433C62.1677 231.406 62.9182 231.576 63.5901 231.928C64.262 232.279 64.8323 232.799 65.2419 233.438C65.8873 233.458 66.2831 232.984 66.2831 232.023C66.2831 230.672 66.8561 230.291 67.6257 231.057C68.5877 231.826 67.6252 233.562 65.8937 234.908L65.7175 235.033C65.7175 235.093 65.7175 235.157 65.7175 235.217C65.7175 240.115 63.3136 241.738 61.2494 239.874C60.5484 239.815 59.866 239.618 59.2414 239.294C58.6169 238.97 58.0616 238.526 57.6092 237.987C57.048 236.869 57.7531 236.111 59.2121 236.067C57.9094 230.367 57.6101 230.431 54.1471 235.217C53.8905 235.55 53.6418 235.858 53.4053 236.135C54.0907 237.053 54.8557 238.139 55.6853 239.381C57.7736 242.86 58.6638 244.941 57.8421 244.941C57.6359 244.918 57.4379 244.847 57.2647 244.732L57.3 244.752ZM239.185 231.926C237.65 231.802 237.04 230.692 237.682 229.165C236.964 227.437 236.982 226.251 237.924 226.251C238.441 226.335 238.921 226.571 239.304 226.928C241.729 224.311 245.436 224.603 245.436 227.537C245.436 228.591 244.285 229.806 242.758 230.8C242.948 231.067 243.134 231.346 243.316 231.637C245.2 234.599 245.721 237.025 244.395 237.025C243.312 237.005 241.007 234.732 239.147 231.898L239.185 231.926ZM38.1691 233.87C38.1691 231.177 36.8198 230.367 34.936 231.445C33.0521 232.523 32.7794 232.247 33.8576 230.367C35.7415 227.133 43.5571 229.017 43.5571 232.52C43.4826 233.365 43.1959 234.179 42.7253 234.885C42.2547 235.592 41.6157 236.169 40.8641 236.563C40.6012 236.73 40.2966 236.822 39.9853 236.828C38.9512 236.804 38.1339 235.734 38.1339 233.846L38.1691 233.87ZM47.6298 226.347C47.6298 224.191 48.9761 222.303 50.3228 222.303C51.9261 222.303 53.0198 224.187 53.0198 226.347C53.0198 228.507 51.9381 230.387 50.3228 230.387C48.94 230.359 47.5927 228.475 47.5927 226.323L47.6298 226.347ZM243.128 221.409C243.1 221.07 243.141 220.73 243.25 220.408C243.358 220.086 243.529 219.79 243.756 219.537C243.984 219.285 244.262 219.082 244.571 218.94C244.879 218.799 245.214 218.722 245.553 218.715C246.444 218.751 247.31 219.018 248.066 219.49C248.822 219.963 249.442 220.624 249.865 221.409C250.666 222.755 249.596 224.102 247.44 224.102C244.979 224.078 243.091 222.731 243.091 221.385L243.128 221.409ZM36.2825 221.701C35.6882 220.707 34.8639 219.87 33.8791 219.261C32.8943 218.651 31.7773 218.287 30.6225 218.199C26.8508 218.199 27.1201 217.658 31.4249 215.774C33.4123 214.778 35.486 213.966 37.6212 213.348C38.1574 215.187 38.2503 217.126 37.8932 219.008C37.8932 221.361 37.5288 222.615 37.0438 222.615C36.7753 222.599 36.5098 222.299 36.2453 221.677L36.2825 221.701ZM23.0798 212.643C29.2764 208.066 30.0843 207.793 30.0843 211.04C30.0843 212.391 27.3927 214.006 24.1581 214.816C22.747 215.271 21.3018 215.614 19.8368 215.842C18.947 215.802 20.1087 214.9 23.0387 212.627L23.0798 212.643ZM31.7009 207.433C30.0976 203.657 30.3538 203.388 33.0513 205.829C34.9351 207.713 35.7456 209.873 34.936 210.679C34.8645 210.753 34.7786 210.813 34.6835 210.853C34.5884 210.893 34.4853 210.913 34.3821 210.912C33.4843 210.864 32.3131 209.565 31.6598 207.396L31.7009 207.433ZM244.535 203.705C243.449 203.304 243.774 200.154 245.04 196.679C247.044 191.18 247.504 191.024 247.692 195.024C247.837 197.478 247.632 199.941 247.084 202.338C246.938 202.757 246.669 203.121 246.311 203.382C245.952 203.644 245.523 203.79 245.08 203.801C244.873 203.796 244.669 203.751 244.479 203.669L244.535 203.705ZM258.362 196.891C258.878 194.2 259.948 193.984 261.57 196.242C262.668 197.845 263.354 200.126 262.664 201.192C262.498 201.519 262.249 201.798 261.944 202.001C261.639 202.205 261.286 202.326 260.92 202.354C259.245 202.31 257.738 199.801 258.308 196.851L258.362 196.891ZM252.051 197.352C253.005 195.214 253.897 195.156 254.728 197.176C255.044 197.831 255.197 198.552 255.176 199.279C255.155 200.006 254.959 200.717 254.607 201.352C254.428 201.57 254.208 201.75 253.959 201.88C253.71 202.011 253.437 202.09 253.157 202.114C251.714 202.074 250.908 199.753 251.994 197.312L252.051 197.352ZM18.5138 198.992C17.4356 196.298 17.713 194.951 19.3162 196.03C20.9195 196.831 22.0127 195.488 22.2813 192.795C22.2813 190.102 23.0827 189.292 23.6238 191.192C24.3064 193.836 23.9189 196.643 22.5455 199.003C21.4673 201.007 20.8633 202.038 20.3222 202.038C19.7811 202.038 19.2667 200.972 18.4571 198.948L18.5138 198.992ZM268.371 198.851C267.073 197.343 266.156 195.545 265.698 193.609C265.577 191.821 266.532 192.655 268.031 195.593C269.197 197.885 269.522 199.156 269.005 199.156C268.744 199.115 268.502 198.993 268.314 198.807L268.371 198.851ZM273.714 194.017C273.714 192.61 268.872 188.089 270.287 188.089C272.91 189.633 274.999 191.942 276.272 194.707C276.272 195.881 277.153 196.105 275.978 196.105C275.681 196.142 275.379 196.113 275.094 196.021C274.809 195.93 274.547 195.777 274.327 195.575C274.106 195.372 273.933 195.123 273.818 194.847C273.702 194.571 273.646 194.273 273.657 193.973L273.714 194.017ZM235.196 195.132C234.25 194.086 235.368 191.813 237.468 189.921C240.795 186.931 241.285 187.116 240.439 190.41C240.005 192.349 239.172 194.176 237.997 195.777C237.756 195.985 237.446 196.095 237.128 196.085C236.745 196.066 236.369 195.968 236.026 195.796C235.683 195.624 235.38 195.383 235.135 195.088L235.196 195.132ZM12.0534 184.31C11.7808 178.378 12.3201 175.684 13.1298 178.109C13.6666 181.682 13.6666 185.315 13.1298 188.887C12.9534 190.034 12.7773 190.574 12.6209 190.574C12.2402 190.55 11.9927 188.27 11.9927 184.282L12.0534 184.31ZM278.949 188.602C278.148 187.436 274.44 183.833 275.611 183.043C276.585 182.386 282.062 184.799 282.848 185.969C283.155 186.498 283.26 187.12 283.143 187.721C283.027 188.321 282.698 188.859 282.216 189.236C281.833 189.496 281.38 189.636 280.916 189.636C280.517 189.642 280.123 189.549 279.769 189.364C279.415 189.179 279.112 188.909 278.889 188.578L278.949 188.602ZM229.215 188.138C228.766 187.168 230.594 185.524 233.151 184.334C237.203 182.446 237.561 182.67 235.613 185.159C234.46 186.685 233.058 188.006 231.468 189.067C231.272 189.158 231.059 189.205 230.843 189.204C230.488 189.202 230.14 189.098 229.841 188.905C229.543 188.712 229.307 188.437 229.16 188.114L229.215 188.138ZM239.602 164.117C244.043 153.668 249.067 150.581 260.042 152.389C276.876 154.89 280.336 178.75 264.825 186.65C261.905 188.18 258.661 188.994 255.364 189.023C252.398 189.083 249.467 188.377 246.853 186.974C244.238 185.57 242.029 183.517 240.439 181.012C238.849 178.507 237.932 175.635 237.776 172.672C237.619 169.709 238.228 166.756 239.545 164.097L239.602 164.117ZM280.885 180.241C277.494 178.117 277.529 177.644 280.595 177.624C282.468 177.641 284.268 178.356 285.643 179.628C288.957 182.241 289.162 183.203 287.991 183.203C285.42 182.743 282.979 181.726 280.844 180.221L280.885 180.241ZM224.947 175.896C224.79 175.179 226.25 174.117 228.094 173.724C229.937 173.331 231.701 173.724 231.853 174.426C232.03 175.283 230.542 176.201 228.702 176.59C228.156 176.709 227.598 176.77 227.039 176.774C225.876 176.758 225.028 176.466 224.907 175.873L224.947 175.896ZM8.46597 169.331C8.83767 168.32 9.47069 167.425 10.3017 166.739C11.1328 166.053 12.1308 165.601 13.1944 165.427C14.1714 165.346 15.1534 165.528 16.0361 165.954C16.9188 166.381 17.6695 167.037 18.2124 167.853C18.7553 168.67 19.0703 169.617 19.1225 170.596C19.1746 171.575 18.963 172.55 18.5099 173.42C18.1284 173.94 17.6207 174.353 17.0342 174.621C16.4477 174.889 15.8021 175.003 15.1593 174.951C11.7163 174.931 7.46692 172.261 8.42487 169.307L8.46597 169.331ZM281.623 173.059C277.615 172.983 277.411 172.566 280.02 170.967C281.635 170.014 283.547 169.7 285.382 170.085C289.146 171.143 287.066 173.083 282.521 173.083C282.196 173.059 281.894 173.051 281.59 173.035L281.623 173.059ZM224.974 167.071C224.549 166.233 225.804 165.067 227.8 164.842C229.9 164.842 232.013 165.335 232.546 166.382C232.975 167.219 231.72 168.385 229.74 168.61H229.64C227.511 168.59 225.476 168.077 224.939 167.046L224.974 167.071ZM280.664 165.155C278.72 164.654 279.349 163.872 281.922 163.608C284.467 163.103 285.931 163.656 285.085 164.453C284.3 165.126 283.282 165.461 282.251 165.387C281.7 165.387 281.154 165.302 280.629 165.135L280.664 165.155ZM8.77324 163.712C8.34816 162.773 8.15244 161.747 8.19981 160.717C8.24718 159.688 8.53774 158.684 9.04724 157.788C10.1254 155.363 11.4512 153.744 12.0084 154.553C12.4328 155.493 12.6304 156.52 12.5837 157.55C12.5371 158.58 12.2479 159.584 11.7402 160.481C10.8544 162.485 9.78463 163.924 9.13531 163.924C9.05383 163.928 8.97277 163.907 8.90241 163.866C8.83205 163.825 8.77487 163.765 8.73801 163.692L8.77324 163.712ZM231.988 161.816C230.956 161.672 229.966 161.306 229.088 160.744C228.209 160.183 227.462 159.438 226.898 158.562C225.968 156.738 226.27 156.714 228.19 156.89C229.425 157.146 230.594 157.655 231.622 158.387C232.65 159.118 233.514 160.055 234.161 161.139C234.562 161.94 234.631 162.185 234.362 162.185C233.572 161.988 232.766 161.859 231.953 161.796L231.988 161.816ZM16.6095 157.672C16.6036 156.929 16.8776 156.212 17.3767 155.662C17.8758 155.112 18.563 154.771 19.3025 154.706C20.9058 154.706 22.0014 155.247 22.0014 155.784C22.0014 156.586 20.9178 157.94 19.3025 158.75C18.9279 158.988 18.4956 159.119 18.0519 159.131C17.8536 159.147 17.6556 159.12 17.4687 159.051C17.2818 158.983 17.1104 158.874 16.9696 158.734C16.8289 158.593 16.7211 158.424 16.6526 158.237C16.5841 158.05 16.5579 157.85 16.5743 157.651L16.6095 157.672ZM278.552 156.141C280.753 154.758 282.324 154.746 281.807 155.8C281.394 156.462 280.826 157.012 280.151 157.402C279.476 157.792 278.715 158.01 277.936 158.037C277.76 158.057 277.582 158.067 277.405 158.068C275.978 158.052 276.437 157.175 278.513 156.113L278.552 156.141ZM229.536 152.132C229.536 149.074 232.831 149.543 236.126 152.834C237.541 154.249 238.477 155.892 238.005 156.365C237.71 156.606 237.334 156.722 236.956 156.69C234.486 156.649 229.483 153.872 229.483 152.105L229.536 152.132ZM272.303 151.158C273.228 149.398 274.506 147.848 276.059 146.605C276.896 146.18 278.064 146.902 278.597 147.956C279.238 149.211 277.566 151.118 275.053 152.401C274.052 153.016 272.952 153.454 271.802 153.696C271.04 153.656 271.306 152.83 272.264 151.118L272.303 151.158ZM237.58 150.357C232.826 147.764 231.653 145.459 234.374 144.072C235.633 143.431 237.536 145.098 238.922 147.828C240.157 150.233 240.47 151.287 239.76 151.287C238.964 151.12 238.211 150.794 237.545 150.329L237.58 150.357ZM266.079 149.302C265.781 148.727 265.709 148.061 265.88 147.435C266.051 146.81 266.452 146.272 267.001 145.928C268.26 145.291 269.313 145.283 269.526 145.699C269.641 146.295 269.618 146.909 269.459 147.494C269.3 148.079 269.009 148.619 268.608 149.074C268.466 149.341 268.258 149.568 268.005 149.735C267.752 149.901 267.463 150 267.162 150.024C266.921 150.025 266.686 149.953 266.486 149.819C266.287 149.684 266.132 149.494 266.042 149.271L266.079 149.302ZM241.576 144.529C240.274 141.972 239.497 139.15 240.026 138.881C240.656 138.557 242.381 140.886 243.684 143.451C245.247 146.521 245.869 148.778 245.236 149.098C245.199 149.117 245.158 149.127 245.117 149.126C244.459 149.094 242.996 147.355 241.541 144.489L241.576 144.529ZM260.476 145.03C260.356 143.243 260.876 141.138 261.915 140.621C264.849 139.122 265.831 143.114 263.322 145.976C262.606 146.796 262.022 147.206 261.57 147.206C260.933 147.158 260.567 146.437 260.439 144.998L260.476 145.03ZM253.957 146.232C252.678 143.719 252.558 133.583 254.025 132.841C255.076 132.304 256.528 137.799 257.069 140.425C257.838 143.571 256.324 147.062 254.969 147.062C254.568 147.034 254.214 146.786 253.934 146.208L253.957 146.232ZM247.649 143.972C246.479 142.613 245.613 140.621 246.13 139.563C247.577 136.601 250.756 139.202 250.479 142.994C250.372 144.442 250.015 145.166 249.409 145.166C248.933 145.153 248.335 144.747 247.614 143.948L247.649 143.972ZM4.21316 140.184C-0.905284 136.409 -0.906223 136.409 4.75332 136.14C8.20769 135.993 11.4802 134.549 13.9165 132.096C18.4979 126.436 19.0349 126.977 18.7624 136.14C18.602 141.535 16.6731 144.312 13.2942 144.312C9.89826 143.901 6.71278 142.45 4.17206 140.16L4.21316 140.184ZM262.676 123.386C262.676 122.039 265.08 120.961 268.066 120.961C272.647 120.961 273.186 120.16 270.761 115.843C269.566 113.539 268.66 111.095 268.066 108.568V108.568C261.252 110.364 258.905 109.045 258.905 103.534C258.905 100.299 259.705 100.027 262.138 102.452C264.661 104.524 267.774 105.751 271.033 105.959C275.614 106.227 275.346 106.496 269.686 108.111L269.021 108.308C272.26 111.57 274.699 115.537 276.151 119.899C276.151 121.783 273.19 123.674 269.414 124.212C268.289 124.464 267.141 124.599 265.987 124.613C263.955 124.561 262.639 124.084 262.639 123.362L262.676 123.386ZM263.476 117.27C263.476 112.684 264.279 112.151 266.712 115.666C267.129 116.312 267.28 117.095 267.13 117.849C266.981 118.603 266.544 119.27 265.911 119.707C265.655 119.872 265.357 119.965 265.052 119.975C264.09 119.939 263.441 118.917 263.441 117.234L263.476 117.27ZM25.4968 119.17C24.6952 118.368 24.9588 116.745 26.037 115.125C28.4619 110.813 30.0815 111.622 28.1976 116.204C27.5483 118.152 26.5493 119.41 25.9 119.41C25.8101 119.411 25.7222 119.388 25.6455 119.341C25.5689 119.294 25.507 119.226 25.4675 119.146L25.4968 119.17ZM11.2196 110.572C11.2128 109.829 11.4856 109.111 11.9849 108.562C12.4842 108.012 13.1727 107.671 13.9126 107.606C15.5159 107.606 16.6056 108.147 16.6056 108.688C16.6056 109.49 15.5279 110.841 13.9126 111.65C13.5376 111.888 13.1056 112.019 12.662 112.031C12.4633 112.048 12.2621 112.021 12.0749 111.952C11.8877 111.883 11.7186 111.774 11.5778 111.633C11.437 111.492 11.329 111.322 11.2607 111.134C11.1925 110.947 11.1654 110.747 11.1825 110.548L11.2196 110.572ZM19.2986 107.899C19.2986 106.295 19.8398 105.205 20.3809 105.205C21.1825 105.205 22.5383 106.283 23.344 107.899C24.1456 109.249 23.6124 110.592 22.2656 110.592C21.5143 110.607 20.7854 110.334 20.2282 109.83C19.6711 109.326 19.3274 108.628 19.2673 107.879L19.2986 107.899ZM30.8867 109.758C30.0851 108.957 30.3466 107.333 31.4288 105.714C33.8538 101.401 35.4675 102.207 33.5836 106.792C32.9343 108.74 31.9371 109.999 31.2918 109.999C31.2018 110.001 31.1128 109.978 31.0354 109.932C30.9581 109.886 30.8962 109.819 30.8554 109.738L30.8867 109.758ZM21.4554 99.6021C18.4893 96.9086 19.03 96.6359 23.0582 98.2512C27.6396 99.8545 27.9082 99.3334 26.5615 92.3232C24.9582 85.0444 24.958 85.0443 27.908 90.7198C30.7137 96.5156 28.7624 101.714 25.3755 101.714C24.6075 101.649 23.861 101.427 23.1815 101.063C22.502 100.699 21.9044 100.2 21.424 99.5977L21.4554 99.6021ZM267.117 97.9146C268.459 95.7622 267.117 95.5096 263.341 96.3112C260.111 97.3934 257.413 96.8525 257.413 95.5098C257.413 91.4656 267.116 92.8119 270.892 97.1127C273.585 100.347 273.297 101.157 269.81 101.157C266.812 101.129 266.011 99.7824 267.085 97.8945L267.117 97.9146ZM33.5797 95.7701C33.8523 91.7259 35.1839 89.5737 36.5467 90.9204C37.1151 92.0242 37.3644 93.264 37.2689 94.5019C37.1733 95.7398 36.7357 96.9272 36.0046 97.9307C34.9504 99.8025 34.3067 100.756 33.9339 100.756C33.4169 100.732 33.3961 99.1048 33.5484 95.75L33.5797 95.7701ZM252.162 96.1307C252.964 94.5274 254.32 93.4372 255.129 93.4372C255.67 93.4372 256.21 94.5154 256.21 96.1307C256.144 96.8702 255.804 97.5583 255.255 98.0575C254.705 98.5566 253.987 98.8301 253.245 98.8241C251.862 98.7961 251.329 97.4534 252.131 96.1106L252.162 96.1307ZM54.3271 91.5217C42.0781 85.0526 36.7624 76.2906 36.9949 62.8674C37.2233 50.6186 40.6904 44.8307 52.9434 37.4477C58.3788 34.4296 64.5202 32.9147 70.7356 33.0589C79.75 33.0589 82.986 34.2133 88.2968 39.2996C89.5994 40.6864 91.2142 42.4781 92.577 43.9531C88.0117 41.1474 82.5558 39.8326 79.7501 43.2275C77.6658 45.7686 79.0527 46.4619 86.6802 47.6163C90.1373 47.9244 93.549 48.6224 96.8494 49.6967C97.9528 52.6845 98.7276 55.7838 99.1588 58.9395L100.762 67.7171H88.0522C80.007 67.8042 72.0345 69.2668 64.4826 72.0418C66.7232 72.2542 68.8247 72.479 70.6925 72.6955C76.0466 71.1644 81.5629 70.2696 87.1264 70.0299C97.7561 70.0299 98.2166 70.2625 96.8337 75.1164C94.7589 81.0265 90.8566 86.1224 85.6919 89.6664C80.5271 93.2104 74.3681 95.0184 68.1072 94.8282C63.3021 94.8506 58.5618 93.7094 54.2938 91.5017L54.3271 91.5217ZM56.1746 88.752C61.7139 92.1125 68.3416 93.1891 74.6596 91.7541C82.7521 89.9064 82.7529 89.9063 69.117 88.2911C62.8797 87.8267 56.6952 86.8208 50.6321 85.285C50.3492 85.1954 50.0565 85.136 49.7612 85.1083C49.0156 85.0843 51.5499 86.4312 56.1433 88.7319L56.1746 88.752ZM63.3377 65.1802C58.0822 67.6606 52.4691 69.2971 46.7041 70.0299C39.5415 70.0299 38.8473 71.8815 43.2322 77.4248C50.6313 87.1325 93.1509 90.5954 87.3711 81.1242C86.4492 79.5209 86.9101 79.2725 88.2929 80.2024C89.6837 80.8958 91.9946 79.5091 93.3775 76.9639C95.6862 72.575 95.226 72.3426 84.8288 72.5751C77.2814 72.8958 74.9803 72.9757 76.9122 73.5649C77.5381 73.6551 78.154 73.8044 78.7519 74.0101C79.5816 74.1905 80.6081 74.4106 81.8266 74.6511C89.6866 76.2543 89.687 76.5031 80.2237 75.8097C74.6804 75.5812 70.9811 76.038 71.446 76.9639C72.1394 78.1222 70.2877 78.1221 67.5181 77.4287C63.562 76.5309 62.6832 76.1906 65.6412 74.7798C63.5008 74.6235 61.3019 74.4229 59.2297 74.1824C57.3218 75.0361 55.4653 75.9659 53.6656 76.9639C51.3529 78.3507 49.5009 78.3506 49.5009 77.1963C49.5009 76.2023 51.3481 74.8959 54.2821 73.5091C52.6812 73.2743 51.0997 72.9298 49.5459 72.4787C45.4094 70.9276 48.96 70.6193 59.0085 71.5452C68.0512 68.1148 77.5305 65.9722 87.1695 65.1802C97.5667 65.1802 98.4931 64.7192 93.4107 62.8674C89.7423 61.3223 85.7992 60.5343 81.8187 60.5507C75.3828 60.7013 69.0596 62.2755 63.3044 65.1602L63.3377 65.1802ZM65.649 57.324C60.1438 60.0913 54.4258 62.4106 48.5477 64.2584C43.2329 65.8617 40.931 67.2641 43.0032 67.4925C50.2047 66.4705 57.2621 64.6091 64.0305 61.9456C77.6583 57.0958 82.2887 56.4024 87.3711 58.4786C95.692 61.4847 95.6908 61.4845 95.6908 56.4022C95.6908 51.5523 91.2818 49.2397 81.8266 49.2397C78.127 49.2397 74.8974 48.5461 74.4365 47.3878C73.7431 45.7845 62.4112 48.7749 57.1003 52.238C54.8949 53.153 52.432 53.2356 50.1702 52.4704C46.7071 51.312 46.7077 51.5483 49.4774 53.6246C52.251 55.4763 51.5617 56.3981 45.5494 57.5524C41.393 58.4743 38.6188 59.8651 39.3082 61.0194C40.9115 63.5606 50.1694 61.7132 62.6468 55.9334C73.2765 51.3121 82.5205 50.6184 89.9036 54.0854C93.1382 55.4723 91.2864 55.6886 83.8913 54.7787C81.9599 54.5276 80.0145 54.3939 78.0669 54.378C73.7364 54.2841 69.453 55.2908 65.6177 57.3039L65.649 57.324ZM51.7848 39.9968C49.2436 41.3796 47.6293 43.4602 48.3227 44.847C49.2445 46.0013 48.094 46.9269 46.2423 46.9269C44.158 46.9269 42.5433 47.849 42.5433 49.0034C42.5433 50.1577 45.0876 50.8552 48.0937 50.6067C51.0998 50.6067 53.1773 49.6846 52.7164 48.7587C52.023 47.8369 53.4039 47.6005 55.7167 48.2939C58.0294 48.9873 57.3203 47.8328 54.1138 45.7526C50.9072 43.6724 49.9496 42.5179 52.2623 43.2113C53.7509 43.2814 55.236 43.0047 56.5993 42.4031C57.9626 41.8014 59.1668 40.8912 60.1182 39.7443C64.5272 34.8945 63.8178 33.5036 59.1964 38.141C57.5931 39.7443 56.4232 40.2215 56.4232 39.2996C56.4232 38.9268 56.0899 38.7423 55.5288 38.7423C54.1919 38.8609 52.9 39.2816 51.7496 39.9728L51.7848 39.9968ZM62.6429 41.1515C60.3342 44.3861 59.6372 46.9313 61.04 46.9313C66.5197 45.871 71.531 43.1224 75.37 39.0711C76.5284 37.4679 77.2136 37.4677 77.2136 39.5359C77.2136 41.1392 78.3711 41.8489 79.7579 40.923C81.6016 40.0011 81.3623 38.8428 79.2941 37.456C77.3721 36.1862 75.1233 35.4986 72.8199 35.4759C70.7892 35.5275 68.8021 36.068 67.0249 37.0519C65.2477 38.0357 63.7333 39.434 62.6116 41.1275L62.6429 41.1515ZM252.702 89.5255C251.031 88.3501 249.495 86.9951 248.119 85.4851C250.141 84.945 252.226 84.6756 254.319 84.6836C257.554 84.6836 258.632 84.9524 256.744 85.762C256.346 85.9275 255.989 86.1782 255.699 86.4964C255.408 86.8146 255.191 87.1924 255.063 87.6036C254.934 88.0148 254.897 88.4493 254.955 88.8762C255.013 89.3031 255.165 89.7121 255.397 90.0745C255.882 90.9242 255.874 91.3373 255.501 91.3373C254.413 90.9852 253.436 90.3519 252.671 89.5015L252.702 89.5255ZM28.9022 87.2567C28.1006 85.1004 27.8249 83.2129 28.362 83.2129C30.0348 84.2859 31.4973 85.6563 32.6755 87.2567C34.5634 89.6817 34.831 91.3011 33.2157 91.3011C31.8329 91.277 29.9491 89.3891 28.8709 87.2328L28.9022 87.2567ZM260.924 82.2906C260.292 81.852 259.855 81.1854 259.705 80.4309C259.555 79.6763 259.705 78.8932 260.122 78.2468C262.547 74.7437 263.357 75.2844 263.357 79.8496C263.357 81.521 262.711 82.5431 261.789 82.5431C261.47 82.5373 261.16 82.4416 260.893 82.2666L260.924 82.2906ZM244.747 75.9941C243.945 73.8378 244.478 71.9498 245.829 71.9498C247.432 71.9498 248.522 73.8338 248.522 75.9941C248.522 78.1545 247.985 80.0341 247.444 80.0341C246.903 80.0341 245.798 78.1225 244.715 75.9501L244.747 75.9941ZM238.081 51.6004C238.081 43.2475 238.082 43.2474 246.708 51.3318C253.446 57.8009 253.445 58.0694 248.311 59.6847C246.797 60.2207 245.211 60.5234 243.606 60.5825C239.59 60.5585 238.053 57.6768 238.053 51.5765L238.081 51.6004ZM225.716 52.9953C227.319 52.4543 228.95 48.4101 229.219 44.6425V37.3635L232.458 43.5602C234.61 48.6826 234.61 50.3018 231.376 52.4542C229.429 53.6934 227.208 54.4338 224.907 54.6104C223.533 54.5864 223.801 53.777 225.688 52.9714L225.716 52.9953ZM220.666 51.392C221.081 50.5395 221.684 49.7928 222.43 49.2079C221.967 49.3728 221.482 49.463 220.991 49.476C219.103 49.476 219.387 48.3978 221.792 46.7826C226.914 43.548 227.993 43.548 225.841 46.7826C225.268 47.6001 224.497 48.2594 223.6 48.6985H223.62C224.161 48.6985 224.702 49.7767 224.702 51.392C224.637 52.1319 224.297 52.8204 223.747 53.3197C223.197 53.819 222.48 54.0923 221.737 54.0854C220.366 54.0774 219.824 52.7309 220.633 51.3842L220.666 51.392ZM201.604 44.8949C204.57 41.9329 208.073 40.0449 209.147 40.582C211.844 42.1852 211.572 42.4659 202.951 46.7786L196.212 50.2858L201.604 44.8949ZM167.345 48.8111C165.469 48.6882 163.608 48.3995 161.783 47.949C161.554 48.0781 161.293 48.1381 161.031 48.1217C160.769 48.1053 160.518 48.0135 160.307 47.857C160.081 47.7207 159.878 47.5485 159.706 47.3477C138.667 40.4096 135.467 11.9762 158.262 2.05609C163.782 -0.329174 169.987 -0.605731 175.698 1.27864C183.225 4.62943 183.045 5.02205 174.095 9.11435C158.679 16.0164 156.779 25.612 168.611 38.4781L178.821 49.6644L167.345 48.8111ZM148.964 15.4671C144.727 24.9784 148.161 36.4697 156.078 39.9968C160.042 41.7644 160.351 39.9968 157.894 32.734C156.763 29.394 156.428 25.8363 156.915 22.3438C157.402 18.8513 158.699 15.5207 160.7 12.6176C163.263 9.42644 165.328 5.86555 166.824 2.05609C166.502 1.92252 166.155 1.85834 165.806 1.86772C161.397 1.85169 151.522 9.63553 148.92 15.4553L148.964 15.4671ZM92.5731 43.9252C93.2906 44.3661 93.9844 44.8426 94.6418 45.3436C95.2791 46.2935 95.4782 46.6906 95.362 46.6906C94.3276 45.8725 93.3814 44.9483 92.5398 43.933L92.5731 43.9252ZM212.288 37.0631C212.288 34.9068 213.636 33.8286 214.987 34.6383C215.772 35.0605 216.434 35.6805 216.907 36.4369C217.379 37.1933 217.645 38.0596 217.68 38.9507C217.673 39.2903 217.596 39.6249 217.455 39.9337C217.313 40.2425 217.11 40.5191 216.858 40.7464C216.605 40.9736 216.309 41.1465 215.987 41.2547C215.665 41.363 215.325 41.4041 214.987 41.3756C213.604 41.3836 212.249 39.4959 212.249 37.071L212.288 37.0631ZM220.67 35.9848C221.472 34.3815 222.826 33.2874 223.631 33.2874C224.173 33.2874 224.714 34.3695 224.714 35.9848C224.648 36.7243 224.306 37.4119 223.757 37.911C223.207 38.4102 222.491 38.6841 221.749 38.6782C220.366 38.6742 219.824 37.3398 220.633 35.9931L220.67 35.9848ZM191.486 35.9848C191.486 34.3815 189.599 33.2913 187.438 33.2913C185.034 33.2913 183.403 30.8664 183.403 27.3633V21.4352L187.711 27.3633C189.871 30.5978 193.098 32.7545 194.449 31.9448C195.796 30.8626 196.854 32.2133 196.854 34.3496C196.854 36.7745 195.775 38.6665 194.159 38.6665C193.461 38.622 192.803 38.3263 192.306 37.8342C191.809 37.3421 191.506 36.6864 191.454 35.9887L191.486 35.9848ZM123.488 31.7604C125.38 28.7984 127.805 26.3735 129.148 26.3735C130.226 26.3735 129.949 28.7984 128.345 31.7604C126.742 34.7224 124.302 37.1512 122.959 37.1512C121.304 37.1552 121.569 34.7303 123.456 31.7643L123.488 31.7604ZM113.551 32.2291C113.551 28.9986 114.899 26.3011 115.957 26.3011C118.923 26.3011 118.649 29.536 115.419 34.3858C114.617 35.7326 114.08 36.4256 113.743 36.4256C113.246 36.4296 113.207 35.0668 113.52 32.233L113.551 32.2291ZM199.326 33.2913C198.524 31.6881 198.785 30.5979 200.404 30.5979C201.286 30.6665 202.14 30.9475 202.89 31.4164C203.64 31.8854 204.266 32.5285 204.714 33.2913C205.516 34.6421 205.255 35.9887 203.636 35.9887C202.763 35.8687 201.926 35.5671 201.177 35.1031C200.429 34.6391 199.786 34.0232 199.291 33.2952L199.326 33.2913ZM105.868 32.0491C106.669 30.4458 108.024 29.3556 108.561 29.3556C109.098 29.3556 110.446 30.4338 111.256 32.0491C112.057 33.3998 110.986 34.7464 108.561 34.7464C106.136 34.7464 105.023 33.4037 105.833 32.053L105.868 32.0491ZM99.3467 27.9044C99.3467 26.3012 99.8839 25.211 100.425 25.211C101.227 25.211 102.584 26.2891 103.39 27.9044C104.192 29.2511 103.658 30.5979 102.312 30.5979C101.563 30.615 100.837 30.3468 100.278 29.8473C99.72 29.3479 99.3715 28.6545 99.3056 27.9083L99.3467 27.9044ZM107.083 26.101C104.353 25.0116 101.736 23.6569 99.2703 22.0566C95.4946 18.8261 104.389 21.7881 108.702 25.2912C111.275 27.2953 112.48 28.2332 112.084 28.2332C110.351 27.6533 108.666 26.9418 107.042 26.1049L107.083 26.101ZM190.051 25.211C190.853 23.6077 192.213 22.5175 193.018 22.5175C193.555 22.5175 194.097 23.5957 194.097 25.211C194.032 25.9508 193.689 26.6394 193.14 27.1387C192.59 27.638 191.872 27.9113 191.13 27.9044C189.751 27.9084 189.21 26.5656 190.02 25.2149L190.051 25.211ZM118.168 22.8664C118.163 22.2632 118.28 21.665 118.509 21.1069C118.738 20.5489 119.074 20.0422 119.501 19.6161C119.928 19.19 120.436 18.8532 120.994 18.6253C121.553 18.3975 122.151 18.2828 122.754 18.2887C125.159 18.2887 125.989 19.0907 124.639 20.1729C123.063 21.6612 121.619 23.2838 120.325 25.0226C119.98 25.5396 119.636 25.7844 119.323 25.7844C118.634 25.7884 118.137 24.702 118.137 22.8703L118.168 22.8664ZM108.721 19.8201C108.722 19.1061 109.007 18.4218 109.512 17.9169C110.017 17.412 110.7 17.1278 111.414 17.1267C111.774 17.1051 112.135 17.16 112.471 17.2877C112.808 17.4154 113.113 17.6129 113.367 17.8675C113.622 18.122 113.819 18.4277 113.947 18.7643C114.074 19.1009 114.131 19.4608 114.109 19.8201C114.108 20.5342 113.823 21.2185 113.319 21.7234C112.814 22.2283 112.128 22.5125 111.414 22.5136C110.712 22.4746 110.049 22.1814 109.547 21.6887C109.046 21.196 108.741 20.5375 108.69 19.8363L108.721 19.8201Z" fill="#5D6C7B" fill-opacity="0.47"/>
</svg>
