<svg width="476" height="424" viewBox="0 0 476 424" fill="none" xmlns="http://www.w3.org/2000/svg">
<path d="M377.278 43.7025L375.642 49.3286L355.107 43.4814C333.197 36.4213 309.987 34.3417 287.167 37.3939C273.28 39.239 266.808 41.9682 250.276 52.5657C230.777 64.8351 212.088 84.0659 208.877 95.0892C207.97 98.7254 207.751 98.6709 207.246 94.2014C206.906 90.9793 204.897 94.3407 201.362 104.798C180.508 164.271 187.29 191.786 233.483 236.852C284.694 286.789 338.061 298.413 383.545 269.213C399.197 259.377 423.319 231.353 435.314 209.246C443.755 193.978 444.764 190.848 446.56 173.438C447.716 164.23 448.019 154.935 447.466 145.672C445.769 133.906 438.703 112.114 436.306 111.516C435.229 111.247 436.422 116.613 439.091 123.554C445.216 140.768 445.996 157.13 441.967 179.777C439.077 195.949 437.075 201.239 427.928 216.576C421.995 226.439 416.734 234.539 415.876 234.325C415.223 234.162 417.603 224.618 421.365 213.252C435.288 171.355 439.048 147.92 435.777 124.902C435.008 120.64 434.535 116.329 434.363 112C433.705 108.363 432.561 104.832 430.962 101.5L427.222 92.3612L433.264 88.559C441.673 82.6912 448.671 75.9903 447.485 74.248C447.002 73.4024 441.044 74.0879 434.148 75.7495C429.524 77.044 424.805 77.965 420.034 78.5038C417.776 75.4389 416.205 71.9227 415.427 68.1946C413.749 62.8184 411.273 57.7259 408.082 53.0881C404.412 48.3104 403.756 48.1466 402.962 51.3301C402.525 55.4629 402.653 59.6357 403.341 63.7335C404.408 72.4461 404.408 72.446 399.953 69.8882C392.95 65.4698 390.27 59.5077 394.118 57.0896C399.884 53.4593 398.706 50.7534 390.739 50.2128C384.411 49.6 382.399 48.373 380.746 43.8577L378.723 38.0442L377.278 43.7025ZM390.317 57.3324C389.284 59.7922 389.26 62.5595 390.248 65.0364C392.819 70.5056 389.392 69.4027 385.566 63.3876C383.898 60.7997 382.271 59.894 381.983 61.0474C381.303 63.7746 389.136 73.2091 392.625 74.0793C393.931 74.4051 394.652 73.3789 394.268 72.077C393.154 68.181 396.692 69.7849 401.106 75.2292C409.861 85.6186 399.847 87.7049 388.677 77.6785C385.236 74.764 382.264 71.3361 379.866 67.5154C379.187 65.6551 378.462 65.7185 377.676 67.9348C377.004 69.6983 376.543 67.8926 376.563 64.0388C376.503 58.7149 376.178 58.1529 375.11 61.5046C373.815 65.7618 372.843 66.0078 365.976 62.8448C354.062 58.7704 341.935 55.3432 329.651 52.5782C296.682 44.5954 285.208 45.1112 256.269 56.2359L239.172 62.5893L250.212 55.4505C275.433 38.8144 299.269 36.073 340.481 44.421C362.723 49.0032 369.64 50.9689 366.789 52.189C362.129 54.1641 363.466 57.1501 369.571 58.6729C373.275 59.5967 373.607 59.1986 371.444 56.7279C369.066 54.2034 369.394 53.8045 372.664 54.62C373.656 54.9087 374.711 54.8957 375.696 54.5828C376.681 54.2699 377.551 53.6711 378.195 52.8624C379.397 52.1289 380.745 51.67 382.144 51.5181C383.542 51.3663 384.957 51.5252 386.287 51.9838C391.119 53.1852 391.983 54.3664 390.317 57.3324ZM410.549 72.7564C410.295 76.5556 411.417 79.4879 410.934 78.6422C410.507 77.5702 412.052 73.8526 412.312 70.0588C412.419 68.9824 412.279 67.896 411.903 66.8822C411.527 65.8684 410.925 64.9539 410.142 64.2085C410.705 67.0197 410.843 69.9001 410.55 72.7528L410.549 72.7564ZM306.315 53.513C272.579 55.9569 244.508 73.8132 225.229 104.702C208.215 132.072 206.912 161.429 221.01 196.8C227.895 214.684 243.471 232.084 264.153 245.689C290.867 262.971 319.06 267.831 351.895 260.575C372.688 256.109 381.298 252.222 392.585 242.248C402.993 233.012 403.191 235 392.981 245.243C382.567 255.435 367.753 262.843 343.664 269.38L322.81 275.037L298.891 268.831C278.401 263.72 272.96 261.397 261.404 252.965C253.698 247.665 246.577 243.718 245.31 244.123C243.777 244.706 243.728 243.969 245.273 242.423C247.145 240.478 246.825 239.913 243.925 240.396C242.983 240.557 242.015 240.412 241.162 239.982C240.308 239.552 239.615 238.86 239.184 238.007C238.504 236.147 239.203 236.081 240.936 237.479C242.453 238.823 241.702 237.189 239.275 233.927C238.41 232.519 237.268 231.301 235.918 230.348C234.569 229.395 233.04 228.726 231.425 228.381C229.51 228.629 228.914 228.236 229.793 227.493C230.892 226.802 227.797 218.79 223.185 209.433C217.866 198.552 213.809 187.096 211.095 175.289C209.324 165.687 207.149 158.618 206.212 159.59C205.276 160.563 206.086 167.524 207.875 175.207C211.879 191.652 210.316 195.121 206.202 179.133C202.25 164.408 202.112 160.255 205.132 158.356C206.779 157.32 207.912 152.774 208.192 146.089C209.532 126.074 215.108 106.571 224.549 88.8725C234.787 69.2245 234.56 70.1336 230.993 71.3965C229.022 71.8705 229.249 70.9614 231.843 67.9902C236.31 63.0704 238.454 62.8837 235.12 67.8421C233.568 70.3518 235.539 69.8777 240.772 66.5802C259.664 54.8806 293.598 46.9329 308.145 50.8055L315.775 52.7087L306.315 53.513ZM366.81 73.6708L381.394 85.7547L372.907 88.2179C369.171 88.9309 365.699 90.6515 362.867 93.1942C361.053 95.8792 369.651 97.5581 392.581 99.3996L402.133 100.091L395.45 108.317C390.975 114.301 387.316 120.855 384.569 127.805C381.169 136.85 381.138 138.781 383.969 139.487C385.933 139.977 391.034 137.146 395.491 133.201C400.114 129.526 404.573 125.573 405.453 124.827C406.552 124.136 408.496 126.552 409.825 130.498C410.996 134.167 411.139 136.375 409.827 135.078C408.366 133.508 407.6 133.797 407.743 136.005C407.982 137.149 408.496 138.217 409.239 139.117C409.983 140.017 410.935 140.723 412.012 141.173C416.867 143.109 423.932 140.768 422.366 137.721C421.516 136.543 419.862 136.616 418.594 137.986C417.007 139.762 415.268 137.397 412.889 130.289C409.006 118.943 411.068 114.388 417.743 119.191C421.866 122.15 426.773 139.542 428.699 157.88C429.196 163.313 429.944 164.946 430.681 161.993C430.982 155.358 430.381 148.714 428.894 142.242C427.612 137.171 426.89 131.973 426.74 126.744C428.388 127.726 429.794 129.066 430.854 130.667C435.502 136.169 434.521 154.024 428.11 180.66L423.229 201.163L422.551 185.308C422.194 176.532 421.7 164.585 421.55 158.754C421.441 152.692 420.291 147.096 419.095 146.31C416.706 144.748 416.566 148.091 419.193 176.486C419.997 185.062 419.938 193.697 419.016 202.262C416.901 212.592 399.164 234.473 385.214 244.027C356.417 263.874 306.313 266.098 275.177 248.92C241.591 230.405 223.779 207.143 216.934 173.326C211.342 145.626 214.081 128.211 226.87 107.508C247.376 74.4943 275.104 58.0026 312.586 56.249C335.778 55.0682 349.717 59.5107 366.792 73.6663L366.81 73.6708ZM370.843 68.6427C375.227 73.3542 371.624 72.9403 364.077 67.9206C358.165 63.7743 357.841 63.2277 362.636 64.4237C365.736 64.9471 368.597 66.4195 370.826 68.6382L370.843 68.6427ZM416.933 99.222C421.52 99.4006 426.993 85.8043 425.498 88.084C422.288 92.5924 400.507 115.876 403.795 114.765C405.491 114.463 418.655 109.956 415.578 112.082C412.501 114.208 420.149 112.325 421.295 112.363C424.735 112.496 417.101 110.836 416.478 113.333C416.138 114.695 428.205 120.838 426.637 118.764C425.29 116.737 423.877 115.904 423.65 116.813C423.367 117.949 421.85 116.604 420.344 114.297C418.578 111.804 416.613 109.458 414.468 107.283C412.09 104.758 412.034 104.985 413.796 109.046C415.344 113.05 415.23 113.507 412.398 112.8C410.654 112.365 408.184 113.921 406.847 116.484C405.239 119.22 410.053 116.318 408.592 114.748C407.293 113.458 400.177 117.229 400.87 119.096C401.184 120.621 417.644 100.113 413.902 103.042C407.404 107.696 407.513 109.17 409.733 104.899C411.123 102.109 393.394 123.025 394.106 123.928C394.819 124.831 396.134 123.228 396.871 120.274C397.551 117.547 414.46 115.906 416.734 112.37C419.895 107.125 418.242 100.499 415.887 95.0834C414.226 91.5318 400.303 90.7231 400.835 92.306L400.918 93.01C406.217 89.4043 407.435 97.0858 406.427 93.7008C406.057 92.4024 405.51 95.8461 408.736 94.9598C411.961 94.0735 422.318 102.699 421.891 101.627C421.684 100.609 414.882 90.7374 417.199 89.8688C419.661 89.2768 415.701 84.4267 415.852 85.6704C416.003 86.9142 413.738 98.8868 416.919 99.1995L416.933 99.222ZM387.726 79.8724C395.208 86.0822 395.424 86.1359 389.255 85.8032C382.87 85.4168 375.225 78.926 376.301 74.6107C376.969 71.8575 378.656 72.5224 387.71 79.8454L387.726 79.8724ZM422.654 110.523C422.371 111.658 429.322 114.358 428.902 114.253C427.654 113.683 426.667 112.661 426.142 111.393C425.829 109.868 425.632 108.853 426.709 109.122C428.022 109.45 422.993 109.161 422.654 110.523ZM221.149 89.4634C213.884 101.887 205.466 132.852 205.733 145.708C205.955 151.313 204.888 154.657 202.964 155.876C201.04 157.094 200.993 156.35 202.821 153.668C204.32 151.371 204.438 149.969 203.18 150.38C201.876 151.021 201.228 148.928 201.851 146.431C202.312 143.649 203.216 134.462 203.948 125.962C205.147 108.162 208.558 99.1202 218.838 85.7535C228.185 73.3602 229.371 75.1024 221.157 89.4652L221.149 89.4634ZM199.63 132.117C197.467 153.78 203.187 185.614 212.477 203.133L218.92 215.358L214.384 203.849C206.959 185.345 211.071 189.282 219.797 209.062C224.24 219.097 226.802 225.53 225.179 223.678C223.832 221.652 221.822 220.429 220.942 221.175C219.9 221.64 213.489 212.065 206.553 199.968C191.929 174.119 190.34 162.864 196.141 131.247C200.459 107.47 202.189 107.902 199.637 132.119L199.63 132.117ZM414.324 228.38C410.297 240.656 402.28 251.231 391.552 258.417C388.377 260.059 385.64 262.437 383.57 265.353C383.762 268.298 364.735 276.823 351.765 279.622C335.183 283.08 318.017 282.521 301.699 277.993C279.087 272.112 280.042 269.213 302.768 274.641C326.365 280.286 338.492 279.933 363.462 272.647C385.859 266.401 382.048 264.974 358.78 270.998C348.321 273.939 339.343 275.562 338.81 274.944C338.546 274.153 343.421 272.232 349.938 270.239C370.305 264.701 383.801 257.93 393.279 248.711C398.241 243.674 402.225 237.912 402.082 235.704C402.246 233.24 403.318 230.923 405.091 229.203C407.516 226.911 407.564 227.648 405.397 231.692C403.073 236.421 403.221 236.699 406.076 233.552C407.063 232.635 407.854 231.526 408.4 230.294C408.946 229.061 409.236 227.731 409.252 226.383C408.947 223.894 409.498 223.547 411.012 224.89C412.473 226.461 412.863 225.833 412.599 223.114C412.512 220.681 413.128 219.143 414.216 219.415C415.555 219.76 415.464 223.841 414.33 228.386L414.324 228.38ZM270.878 262.347C270.167 262.582 269.409 262.631 268.674 262.489C267.939 262.348 267.253 262.022 266.68 261.541C265.106 260.423 265.943 259.91 268.326 260.505C270.781 260.873 271.921 261.882 270.878 262.347ZM279.03 266.793C278.319 267.027 277.56 267.076 276.826 266.935C276.091 266.794 275.405 266.467 274.831 265.986C273.257 264.868 274.094 264.355 276.477 264.95C278.935 265.322 280.072 266.327 279.03 266.793V266.793Z" fill="#5D6C7B" fill-opacity="0.47"/>
<path d="M311.727 211.884C310.661 214.112 299.09 209.981 296.349 210.65C292.257 211.794 292.607 212.929 293.231 215.831C293.642 217.6 293.849 219.41 293.849 221.226C293.482 228.034 291.136 232.986 287.854 232.058C284.882 231.569 282.965 227.05 283.703 222.589C286.034 208.477 280.783 205.694 271.257 217.089C259.445 230.775 256.159 225.271 266.736 209.85C273.475 199.138 274.511 193.83 266.465 191.735C264.43 191.045 262.588 189.88 261.092 188.338C259.596 186.795 258.488 184.919 257.86 182.863C260.457 181.004 267.603 185.654 270.449 186.891C274.042 188.251 280.606 192.072 284.563 186.624C289.596 179.922 296.928 169.811 295.415 175.933C295.935 178.859 295.71 181.868 294.761 184.684C293.134 187.425 292.581 190.673 293.209 193.797C293.836 196.922 295.6 199.703 298.159 201.603C298.159 201.603 311.377 208.863 311.774 211.495C311.8 211.626 311.784 211.763 311.727 211.884V211.884ZM297.676 157.509C297.206 159.765 296.291 159.079 295.852 156.161C295.14 153.269 295.699 151.547 296.656 152.493C297.32 153.161 297.725 154.043 297.798 154.981C297.926 155.825 297.885 156.686 297.677 157.513L297.676 157.509ZM293.693 149.32C291.989 148.766 290.708 147.586 290.588 146.79C290.507 146.259 291.493 145.563 293.091 145.322C293.832 145.276 294.563 145.512 295.138 145.981C295.713 146.45 296.091 147.119 296.196 147.854C296.398 149.19 295.162 149.919 293.694 149.326L293.693 149.32ZM293.442 174.536C291.353 175.579 288.962 175.849 286.694 175.298C285.947 174.726 287.838 173.799 290.847 173.268C295.071 172.705 296.398 171.589 296.199 169.061C296.26 166.506 296.526 166.471 297.897 168.704C298.426 169.455 298.826 170.289 299.08 171.172C299.282 172.487 297.836 173.034 293.442 174.54L293.442 174.536ZM290.235 160.717L283.969 154.293L290.54 158.168C294.303 160.438 297.591 163.046 297.862 164.359C297.887 164.526 297.911 164.685 297.933 164.831C298.416 167.981 296.218 166.848 290.232 160.722L290.235 160.717ZM290.486 130.684C289.611 133.694 288.216 136.272 287.133 136.593C286.23 136.863 286.598 134.79 287.937 132.034C289.963 128.288 289.844 126.558 287.683 125.234C285.645 123.681 285.791 123.439 288.388 123.648C290.562 123.847 291.583 123.976 291.751 125.094C291.647 127.022 291.219 128.918 290.485 130.704L290.486 130.684ZM292.911 152.33C290.018 153.041 288.304 152.481 289.246 151.524C289.935 150.954 290.752 150.56 291.628 150.38C292.503 150.2 293.409 150.238 294.267 150.49C295.134 150.676 295.549 150.926 295.588 151.188C295.67 151.625 294.72 152.097 292.913 152.369L292.911 152.33ZM291.598 169.381C290.864 169.497 290.114 169.334 289.495 168.922C288.877 168.51 288.438 167.879 288.263 167.156C288.024 165.571 288.397 164.413 288.932 164.332C289.725 164.212 291.221 165.077 292.262 166.553C292.553 166.889 292.747 167.296 292.825 167.733C292.868 167.923 292.869 168.12 292.829 168.311C292.789 168.501 292.709 168.681 292.595 168.839C292.48 168.996 292.333 169.128 292.164 169.224C291.995 169.321 291.808 169.382 291.614 169.4L291.598 169.381ZM286.039 128.639C285.469 129.116 284.739 129.36 283.997 129.321C283.254 129.283 282.554 128.965 282.036 128.431C281.005 127.188 280.734 126.009 281.149 125.671C281.787 125.396 282.481 125.27 283.175 125.306C283.87 125.342 284.546 125.539 285.153 125.879C285.503 125.971 285.821 126.156 286.074 126.415C286.327 126.674 286.506 126.997 286.591 127.349C286.63 127.599 286.6 127.855 286.504 128.09C286.408 128.325 286.249 128.527 286.045 128.678L286.039 128.639ZM282.174 115.743C280.079 113.627 279.669 111.87 280.98 112.182C281.825 112.479 282.583 112.978 283.188 113.637C283.794 114.296 284.228 115.094 284.452 115.96C284.545 116.22 284.615 116.488 284.662 116.76C284.857 118.08 283.79 117.723 282.177 115.765L282.174 115.743ZM280.009 120.529L280.957 129.207L278.257 122.297C276.855 119.463 276.208 116.314 276.376 113.156C277.748 110.395 278.715 111.357 279.548 116.878C279.707 117.953 279.863 119.185 280.015 120.57L280.009 120.529ZM276.169 110.921C275.508 111.138 274.807 111.2 274.118 111.101C273.43 111.003 272.774 110.747 272.2 110.353C271.858 109.935 272.345 108.839 273.591 107.804C274.203 107.383 274.951 107.207 275.685 107.312C276.42 107.418 277.089 107.798 277.557 108.374C277.743 108.589 277.866 108.85 277.913 109.13C278.044 109.998 277.36 110.783 276.171 110.962L276.169 110.921ZM270.563 99.087C269.691 102.096 268.296 104.674 267.213 104.995C266.31 105.265 266.674 103.193 268.014 100.437C270.043 96.6899 269.92 94.9613 267.759 93.6374C265.725 92.0835 265.867 91.8423 268.468 92.05C270.642 92.2491 271.659 92.3794 271.827 93.497C271.727 95.431 271.302 97.3352 270.569 99.1277L270.563 99.087ZM264.542 87.4939C261.574 87.2726 260.109 86.2131 261.309 85.5905C262.14 85.2618 263.04 85.1423 263.929 85.2429C264.818 85.3436 265.668 85.6615 266.406 86.1679C267.085 86.56 267.423 86.8932 267.461 87.1468C267.539 87.6904 266.477 87.8518 264.544 87.5351L264.542 87.4939ZM286.7 242.52C285.685 244.85 284.437 245.581 284.237 244.249C284.265 241.801 284.831 239.389 285.895 237.184C286.909 234.847 288.117 233.85 288.358 235.451C288.284 237.908 287.716 240.324 286.689 242.557L286.7 242.52ZM265.994 94.7585C265.424 95.2356 264.694 95.4789 263.951 95.4405C263.209 95.4021 262.509 95.084 261.991 94.5506C260.96 93.3075 260.685 92.1295 261.104 91.7867C261.742 91.5113 262.435 91.386 263.129 91.4219C263.824 91.4578 264.501 91.6548 265.107 91.9946C265.457 92.0869 265.776 92.2718 266.029 92.5306C266.282 92.7893 266.46 93.1122 266.545 93.4642C266.587 93.7198 266.556 93.9804 266.457 94.2196C266.358 94.4588 266.193 94.667 265.983 94.8176L265.994 94.7585ZM261.34 82.9791C259.246 80.8628 258.835 79.1052 260.147 79.4221C260.991 79.7178 261.749 80.2165 262.355 80.8746C262.96 81.5327 263.394 82.3302 263.618 83.1957C263.713 83.4566 263.783 83.7257 263.829 83.9993C264.006 85.3385 262.943 84.9761 261.326 83.0188L261.34 82.9791ZM280.431 236.213C279.371 236.028 278.28 236.192 277.322 236.68C276.363 237.168 275.589 237.953 275.115 238.919C273.465 242.438 273.16 242.213 273.739 238.855C273.889 237.486 274.503 236.209 275.48 235.239C274.257 235.193 273.735 234.741 274.351 234.117C274.975 233.589 275.713 233.212 276.506 233.016C277.3 232.821 278.129 232.812 278.927 232.99C280.96 232.278 282.883 232.637 283.195 234.706C283.425 236.341 282.179 237.084 280.416 236.251L280.431 236.213ZM255.334 78.1745C254.674 78.3911 253.972 78.451 253.284 78.353C252.596 78.2551 251.94 78.0014 251.366 77.609C251.023 77.1905 251.509 76.0871 252.756 75.056C253.368 74.6363 254.116 74.4626 254.85 74.5681C255.585 74.6736 256.253 75.051 256.722 75.6259C256.907 75.8412 257.03 76.1016 257.078 76.3816C257.19 77.2525 256.505 78.0336 255.32 78.2123L255.334 78.1745ZM248.822 74.3686C246.241 73.947 244.399 72.8577 244.279 72.057C244.269 71.9626 244.297 71.8682 244.356 71.794C243.741 71.7524 243.158 71.5041 242.703 71.0872C242.249 70.6703 241.949 70.1109 241.854 69.5012C241.779 69.1491 241.78 68.7841 241.856 68.4322C241.932 68.0803 242.082 67.7491 242.295 67.4594C242.509 67.1697 242.782 66.9293 243.096 66.7529C243.41 66.5764 243.757 66.467 244.116 66.4348C244.822 66.3305 245.541 66.5112 246.115 66.935C246.689 67.3588 247.072 67.9927 247.181 68.6981C247.219 69.0558 247.187 69.4164 247.085 69.7615C246.984 70.1066 246.815 70.4278 246.588 70.7073C247.125 70.565 247.67 70.4532 248.219 70.3723C250.272 70.0628 252.527 71.0898 252.768 72.6871C252.954 74.0535 250.981 74.8975 248.807 74.4064L248.822 74.3686ZM277.126 244.973C275.586 247.567 273.498 249.793 271.008 251.496C271.286 251.684 271.511 251.94 271.661 252.239C271.811 252.539 271.882 252.873 271.867 253.208C271.851 253.542 271.75 253.866 271.573 254.15C271.395 254.435 271.148 254.669 270.854 254.831C270.546 255.075 270.191 255.253 269.811 255.354C269.431 255.456 269.034 255.478 268.645 255.419C268.256 255.361 267.884 255.225 267.55 255.016C267.217 254.808 266.93 254.531 266.707 254.207C266.108 254.403 265.965 254.181 266.256 253.61C266.152 253.45 266.057 253.285 265.971 253.115C264.543 250.878 262.209 249.863 260.693 250.639C258.95 251.712 257.334 250.055 256.933 247.396C256.41 243.932 257.123 243.278 260.115 245.004C263.107 246.73 263.822 246.065 263.344 242.894C263.203 242.149 263.26 241.382 263.507 240.665C263.755 239.948 264.184 239.306 264.754 238.806C264.678 238.165 264.151 237.844 263.2 237.988C261.864 238.189 261.402 237.679 262.044 236.804C262.662 235.738 264.521 236.431 266.111 237.943L266.26 238.098C266.32 238.089 266.383 238.08 266.443 238.071C271.286 237.34 273.249 239.476 271.714 241.795C271.76 242.497 271.666 243.201 271.439 243.867C271.212 244.533 270.856 245.148 270.39 245.675C269.368 246.397 268.514 245.813 268.253 244.377C262.811 246.515 262.919 246.801 268.168 249.512C268.535 249.716 268.877 249.916 269.186 250.108C269.991 249.294 270.951 248.376 272.056 247.37C275.185 244.786 277.109 243.596 277.232 244.408C277.24 244.616 277.199 244.822 277.112 245.01L277.126 244.973ZM237.327 67.0328C237.433 68.5693 236.426 69.3373 234.821 68.9308C233.219 69.8978 232.043 70.0567 231.903 69.1253C231.91 68.602 232.071 68.0916 232.367 67.6599C229.418 65.6523 229.154 61.9434 232.055 61.506C233.098 61.3488 234.47 62.3051 235.681 63.667C235.917 63.4396 236.165 63.2137 236.426 62.9906C239.074 60.6862 241.394 59.8092 241.592 61.1211C241.734 62.1942 239.83 64.8123 237.305 67.0738L237.327 67.0328ZM269.218 265.512C266.554 265.914 265.955 267.369 267.302 269.071C268.649 270.773 268.417 271.083 266.397 270.298C262.918 268.917 263.615 260.908 267.079 260.386C267.927 260.333 268.774 260.495 269.542 260.855C270.311 261.215 270.977 261.761 271.479 262.446C271.683 262.681 271.819 262.968 271.872 263.275C272.003 264.301 271.066 265.269 269.199 265.55L269.218 265.512ZM260.368 257.279C258.236 257.6 256.169 256.55 255.968 255.219C255.729 253.633 257.429 252.271 259.565 251.949C261.701 251.627 263.721 252.416 263.962 254.013C264.141 255.385 262.479 256.998 260.35 257.319L260.368 257.279ZM226.339 64.7013C226.009 64.78 225.666 64.7895 225.332 64.7305C224.997 64.6714 224.679 64.5462 224.395 64.3591C224.112 64.172 223.869 63.9273 223.683 63.643C223.498 63.3587 223.372 63.0398 223.314 62.7051C223.217 61.8188 223.352 60.9229 223.706 60.1047C224.06 59.2865 224.622 58.5753 225.335 58.0402C226.547 57.0467 228.038 57.9041 228.36 60.0364C228.703 62.4735 227.653 64.5409 226.321 64.7417L226.339 64.7013ZM257.466 269.192C256.572 269.928 255.867 270.867 255.411 271.932C254.956 272.997 254.762 274.156 254.847 275.311C255.409 279.04 254.834 278.855 252.329 274.879C251.049 273.062 249.936 271.133 249.007 269.113C250.745 268.309 252.649 267.928 254.563 268.001C256.889 267.65 258.184 267.823 258.257 268.303C258.281 268.571 258.023 268.878 257.448 269.232L257.466 269.192ZM250.478 283.597C245.028 278.152 244.638 277.394 247.848 276.91C249.184 276.709 251.183 279.129 252.465 282.207C253.125 283.535 253.68 284.913 254.124 286.327C254.217 287.213 253.152 286.199 250.468 283.64L250.478 283.597ZM244.04 275.849C240.546 277.998 240.242 277.784 242.253 274.753C243.835 272.61 245.851 271.486 246.768 272.167C246.852 272.226 246.924 272.302 246.977 272.39C247.031 272.478 247.066 272.577 247.081 272.679C247.167 273.574 246.057 274.926 244.011 275.896L244.04 275.849ZM208.623 65.9493C208.389 67.0831 205.226 67.2318 201.601 66.4974C195.864 65.3356 195.641 64.9046 199.569 64.122C201.974 63.6128 204.44 63.4479 206.892 63.6333C207.328 63.715 207.728 63.927 208.04 64.2421C208.352 64.5572 208.56 64.9604 208.638 65.3969C208.663 65.6024 208.649 65.8104 208.597 66.0107L208.623 65.9493ZM199.825 53.2926C197.087 53.1838 196.713 52.158 198.704 50.2175C200.126 48.8925 202.279 47.875 203.436 48.3977C203.784 48.5137 204.097 48.7177 204.343 48.9893C204.59 49.2608 204.763 49.5911 204.845 49.9487C205.052 51.612 202.795 53.4758 199.793 53.3528L199.825 53.2926ZM201.221 59.465C198.965 58.8404 198.774 57.9668 200.648 56.8439C201.249 56.4343 201.939 56.1748 202.661 56.0872C203.382 55.9995 204.115 56.0873 204.796 56.3412C205.038 56.4852 205.248 56.6761 205.414 56.9031C205.581 57.13 205.7 57.3878 205.765 57.6617C205.94 59.0945 203.766 60.2373 201.19 59.5271L201.221 59.465ZM237.66 290.148C235.157 291.615 233.784 291.542 234.611 289.796C235.165 288.091 233.674 287.21 230.971 287.346C228.307 287.748 227.387 287.076 229.185 286.258C231.698 285.188 234.531 285.153 237.07 286.159C239.213 286.927 240.321 287.37 240.402 287.905C240.483 288.44 239.505 289.108 237.625 290.21L237.66 290.148ZM200.271 43.1035C198.973 44.612 197.332 45.7866 195.485 46.5287C193.735 46.9141 194.418 45.8464 197.099 43.9261C199.192 42.4309 200.4 41.9199 200.477 42.4311C200.476 42.6951 200.392 42.9533 200.235 43.1662L200.271 43.1035ZM194.694 38.541C193.303 38.7507 189.554 44.2125 189.343 42.8134C190.479 39.9896 192.451 37.58 194.994 35.9089C196.156 35.7338 196.246 34.8293 196.421 35.9906C196.501 36.2793 196.518 36.5822 196.47 36.8779C196.422 37.1735 196.31 37.4548 196.143 37.7031C195.975 37.9514 195.755 38.1593 195.499 38.3147C195.243 38.4701 194.957 38.5698 194.659 38.6037L194.694 38.541ZM201.539 76.4624C200.645 77.5537 198.231 76.7872 196.047 74.9924C192.595 72.1486 192.704 71.6367 196.088 71.9818C198.07 72.1224 200.001 72.6733 201.759 73.5968C202.001 73.8043 202.155 74.094 202.194 74.4101C202.232 74.7918 202.191 75.178 202.072 75.5428C201.953 75.9075 201.76 76.2429 201.504 76.5289L201.539 76.4624ZM224.105 298.725C218.28 299.879 215.536 299.747 217.813 298.585C221.266 297.521 224.858 296.98 228.471 296.978C229.631 296.981 230.191 297.075 230.215 297.23C230.248 297.61 228.03 298.194 224.086 298.789L224.105 298.725ZM188.559 34.1715C187.525 35.1381 184.515 39.3414 183.56 38.3018C182.765 37.4367 184.334 31.6604 185.374 30.7091C185.852 30.327 186.451 30.1301 187.062 30.1557C187.673 30.1813 188.254 30.4265 188.698 30.8472C189.013 31.1869 189.219 31.6144 189.288 32.0724C189.354 32.4664 189.32 32.8694 189.19 33.247C189.06 33.6247 188.838 33.9646 188.545 34.2351L188.559 34.1715ZM195.514 83.4192C194.622 84.0077 192.724 82.4457 191.166 80.0946C188.695 76.369 188.864 75.9818 191.616 77.5369C193.296 78.4494 194.811 79.6385 196.098 81.0532C196.217 81.2333 196.295 81.4365 196.326 81.6501C196.377 82.0019 196.326 82.3617 196.179 82.6856C196.033 83.0094 195.797 83.2833 195.499 83.477L195.514 83.4192ZM170.213 76.73C159.219 73.8964 155.418 69.3881 155.569 58.2668C155.533 41.2478 178.61 34.2687 188.735 48.4292C190.683 51.0888 191.971 54.175 192.491 57.4304C192.993 60.3548 192.732 63.358 191.734 66.1523C190.736 68.9466 189.035 71.4372 186.795 73.3829C184.555 75.3285 181.851 76.6635 178.945 77.2602C176.038 77.8569 173.027 77.6948 170.202 76.7892L170.213 76.73ZM180.003 33.5041C178.408 37.1738 177.935 37.2097 177.458 34.1807C177.196 32.3262 177.634 30.4396 178.687 28.8909C180.777 25.2236 181.698 24.8783 181.872 26.0356C181.801 28.6469 181.158 31.2117 179.989 33.5477L180.003 33.5041ZM184.046 89.465C183.36 89.7265 182.092 88.4416 181.429 86.677C180.766 84.9124 180.891 83.1099 181.562 82.8548C182.384 82.5525 183.514 83.8866 184.172 85.6478C184.371 86.1706 184.515 86.7128 184.602 87.2653C184.76 88.4171 184.597 89.2999 184.028 89.5072L184.046 89.465ZM209.829 304.505C208.773 304.288 207.794 303.796 206.992 303.076C206.19 302.357 205.593 301.437 205.264 300.412C205.037 299.458 205.071 298.459 205.361 297.523C205.651 296.587 206.188 295.746 206.914 295.088C207.64 294.429 208.53 293.977 209.491 293.779C210.451 293.582 211.447 293.645 212.374 293.964C212.945 294.264 213.429 294.704 213.782 295.244C214.134 295.784 214.343 296.405 214.387 297.049C214.881 300.456 212.875 305.056 209.811 304.549L209.829 304.505ZM172.791 33.8453C173.313 37.82 172.931 38.0839 170.961 35.7422C169.778 34.287 169.182 32.443 169.29 30.571C169.775 26.6917 172.003 28.4589 172.681 32.9534C172.705 33.278 172.742 33.5782 172.772 33.8818L172.791 33.8453ZM175.315 90.7536C174.55 91.2986 173.21 90.2317 172.69 88.2914C172.377 86.2146 172.55 84.052 173.505 83.3689C174.269 82.82 175.609 83.8875 176.126 85.8119L176.141 85.9106C176.439 88.0181 176.235 90.1075 175.296 90.7921L175.315 90.7536ZM165.118 35.9719C164.913 37.9688 164.046 37.4632 163.401 34.9582C162.522 32.5167 162.85 30.9874 163.765 31.7048C164.547 32.3806 165.031 33.3375 165.111 34.3678C165.193 34.9126 165.19 35.4657 165.104 36.0097L165.118 35.9719ZM204.226 305.039C203.361 305.599 202.376 305.946 201.351 306.052C200.325 306.159 199.29 306.021 198.328 305.651C195.769 304.947 193.97 303.877 194.688 303.205C195.554 302.646 196.539 302.297 197.565 302.19C198.59 302.082 199.627 302.219 200.59 302.587C202.703 303.164 204.286 304.007 204.382 304.649C204.398 304.729 204.39 304.813 204.36 304.888C204.329 304.964 204.278 305.03 204.212 305.077L204.226 305.039ZM169.074 84.6011C169.084 85.6438 168.87 86.6766 168.446 87.629C168.021 88.5814 167.397 89.431 166.614 90.1199C164.949 91.3113 164.881 91.0166 164.769 89.0918C164.837 87.832 165.167 86.5999 165.737 85.4743C166.307 84.3486 167.105 83.355 168.08 82.554C168.812 82.0382 169.044 81.9332 169.084 82.1988C169.008 83.01 169 83.8263 169.059 84.639L169.074 84.6011ZM197.085 298.191C196.352 298.307 195.602 298.143 194.984 297.732C194.366 297.32 193.926 296.692 193.751 295.97C193.512 294.385 193.884 293.221 194.415 293.141C195.207 293.021 196.709 293.891 197.75 295.367C198.041 295.702 198.236 296.11 198.313 296.547C198.359 296.741 198.361 296.941 198.321 297.136C198.281 297.331 198.2 297.516 198.082 297.676C197.964 297.837 197.812 297.968 197.638 298.064C197.463 298.16 197.269 298.215 197.071 298.229L197.085 298.191ZM156.519 39.4039C154.824 37.4342 154.578 35.8823 155.697 36.2364C156.413 36.5456 157.042 37.0253 157.528 37.6348C158.015 38.2443 158.344 38.9643 158.486 39.7309C158.532 39.9015 158.569 40.0759 158.597 40.2506C158.793 41.664 157.857 41.3415 156.498 39.4468L156.519 39.4039ZM159.864 88.4697C156.84 88.9256 156.812 85.5976 159.575 81.8491C160.763 80.2391 162.248 79.0677 162.787 79.4649C163.069 79.72 163.24 80.0741 163.264 80.4538C163.592 82.9012 161.592 88.2626 159.844 88.5261L159.864 88.4697ZM152.524 46.326C150.646 45.674 148.922 44.6407 147.462 43.2911C146.917 42.526 147.457 41.2639 148.42 40.5796C149.564 39.7585 151.7 41.1279 153.343 43.4217C154.101 44.3199 154.698 45.3421 155.108 46.4431C155.182 47.2021 154.326 47.0628 152.491 46.3707L152.524 46.326ZM156.909 80.7806C155.053 85.8677 152.949 87.3718 151.172 84.8874C150.35 83.7386 151.715 81.6083 154.208 79.83C156.402 78.2508 157.397 77.7846 157.503 78.4861C157.457 79.2979 157.247 80.0908 156.886 80.8195L156.909 80.7806ZM151.617 52.7567C151.093 53.1373 150.445 53.3081 149.801 53.2325C149.157 53.1568 148.565 52.8402 148.143 52.3483C147.325 51.1988 147.16 50.1581 147.541 49.8859C148.112 49.6832 148.722 49.6141 149.325 49.6842C149.927 49.7544 150.505 49.9618 151.014 50.2905C151.3 50.3909 151.555 50.5627 151.757 50.788C151.959 51.0134 152.101 51.2843 152.169 51.5789C152.206 51.8165 152.17 52.0601 152.067 52.2772C151.964 52.4944 151.798 52.6763 151.591 52.7982L151.617 52.7567ZM150.55 77.6976C148.216 79.367 145.541 80.5555 145.197 80.0723C144.782 79.4985 146.827 77.4447 149.17 75.7741C151.973 73.7707 154.111 72.8191 154.523 73.3975C154.547 73.4314 154.563 73.47 154.568 73.5114C154.635 74.1662 153.133 75.8725 150.516 77.7384L150.55 77.6976ZM148.228 58.9343C146.478 59.3197 144.32 59.1186 143.654 58.1692C141.734 55.4915 145.535 53.925 148.739 55.9794C149.657 56.5653 150.15 57.0815 150.217 57.528C150.264 58.1654 149.605 58.6345 148.202 58.9759L148.228 58.9343ZM150.389 65.2013C148.094 66.8403 138.089 68.4701 137.137 67.13C136.449 66.1717 141.667 63.9166 144.182 62.9902C147.178 61.7601 150.856 62.7375 151.058 64.0771C151.09 64.4776 150.897 64.8647 150.368 65.2281L150.389 65.2013ZM149.094 71.7756C147.925 73.1355 146.084 74.2882 144.961 73.9347C141.816 72.9455 143.914 69.4149 147.705 69.1231C149.153 69.0129 149.922 69.258 150.012 69.8578C150.07 70.3301 149.758 70.9815 149.075 71.814L149.094 71.7756ZM181.642 313.056C178.671 318.68 178.671 318.681 177.562 313.125C176.902 309.731 174.986 306.71 172.197 304.667C165.917 300.98 166.373 300.369 175.473 299.272C180.832 298.626 183.866 300.12 184.37 303.461C184.469 306.88 183.51 310.246 181.624 313.1L181.642 313.056ZM126.498 59.9859C125.166 60.1867 123.742 57.9704 123.297 55.0177C122.614 50.4876 121.741 50.0745 117.834 53.116C115.733 54.6407 113.452 55.9011 111.042 56.8654V56.8654C113.833 63.3354 112.879 65.8532 107.43 66.6748C104.231 67.157 103.842 66.4064 105.878 63.6391C107.551 60.8346 108.3 57.5742 108.019 54.3206C107.602 49.7504 107.907 49.9757 110.348 55.3311L110.642 55.9598C113.385 52.2708 116.944 49.267 121.041 47.1816C122.904 46.9007 125.216 49.5463 126.31 53.1998C126.727 54.2748 127.031 55.3904 127.217 56.5286C127.469 58.5458 127.193 59.9187 126.48 60.0262L126.498 59.9859ZM120.331 60.1062C115.796 60.7898 115.15 60.0761 118.263 57.1463C118.839 56.637 119.591 56.3712 120.359 56.4068C121.127 56.4423 121.851 56.7752 122.377 57.3355C122.579 57.5642 122.716 57.8449 122.771 58.145C122.879 59.1016 121.965 59.8955 120.3 60.1465L120.331 60.1062ZM157.689 295.143C157.015 296.055 155.371 296.037 153.609 295.212C148.983 293.457 149.542 291.735 154.353 292.915C156.376 293.266 157.769 294.066 157.866 294.708C157.881 294.797 157.871 294.888 157.836 294.97C157.801 295.053 157.743 295.124 157.669 295.176L157.689 295.143ZM151.316 310.542C150.582 310.66 149.832 310.497 149.214 310.085C148.595 309.674 148.155 309.044 147.981 308.322C147.742 306.736 148.115 305.578 148.65 305.497C149.443 305.378 150.939 306.242 151.98 307.719C152.271 308.054 152.465 308.462 152.543 308.899C152.589 309.093 152.593 309.296 152.552 309.491C152.512 309.686 152.43 309.87 152.311 310.03C152.193 310.19 152.041 310.322 151.865 310.418C151.69 310.513 151.496 310.57 151.297 310.583L151.316 310.542ZM147.468 302.952C145.882 303.191 144.724 302.819 144.643 302.284C144.523 301.491 145.387 299.99 146.865 298.952C148.081 297.958 149.488 298.285 149.689 299.617C149.815 300.358 149.654 301.119 149.239 301.745C148.823 302.371 148.184 302.815 147.452 302.986L147.468 302.952ZM147.579 291.216C146.906 292.129 145.262 292.112 143.499 291.283C138.873 289.528 139.429 287.813 144.244 288.992C146.267 289.343 147.66 290.142 147.757 290.78C147.772 290.869 147.762 290.96 147.728 291.043C147.694 291.127 147.637 291.198 147.564 291.25L147.579 291.216ZM138.942 302.056C136.721 305.391 136.371 304.897 137.367 300.673C138.27 295.904 137.715 295.716 130.983 298.093C124.025 300.763 124.025 300.763 129.197 297C134.51 293.362 139.941 294.516 140.446 297.865C140.496 298.634 140.388 299.406 140.13 300.132C139.871 300.858 139.467 301.523 138.943 302.088L138.942 302.056ZM100.649 59.3923C98.3205 58.3854 98.2708 59.7504 99.6264 63.3644C101.178 66.3975 101.045 69.1455 99.7177 69.3457C95.7187 69.9487 95.6034 60.1534 99.2932 55.7787C102.09 52.6331 102.934 52.7978 103.454 56.246C103.873 59.2148 102.661 60.207 100.634 59.4262L100.649 59.3923ZM133.346 290.639C129.306 290.972 126.979 289.976 128.108 288.428C129.114 287.701 130.303 287.27 131.541 287.18C132.78 287.09 134.019 287.346 135.12 287.919C137.129 288.682 138.168 289.177 138.223 289.545C138.276 290.06 136.67 290.323 133.33 290.673L133.346 290.639ZM101.114 74.4454C99.4096 73.8918 98.1295 72.7137 98.0088 71.9131C97.9281 71.3781 98.9139 70.6841 100.511 70.4433C101.252 70.3978 101.983 70.6314 102.559 71.1005C103.134 71.5695 103.512 72.2387 103.616 72.9737C103.795 74.3452 102.547 75.0719 101.099 74.4794L101.114 74.4454ZM126.051 270.757C121.481 283.833 113.609 290.396 100.301 292.167C88.1554 293.767 81.9153 291.202 72.788 280.187C68.9933 275.262 66.5798 269.415 65.7957 263.248C64.4518 254.334 65.1109 250.962 69.3486 244.952C70.5257 243.457 72.0566 241.594 73.3119 240.026C71.2182 244.959 70.7315 250.55 74.5067 252.818C77.3302 254.5 77.809 253.025 77.8133 245.311C77.6026 241.847 77.7841 238.369 78.3544 234.945C81.1443 233.409 84.0935 232.181 87.1496 231.284L95.5901 228.39L97.4849 240.958C98.7705 248.9 101.405 256.565 105.275 263.619C105.151 261.372 105.06 259.26 104.996 257.381C102.684 252.315 100.976 246.994 99.9099 241.528C98.3252 231.017 98.4866 230.527 103.492 231.171C109.646 232.342 115.266 235.44 119.541 240.019C123.815 244.598 126.521 250.418 127.267 256.638C128.005 261.386 127.583 266.243 126.037 270.793L126.051 270.757ZM123.037 269.343C125.534 263.364 125.611 256.65 123.25 250.617C120.216 242.89 120.216 242.89 120.652 256.614C121.123 262.851 121.05 269.116 120.435 275.34C120.389 275.633 120.374 275.932 120.39 276.228C120.478 276.969 121.432 274.262 123.022 269.377L123.037 269.343ZM98.661 265.774C101.897 270.601 104.352 275.907 105.936 281.499C107.004 288.581 108.939 288.992 113.766 283.829C122.262 275.066 119.347 232.505 110.844 239.632C109.396 240.783 109.081 240.364 109.795 238.858C110.273 237.379 108.557 235.301 105.834 234.313C101.15 232.685 100.989 233.174 102.769 243.421C104.211 250.836 104.634 253.099 104.928 251.101C104.924 250.469 104.98 249.838 105.094 249.216C105.149 248.368 105.213 247.321 105.27 246.08C105.683 238.069 105.929 238.031 106.654 247.492C107.255 253.007 108.258 256.597 109.104 256C110.146 255.141 110.422 256.972 110.149 259.814C109.851 263.86 109.646 264.78 107.81 262.065C107.974 264.205 108.104 266.409 108.175 268.494C109.304 270.253 110.5 271.95 111.755 273.581C113.471 275.661 113.747 277.493 112.606 277.665C111.623 277.813 110.056 276.181 108.247 273.487C108.253 275.105 108.148 276.72 107.934 278.324C107.017 282.645 106.183 279.18 105.6 269.106C100.86 260.676 97.3281 251.622 95.108 242.209C93.5579 231.928 92.9639 231.08 91.8906 236.382C90.9096 240.24 90.7183 244.256 91.328 248.19C92.4364 254.531 94.9357 260.549 98.6461 265.81L98.661 265.774ZM90.5479 264.66C94.1052 269.691 97.251 274.999 99.9545 280.536C102.332 285.553 104.062 287.62 103.979 285.537C101.895 278.568 99.0021 271.867 95.3593 265.571C88.5319 252.819 87.156 248.343 88.4513 243.008C90.1832 234.332 90.1832 234.334 85.1576 235.091C80.362 235.814 78.7325 240.519 80.1422 249.868C80.6937 253.527 80.4894 256.823 79.4127 257.452C77.9308 258.377 82.5772 269.136 86.7933 273.871C88.0269 275.916 88.4757 278.339 88.0563 280.689C87.4272 284.286 87.6608 284.25 89.3008 281.202C90.7184 278.184 91.7327 278.728 93.7704 284.501C95.3017 288.473 97.0905 291.009 98.1292 290.155C100.403 288.191 97.1959 279.312 89.6205 267.836C83.4661 258.014 81.402 248.977 83.7296 241.159C84.6187 237.754 85.1087 239.553 85.3115 247.001C85.3511 248.948 85.5089 250.892 85.7836 252.82C86.3363 257.116 87.9703 261.201 90.5328 264.694L90.5479 264.66ZM75.4814 280.952C77.2276 283.259 79.5256 284.545 80.7935 283.653C81.7975 282.569 82.8843 283.569 83.1603 285.4C83.4711 287.461 84.6236 288.92 85.7651 288.748C86.9065 288.576 87.2169 285.956 86.523 283.02C86.0749 280.048 84.8533 278.131 84.0065 278.725C83.1983 279.548 82.7587 278.218 83.0996 275.827C83.4405 273.437 82.4046 274.31 80.8257 277.791C79.2468 281.272 78.2479 282.391 78.5888 280.001C78.4362 278.519 77.9412 277.091 77.143 275.833C76.3448 274.574 75.2653 273.519 73.9894 272.75C68.5364 269.113 67.2668 270.022 72.5414 273.9C74.3657 275.247 75.012 276.332 74.1005 276.47C73.7319 276.525 73.5991 276.882 73.6828 277.437C73.9993 278.741 74.608 279.956 75.4629 280.991L75.4814 280.952ZM75.0044 270.043C78.547 271.844 81.1677 272.154 80.9586 270.767C79.0932 265.506 75.6282 260.961 71.0498 257.769C69.2918 256.862 69.1895 256.185 71.2346 255.876C72.8199 255.637 73.3491 254.387 72.2269 253.154C71.0404 251.468 69.9307 251.877 68.8678 254.129C67.8987 256.219 67.554 258.545 67.875 260.826C68.2288 262.827 69.0595 264.711 70.2973 266.322C71.5351 267.932 73.1435 269.221 74.9854 270.078L75.0044 270.043ZM94.5026 74.896C93.5895 76.7239 92.4786 78.4446 91.1907 80.0307C90.3551 78.1115 89.778 76.0904 89.4738 74.0194C88.9916 70.8209 89.0966 69.7148 90.1786 71.4608C90.4015 71.8295 90.7027 72.1451 91.0606 72.3848C91.4186 72.6244 91.8245 72.783 92.2503 72.8486C92.6761 72.9143 93.1112 72.886 93.5247 72.7653C93.9383 72.6447 94.32 72.4337 94.6436 72.1493C95.4115 71.5431 95.8213 71.4899 95.8769 71.8585C95.6909 72.9873 95.2103 74.0471 94.4835 74.9306L94.5026 74.896ZM125.625 296.533C123.612 297.648 121.787 298.201 121.707 297.67C122.518 295.856 123.655 294.206 125.062 292.802C127.178 290.574 128.74 290.068 128.981 291.665C129.163 293.036 127.577 295.18 125.606 296.568L125.625 296.533ZM86.1228 67.8447C85.7833 68.535 85.1894 69.0672 84.4656 69.3276C83.7418 69.588 82.9451 69.5569 82.2438 69.241C78.4183 67.3654 78.8322 66.4837 83.3464 65.8031C84.9991 65.5539 86.106 66.0401 86.2435 66.9517C86.2854 67.2683 86.2369 67.5889 86.1037 67.8792L86.1228 67.8447ZM82.3085 84.7801C80.2958 85.8943 78.3494 85.6485 78.148 84.3129C77.909 82.7275 79.6094 81.3691 81.7457 81.047C83.8819 80.725 85.8206 80.976 85.9012 81.5111C85.9819 82.0461 84.2564 83.4237 82.2697 84.8177L82.3085 84.7801ZM59.1812 95.0083C50.9216 96.2536 50.9214 96.2523 57.6295 86.5178C63.0218 78.8909 63.2873 78.8513 65.65 83.6876C66.4057 85.1047 66.9415 86.6278 67.2392 88.206C67.8142 92.1809 65.1938 94.1295 59.1616 95.039L59.1812 95.0083ZM62.404 107.027C61.6299 105.523 57.3878 104.512 53.6222 104.808L46.4246 105.894L52.0691 101.767C56.8134 98.875 58.4146 98.6336 61.0251 101.511C62.5406 103.251 63.6039 105.337 64.1216 107.586C64.3027 108.949 63.4625 108.805 62.3844 107.058L62.404 107.027ZM61.5714 112.259C60.6666 111.976 59.8384 111.492 59.1488 110.841C59.3808 111.274 59.5423 111.74 59.6283 112.224C59.9098 114.09 58.8014 113.971 56.8457 111.834C52.8836 107.251 52.7227 106.184 56.242 107.83C57.1359 108.274 57.9027 108.939 58.4706 109.76L58.4677 109.74C58.3871 109.205 59.3725 108.51 60.9697 108.269C61.711 108.222 62.4426 108.456 63.0183 108.926C63.594 109.395 63.9712 110.064 64.0751 110.799C64.2716 112.156 63.021 112.893 61.5686 112.293L61.5714 112.259ZM57.9888 132.077C54.6177 129.586 52.2286 126.404 52.5996 125.262C53.7827 122.355 54.1008 122.583 59.6507 130.465L64.1233 136.605L57.9888 132.077ZM66.9688 165.37C67.127 167.243 67.1189 169.126 66.9456 170.998C67.1073 171.205 67.2055 171.454 67.2284 171.716C67.2513 171.977 67.198 172.24 67.0746 172.471C66.9736 172.715 66.8336 172.941 66.6606 173.141C62.9366 194.979 35.2981 202.383 22.0905 181.322C18.9088 176.218 17.7104 170.125 18.7223 164.197C20.9134 156.254 21.3285 156.373 26.7094 164.613C35.8325 178.827 45.6042 179.276 56.5625 165.658L66.1016 153.894L66.9688 165.37ZM36.7378 188.517C46.7745 191.288 57.6253 186.179 59.9328 177.825C61.0897 173.642 59.2957 173.6 52.4804 177.112C49.3463 178.728 45.8783 179.59 42.3522 179.629C38.8261 179.668 35.3395 178.882 32.1704 177.336C28.6328 175.277 24.804 173.767 20.814 172.855C20.7299 173.194 20.7181 173.546 20.7794 173.889C21.4209 178.252 30.5901 186.856 36.7326 188.561L36.7378 188.517ZM73.2849 240.034C73.6139 239.259 73.9816 238.502 74.3791 237.777C75.2234 237.005 75.5863 236.749 75.6036 236.864C74.9489 238.009 74.1761 239.082 73.2976 240.066L73.2849 240.034ZM48.6517 122.68C46.5195 123.002 45.2524 121.829 45.8516 120.373C46.152 119.533 46.6663 118.786 47.3439 118.206C48.0214 117.627 48.8384 117.234 49.7144 117.067C50.0512 117.024 50.3935 117.049 50.7199 117.143C51.0464 117.237 51.3502 117.397 51.6125 117.612C51.8749 117.828 52.09 118.096 52.245 118.398C52.4001 118.7 52.4914 119.03 52.5136 119.369C52.7277 120.735 51.0631 122.356 48.6653 122.718L48.6517 122.68ZM46.3357 114.552C44.6309 113.999 43.3472 112.823 43.2271 112.026C43.1464 111.491 44.1357 110.795 45.7329 110.554C46.474 110.509 47.2049 110.744 47.7804 111.213C48.3558 111.682 48.7335 112.349 48.8383 113.084C49.0405 114.452 47.8019 115.188 46.3495 114.588L46.3357 114.552ZM50.6867 143.411C49.1014 143.65 48.3047 145.678 48.6268 147.814C48.9853 150.192 46.8306 152.166 43.3667 152.689L37.5049 153.572L42.7245 148.429C45.6008 145.811 47.2522 142.298 46.2502 141.083C44.9793 139.913 46.1571 138.665 48.2695 138.346C50.6673 137.985 52.6991 138.77 52.9399 140.367C53 141.064 52.8058 141.759 52.3933 142.324C51.9808 142.889 51.3775 143.286 50.6953 143.441L50.6867 143.411ZM56.6471 211.279C53.4362 209.85 50.6768 207.813 50.4766 206.485C50.3159 205.419 52.755 205.332 55.9229 206.475C59.0909 207.619 61.8563 209.67 62.0565 210.997C62.3072 212.634 59.87 212.734 56.6557 211.309L56.6471 211.279ZM58.592 221.034C55.3975 221.516 52.5293 220.586 52.3716 219.539C51.9294 216.606 55.169 216.395 60.4462 218.866C61.8974 219.458 62.6628 219.886 62.713 220.219C62.791 220.71 61.4492 220.951 58.6005 221.064L58.592 221.034ZM46.8545 136.06C45.3887 137.091 44.2718 136.996 44.0304 135.395C43.9668 134.512 44.1174 133.627 44.4693 132.815C44.8211 132.003 45.3637 131.289 46.0513 130.732C47.2674 129.738 48.6378 129.795 48.8793 131.396C48.8907 132.277 48.7172 133.15 48.37 133.959C48.0228 134.768 47.5096 135.495 46.8637 136.094L46.8545 136.06ZM59.5595 228.659C57.8546 228.105 56.5747 226.928 56.4946 226.397C56.4145 225.866 57.2797 224.372 58.7562 223.331C59.9723 222.337 61.4637 223.196 61.8252 225.594C62.1867 227.991 61.0249 229.292 59.5686 228.693L59.5595 228.659ZM56.4333 235.725C54.848 235.964 53.6899 235.595 53.6092 235.06C53.4897 234.267 54.3534 232.764 55.8305 231.727C57.0427 230.733 58.4539 231.06 58.6546 232.391C58.7833 233.129 58.6263 233.887 58.2156 234.514C57.805 235.14 57.1713 235.588 56.4433 235.765L56.4333 235.725ZM53.4966 228.344C52.8264 231.205 51.8771 233.996 50.6623 236.672C48.0307 240.887 49.6337 231.651 52.4546 226.864C54.0527 224.021 54.8004 222.689 54.8596 223.081C54.5444 224.881 54.092 226.653 53.5066 228.384L53.4966 228.344ZM40.2472 146.435C38.5424 145.882 37.2616 144.7 37.1415 143.903C37.0615 143.372 38.0469 142.676 39.6441 142.435C40.3854 142.389 41.1173 142.625 41.693 143.094C42.2687 143.563 42.6459 144.232 42.7498 144.968C42.9593 146.33 41.7121 147.065 40.2558 146.466L40.2472 146.435ZM48.6456 217.865C48.0499 217.959 47.441 217.933 46.855 217.79C46.2691 217.647 45.7179 217.39 45.2329 217.031C44.748 216.673 44.3392 216.221 44.0306 215.702C43.722 215.184 43.5195 214.61 43.4354 214.013C43.0769 211.635 43.7461 210.694 45.0176 211.868C46.7242 213.205 48.5439 214.39 50.4562 215.411C51.0188 215.674 51.3122 215.979 51.3588 216.288C51.4656 216.969 50.4653 217.622 48.6541 217.895L48.6456 217.865ZM47.0418 227.66C46.3356 227.766 45.6164 227.586 45.0419 227.162C44.4674 226.738 44.0845 226.105 43.977 225.399C43.902 225.047 43.9025 224.682 43.9786 224.33C44.0547 223.978 44.2045 223.647 44.4183 223.357C44.632 223.067 44.9049 222.827 45.2187 222.651C45.5325 222.474 45.88 222.365 46.2385 222.332C46.9447 222.227 47.6639 222.407 48.2384 222.831C48.8129 223.255 49.1962 223.89 49.3037 224.596C49.3698 225.296 49.1788 225.996 48.7663 226.565C48.3539 227.134 47.7481 227.533 47.0624 227.689L47.0418 227.66Z" fill="#5D6C7B" fill-opacity="0.47"/>
<path d="M311.709 142.103C312.316 143.01 312.674 144.064 312.743 145.157C312.812 146.249 312.59 147.341 312.102 148.321C311.591 149.174 310.864 149.874 309.994 150.349C309.124 150.823 308.144 151.054 307.156 151.017C306.168 150.981 305.209 150.679 304.378 150.141C303.547 149.604 302.875 148.85 302.432 147.961C301.11 144.594 306.379 140.431 309.782 140.959C310.164 141.007 310.531 141.133 310.863 141.33C311.194 141.527 311.482 141.79 311.709 142.103ZM280.092 140.044C281.325 142.297 279.933 142.522 274.513 141C265.627 138.479 265.067 137.712 272.787 137.542C273.631 137.494 274.477 137.535 275.312 137.666C277.152 137.797 278.865 138.651 280.084 140.043L280.092 140.044ZM296.627 142.381C298.736 143.393 297.34 143.634 293.806 143.085C290.047 142.502 288.571 141.815 289.985 141.35C291.054 141.265 292.129 141.317 293.184 141.505C294.36 141.676 295.516 141.97 296.631 142.382L296.627 142.381ZM256.041 137.908C261.345 138.731 261.531 138.987 257.279 140.161C250.678 141.874 246.48 141.223 248.441 138.789C250.467 137.578 252.882 137.213 255.168 137.772C255.484 137.792 255.757 137.843 256.045 137.908L256.041 137.908ZM323.203 151.507C324.334 154.42 322.35 154.112 316.578 150.479C312.657 148.048 312.693 147.814 317.33 148.534C317.568 148.551 317.805 148.578 318.04 148.614C319.053 148.712 320.035 149.019 320.924 149.517C321.812 150.014 322.587 150.693 323.203 151.507V151.507ZM218.828 146.719C216.987 149.855 216.547 149.786 215.223 146.616C213.813 142.526 216.629 136.114 219.724 136.595C222.16 136.977 221.653 141.69 218.836 146.72L218.828 146.719ZM241.903 142.775C242.578 144.249 242.29 144.661 241.287 143.821C240.455 143.352 239.515 143.112 238.561 143.124C237.607 143.136 236.671 143.4 235.848 143.889C230.06 146.186 227.332 144.847 232.522 142.004C234.472 140.639 236.767 139.864 239.137 139.773C240.419 139.972 241.232 140.956 241.907 142.776L241.903 142.775ZM333.268 157.873C336.538 161.572 336.505 161.792 333.143 160.128C331.232 159.162 329.228 158.394 327.162 157.835C326.884 157.786 326.619 157.681 326.383 157.525C326.148 157.369 325.946 157.164 325.791 156.926C325.637 156.688 325.532 156.422 325.484 156.141C325.436 155.861 325.445 155.573 325.511 155.296C325.722 153.935 326.376 153.334 327.426 153.497C329.745 154.373 331.771 155.892 333.271 157.877L333.268 157.873ZM208.164 139.364C210.389 141.078 212.024 143.613 211.817 144.95C211.575 146.508 210.507 146.11 208.575 143.988C206.084 141.09 205.825 141.282 206.405 144.79C207.058 147.86 206.736 148.49 205.143 147.105C204.379 146.244 203.825 145.214 203.527 144.098C203.228 142.982 203.194 141.811 203.425 140.678C203.776 138.415 204.17 137.462 205.16 137.616C206.272 137.986 207.295 138.583 208.167 139.369L208.164 139.364ZM351.521 173.012C351.348 174.128 348.953 173.526 346.065 171.713C343.176 169.899 341.44 168.025 341.982 167.429C342.409 167.185 342.911 167.115 343.386 167.234C346.298 167.711 351.782 171.354 351.524 173.017L351.521 173.012ZM223.872 153.426C226.058 155.365 225.735 155.998 221.357 156.456C220.021 156.545 218.747 157.06 217.718 157.925C216.689 158.79 215.959 159.962 215.633 161.271C215.253 163.715 213.877 165.331 212.766 165.158C209.232 164.61 210.978 159.18 216.19 154.744C218.467 152.937 220.178 152.064 221.724 152.304C222.536 152.459 223.283 152.851 223.876 153.431L223.872 153.426ZM386.114 181.957C394.804 188.53 397.152 194.06 396.098 206.805C395.437 212.326 393.333 217.575 389.997 222.012C385.3 228.551 382.792 230.293 376.372 231.49C374.702 231.709 372.572 231.944 370.808 232.161C375.185 230.313 378.966 227.032 377.997 223.233C377.251 220.4 376.035 221.044 371.233 225.972C369.215 228.319 366.939 230.428 364.451 232.261C361.727 231.503 359.096 230.447 356.602 229.11L349.449 225.695L356.059 216.472C362.196 207.618 366.068 197.375 367.329 186.659C367.534 184.263 368.5 182.916 369.33 183.523C371.988 185.453 364.459 208.292 358.387 217.133C352.978 224.68 352.829 225.593 356.806 222.871C364.039 218.432 368.704 210.857 370.774 199.865C371.723 194.756 373.466 189.827 375.937 185.261C379.663 180.068 378.697 178.594 372.428 178.879C361.604 179.174 336.992 208.218 346.806 208.974C348.452 209.147 348.376 209.605 346.99 210.128C345.775 210.764 345.564 213.172 346.671 215.504C348.627 219.477 349.033 219.26 354.276 211.593C359.594 203.476 359.594 203.476 354.341 208.33C349.089 213.184 348.927 213.067 354.356 206.551C357.415 202.651 358.994 199.721 358.092 199.577C356.882 199.472 357.863 198.136 359.8 196.486C363.273 193.401 363.438 193.522 361.948 199.829C360.306 205.064 357.932 210.038 354.898 214.601C349.364 222.317 348.96 222.527 346.196 218.989C336.757 206.776 342.244 186.786 356.519 179.564C361.692 176.666 367.639 175.488 373.507 176.198C378.122 177.034 382.454 179.015 386.118 181.958L386.114 181.957ZM351.132 191.988C354.71 187.703 358.65 183.738 362.909 180.139C364.734 178.662 362.416 179.783 357.538 182.357C352.239 184.619 348.017 188.866 345.761 194.201C344.458 197.326 343.734 199.019 344.129 199.081C346.754 197.026 349.108 194.643 351.136 191.989L351.132 191.988ZM367.528 220.223C371.585 216.328 374.277 211.212 375.201 205.647C376.074 200.208 377.383 194.847 379.113 189.618C380.714 184.919 380.919 182.511 379.673 183.901C376.658 189.66 374.322 195.754 372.714 202.058C369.112 214.486 367.207 218.197 363.064 220.803C356.579 225.267 356.58 225.267 360.234 227.921C363.726 230.458 367.67 228.477 372.6 221.594C374.525 218.912 376.705 216.93 377.78 217.2C379.306 217.54 383.038 207.758 383.309 202.086C383.804 200.01 385.026 198.182 386.75 196.939C389.386 195.031 389.22 194.907 386.279 195.835C383.507 196.877 383.207 195.89 385.502 190.928C387.003 187.429 387.445 184.69 386.258 184.593C383.587 184.434 380.109 192.114 377.769 204.182C375.563 214.311 371.251 221.381 364.915 224.937C364.496 225.257 364.008 225.474 363.491 225.569C362.942 225.493 364.27 223.766 367.531 220.228L367.528 220.223ZM392.771 196.996C393.856 195.486 394.03 193.835 393.201 193.224C392.371 192.613 390.552 194.102 389.152 196.404C387.586 198.585 387.175 200.576 388.072 200.728C389.102 200.706 388.546 201.831 386.845 203.15C385.143 204.469 386.332 204.563 389.517 203.301C392.703 202.04 394.007 201.974 392.305 203.289C391.48 204.332 390.905 205.552 390.627 206.856C390.35 208.159 390.375 209.51 390.704 210.799C391.911 216.52 393.267 216.747 392.351 210.973C392.026 208.955 392.297 207.877 392.966 208.36C393.636 208.844 394.542 207.215 394.867 204.643C395.193 202.072 394.541 199.814 393.197 199.593C393.09 199.598 392.982 199.592 392.876 199.575C391.873 199.423 391.898 198.221 392.771 196.996V196.996ZM382.393 225.927C383.71 225.418 384.915 224.649 385.933 223.664C386.952 222.679 387.766 221.5 388.325 220.194C388.885 218.888 389.179 217.483 389.19 216.062C389.202 214.642 388.929 213.232 388.391 211.92C387.277 208.56 385.804 206.723 385.08 207.724C382.99 212.254 382.356 217.327 383.27 222.23C383.827 223.912 383.472 224.409 381.979 223.328C380.818 222.484 379.715 222.976 379.662 224.448C379.489 225.567 379.764 226.163 380.495 226.276C381.146 226.316 381.797 226.195 382.393 225.927V225.927ZM210.164 155.866C209.819 158.093 207.135 157.903 202.554 155.37C200.661 154.391 199.809 152.664 200.61 151.873C201.016 151.558 201.49 151.345 201.993 151.252C202.496 151.16 203.015 151.189 203.503 151.34C206.487 151.803 210.458 153.999 210.168 155.867L210.164 155.866ZM202.401 158.08C202.995 158.63 201.138 160.394 198.461 161.591C195.981 163.024 193.41 163.539 193.035 163.028C192.446 162.479 194.299 160.713 196.975 159.516C198.487 158.537 200.229 157.981 202.023 157.904C202.168 157.91 202.305 157.972 202.406 158.076L202.401 158.08ZM181.251 174.858C179.903 176.244 178.253 176.673 177.694 175.902C177.134 175.131 179.353 172.51 182.412 170.247C184.332 168.97 185.514 168.419 185.99 168.493C186.888 168.632 185.257 170.998 181.251 174.854L181.251 174.858ZM177.016 174.939C178.718 175.488 176.558 179.292 174.023 179.888C172.539 180.119 172.603 179.194 173.789 177.688C175.016 176.006 176.514 174.857 176.986 174.931L177.016 174.939ZM166.83 190.496C165.463 192.219 163.78 193.663 161.873 194.745C160.107 194.471 165.024 186.118 168.277 184.111C169.038 183.566 169.937 183.252 170.87 183.207C172.269 183.416 170.802 186.409 166.835 190.493L166.83 190.496ZM157.619 204.7C156.541 207.271 154.65 209.258 153.543 209.087C151.778 208.813 154.412 200.563 157.005 198.455C157.321 198.168 157.735 198.016 158.16 198.028C159.351 198.205 159.252 201.136 157.624 204.697L157.619 204.7ZM386.376 236.085C387.286 238.304 387.686 240.704 387.547 243.104C387.098 245.998 386.88 245.964 385.34 242.761C384.429 240.542 384.027 238.142 384.166 235.742C384.391 234.297 384.559 233.58 384.862 233.628C385.166 233.675 385.608 234.498 386.378 236.098L386.376 236.085ZM368.705 232.93C365.918 232.839 367.863 232.532 370.807 232.169C370.12 232.458 369.414 232.714 368.709 232.93L368.705 232.93ZM149.777 218.26C148.477 222.337 147.499 223.917 147.479 221.778C147.846 219.156 148.657 216.618 149.873 214.268C150.244 213.72 150.502 213.474 150.654 213.498C151.046 213.555 150.714 215.354 149.781 218.26L149.777 218.26ZM389.979 256.554C389.908 258.488 390.064 260.423 390.443 262.319C390.793 264.435 390.334 265.952 389.008 265.747C387.906 265.576 386.734 262.888 386.778 259.707C386.599 256.484 387.419 254.104 388.305 254.241C388.831 254.325 389.304 254.614 389.618 255.047C389.932 255.479 390.063 256.02 389.984 256.551L389.979 256.554ZM144.861 225.652C144.793 228.198 144.199 230.704 143.117 233.009C141.895 235.615 140.563 236.852 140.272 235.541C140.343 232.996 140.939 230.491 142.022 228.189C142.947 226.234 143.925 225.046 144.48 225.132C144.64 225.152 144.781 225.322 144.853 225.647L144.861 225.652ZM391.803 270.579C392.695 272.649 393.122 274.893 393.05 277.15C392.959 277.79 392.644 278.377 392.162 278.804C391.68 279.232 391.062 279.471 390.421 279.48C389.099 279.275 388.629 276.464 389.147 273.122C389.618 270.091 390.001 268.721 390.552 268.807C390.881 268.845 391.295 269.453 391.796 270.574L391.803 270.579ZM141.173 242.861C140.865 244.978 139.961 246.291 139.398 245.7C138.622 245.168 138.603 243.786 139.251 242.299C139.905 240.401 140.587 239.521 141.01 239.587C141.433 239.653 141.613 240.778 141.164 242.856L141.173 242.861ZM398.89 284.028C400.433 284.074 399.241 288.828 396.469 290.875C387.693 297.347 388.392 303.389 399.641 302.249C413.321 301.074 412.172 305.841 398.242 308.627C388.892 310.886 385.499 313.247 388.748 318.698C389.486 320.166 389.868 321.791 389.857 323.438C389.847 325.086 389.446 326.709 388.689 328.171C386.293 327.799 384.89 321.435 384.009 319.233C382.786 316.569 381.254 310.972 376.211 311.838C369.924 312.817 360.562 314.434 364.638 311.888C365.914 310.007 367.637 308.478 369.65 307.442C371.993 306.813 374.024 305.331 375.348 303.283C376.673 301.235 377.196 298.766 376.819 296.355C376.819 296.355 373.165 284.121 374.93 283.475C376.695 282.83 380.766 291.277 382.608 292.376C386.751 294.668 385.703 291.855 389.591 287.919C392.595 285.141 395.831 282.939 397.7 283.229C397.945 283.261 398.18 283.348 398.385 283.486C398.59 283.625 398.761 283.81 398.883 284.027L398.89 284.028ZM140.369 252.221C140.345 255.008 139.373 256.852 138.139 256.446C136.906 256.041 136.539 253.583 137.304 250.865C138.024 247.835 138.812 246.413 139.395 246.503C140.042 246.604 140.476 248.551 140.373 252.221L140.369 252.221ZM141.45 266.682C141.455 268.883 141.047 271.066 140.243 273.116C138.696 274.022 137.307 264.415 138.582 260.811C139.265 259.045 139.918 258.289 140.433 258.369C141.4 258.519 141.917 261.642 141.441 266.688L141.45 266.682ZM142.563 288.9C141.837 293.574 141.289 294.174 139.939 291.227C137.758 286.333 138.449 281.878 141.321 282.324C142.413 282.506 143.108 285.336 142.555 288.899L142.563 288.9ZM375.842 322.442C377.149 322.74 377.018 324.327 375.915 326.164C374.866 327.79 374.011 329.533 373.363 331.359C373.241 331.882 372.918 332.335 372.466 332.62C372.014 332.906 371.469 333.001 370.949 332.884C370.077 332.683 370.189 330.168 371.548 327.242C372.661 324.314 374.685 322.263 375.787 322.434L375.842 322.442ZM367.627 339.457C365.817 342.363 363.96 344.126 363.365 343.585C362.062 341.783 366.952 333.653 368.949 333.963C370.024 334.125 369.428 336.545 367.619 339.456L367.627 339.457ZM145.176 302.416C146.424 304.627 147.2 307.078 147.455 309.61C147.247 310.947 145.839 309.817 144.416 307.316C143.17 305.103 142.394 302.651 142.138 300.118C142.204 299.691 142.394 299.516 142.666 299.558C143.237 299.647 144.201 300.714 145.169 302.411L145.176 302.416ZM153.14 319.628C154.309 322.32 154.218 324.351 152.892 324.145C151.785 323.974 150.117 321.653 149.169 319.012C148.221 316.37 148.314 314.319 149.197 314.456C150.283 314.625 151.954 316.937 153.124 319.626L153.14 319.628ZM355.242 355.208C354.266 357.118 352.475 358.428 351.373 358.257C350.047 358.051 350.58 356.072 352.319 353.617C354 351.404 355.393 350.438 356.12 350.551C356.979 350.684 356.9 352.352 355.223 355.201L355.242 355.208ZM168.193 356.923C165.008 359.485 161.002 360.782 156.937 360.565C151.429 359.71 151.474 359.42 156.592 355.122C165.452 347.819 164.994 341.173 154.99 334.817L146.345 329.281L154.002 327.778C156.34 327.284 158.746 327.209 161.107 327.561C164.323 327.983 167.334 329.377 169.746 331.557C172.158 333.737 173.857 336.601 174.622 339.776C175.386 342.951 175.18 346.286 174.029 349.345C172.878 352.404 170.838 355.043 168.175 356.916L168.193 356.923ZM171.902 346.424C172.55 343.258 171.985 339.966 170.319 337.208C168.653 334.45 166.01 332.433 162.923 331.563C160.023 331.113 160.131 332.324 163.023 336.665C164.35 338.66 165.198 340.94 165.497 343.324C165.796 345.709 165.539 348.133 164.748 350.403C163.635 352.964 162.914 355.678 162.607 358.456C165.204 358.85 171.161 351.096 171.887 346.418L171.902 346.424ZM329.131 372.021C332.529 383.466 331.363 389.459 323.999 398.986C317.362 407.484 306.023 412.426 303.188 409.211C301.894 409.221 299.778 409.177 296.487 409.091C296.667 407.932 289.858 405.081 286.5 402.42C279.794 397.107 273.108 379.459 276.167 374.953C287.961 356.606 290.369 354.614 301.513 354.204C304.049 354.07 306.592 354.188 309.104 354.557C313.805 355.08 318.236 357.029 321.809 360.146C325.382 363.264 327.928 367.402 329.114 372.014L329.131 372.021ZM312.923 405.104C317.869 401.856 321.951 397.436 324.811 392.233C327.523 387.136 328.331 381.233 327.088 375.595C325.845 369.958 322.634 364.963 318.039 361.518C300.35 348.094 274.743 365.954 280.772 387.773C281.457 390.781 282.767 393.606 284.618 396.062C286.47 398.518 288.82 400.55 291.511 402.02C295.673 404.637 302.356 405.215 302.666 406.117C303.235 404.51 306.869 404.708 306.7 405.799C306.625 406.282 306.921 406.564 307.488 406.652C309.397 406.62 311.265 406.084 312.906 405.097L312.923 405.104ZM302.61 406.348C302.468 406.489 302.383 406.678 302.37 406.878C302.358 407.079 302.42 407.277 302.544 407.434C302.523 407.063 302.542 406.69 302.598 406.322L302.61 406.348ZM345.277 363.676C345.802 364.669 344.281 367.171 341.692 369.276C336.769 373.299 335.348 373.761 335.728 371.314C336.4 368.297 342.699 363.107 344.8 363.433C344.977 363.455 345.141 363.539 345.262 363.67L345.277 363.676ZM308.191 360.938C308.697 362.208 307.599 363.225 305.757 362.939C301.623 362.298 301.143 360.8 304.698 359.212C305.084 359.055 305.504 359.01 305.914 359.076C306.411 359.178 306.878 359.399 307.271 359.722C307.665 360.044 307.974 360.457 308.175 360.927L308.191 360.938ZM314.963 368.932C315.172 369.719 314.882 370.156 314.343 370.072C314.184 370.051 314.031 369.998 313.893 369.916C313.756 369.833 313.636 369.724 313.542 369.593C313.448 369.463 313.38 369.315 313.344 369.158C313.308 369.001 313.304 368.838 313.332 368.679C313.427 368.067 313.739 367.506 313.959 367.54C314.267 367.559 314.71 368.258 314.947 368.922L314.963 368.932ZM298.16 366.505C298.374 367.177 298.1 367.569 297.597 367.491C297.451 367.479 297.308 367.438 297.179 367.369C297.049 367.301 296.935 367.206 296.842 367.092C296.75 366.977 296.683 366.845 296.643 366.703C296.603 366.56 296.591 366.411 296.609 366.264C296.691 365.737 296.981 365.243 297.173 365.273C297.473 365.315 297.907 365.922 298.137 366.494L298.16 366.505ZM305.877 367.88C306.031 368.444 305.821 368.767 305.425 368.706C305.311 368.691 305.202 368.651 305.104 368.592C305.005 368.532 304.919 368.451 304.852 368.357C304.785 368.263 304.74 368.157 304.715 368.044C304.691 367.931 304.689 367.813 304.711 367.699C304.778 367.264 305.003 366.851 305.154 366.874C305.371 366.904 305.687 367.397 305.859 367.869L305.877 367.88ZM320.589 380.187C317.893 382.383 317.543 381.611 318.758 376.819C319.389 374.303 320.629 372.364 321.548 372.507C323.826 372.852 323.191 378.451 320.571 380.176L320.589 380.187ZM292.304 373.9C292.699 375.862 291.996 377.414 290.842 377.235C287.855 376.771 286.428 372.275 289.176 371.279C289.44 371.168 289.729 371.131 290.012 371.173C290.939 371.309 291.794 372.345 292.286 373.89L292.304 373.9ZM305.178 374.896C305.329 375.451 305.117 375.783 304.73 375.722C304.616 375.707 304.507 375.666 304.408 375.606C304.31 375.546 304.226 375.468 304.159 375.374C304.092 375.28 304.044 375.174 304.02 375.061C303.995 374.948 303.994 374.829 304.015 374.716C304.083 374.281 304.301 373.866 304.457 373.89C304.666 373.915 304.989 374.414 305.157 374.885L305.178 374.896ZM301.206 376.47C301.678 377.966 301.07 378.826 299.924 378.648C299.601 378.621 299.287 378.529 299.001 378.376C298.716 378.224 298.465 378.014 298.262 377.76C298.059 377.507 297.91 377.213 297.823 376.899C297.736 376.585 297.712 376.258 297.755 375.934C297.935 374.775 298.573 373.69 299.033 373.761C299.705 373.857 300.678 375.19 301.189 376.457L301.206 376.47ZM309.091 379.689C307.793 380.724 307.623 380.375 308.207 378.062C308.511 376.872 309.108 375.919 309.552 375.988C310.639 376.148 310.331 378.843 309.073 379.678L309.091 379.689ZM179.903 358.7C181.75 359.744 183.306 361.239 184.426 363.05C184.047 365.494 180.294 363.322 178 359.317C176.733 357.281 176.209 356.349 176.629 356.414C177.801 357.037 178.895 357.802 179.884 358.689L179.903 358.7ZM312.761 385.539C311.824 386.301 311.705 386.036 312.123 384.373C312.339 383.504 312.773 382.825 313.088 382.874C313.884 382.993 313.651 384.948 312.742 385.528L312.761 385.539ZM316.873 388.16C315.466 389.323 315.264 388.913 315.926 386.364C316.254 385.038 316.912 384.015 317.395 384.09C318.592 384.284 318.256 387.241 316.867 388.151L316.873 388.16ZM303.817 384.366C303.765 384.707 303.58 385.012 303.304 385.217C303.028 385.421 302.683 385.508 302.344 385.456C302.172 385.441 302.003 385.389 301.853 385.303C301.702 385.218 301.572 385.101 301.47 384.96C301.369 384.819 301.299 384.658 301.264 384.487C301.229 384.317 301.23 384.141 301.269 383.971C301.322 383.63 301.508 383.324 301.784 383.12C302.06 382.917 302.406 382.832 302.744 382.883C303.068 382.958 303.355 383.15 303.551 383.421C303.747 383.692 303.839 384.026 303.81 384.361L303.817 384.366ZM191.264 369.863C193.196 371.985 193.837 373.681 192.511 373.475C190.195 372.463 188.114 370.976 186.402 369.108C184.47 366.982 183.833 365.289 185.159 365.495C187.464 366.509 189.534 367.993 191.239 369.855L191.264 369.863ZM288.67 382.657C288.815 383.36 288.561 383.915 288.146 383.85C287.079 383.685 286.575 382.08 287.555 381.725C287.648 381.686 287.752 381.673 287.852 381.689C288.185 381.732 288.488 382.097 288.648 382.646L288.67 382.657ZM297.202 387.718C297.135 388.145 296.904 388.528 296.557 388.783C296.211 389.039 295.778 389.146 295.355 389.08C295.139 389.062 294.93 388.997 294.741 388.89C294.552 388.783 294.388 388.637 294.26 388.461C294.133 388.285 294.044 388.083 294.001 387.869C293.957 387.655 293.959 387.435 294.007 387.222C294.074 386.795 294.306 386.412 294.652 386.157C294.999 385.901 295.431 385.794 295.854 385.86C296.263 385.951 296.624 386.189 296.871 386.529C297.118 386.869 297.233 387.289 297.195 387.709L297.202 387.718ZM312.636 390.114C312.589 390.4 312.433 390.656 312.199 390.827C311.966 390.998 311.674 391.07 311.39 391.025C311.245 391.012 311.105 390.967 310.979 390.895C310.852 390.823 310.743 390.725 310.658 390.608C310.572 390.49 310.512 390.355 310.481 390.212C310.451 390.069 310.452 389.922 310.483 389.779C310.527 389.492 310.683 389.232 310.916 389.059C311.149 388.887 311.441 388.816 311.726 388.859C312 388.923 312.241 389.082 312.407 389.311C312.573 389.54 312.652 389.822 312.629 390.104L312.636 390.114ZM199.387 375.42C201.212 376.491 202.081 377.825 201.331 378.129C200.538 378.65 199.28 378.158 198.143 377C196.059 375.164 195.807 374.029 196.91 374.2C197.803 374.435 198.642 374.844 199.377 375.406L199.387 375.42ZM303.889 395.872C303.792 396.488 303.457 397.039 302.958 397.407C302.458 397.774 301.834 397.927 301.224 397.832C300.914 397.803 300.615 397.707 300.345 397.553C300.075 397.398 299.841 397.188 299.658 396.935C299.475 396.682 299.348 396.394 299.284 396.088C299.22 395.781 299.22 395.464 299.286 395.158C299.384 394.545 299.719 393.994 300.217 393.627C300.715 393.261 301.334 393.107 301.943 393.199C302.53 393.332 303.049 393.674 303.405 394.163C303.762 394.651 303.932 395.252 303.883 395.857L303.889 395.872ZM207.584 379.686C210.128 380.769 211.462 382.349 210.635 383.354C209.809 384.36 207.401 383.764 205.18 382.051C201.432 379.37 201.012 377.895 203.34 378.256C204.805 378.558 206.227 379.036 207.577 379.681L207.584 379.686ZM310.51 396.9C310.493 397.01 310.457 397.114 310.4 397.209C310.343 397.304 310.267 397.389 310.178 397.455C310.089 397.52 309.988 397.567 309.881 397.594C309.774 397.62 309.662 397.626 309.553 397.609C309.442 397.597 309.336 397.561 309.24 397.504C309.143 397.448 309.059 397.371 308.993 397.281C308.927 397.19 308.88 397.085 308.856 396.976C308.832 396.866 308.83 396.753 308.852 396.643C308.889 396.422 309.01 396.223 309.189 396.091C309.369 395.959 309.593 395.905 309.812 395.938C310.021 395.987 310.205 396.109 310.332 396.283C310.459 396.456 310.52 396.67 310.504 396.885L310.51 396.9ZM273.931 396.169C274.386 397.608 272.005 398.376 268.25 397.793C264.716 397.245 261.963 396.135 262.066 395.47C262.316 393.86 266.293 393.511 269.585 394.022C271.805 394.342 273.726 395.094 273.927 396.14L273.931 396.169ZM259.619 395.316C259.416 395.68 259.14 395.998 258.811 396.252C258.482 396.505 258.106 396.69 257.705 396.792C257.303 396.895 256.885 396.913 256.476 396.847C256.067 396.782 255.677 396.634 255.327 396.411C253.984 395.605 252.947 394.722 253.063 394.53C254.333 393.845 255.73 393.432 257.165 393.319C257.821 393.204 258.489 393.18 259.151 393.248C260.238 393.388 260.336 394.072 259.616 395.287L259.619 395.316ZM227.833 388.788C229.942 389.8 228.543 390.031 225.013 389.483C221.254 388.9 219.777 388.222 221.19 387.757C222.259 387.67 223.335 387.722 224.39 387.911C225.563 388.072 226.716 388.354 227.83 388.757L227.833 388.788ZM249.556 394.221C249.417 395.115 246.626 395.592 243.311 395.078C240.22 394.598 238.34 393.621 239.356 392.867C241.384 391.869 243.683 391.582 245.888 392.051C248.007 392.339 249.719 393.12 249.554 394.179L249.556 394.221Z" fill="#5D6C7B" fill-opacity="0.47"/>
</svg>
