<svg width="256" height="259" viewBox="0 0 256 259" fill="none" xmlns="http://www.w3.org/2000/svg">
<path d="M113.034 14.9734L114.898 20.5281L94.6941 27.4339C72.6692 34.1272 52.4166 45.6532 35.4106 61.1725C25.0541 70.6069 21.2938 76.5392 13.7556 94.6716C4.73302 115.87 0.345499 142.324 3.99334 153.211C5.32167 156.715 5.11071 156.795 2.14696 153.412C0.0303505 150.959 0.296771 154.865 3.35593 165.472C20.136 226.219 41.3963 244.956 105.041 255.639C175.585 267.461 226.055 246.58 246.77 196.657C254.019 179.652 257.857 142.875 255.105 117.875C253.333 100.519 252.377 97.3729 243.925 82.0462C239.624 73.823 234.573 66.0145 228.837 58.7202C220.734 50.0218 202.504 36.1481 200.193 37.0239C199.155 37.4172 203.195 41.1453 209.345 45.3251C224.193 55.974 234.163 68.9708 243.767 89.8726C250.614 104.806 251.986 110.293 253.216 128.108C253.966 139.594 254.263 149.247 253.436 149.561C252.807 149.799 249.32 140.602 245.929 129.12C233.478 86.7628 223.203 65.3665 207.391 48.3228C204.329 45.2595 201.483 41.9874 198.873 38.5301C196.258 35.9175 193.305 33.6683 190.092 31.843L181.808 26.4682L184.604 19.8997C188.166 10.284 190.094 0.789271 188.126 0.0340869C187.247 -0.385225 182.744 3.57531 178.026 8.87222C174.966 12.5721 171.614 16.0201 168.002 19.1828C164.399 17.9525 161.104 15.96 158.339 13.3409C153.895 9.88079 148.957 7.10919 143.691 5.11915C137.952 3.28645 137.319 3.52636 138.482 6.5944C140.481 10.2383 142.965 13.5935 145.866 16.5675C151.711 23.1163 151.711 23.1162 146.593 23.5555C138.32 23.9189 132.719 20.5491 134.501 16.3688C137.168 10.0985 134.657 8.54723 127.805 12.6457C122.257 15.7507 119.904 15.8898 115.972 13.1231L110.995 9.50078L113.034 14.9734ZM131.517 18.7353C132.072 21.3449 133.629 23.6324 135.854 25.1034C141.084 28.1308 137.64 29.1787 131.067 26.4187C128.221 25.2442 126.368 25.4277 126.789 26.5393C127.785 29.1676 139.6 32.4514 142.962 31.177C144.221 30.6998 144.229 29.4456 143.171 28.5952C140.034 26.0296 143.855 25.3297 150.586 27.2854C163.702 30.8286 156.665 38.2521 141.772 36.3848C137.283 35.9525 132.887 34.831 128.739 33.0597C127.119 31.919 126.56 32.3845 127.179 34.6529C127.632 36.4851 126.224 35.2644 124.042 32.0874C120.957 27.7479 120.37 27.4715 121.403 30.8342C122.768 35.0696 122.109 35.8261 114.665 37.143C102.553 40.5897 90.6376 44.6887 78.9691 49.422C47.3336 61.663 38.2015 68.6294 20.7714 94.2697L10.3486 109.238L15.3481 97.0779C26.5808 69.0304 44.5993 53.1867 83.2145 36.5456C104.099 27.6273 110.903 25.2979 109.256 27.9259C106.555 32.2053 109.355 33.8961 115.239 31.6659C118.809 30.3129 118.854 29.7966 115.668 29.0002C112.275 28.2825 112.317 27.7676 115.468 26.5732C116.448 26.2447 117.308 25.6322 117.938 24.8135C118.569 23.9948 118.942 23.0069 119.011 21.975C119.579 20.6875 120.425 19.5417 121.488 18.6194C122.55 17.6971 123.803 17.0209 125.157 16.6393C129.811 14.8711 131.195 15.3486 131.517 18.7353ZM156.933 19.8698C158.891 23.1356 161.484 24.905 160.605 24.4857C159.643 23.8482 158.793 19.9132 156.843 16.6483C156.317 15.7032 155.582 14.8906 154.695 14.2722C153.808 13.6538 152.792 13.2459 151.724 13.0798C153.79 15.068 155.546 17.3558 156.931 19.8663L156.933 19.8698ZM60.3314 63.4964C34.0112 84.7403 21.1322 115.416 22.9075 151.784C24.5374 183.97 40.2069 208.83 71.9567 229.848C87.8104 240.614 110.528 246.027 135.275 245.41C167.075 244.374 193.007 232.291 215.844 207.608C230.379 192.082 235.235 183.98 238.82 169.35C242.105 155.828 243.401 157.349 240.854 171.585C238.11 185.897 230.164 200.429 214.103 219.535L200.196 236.073L177.008 244.613C157.261 252.098 151.468 253.292 137.166 252.955C127.814 252.995 119.713 253.812 118.903 254.868C117.976 256.221 117.515 255.643 117.903 253.493C118.332 250.827 117.747 250.546 115.64 252.596C114.958 253.265 114.08 253.698 113.134 253.832C112.188 253.965 111.224 253.792 110.383 253.337C108.764 252.196 109.3 251.744 111.521 251.904C113.534 252.143 111.985 251.229 108.131 249.933C106.618 249.27 104.985 248.921 103.333 248.907C101.681 248.893 100.044 249.215 98.5202 249.854C97.0886 251.149 96.375 251.166 96.6738 250.054C97.1822 248.86 90.0712 244.043 80.947 238.986C70.3725 233.08 60.5079 225.982 51.5462 217.83C44.6154 210.952 38.7979 206.385 38.5831 207.718C38.3684 209.051 43.0035 214.308 48.8542 219.599C61.5199 230.826 62.2139 234.566 49.7184 223.778C38.0753 213.934 35.5937 210.602 36.992 207.319C37.7536 205.53 36.0932 201.149 32.5109 195.497C22.1991 178.291 15.6585 159.09 13.3229 139.168C10.5301 117.189 10.8621 118.065 8.65199 121.136C7.30304 122.65 6.97096 121.774 7.40766 117.854C8.27254 111.265 9.92688 109.889 10.0157 115.863C10.1714 118.81 11.5203 117.297 13.9393 111.604C22.788 91.2201 46.133 65.3417 60.2913 60.2285L67.6449 57.4411L60.3314 63.4964ZM121.523 45.5611L140.394 47.1722L134.826 54.0351C132.163 56.7514 130.292 60.1444 129.416 63.8481C129.457 67.0879 137.477 63.5648 157.364 52.0029L165.606 47.1242L164.806 57.6928C164.542 65.1603 165.273 72.6305 166.979 79.9062C169.344 89.2752 170.419 90.8795 173.148 89.845C175.04 89.1278 177.617 83.8936 179.029 78.111C180.731 72.4562 182.14 66.6666 182.437 65.5519C182.946 64.3572 185.92 65.2336 189.263 67.7171C192.317 70.0645 193.693 71.7961 191.876 71.479C189.78 71.022 189.316 71.6969 190.692 73.4286C191.541 74.2318 192.572 74.8164 193.696 75.1319C194.821 75.4474 196.005 75.4843 197.146 75.2396C202.238 74.062 206.707 68.1106 203.684 66.5003C202.314 66.0175 200.997 67.0198 200.737 68.8689C200.446 71.2326 197.668 70.2815 191.661 65.7983C182.001 58.6917 181.098 53.7745 189.32 53.9135C194.394 53.9941 208.342 65.483 220.381 79.4501C223.888 83.6296 225.433 84.5449 224.354 81.6984C220.819 76.0762 216.536 70.9607 211.624 66.4924C207.68 63.0566 204.123 59.1989 201.017 54.9884C202.931 54.8552 204.851 55.1548 206.635 55.865C213.59 57.7355 222.965 72.9617 232.887 98.4996L240.568 118.126L230.97 105.487C225.672 98.4817 218.455 88.9484 215.006 84.2438C211.461 79.3263 207.325 75.3854 205.894 75.4207C203.04 75.5004 204.832 78.3263 223.181 100.155C228.731 106.741 233.607 113.869 237.734 121.43C241.886 131.123 239.792 159.212 233.78 175.015C221.44 207.74 181.547 238.136 146.174 241.778C108.026 245.72 80.129 236.766 55.223 212.888C34.8349 193.321 27.1545 177.453 25.8555 153.153C23.8771 114.34 37.2515 84.9814 67.0434 62.1681C85.4221 47.974 99.4064 43.6752 121.505 45.5677L121.523 45.5611ZM121.969 39.1307C128.256 40.5018 125.061 42.216 115.999 42.3956C108.778 42.3604 108.199 42.0966 112.82 40.345C115.666 39.0073 118.856 38.5854 121.952 39.1372L121.969 39.1307ZM177.268 37.9713C181.138 35.5022 177.882 21.2122 177.953 23.9374C177.887 29.4713 173.27 61.019 175.338 58.231C176.559 57.0159 184.803 45.8078 183.488 49.3084C182.172 52.809 187.382 46.9017 188.345 46.2793C191.246 44.427 184.029 47.4163 184.941 49.823C185.438 51.1354 198.854 49.3017 196.383 48.4917C194.12 47.5949 192.485 47.7158 192.817 48.5919C193.232 49.6861 191.219 49.4472 188.666 48.4109C185.794 47.3692 182.842 46.5623 179.84 45.9982C176.446 45.2805 176.529 45.4987 180.293 47.8304C183.848 50.2373 184.014 50.6771 181.285 51.7116C179.604 52.3488 178.463 55.0349 178.826 57.9031C179.064 61.0681 181.365 55.9388 179.269 55.4817C177.467 55.1629 173.771 62.3183 175.405 63.4572C176.532 64.531 178.361 38.2975 176.956 42.8376C174.272 50.366 175.202 51.5146 174.591 46.7403C174.141 43.6553 171.503 70.9479 172.604 71.2833C173.704 71.6187 173.87 69.5519 172.791 66.7055C171.795 64.0772 184.75 53.0873 184.602 48.8862C184.207 42.7743 179.072 38.2736 174.049 35.1676C170.66 33.1969 158.761 40.4716 160.1 41.4689L160.57 41.9996C162.867 36.0161 168.248 41.632 165.489 39.4262C164.445 38.5706 165.959 41.7111 168.104 39.144C170.248 36.5768 183.674 37.7568 182.713 37.1193C181.962 36.4019 170.745 32.1705 172.154 30.1356C173.838 28.2456 167.82 26.5191 168.653 27.4547C169.486 28.3903 174.452 39.5178 177.244 37.9605L177.268 37.9713ZM142.241 38.7295C151.929 39.5642 152.137 39.4856 146.879 42.73C141.413 46.0531 131.432 45.0803 129.855 40.9215C128.834 38.279 130.599 37.8633 142.212 38.7166L142.241 38.7295ZM188.411 43.9926C188.826 45.0868 196.076 43.3407 195.671 43.4941C194.321 43.7383 192.928 43.461 191.773 42.7182C190.646 41.6444 189.906 40.9231 190.944 40.5298C192.21 40.0499 187.914 42.6802 188.411 43.9926ZM10.8672 141.591C11.9826 155.941 22.724 186.178 30.2735 196.587C33.652 201.065 34.6827 204.421 33.7968 206.519C32.9108 208.617 32.4478 208.032 32.4204 204.787C32.3421 202.045 31.6389 200.826 30.8402 201.881C30.1346 203.151 28.4086 201.801 27.4964 199.394C26.2891 196.846 21.7932 188.784 17.5481 181.383C8.38376 166.077 6.02962 156.704 6.85303 139.862C7.46516 124.351 9.43264 125.106 10.8742 141.589L10.8672 141.591ZM17.5104 188.902C28.0858 207.931 50.9363 230.822 68.5576 239.916L80.8219 246.285L70.5323 239.417C53.8823 228.449 59.5049 229.34 77.9518 240.613C87.324 246.323 93.0971 250.147 90.7076 249.552C88.4451 248.655 86.0975 248.796 85.8 249.911C85.2089 250.887 74.4825 246.676 61.8863 240.695C35.1337 227.798 27.4113 219.458 14.1484 190.177C4.13772 168.182 5.80492 167.55 17.5173 188.9L17.5104 188.902ZM248.772 145.563C252.464 157.943 251.907 171.201 247.192 183.222C245.52 186.382 244.628 189.896 244.589 193.472C246.426 195.782 235.656 213.634 226.597 223.329C214.947 235.625 200.527 244.954 184.539 250.539C162.61 258.601 161.742 255.675 183.506 247.176C206.11 238.358 215.872 231.153 232.23 210.929C247.067 193.028 243.123 194.028 227.443 212.244C220.528 220.624 214.077 227.077 213.288 226.873C212.62 226.374 215.529 222.016 219.747 216.663C233.32 200.5 240.546 187.242 243.076 174.264C244.28 167.297 244.267 160.292 242.891 158.56C241.62 156.441 241.18 153.927 241.656 151.503C242.341 148.238 242.801 148.816 243.326 153.373C244.114 158.583 244.394 158.727 244.945 154.514C245.233 153.197 245.25 151.836 244.996 150.512C244.742 149.188 244.221 147.93 243.466 146.813C241.796 144.943 242.052 144.344 244.061 144.584C246.157 145.041 246.119 144.303 244.352 142.22C242.893 140.27 242.522 138.656 243.57 138.259C244.868 137.779 247.12 141.183 248.78 145.563L248.772 145.563ZM150.299 255.26C149.849 255.858 149.253 256.331 148.569 256.634C147.885 256.937 147.135 257.06 146.39 256.991C144.46 256.971 144.855 256.072 147.152 255.202C149.378 254.104 150.89 254.284 150.299 255.26ZM159.53 254.264C159.08 254.862 158.485 255.335 157.801 255.637C157.116 255.94 156.366 256.064 155.621 255.995C153.691 255.974 154.086 255.076 156.383 254.205C158.614 253.11 160.121 253.287 159.53 254.264V254.264Z" fill="#5D6C7B" fill-opacity="0.47"/>
</svg>
