<svg width="1337" height="1174" viewBox="0 0 1337 1174" fill="none" xmlns="http://www.w3.org/2000/svg">
<path d="M1080 1.62099C1078.3 4.82099 1081.8 17.321 1091.9 43.821C1100.5 66.121 1101.6 69.621 1100.6 69.621C1099 69.621 1083.4 63.321 1069.3 57.021C1060.1 52.921 1052.5 49.621 1052.4 49.621C1052.3 49.621 1054.5 53.821 1057.5 58.821C1063.8 69.921 1064.7 72.421 1062.6 73.221C1061 73.821 1056.1 71.321 1042.1 62.721C1037.5 59.921 1032.8 57.621 1031.8 57.621C1030.1 57.621 1030.2 58.021 1032.8 61.221C1038.7 68.321 1057.3 79.921 1066.3 82.021C1072.8 83.521 1074.8 79.821 1071.5 71.921C1068.4 64.521 1069.7 64.021 1080.4 69.021C1094.1 75.321 1111 88.921 1111 93.621C1111 96.121 1107.2 100.421 1100.5 105.621C1096.2 108.921 1094.1 109.921 1091.2 109.821C1089 109.821 1080.1 106.821 1069 102.321C1050 94.721 1028.2 87.121 1022 86.021C1018.5 85.421 1018.5 85.421 1020.8 87.021C1024.1 89.521 1036.2 94.921 1058.5 103.721C1077.7 111.321 1083 114.221 1081.6 116.421C1081.3 116.921 1075.2 119.321 1068.1 121.621L1055.1 125.821L1047.9 123.621C1023.3 116.221 1016 106.121 1012.6 74.921C1011.1 61.621 1009.2 55.621 1006.4 55.621C1004 55.621 1003.6 58.321 1005.2 63.421C1007.2 69.721 1006 73.321 1001.1 75.321C998.3 76.521 994.2 76.821 982 76.521C956 75.821 909.8 76.421 888.6 77.621C792.9 82.921 741.1 95.621 688.4 126.721C638.5 156.221 589.3 201.121 575.7 229.621C573.2 234.721 572.6 237.321 572.7 241.821C572.8 245.021 572.4 247.621 571.9 247.621C570.5 247.621 566 239.121 566 236.321C566 227.921 584.5 198.021 591.4 195.121C595.7 193.321 598 190.521 604 180.121C612.5 165.421 617.6 158.821 632.2 144.221L646 130.321L651.4 135.521C657.9 141.521 659.5 142.021 658.4 137.321C658 135.621 657.7 133.321 657.8 132.321C658 129.221 661 125.521 664.1 124.421C667.6 123.221 667 121.621 662.9 121.621C658.2 121.621 659.7 119.821 670.6 112.321C695.9 94.821 729.1 77.521 762.5 64.321C794.4 51.621 801.8 50.121 868.5 42.721C909.8 38.121 930.7 35.221 931.9 34.121C932.1 33.821 930.9 33.321 929.2 33.021C927.4 32.621 926 31.921 926 31.321C926 30.621 932.5 30.521 946.3 31.021C972 31.821 986.6 34.321 983.6 37.321C983.2 37.721 978.4 38.221 972.9 38.421C963 38.821 963 38.821 966.2 40.521C972.1 43.521 972.6 48.121 967 49.221C965.4 49.621 964 50.321 964 50.821C964 53.421 981.1 57.921 982.4 55.721C982.8 55.121 982.5 54.621 981.7 54.621C980.9 54.621 979.7 54.021 979.1 53.321C977.5 51.221 979.7 48.921 989.1 42.621C998.9 36.221 1002 32.221 1002 26.021C1002 21.321 1003.3 20.421 1005.7 23.321C1006.4 24.321 1011.6 31.821 1017.1 40.121C1028.9 57.621 1030.3 59.321 1026.2 51.121C1019.2 37.121 1000.6 11.621 997.4 11.621C996 11.621 995.8 13.021 996.1 21.821C996.4 30.521 996.3 32.121 995 31.921C994.2 31.821 987 30.421 979 28.921C965.8 26.421 962.4 26.221 941.5 26.121C918.2 26.121 905.5 27.121 878.5 30.721C836.1 36.521 788.5 47.321 754.3 59.021C717.5 71.721 678.8 93.321 654 114.921C648.3 119.921 647 120.621 643.3 120.621C638.7 120.621 638.3 121.121 640.5 124.021C641.8 125.721 641.1 126.721 632.7 136.021C605.1 166.321 574.2 208.621 561.5 233.621C551.4 253.521 545.3 270.221 533.9 308.321C530.6 319.521 527 330.721 525.9 333.321C524 337.821 523.8 338.021 522.4 336.221C521.6 335.121 521 333.021 521 331.521C521 330.021 520.6 328.521 520.1 328.221C518.4 327.121 517.5 351.621 517.5 403.121C517.5 472.321 518.6 481.221 531.5 520.121C547.7 568.721 562.4 593.721 593.4 625.521C622.2 654.921 654.8 680.521 685.5 697.721C699.7 705.621 739 725.021 770.5 739.621C826.9 765.821 839.2 770.221 884.5 780.621C923.2 789.621 926.2 790.021 954.5 790.021C989.4 790.021 1053.9 785.121 1073.3 781.021C1087.5 778.021 1111.5 768.321 1133.8 756.521L1145.1 750.521L1144.3 755.821C1143.2 763.121 1143.5 772.821 1144.9 775.421C1146.5 778.321 1150.1 778.221 1153 775.121C1155.1 772.921 1155.2 772.021 1154.8 764.921C1154.5 760.021 1153.6 755.321 1152.3 752.421L1150.2 747.721L1163.1 739.121C1170.2 734.421 1180.6 726.821 1186.3 722.421C1197.5 713.521 1217.7 694.121 1227.3 683.121C1232.3 677.421 1231.2 678.221 1221.5 687.621C1207.2 701.421 1195.1 711.621 1177.5 724.721C1161.1 736.921 1153.4 741.821 1139 749.421C1102.8 768.521 1070.4 777.721 1017.3 784.121C964.4 790.521 957 790.021 894 776.021C850.4 766.321 825.5 758.821 828.1 756.221C828.8 755.521 841 757.721 857.5 761.521C874.8 765.521 890.1 768.121 912.2 770.721C927.5 772.621 936 773.021 964 773.021C985.3 773.121 1002 772.621 1010 771.821C1037.9 768.821 1067.2 762.621 1084 756.121C1108.7 746.621 1158.3 719.221 1194 695.321C1210.4 684.321 1217.4 679.121 1226.5 670.721C1233.9 663.921 1240.8 658.621 1242.2 658.621C1243.8 658.621 1242.9 661.921 1240 666.521L1237 671.121L1240 667.621C1249.4 656.921 1267.4 628.021 1279.1 604.621C1293.7 575.321 1303.6 550.021 1315.9 510.121C1333.8 451.621 1337.8 429.721 1336.6 395.621C1333.8 313.821 1314.4 249.821 1277 198.121C1265.5 182.321 1255.9 171.421 1236.6 152.121C1215.2 130.821 1206.7 121.421 1201.1 112.721C1195.4 103.821 1195.5 101.421 1202.6 93.421C1212.8 81.821 1235.2 46.921 1238.6 37.421C1242.2 27.121 1232.1 29.621 1202 46.121C1179.3 58.621 1157.1 69.621 1154.4 69.621C1151.7 69.621 1149.3 66.721 1141.9 54.121C1132.1 37.421 1095.9 4.12099 1083.3 0.220995C1081.7 -0.279005 1080.8 0.0209945 1080 1.62099ZM1004.5 84.621C1005.4 85.421 1007 87.621 1008 89.521C1010.5 94.521 1014 107.621 1012.9 107.621C1012.4 107.621 1005.2 105.121 996.9 102.021C978.7 95.321 968.3 92.121 957.8 90.121C942.7 87.321 945 88.921 965 95.221C1002.1 107.021 1043 125.621 1043 130.721C1043 132.221 1041.3 133.521 1036.3 135.821C1026.7 140.221 1018.6 146.121 1010.4 154.921C1002.2 163.421 997.7 170.521 998.2 173.821C998.6 177.121 1002.9 177.221 1019 174.221C1026.4 172.821 1042 170.621 1053.5 169.121C1078.1 166.121 1085.6 164.521 1091.3 161.221C1096.7 158.121 1108.1 154.621 1112.9 154.621C1120.7 154.621 1123.2 159.921 1118.6 166.721C1113.3 174.521 1106.8 198.421 1101.6 229.621C1096.3 260.721 1096.2 282.721 1101.1 286.821C1104.2 289.421 1110 289.021 1116.1 285.821C1125.1 281.121 1131.9 271.421 1149.6 238.221C1153.9 230.121 1159 221.721 1160.8 219.721L1164 216.121L1169.8 222.321C1179 232.121 1194.3 254.821 1196.4 261.921C1196.7 262.821 1198.1 264.121 1199.5 264.821C1205.3 267.421 1219 259.621 1219 253.621C1219 251.021 1216.8 251.121 1214.5 253.621C1213.5 254.821 1211.1 256.621 1209.2 257.821C1205.3 260.221 1206.6 261.321 1195.3 247.121C1176.1 223.121 1170 213.421 1170 207.321C1170 200.121 1175.4 191.621 1179.9 191.621C1184.4 191.621 1194.1 195.321 1199.8 199.321C1222.6 214.921 1254.9 271.021 1274.7 329.021C1282.6 352.321 1287.3 382.721 1287.4 411.321C1287.5 425.921 1287.3 428.821 1285.9 430.121C1284.4 431.621 1284.1 431.621 1282.3 429.221C1281.1 427.821 1279.9 424.521 1279.5 421.921C1276.2 398.621 1235.7 308.021 1223.6 296.721C1219.4 292.721 1220.4 296.221 1226.7 306.621C1236.9 323.821 1250.4 354.021 1263.3 388.821C1277.7 427.521 1282 450.121 1278.1 466.621C1271.1 496.021 1258.4 532.421 1246.5 557.121C1233.6 583.721 1219.9 603.621 1200 624.021C1152.3 673.021 1079.4 710.221 1003.7 724.121C975.4 729.321 966.6 730.021 931.5 730.021C888.7 730.121 880.1 728.821 832 714.321C803 705.521 786.6 699.421 786.2 697.221C785.9 695.621 786.7 695.621 795.9 696.221C807.7 697.021 809 696.421 809 690.221C809 682.921 804.4 681.221 800.9 687.121C798.3 691.421 795.1 692.321 789.1 690.621C780.3 688.221 780 688.221 780 690.521C780 691.721 780.5 693.621 781 694.721C781.6 695.721 781.8 696.621 781.4 696.621C781.1 696.621 774.6 693.721 767.2 690.121C706 660.721 662.4 618.221 625.8 552.621C599.9 506.121 590.6 479.521 586.6 439.621C582.3 396.521 583.9 377.121 595 337.821C609.3 287.121 627.9 247.221 652.7 214.121C663 200.521 679.3 182.121 686.2 176.421L690.7 172.721L694.8 174.721C697.6 176.121 700.3 176.621 703.7 176.421C708.2 176.121 708.5 175.921 708.3 173.421C708.2 172.021 706.9 168.921 705.4 166.521L702.7 162.221L705.6 159.921C716.9 150.721 747.7 131.821 767.8 121.721C815 98.021 860.8 88.021 937.3 84.621C972.7 83.021 977.5 82.921 990.7 83.121C999.2 83.221 1003.4 83.721 1004.5 84.621ZM839.4 86.621C838.9 87.121 831.5 90.221 823 93.521C799.4 102.521 780.5 110.721 758.5 121.621C732.6 134.421 718.2 143.121 707.8 152.021L699.5 159.221L695 156.421C680.9 147.421 664 146.821 664 155.321C664 159.021 667.8 159.921 680.2 159.121C694.6 158.321 698.3 160.221 692.4 165.721C687.3 170.421 663.4 196.221 656.4 204.621C633 232.721 621.3 252.821 605.9 291.421C578.5 359.921 572.1 412.921 584.9 465.221C597.6 516.821 634.3 582.921 674.7 626.821C697.2 651.221 722.5 671.521 747.2 685.021C781.6 703.721 848.7 726.621 890.5 733.821C902 735.821 906.9 736.021 934 736.121C960.7 736.121 966.5 735.821 980 733.821C1055.6 722.621 1126.3 692.221 1179.8 647.821C1193.5 636.521 1213.8 615.421 1224.2 601.621C1244.3 575.021 1254.5 554.621 1270.2 509.621C1275 495.921 1279.2 487.321 1279.8 489.921C1280.3 492.121 1275.1 512.321 1269.8 528.621C1249.9 590.221 1218.4 640.821 1176 679.121L1168.5 685.821L1178 679.521C1203.3 662.721 1230 628.521 1250.4 587.121C1261.4 564.921 1266.9 550.821 1277.4 518.621C1286.5 490.921 1287.4 488.621 1288.7 490.021C1290.1 491.421 1289.4 544.121 1287.7 557.721C1281.8 606.221 1245.7 655.521 1186.2 696.421C1177.1 702.721 1170.4 706.821 1150.3 718.821L1147.2 720.621L1147.3 716.921C1147.4 714.821 1147.1 711.021 1146.7 708.421L1145.9 703.821L1151.7 699.321C1154.9 696.921 1158.4 693.821 1159.5 692.621L1161.5 690.321L1159 691.621C1157.6 692.321 1154.1 694.421 1151.3 696.221L1146 699.621V695.421C1146 688.421 1140.4 684.821 1138.1 690.321C1137.5 691.921 1136.9 696.121 1136.7 699.921C1136.5 703.621 1136.1 706.821 1135.9 707.021C1134.4 708.421 1110 723.721 1099.8 729.721C1067.7 748.421 1044.5 758.121 1020 763.021C997.8 767.521 990.1 768.121 958.5 768.121C933.5 768.021 925.8 767.721 912.5 765.821C891 762.921 870.9 758.821 846.6 752.221C822.9 745.721 810.1 743.221 805.8 744.121C802.9 744.821 802.8 744.721 803.3 742.421C804.3 738.621 802.3 737.021 792 732.921C786.8 730.821 777.9 726.521 772.3 723.321L762.1 717.621L762.6 713.821C763 710.321 763 710.221 761.9 712.821C761.3 714.421 760.4 715.621 759.8 715.621C758.1 715.621 731 697.421 716 686.321C700 674.421 667.1 642.121 651.6 623.021C599.8 559.221 571.1 491.121 562.4 411.321C560.3 392.821 560.1 351.021 561.9 332.121C565.5 293.421 574.9 248.721 582.9 231.221C590 215.921 613.5 188.821 637.8 167.921C644.5 162.121 645.1 161.821 647.8 162.821C653.6 165.021 659 160.621 659 153.721C659 151.321 660.4 150.121 669.8 143.921C705 120.721 743.3 103.721 782.3 94.121C805.4 88.421 842.5 83.521 839.4 86.621ZM1240.1 161.321C1246.2 166.821 1263.5 186.721 1271.6 197.621C1296.9 231.321 1313 269.021 1321.9 315.621C1328.5 350.621 1333.1 403.521 1331 423.121C1328 452.421 1315.2 504.921 1302.2 540.921L1295.5 559.621L1294.7 552.921C1294.3 549.121 1293.8 504.921 1293.6 454.621C1293.4 394.421 1292.9 359.321 1292.1 352.121C1288.1 313.721 1283.5 291.021 1273.4 258.821C1260.2 217.021 1242.2 173.021 1234.6 163.921C1229 157.221 1233.3 155.221 1240.1 161.321ZM1239.8 214.121C1249.9 217.321 1254 220.721 1258.4 229.521C1269.1 250.721 1277.1 283.121 1282.3 325.921C1282.9 330.521 1281.5 327.921 1273.5 309.121C1263.9 286.521 1252 263.421 1235.1 234.821C1227.9 222.521 1222 212.021 1222 211.421C1222 209.821 1230.1 211.021 1239.8 214.121ZM564.7 245.821C567.3 249.721 567.5 250.721 567.4 259.521C567.3 266.421 566.4 273.121 564.1 283.121C558.2 308.821 557.8 313.321 557.3 351.121L556.9 386.121L552.6 387.221C544.4 389.321 531 397.721 531 400.821C531 403.921 550.2 397.221 556 392.021C557.4 390.821 557.7 392.821 558.8 410.921C560.8 444.821 562.6 453.721 574.5 491.621C578.6 504.521 583.3 520.121 584.9 526.321C589.2 542.721 597.7 558.221 616.7 584.421C642.2 619.421 664.5 645.221 701.2 682.021C716.5 697.421 728.8 710.121 728.7 710.321C728.5 710.521 725.8 709.521 722.8 708.121C719.8 706.721 714.9 705.221 711.9 704.621C698.3 702.121 665 682.621 634 659.021C572.7 612.321 542.2 561.521 528.1 482.321C524.3 461.021 522.7 442.221 522.6 415.621C522.5 401.621 522.7 388.721 522.9 387.121C523.1 385.421 523 383.421 522.7 382.621C522.2 381.621 523.1 379.921 524.9 377.921C526.5 376.121 528 375.021 528.2 375.521C528.4 376.021 529.5 376.021 530.7 375.521L533 374.721L532.3 353.321C531.6 327.421 532 324.421 540 305.821C553.2 274.821 557.6 261.421 559.5 246.321C559.9 243.721 560.5 241.621 561 241.621C561.6 241.621 563.2 243.521 564.7 245.821ZM1139.8 718.621C1140.7 720.521 1141.6 722.421 1141.8 722.921C1142.3 724.021 1098.5 745.321 1083.5 751.321C1069.4 756.821 1064 758.421 1064 756.721C1064 755.321 1067.6 752.921 1086.5 742.121C1095.9 736.821 1110.9 727.521 1120 721.521C1135.8 711.221 1136.5 710.821 1137.4 712.921C1137.8 714.121 1138.9 716.721 1139.8 718.621ZM756 718.621C757.3 719.521 757.3 719.721 756 720.621C753.8 722.021 753.2 721.821 752 719.621C751.1 717.921 751.2 717.621 752.7 717.621C753.7 717.621 755.2 718.121 756 718.621ZM772.7 726.621C785.9 733.521 795 739.321 795 740.821C795 742.421 788.3 741.221 782.2 738.621C779.4 737.421 777 735.821 777 735.121C777 734.021 765.8 725.621 764.4 725.621C764.1 725.621 764.7 726.721 765.6 728.121C767.8 731.521 766.4 731.221 760.7 727.021C756.7 724.121 756.1 723.221 757.1 722.021C758.9 719.821 760.6 720.221 772.7 726.621Z" fill="#5D6C7B"/>
<path d="M716.6 183.821C714.4 186.821 714.6 191.421 717 195.821C718.6 198.921 718.8 200.021 717.8 202.121C717.2 203.521 716.9 204.821 717.1 205.021C717.4 205.321 720.6 205.621 724.4 205.721C730.7 205.921 731.5 205.721 733.4 203.421C734.6 202.121 738.5 198.821 742.3 196.221C748.5 191.821 752.8 186.721 751.3 185.221C749.8 183.821 744.1 184.821 738.3 187.521L732.1 190.521L730.5 188.021C727.4 183.321 725.1 181.621 721.6 181.621C719.1 181.621 717.7 182.321 716.6 183.821Z" fill="#5D6C7B"/>
<path d="M749.7 209.821C745 214.221 744.8 217.621 749 221.821C750.7 223.421 752 225.321 752 226.021C752 227.521 755.5 230.821 759 232.721C760.4 233.421 764.8 234.121 768.8 234.221C775.9 234.521 776 234.521 776 232.121C776 227.221 770.2 223.621 762.3 223.621H757.7L759.8 221.321C761 220.021 762 218.221 762 217.321C762 214.421 759.7 210.621 758 210.621C757 210.621 755.6 209.621 754.8 208.521C753.4 206.321 753.4 206.421 749.7 209.821Z" fill="#5D6C7B"/>
<path d="M766.9 248.621C765.2 250.221 764.1 252.021 764.4 252.521C765.5 254.321 771.9 256.621 775.7 256.621C782.2 256.621 784 252.621 779.5 248.121C776 244.521 770.7 244.721 766.9 248.621Z" fill="#5D6C7B"/>
<path d="M787 266.321C787 270.321 793.9 282.621 796.2 282.621C797.3 282.621 797.2 277.921 796 273.721C794.3 267.721 787 261.821 787 266.321Z" fill="#5D6C7B"/>
<path d="M787.2 285.721C787.8 287.721 799.8 293.621 803.2 293.621C805.7 293.621 805.9 293.421 805 291.721C803.1 288.021 797.9 285.321 792.2 284.821C787.9 284.421 786.8 284.621 787.2 285.721Z" fill="#5D6C7B"/>
<path d="M783 305.521C783 311.521 786.4 315.521 791.6 315.621C802.2 315.721 798 304.421 787 302.921C783.1 302.321 783 302.421 783 305.521Z" fill="#5D6C7B"/>
<path d="M799.6 308.821C800 309.521 801.7 312.021 803.3 314.321C806.5 318.921 806.6 322.921 803.4 327.521L801.8 329.721L799.5 327.621C794.9 323.321 781.8 321.421 768.6 323.221C760.5 324.421 762.2 325.621 779 330.721C784.2 332.221 790.5 334.021 792.8 334.621C796.8 335.621 797.1 335.921 795.7 337.421C793.6 339.921 790.8 345.721 791.4 346.421C792.8 347.821 797.4 344.121 802 337.921C808 329.821 814.3 317.621 813.8 315.021C813.5 313.121 806.8 309.321 801.7 308.221C799.5 307.721 799 307.821 799.6 308.821Z" fill="#5D6C7B"/>
<path d="M710 323.821C703.9 325.521 700.6 330.521 704.6 332.021C710.8 334.421 742.9 329.221 740 326.221C739.1 325.421 721.6 322.621 717.5 322.721C715.3 322.721 711.9 323.221 710 323.821Z" fill="#5D6C7B"/>
<path d="M666 331.021C657.8 333.221 645.4 341.321 646.3 343.921C646.9 345.721 655.2 344.921 661.8 342.521C669.6 339.521 676.1 339.021 680.1 341.021C684.1 343.021 684.6 342.521 683 338.421C679.7 330.221 675.6 328.421 666 331.021Z" fill="#5D6C7B"/>
<path d="M823 335.521C823 337.321 831.8 339.821 840 340.321C847.7 340.821 848.4 340.721 847 339.321C843.9 336.021 823 332.821 823 335.521Z" fill="#5D6C7B"/>
<path d="M865 341.421C865 342.021 865.5 343.721 866.2 345.121C867.3 347.521 867.7 347.621 876 347.621C883.9 347.621 884.8 347.821 887 350.121C889.6 352.921 892.5 353.421 893.4 351.121C894.2 348.821 895.6 349.321 898.9 352.821C901.2 355.221 902.2 355.821 903.1 354.921C903.9 354.121 903.9 353.121 902.8 350.921C901.1 347.421 897.6 346.221 881.2 343.721C874.2 342.621 867.7 341.421 866.7 341.121C865.8 340.721 865 340.921 865 341.421Z" fill="#5D6C7B"/>
<path d="M617.3 345.221C613.5 347.121 599 359.221 599 360.521C599 361.021 600.8 361.621 603 362.021C606.3 362.521 607.2 363.221 608.3 365.821L609.6 369.021L612 364.221C614.8 358.421 621.1 354.021 627.9 353.121C639.4 351.521 642.1 349.721 638.3 346.421C635.5 344.021 621.3 343.221 617.3 345.221Z" fill="#5D6C7B"/>
<path d="M908 356.021C908 356.921 921 365.121 927.9 368.621C935.3 372.321 938 372.521 938 369.321C937.9 364.921 931.1 359.321 923.9 357.721C917.5 356.421 908 355.421 908 356.021Z" fill="#5D6C7B"/>
<path d="M806 363.221C803.5 365.321 803.2 366.121 804.1 367.321C806.1 369.621 810.6 371.621 814 371.621C820.9 371.621 823.1 367.621 818.5 363.121C815.2 359.721 810.1 359.821 806 363.221Z" fill="#5D6C7B"/>
<path d="M946 374.521C944.6 377.221 944.7 380.921 946.3 382.821C946.9 383.721 951 385.621 955.3 387.021C959.6 388.521 965.8 391.021 969.1 392.721C972.5 394.421 975.4 395.521 975.7 395.321C976.3 394.721 967.1 383.821 962.6 379.921C958.3 376.021 951.9 372.621 949.1 372.621C948 372.621 946.6 373.521 946 374.521Z" fill="#5D6C7B"/>
<path d="M815.6 377.521C811.6 381.921 811 394.921 813.9 414.621C815 421.521 815.9 426.621 815.9 426.121C816 425.521 816.7 420.621 817.5 415.121C822.1 382.121 821.6 370.921 815.6 377.521Z" fill="#5D6C7B"/>
<path d="M826 381.321C826.1 385.221 833 397.621 835.1 397.621C836.3 397.621 836.3 393.021 835 388.721C833.3 382.721 826 376.721 826 381.321Z" fill="#5D6C7B"/>
<path d="M996 416.521C996 420.021 1011.5 431.421 1019.4 433.621C1031.8 437.021 1024.6 426.421 1009.4 418.721C1003.6 415.821 996 414.521 996 416.521Z" fill="#5D6C7B"/>
<path d="M837.3 420.721C841.4 426.321 843 429.221 843 430.921C843 433.321 840.4 438.321 836.6 443.121C829.3 452.321 826.6 457.621 829.3 457.621C834.2 457.621 850.9 433.021 851 425.821C851 424.021 850 423.021 846.6 421.521C844.2 420.521 840.7 419.321 838.9 418.921L835.5 418.321L837.3 420.721Z" fill="#5D6C7B"/>
<path d="M818.5 421.621C817.5 423.221 818.9 428.121 821.1 430.521C823.6 433.221 827.5 434.121 830.6 432.721C833.9 431.221 834.6 429.121 832.7 426.221C829.9 422.021 820.2 418.921 818.5 421.621Z" fill="#5D6C7B"/>
<path d="M1071.5 443.621C1051.9 446.721 1032.4 456.921 1019.3 471.021C997.8 494.121 989.7 527.921 998.9 555.521C1004.1 571.021 1014.2 584.521 1019.2 582.721C1024.1 581.021 1039.8 558.821 1048 542.121C1056.1 525.621 1063.4 500.621 1060.2 500.621C1058.8 500.621 1048.5 509.521 1046.4 512.421C1044.9 514.621 1044.9 514.821 1046.5 516.021C1048.2 517.221 1048.1 517.721 1045.1 523.321C1043.3 526.721 1037.8 534.421 1032.9 540.621C1028 546.821 1024 552.021 1024 552.321C1024 552.621 1028.1 549.121 1033.1 544.521C1038.1 539.921 1043.3 535.221 1044.8 534.121C1047.3 532.221 1047.3 532.221 1046.8 534.321C1046.1 537.021 1028.3 563.821 1023.5 569.421C1018.7 575.021 1015.6 574.921 1012.3 569.121C1007 559.821 1006.9 551.821 1012.1 548.721C1014.5 547.221 1014.8 546.721 1013.5 546.221C1012.6 545.921 1011 545.621 1009.9 545.621C1008.9 545.621 1007 544.621 1005.9 543.521C998.8 536.421 1013.9 509.721 1039.5 484.221C1063.5 460.121 1082.7 449.321 1098.4 451.021C1101.7 451.321 1105.4 452.321 1106.7 453.121C1110 455.321 1109.7 460.121 1106 466.021C1097.3 479.621 1091 496.221 1086 518.521C1079.8 546.521 1071.9 562.821 1057.5 577.221C1052 582.821 1037 593.621 1034.9 593.621C1032.5 593.621 1034.8 588.921 1043.1 576.621C1056.2 557.021 1065.6 537.021 1074.8 508.621C1079.2 495.021 1083 478.121 1083 471.921C1083 468.221 1081.6 465.621 1079.7 465.621C1078.4 465.621 1076.3 471.621 1075.5 477.621C1074.1 488.921 1069.8 507.021 1065.9 518.321C1058 541.021 1049.6 556.421 1030.7 582.621C1024.9 590.621 1020.5 597.421 1020.8 597.721C1022.3 599.021 1055.8 614.521 1060.8 616.121L1066.1 617.821L1071.5 613.621C1074.4 611.321 1080.4 605.821 1084.7 601.321C1100.4 584.821 1105.9 581.521 1108.1 587.321C1109.6 591.321 1109.4 597.921 1107.7 601.221C1105.9 604.621 1100.1 610.221 1094.5 614.121L1090.5 616.821L1097 616.221C1116.8 614.221 1128.2 608.421 1139.3 594.621C1156.2 573.621 1162.9 557.821 1165.1 533.621C1166.9 513.321 1163.8 495.721 1156.2 484.021C1145.6 467.721 1121.4 450.221 1102.5 445.121C1095.1 443.121 1079.5 442.421 1071.5 443.621ZM1050.7 465.721C1043.2 472.821 1031.9 484.721 1025.6 492.121C1014.6 504.821 1003.5 515.521 1002.4 514.421C1001.8 513.721 1006 502.621 1009.8 495.121C1017.7 479.321 1027.3 470.621 1048.3 460.021C1056.5 455.921 1063.4 452.621 1063.8 452.621C1064.1 452.621 1058.3 458.521 1050.7 465.721ZM1116.6 469.821C1116.2 472.121 1113.7 481.221 1111.1 490.021C1106.3 505.721 1104.2 514.521 1100.1 535.321C1096.5 553.621 1090.2 565.721 1076.6 580.521C1067.4 590.521 1063.5 595.521 1064.3 596.221C1065 596.921 1072.3 592.321 1078.2 587.421C1087.9 579.421 1098.1 562.521 1103.3 546.121C1104.7 541.721 1107.5 530.921 1109.5 522.121C1115.9 494.521 1122.5 477.921 1129.5 471.821C1133.6 468.221 1134.3 468.021 1136.1 470.221C1137.8 472.321 1136.2 479.821 1131.6 491.321C1128.2 499.621 1127.3 503.621 1128.6 504.821C1128.9 505.121 1131.5 504.821 1134.3 504.021C1142.6 501.821 1142.8 502.321 1135.8 508.821C1128.3 515.821 1126.4 519.421 1125 529.321C1123.6 539.321 1119.4 553.021 1114.9 562.321C1111.3 569.821 1110.6 570.621 1107.2 571.521C1103.1 572.621 1097.6 577.921 1089.3 588.621C1073.7 608.621 1063.1 612.621 1050.8 603.221C1042.6 596.921 1043.2 595.421 1056.9 585.621C1075.9 572.021 1079.4 565.821 1092 523.121C1095.3 511.921 1099.8 498.221 1102 492.621C1106 482.521 1112.3 469.221 1114.2 466.821C1116.3 464.321 1117.3 465.621 1116.6 469.821ZM1157.4 497.221C1158.5 500.121 1158 502.621 1155.5 507.621C1154.1 510.321 1153 513.021 1153 513.621C1153 514.121 1154.5 515.221 1156.4 516.021C1160.7 517.821 1162.5 522.621 1161.7 530.521C1161 538.321 1158.7 543.621 1155.9 543.621C1153.8 543.621 1153.7 543.821 1154.4 554.121C1155 562.821 1154.9 564.621 1153.7 564.621C1151.8 564.621 1150.3 561.021 1148.4 551.421C1146.8 543.621 1146.8 542.721 1148.3 537.421C1149.3 534.321 1151.2 530.321 1152.6 528.621C1154.1 526.921 1155.1 525.321 1154.8 525.121C1154.6 524.921 1150.6 526.021 1146 527.721C1133.4 532.121 1131.3 531.621 1137.5 525.621C1141.4 521.821 1141.6 521.121 1139.6 519.021C1137.7 517.221 1138.8 513.121 1143 506.521C1148.7 497.821 1155.8 493.121 1157.4 497.221ZM1136.7 544.421C1144.1 555.421 1145.8 571.421 1140.7 581.721C1133.2 597.121 1110.2 606.821 1113.8 593.121C1115 588.821 1117.4 587.721 1121.1 589.921C1125.1 592.121 1126 591.421 1124.9 586.921C1123.3 580.021 1123.9 563.521 1125.9 555.421C1129.9 539.921 1132.1 537.721 1136.7 544.421Z" fill="#5D6C7B"/>
<path d="M835.6 489.521C831.7 490.321 831.5 491.521 834.3 495.721C837.3 500.221 843.3 503.521 845.7 502.021C849.7 499.521 847.7 492.221 842.4 490.021C840.5 489.221 838.9 488.721 838.8 488.721C838.6 488.821 837.2 489.121 835.6 489.521Z" fill="#5D6C7B"/>
<path d="M825.8 504.721C823.2 506.221 823.6 507.321 827.1 508.521C831.7 510.121 843 509.921 843 508.321C843 504.921 830.1 502.221 825.8 504.721Z" fill="#5D6C7B"/>
<path d="M816.4 525.621C832.4 553.021 838.8 560.221 840.4 552.521C841.4 547.321 836.8 540.621 821.7 525.221L808 511.121L816.4 525.621Z" fill="#5D6C7B"/>
<path d="M843 514.621C841.4 517.521 840.6 529.021 841.7 531.121C842.7 532.821 842.9 532.721 844.3 530.521C846.8 526.821 847.9 520.021 846.9 516.021C845.8 512.121 844.6 511.721 843 514.621Z" fill="#5D6C7B"/>
<path d="M811.4 547.221C808.8 553.421 811.2 558.621 817.3 560.121C820.5 560.921 823 559.321 823 556.421C823 552.121 816.9 543.621 813.7 543.621C813.3 543.621 812.2 545.221 811.4 547.221Z" fill="#5D6C7B"/>
<path d="M832.9 563.021C832.3 565.421 830.7 568.521 829.3 569.821C827 571.921 825.7 572.121 813.5 572.621C806.2 572.921 799.9 573.421 799.5 573.821C798.4 574.821 802.7 576.721 808.2 577.521C813.7 578.421 833.7 576.421 837 574.621C838.3 573.921 839 572.521 839 570.721C839 567.221 836.1 558.621 834.9 558.621C834.4 558.621 833.5 560.621 832.9 563.021Z" fill="#5D6C7B"/>
<path d="M820.3 613.221C818.2 614.121 818.8 616.921 822 621.921C826.8 629.521 833 629.321 833 621.721C833 619.121 832.3 617.321 830.6 615.721C828.3 613.521 822.6 612.221 820.3 613.221Z" fill="#5D6C7B"/>
<path d="M1129.7 623.321C1129.4 623.821 1128.8 626.421 1128.5 629.221C1127.7 635.521 1130 646.621 1133.6 653.721C1135.9 658.321 1136.4 658.821 1137.1 657.121C1138.4 653.821 1138.1 642.421 1136.6 636.521C1135 630.421 1130.5 621.921 1129.7 623.321Z" fill="#5D6C7B"/>
<path d="M808 627.121C808 627.921 808.9 629.021 810.1 629.621C813.3 631.421 821.2 633.621 824.2 633.621C827.9 633.621 827 631.721 821.8 628.321C817 625.221 808 624.421 808 627.121Z" fill="#5D6C7B"/>
<path d="M824.1 639.321C822.7 642.121 820 651.721 820 654.321C820 657.521 822.1 656.421 825.3 651.421C828.4 646.621 829.2 637.621 826.5 637.621C825.7 637.621 824.7 638.421 824.1 639.321Z" fill="#5D6C7B"/>
<path d="M799.5 648.821C798.4 654.821 808.4 678.621 812 678.621C813.5 678.621 815.2 672.521 814.6 669.421C813.7 664.621 803.6 646.221 801.7 645.821C800.6 645.621 799.9 646.521 799.5 648.821Z" fill="#5D6C7B"/>
<path d="M786.6 664.521C784.3 668.921 784.6 673.321 787.5 676.121C790 678.621 791.6 679.121 794.4 678.021C796.9 677.021 796.5 669.621 793.7 665.521C790.7 661.021 788.5 660.721 786.6 664.521Z" fill="#5D6C7B"/>
<path d="M769.5 714.621C766.5 715.121 766.2 715.421 768.2 715.521C772 715.721 776 717.721 776 719.321C776 721.321 780 720.521 781.4 718.321C782.3 716.821 782.1 716.221 780.6 715.021C778.5 713.521 776.1 713.421 769.5 714.621Z" fill="#5D6C7B"/>
<path d="M526.4 382.121C525.9 384.521 525.7 386.321 526.2 386.021C527 385.521 528.5 378.721 527.8 378.121C527.6 377.921 527 379.721 526.4 382.121Z" fill="#5D6C7B"/>
<path d="M367.5 57.3209C364.4 60.4209 361 64.6209 360.1 66.5209C357.9 70.8209 356.7 78.6209 357.9 80.5209C359.1 82.4209 368.5 70.9209 372.7 62.1209C378.4 50.1209 376.5 48.3209 367.5 57.3209Z" fill="#5D6C7B"/>
<path d="M336.4 55.8209C333.9 60.7209 334.2 69.5209 337.1 74.7209C339.9 79.7209 341.3 80.0209 342.1 76.0209C343.2 71.1209 343.1 56.6209 342 54.5209C340.4 51.7209 338.3 52.2209 336.4 55.8209Z" fill="#5D6C7B"/>
<path d="M314.6 58.221C313.3 61.621 314.4 73.621 316 73.621C317.3 73.621 319 68.521 319 64.521C319 58.421 316.1 54.221 314.6 58.221Z" fill="#5D6C7B"/>
<path d="M477.8 67.121C477.2 68.521 476.2 69.621 475.6 69.621C474.8 69.621 474.6 72.121 474.8 77.321C475.3 87.621 476.4 89.421 478.2 83.221C479.2 79.821 481.1 76.821 484.6 73.421L489.5 68.521L487.1 66.521C483.7 63.721 479.2 64.021 477.8 67.121Z" fill="#5D6C7B"/>
<path d="M381.5 72.721C378.2 76.821 373 86.921 373 89.621C373 92.721 375.9 92.121 383.1 87.521C392.3 81.621 394 79.821 394 76.021C394 69.421 386.1 67.321 381.5 72.721Z" fill="#5D6C7B"/>
<path d="M261.7 74.421C259 77.321 259.7 80.321 264.1 85.121C268.5 89.921 276.5 95.621 278.8 95.621C280.7 95.621 279.6 90.821 275.9 82.921C271.5 73.521 265.6 70.121 261.7 74.421Z" fill="#5D6C7B"/>
<path d="M493.3 78.7209C489.4 84.7209 483.5 97.4209 484.2 98.1209C484.7 98.7209 504.2 92.1209 508 90.1209C511.1 88.5209 511.3 88.2209 509.5 87.5209C508.4 87.1209 506.5 86.7209 505.4 86.7209C501.7 86.5209 498.1 82.0209 497.8 76.8209L497.5 72.2209L493.3 78.7209Z" fill="#5D6C7B"/>
<path d="M448.5 78.721C439.7 83.421 437.8 88.021 443 91.721C448.7 95.821 454 94.621 454 89.121C454 87.521 455.2 85.821 457.5 84.021C460 82.121 461 80.621 460.8 79.221C460.4 76.121 453.8 75.921 448.5 78.721Z" fill="#5D6C7B"/>
<path d="M550 78.6209C550 86.6209 562.2 94.7209 576.4 96.3209L581.5 96.8209L576.9 92.1209C572.8 87.9209 572 87.5209 570.1 88.6209C565.9 90.8209 562.9 89.5209 558 83.1209C553 76.7209 550 75.0209 550 78.6209Z" fill="#5D6C7B"/>
<path d="M539.8 91.021C532.2 94.121 523.4 100.621 525.2 101.721C531.4 105.721 551 97.621 551 91.021C551 87.821 547.5 87.821 539.8 91.021Z" fill="#5D6C7B"/>
<path d="M314 92.2211C297.2 95.8211 282.6 107.721 276 123.121C273.4 129.221 270 146.021 270 152.821C270 160.021 272.2 168.521 275.3 173.821C277.7 178.021 284.7 185.421 290 189.421C296.5 194.321 310.2 201.621 316.4 203.521C324.7 206.021 336.9 206.321 345.5 204.121C363.3 199.421 378.1 184.921 383.4 166.721C385.5 159.621 385.5 143.021 383.5 135.121C375.5 103.821 345.6 85.3211 314 92.2211Z" fill="#5D6C7B"/>
<path d="M404.1 95.2209C398.3 98.1209 387.1 108.021 388.2 109.121C388.6 109.521 391.9 108.021 395.4 105.621C399 103.321 403.9 101.021 406.2 100.521C410.7 99.5209 413 97.4209 413 94.4209C413 91.9209 410.3 92.1209 404.1 95.2209Z" fill="#5D6C7B"/>
<path d="M588 99.1209C588 101.121 595.6 109.421 599.1 111.221C602.4 112.921 605.6 113.021 606.5 111.621C607.7 109.721 604.1 105.621 597.8 101.521C591.4 97.4209 588 96.6209 588 99.1209Z" fill="#5D6C7B"/>
<path d="M254.3 104.321C255.1 109.221 258.2 111.821 262.9 111.421C265.9 111.121 266.5 110.721 266.8 108.521C267.2 104.821 262.1 100.621 257.3 100.621C253.7 100.621 253.7 100.621 254.3 104.321Z" fill="#5D6C7B"/>
<path d="M552.5 107.321C548.5 107.821 535.8 110.721 534.1 111.621C533.4 112.021 539.9 112.521 548.6 112.821C566.4 113.421 570 114.421 570 118.621C570 120.021 568 124.521 565.5 128.521C561.3 135.321 560.3 137.621 561.5 137.621C562.5 137.621 572.6 130.721 574.2 129.021C583.7 118.321 570.8 105.421 552.5 107.321Z" fill="#5D6C7B"/>
<path d="M238.2 115.521C236 116.921 237.2 122.621 240.1 124.821C243.8 127.621 254.1 128.421 255.9 126.221C257.1 124.721 257 124.121 255.3 121.821C250.9 115.921 242.5 112.821 238.2 115.521Z" fill="#5D6C7B"/>
<path d="M414 117.521C411 118.521 406.5 120.321 404 121.721L399.5 124.121L402.6 124.421C405.8 124.721 415.1 121.621 418.4 119.121C421.8 116.521 419.7 115.821 414 117.521Z" fill="#5D6C7B"/>
<path d="M613 122.321C613 123.221 615.7 126.621 618.9 129.821C624 135.021 625.2 135.721 628.1 135.421C629.9 135.221 631.5 134.621 631.7 134.021C632.3 132.321 626.5 126.921 620.6 123.621C614.8 120.221 613 119.921 613 122.321Z" fill="#5D6C7B"/>
<path d="M170.4 133.021C168.3 134.921 166.8 136.721 167.1 137.021C167.4 137.321 169.4 135.821 171.5 133.621C176.3 128.721 175.7 128.421 170.4 133.021Z" fill="#5D6C7B"/>
<path d="M593.2 134.921C589.8 136.021 585 139.821 585 141.521C585 143.121 590.6 145.621 594.3 145.621C600.5 145.621 604.9 137.221 600.1 134.621C597.8 133.421 597.6 133.421 593.2 134.921Z" fill="#5D6C7B"/>
<path d="M415 137.121C409.1 139.021 404.5 142.721 405.3 145.021C406.4 147.721 412.8 149.921 418.3 149.321C427.7 148.421 431.5 140.521 424.3 136.721C421.6 135.321 420.7 135.421 415 137.121Z" fill="#5D6C7B"/>
<path d="M181 138.621C179.8 139.321 179.8 139.621 181.3 140.221C183.4 141.021 184.2 140.521 183.2 138.921C182.7 138.121 181.9 138.021 181 138.621Z" fill="#5D6C7B"/>
<path d="M224.7 139.121C215.1 141.121 211 142.521 211 144.121C211 148.021 240.1 151.421 250.2 148.621C254.9 147.321 255.7 145.121 252.5 142.221C247.5 137.621 237.9 136.521 224.7 139.121Z" fill="#5D6C7B"/>
<path d="M160.4 144.821C151.5 154.521 147.7 161.221 150.5 162.221C153.4 163.421 163 157.421 168.4 151.121C176.7 141.521 176.7 141.521 173.2 142.821C170.7 143.821 169.7 143.721 167.6 142.321C166.2 141.421 164.9 140.621 164.7 140.621C164.4 140.621 162.5 142.521 160.4 144.821Z" fill="#5D6C7B"/>
<path d="M229.9 160.921C225.8 163.721 225.1 166.721 228 169.621C229.8 171.421 230.9 171.721 233.8 171.121C238.2 170.321 241.7 168.521 244.8 165.621C247.8 162.721 247.6 161.021 243.9 159.721C238.8 157.921 233.6 158.421 229.9 160.921Z" fill="#5D6C7B"/>
<path d="M410.4 161.021C405 163.421 405.1 164.921 411 168.521C417 172.121 425 170.821 425 166.221C425 161.221 416.5 158.221 410.4 161.021Z" fill="#5D6C7B"/>
<path d="M138.1 179.821L127.7 184.821L130.6 186.721C134.1 189.021 140.7 189.221 145.7 187.121C150.4 185.121 153.3 185.221 157.9 187.521C162.5 189.921 166.4 194.821 168.7 201.221C171.1 207.621 173 208.121 173 202.421C173 192.921 167.4 180.021 161.7 176.521C156.2 173.221 150 174.021 138.1 179.821Z" fill="#5D6C7B"/>
<path d="M246.5 178.021C234.8 181.821 224.6 187.621 226.5 189.421C229 191.821 250.3 184.521 255.8 179.421C260.5 174.921 257.3 174.521 246.5 178.021Z" fill="#5D6C7B"/>
<path d="M394.6 182.521C393.6 184.021 413 193.321 419.3 194.521C425.9 195.721 428 195.021 428 191.621C428 187.821 425.4 185.921 418 184.221C408.6 182.121 395.4 181.221 394.6 182.521Z" fill="#5D6C7B"/>
<path d="M251.4 197.021C241 202.021 237.6 207.221 242 211.621C244.7 214.321 247.2 214.121 251.1 210.921C255 207.621 263 196.921 263 195.021C263 192.721 258.9 193.421 251.4 197.021Z" fill="#5D6C7B"/>
<path d="M142.6 198.821C143.8 203.021 150.8 216.221 152.4 217.521C154.6 219.421 156 218.021 156 213.821C156 210.321 156.1 210.221 157.5 212.321C160.1 216.021 165.6 218.921 167.8 217.721C170.6 216.221 171.2 213.921 169.6 210.121C167.4 205.021 161.8 203.021 157 205.621C155.4 206.521 154.3 205.821 150.2 201.621C145 196.221 141.3 194.921 142.6 198.821Z" fill="#5D6C7B"/>
<path d="M108 201.621C104.5 203.821 113.3 213.621 118.8 213.621C123.4 213.621 123.9 207.421 119.7 202.821C117.5 200.421 110.9 199.721 108 201.621Z" fill="#5D6C7B"/>
<path d="M271.9 203.521C264 208.621 258 216.221 258 221.121C258 223.321 260.9 225.621 263.7 225.621C269.5 225.621 281.5 207.621 279.3 202.021C278.5 199.921 276.9 200.221 271.9 203.521Z" fill="#5D6C7B"/>
<path d="M378 202.021C378 203.321 380.9 208.221 383.9 212.021C390.5 220.321 397.3 222.921 400.4 218.421C402.8 215.021 402.3 213.021 398.7 210.221C392.9 205.721 378 199.921 378 202.021Z" fill="#5D6C7B"/>
<path d="M362 213.421C362 215.621 367 228.721 369.1 232.021C371.7 236.021 375.2 237.521 377.5 235.621C379.4 234.021 379.4 232.321 377.4 228.421C374.5 222.821 362 210.621 362 213.421Z" fill="#5D6C7B"/>
<path d="M292.4 215.121C285.9 217.821 278.1 228.321 278 234.321C278 239.021 286.1 235.421 290.5 228.821C292.5 225.821 296.4 214.621 295.7 213.921C295.6 213.821 294.1 214.421 292.4 215.121Z" fill="#5D6C7B"/>
<path d="M307.1 222.721C304.6 225.421 302.6 233.721 303.4 238.021C303.8 239.821 304.9 242.121 306 243.121C307.9 244.821 308.1 244.821 310 243.121C315.1 238.521 315.8 224.221 311 221.621C309.5 220.821 308.7 221.021 307.1 222.721Z" fill="#5D6C7B"/>
<path d="M113.7 225.521C104.3 231.721 107.2 239.121 118.8 238.321C127.4 237.721 131.6 231.721 127.4 225.821C125.4 222.921 117.8 222.721 113.7 225.521Z" fill="#5D6C7B"/>
<path d="M332.1 227.521C330.3 230.821 330.8 239.721 333 243.321C334.1 245.121 335.3 246.621 335.8 246.621C339.3 246.621 340.3 235.621 337.2 229.721C335.1 225.521 333.5 224.821 332.1 227.521Z" fill="#5D6C7B"/>
<path d="M126.7 247.921C122.4 256.121 122.2 258.721 125.1 263.521L127.1 266.921L130.2 264.021C131.8 262.421 134 259.521 135.1 257.521C136.9 253.821 136.9 253.821 134.4 247.221C133 243.621 131.5 240.621 131.2 240.621C130.8 240.621 128.8 243.921 126.7 247.921Z" fill="#5D6C7B"/>
<path d="M94 256.221C90.2 259.421 88 263.621 88 267.521C88 275.621 100.2 270.021 104 260.221C106.4 253.821 99.9 251.321 94 256.221Z" fill="#5D6C7B"/>
<path d="M95.7 287.721C94.2 288.621 94 289.521 94.5 292.721C95.4 297.821 92.3 302.821 84.8 308.521C76.7 314.621 73.6 318.221 68.9 326.921C65.3 333.721 61.7 344.621 63.9 341.921C64.3 341.521 66.1 339.221 67.9 336.821C69.7 334.521 72.6 331.821 74.3 331.021C75.9 330.121 78.3 328.221 79.6 326.621C80.9 325.121 84.1 323.121 86.7 322.121C94.3 319.321 95.7 318.121 96.5 313.621C97.5 307.921 101 304.021 106 303.221C110.6 302.521 115 298.821 115 295.821C115 294.721 114.1 292.721 113 291.321C109.8 287.321 100 285.221 95.7 287.721Z" fill="#5D6C7B"/>
<path d="M66.3 293.321C63 294.621 67.5 302.121 73.1 304.921C76.8 306.621 79.4 305.921 80.2 302.821C80.9 300.221 78.6 295.021 76.1 293.721C74.1 292.621 68.5 292.321 66.3 293.321Z" fill="#5D6C7B"/>
<path d="M15.7 331.921C13.7 333.521 7.4 343.621 5.1 348.921C1.9 356.321 0 367.121 0 377.421C0 393.621 4.7 408.321 14.6 423.321C39.6 461.121 91.8 467.121 124.7 436.221C135.4 426.221 145.5 410.521 147.7 400.621C151 386.021 150.6 380.521 145.9 375.521C143.1 372.521 142.6 372.421 137.7 372.921C130.8 373.621 123.6 377.021 111 385.221C89.5 399.321 71.8 402.521 57.7 394.821C47.1 389.121 36.4 373.721 29.6 354.721C22.2 334.221 19.2 329.221 15.7 331.921ZM16.3 376.721C17.5 377.421 23.7 382.921 30 389.121C39.6 398.421 42.9 400.921 50 404.421C69.3 413.821 86.4 414.821 105 407.621C113.2 404.521 120.7 403.721 122.8 405.821C127.9 410.921 115.6 429.221 102.4 435.921C80.7 446.921 50.9 443.321 33.8 427.621C22.7 417.521 11.4 398.921 8.8 386.521C7.8 381.721 7.9 380.721 9.5 378.321C11.4 375.421 13 375.021 16.3 376.721Z" fill="#3719CA"/>
<path d="M501.4 422.521C495.4 426.021 486 434.321 484.1 437.921C483.3 439.521 482.2 440.221 481 439.921C477.5 439.021 466.4 451.421 468.7 453.721C471.2 456.221 480.2 449.521 481.6 444.121C482 442.421 482.7 442.121 485.5 442.421C488.5 442.821 489.6 442.121 495.1 437.021C501.6 430.821 509 422.021 509 420.521C509 418.921 506.6 419.521 501.4 422.521Z" fill="#5D6C7B"/>
<path d="M455.5 466.821C447.3 471.221 433 491.221 433 498.121C433 500.421 433.2 500.521 435 499.621C438.4 497.821 449.8 486.721 455 480.121C460.1 473.721 463.4 467.421 462.3 466.221C461.3 465.321 457.7 465.521 455.5 466.821Z" fill="#5D6C7B"/>
<path d="M46.1 472.721C46 475.721 50.1 488.021 53.3 493.921C56.9 500.721 63.7 507.121 69.1 508.721C73.7 510.121 76 509.421 76 506.421C76 502.821 72 497.721 63.9 491.021C59.8 487.721 55.2 483.121 53.5 480.921C46.1 471.121 46.1 471.121 46.1 472.721Z" fill="#5D6C7B"/>
<path d="M19.6 496.521C19.2 497.021 18.7 499.421 18.4 501.821C17.4 510.321 24.1 517.621 32.9 517.621C37.7 517.621 40.5 516.521 39.9 514.921C39.2 513.021 22.3 495.621 21.2 495.621C20.6 495.621 19.9 496.021 19.6 496.521Z" fill="#5D6C7B"/>
<path d="M416.5 514.721C409 523.721 403.2 543.921 407.7 545.321C409.8 546.021 416 539.421 419 533.221C426.3 517.821 424.6 505.121 416.5 514.721Z" fill="#5D6C7B"/>
<path d="M42.5 523.021C41.7 524.321 41.2 526.121 41.6 527.021C42.7 529.821 51 533.321 60.5 534.921C73.1 537.121 74 536.121 65.5 529.721C53.5 520.621 45.6 518.321 42.5 523.021Z" fill="#5D6C7B"/>
<path d="M17 530.321C13.8 531.521 12 534.021 12 537.321C12 541.921 13.4 544.221 16.8 545.421C24.8 548.221 31.3 537.321 24.8 531.921C23.1 530.421 18.9 529.621 17 530.321Z" fill="#5D6C7B"/>
<path d="M38.6 545.621C31.2 553.721 29.5 559.121 29.6 574.621C29.6 580.921 30.1 587.221 30.7 588.621L31.7 591.121L33.5 587.721C34.7 585.221 35.4 580.521 35.9 569.721L36.7 555.121L40.9 547.321C43.3 543.121 45 539.621 44.7 539.621C44.4 539.621 41.7 542.321 38.6 545.621Z" fill="#5D6C7B"/>
<path d="M54.3 544.121C49.7 546.921 48.3 549.521 50 552.521C51.3 555.121 57.2 559.621 59.2 559.621C61.9 559.621 64.3 555.821 64.8 550.721C65.1 546.721 64.9 545.521 63.1 543.721C60.4 541.021 59.4 541.121 54.3 544.121Z" fill="#5D6C7B"/>
<path d="M394.5 565.921C391.4 572.721 389 580.821 389 585.021C389 589.221 390.4 587.421 393.3 579.621C398.6 565.421 399.5 555.321 394.5 565.921Z" fill="#5D6C7B"/>
<path d="M49 573.421C44.7 575.821 42 580.021 43.7 581.721C44.4 582.421 47 583.121 49.7 583.321C53.8 583.721 54.8 583.521 56.8 581.321C58.5 579.521 59.1 577.921 58.8 575.521C58.5 572.521 58.1 572.121 55.5 571.821C53.9 571.721 50.9 572.421 49 573.421Z" fill="#5D6C7B"/>
<path d="M131.5 591.621C113.6 593.321 103 595.021 99.9 596.721C97.7 597.821 93.7 609.321 90.1 624.621C85.1 645.721 81.5 653.021 77.3 650.821C72.2 648.021 68 640.621 68 634.621C68 630.221 71.7 619.521 75 614.321L78 609.521L70.3 615.421C60 623.321 50.9 632.921 47.6 639.521C43.8 646.921 41.3 657.321 39.9 671.721C37.6 696.421 41.5 717.021 52.6 737.521C71.6 772.521 90.7 784.321 131.5 786.221C165.6 787.821 190.5 775.721 211.3 747.521C225.8 727.721 231.9 707.221 230.7 682.121C229.1 648.721 209.1 618.921 178.8 604.621C168.2 599.621 164.1 600.821 162.1 609.621C158.6 625.421 158.4 653.521 161.6 674.521C162.9 683.221 162.9 684.921 161.4 693.321C160.4 698.421 159.3 702.621 158.9 702.621C158.2 702.621 154.5 685.521 153 675.121C152.5 671.221 151.8 661.821 151.4 654.121C150.8 641.021 151.2 634.721 154.7 596.321L155.3 589.621L152.4 589.721C150.8 589.821 141.4 590.621 131.5 591.621ZM127.9 602.721C133 604.521 132.8 607.121 127 620.321C119.3 637.721 118.7 639.921 118.7 650.621C118.7 661.821 121.1 675.221 128.1 702.521C134 725.821 136.5 739.221 138.2 756.621C139 766.021 139.1 769.921 138.3 770.721C136.2 772.821 134.1 767.221 128.6 745.521C123.6 725.821 120.5 715.821 112.2 692.621C106.1 675.921 105.7 661.221 110.4 638.121C113.5 622.521 114.4 615.621 113.3 615.621C111.9 615.621 105.2 629.821 103.2 636.821C101.9 641.621 101.5 647.121 101.5 660.121C101.5 679.921 102.2 683.821 111.1 711.621C121.2 742.921 124.8 767.321 120.6 775.521C116.4 783.521 111 775.721 108.4 758.121C106.7 746.721 104.9 740.621 103 740.621C102.5 740.621 99.8 743.021 97.1 745.821C94.4 748.721 91.8 750.821 91.4 750.421C91 750.021 91.7 747.321 93 744.421C94.4 741.121 95.4 736.221 95.7 731.621C96.2 724.721 95.9 723.421 92.6 715.421C87.9 704.021 84.1 688.421 83.3 676.921L82.7 667.721L85.8 664.221C89.6 659.921 90.6 656.421 92.6 641.621C95.7 617.821 100.9 606.321 110 602.721C113.4 601.421 124 601.421 127.9 602.721ZM145.6 604.121C145.9 605.521 145.7 613.121 145.1 620.921C143.1 646.021 146.1 677.621 153.7 709.921C156.2 720.521 156.2 720.721 154.6 730.021C153.7 735.221 152.7 742.921 152.4 747.221C151.8 754.521 151.9 755.021 153.4 753.621C154.3 752.721 156.3 748.221 157.9 743.621L160.8 735.121L162.9 740.021C165.9 746.821 168.8 750.621 171.1 750.621C174.3 750.621 173.5 744.921 168.4 732.121L163.8 720.421L165.8 710.221C167.6 700.621 167.7 700.221 169 702.821C169.7 704.421 170.7 705.621 171.2 705.621C173.4 705.621 179.7 686.421 178.2 684.221C177.8 683.621 176.8 683.121 176 683.121C172.5 683.121 172.5 671.521 176 647.121C177.1 640.021 177.8 634.021 177.6 633.921C177.4 633.721 176.3 636.821 175.1 640.821C167.5 666.621 165 671.721 165 661.921C165 654.021 167 625.621 168 619.221C168.6 615.721 169.7 612.421 170.8 611.321C172.5 609.621 173 609.621 176.1 610.921C181.3 613.121 187.8 618.321 190 621.921C192.1 625.321 192.7 631.121 191 632.121C190.5 632.421 190 633.321 190 634.121C190 635.221 190.8 635.221 194.5 633.921C198.6 632.521 199.3 632.521 201.5 634.021C207.1 637.721 209.5 648.521 208.6 665.521C206.3 704.621 191 750.721 175 766.721C169.3 772.421 156.2 779.121 152.6 778.221C148.4 777.221 147.6 774.221 146.9 757.121C146.1 738.121 143.7 725.421 137.5 707.121C131.5 689.621 129.2 679.221 128.1 665.521C126.3 643.021 130.5 623.221 140.6 605.821C143.5 601.021 144.7 600.521 145.6 604.121ZM66 645.821C67.1 647.621 68 649.621 68 650.321C68 652.621 64.8 654.621 60.9 654.621C58.8 654.621 57 655.121 57 655.721C57 656.221 59.3 659.521 62.1 662.921C71.2 674.121 80.8 697.621 79.8 706.321C79.5 708.721 79.1 709.121 76.5 708.921C72.4 708.621 60.5 700.221 55.9 694.421C51.4 688.721 48.2 680.521 47.3 672.721C46.6 665.721 48.8 657.221 53.2 650.321C58.5 642.021 62.7 640.521 66 645.821ZM222 665.821C225.5 684.421 224.1 703.521 218.1 717.621C214.4 726.421 196.5 754.521 195.3 753.321C195.2 753.121 196.3 749.121 197.9 744.421C201.6 733.621 207.4 710.921 209.5 699.121C210.4 694.121 212.5 684.021 214.2 676.621C218.5 657.321 220 655.321 222 665.821ZM54.5 704.821C63.9 714.521 65.5 717.921 65.5 728.321C65.5 732.921 65.8 736.621 66.1 736.621C66.5 736.621 70 732.821 73.9 728.121C77.9 723.421 81.8 719.621 82.6 719.621C84.4 719.621 84.4 720.321 82.5 725.621C80.4 731.721 80.5 733.621 83.2 733.321C86.4 733.021 88 736.921 88 745.721C88 753.721 85.9 762.621 83.5 764.621C80 767.521 76.2 763.221 75.4 755.321C74.4 745.521 74.3 745.321 70.4 746.021C64.4 747.221 58.8 742.221 54.6 732.121C52.5 727.221 52.5 719.721 54.5 719.021C56.8 718.121 56.4 717.021 50 708.221C46.7 703.621 44 699.421 44 698.821C44 695.921 48 698.221 54.5 704.821Z" fill="#5D6C7B"/>
<path d="M373.9 601.321C370.4 606.921 367.5 615.821 366.5 623.921C365.7 630.021 366.5 631.021 369.6 627.921C373.6 623.921 379.9 605.921 380 598.321C380 595.121 377 596.621 373.9 601.321Z" fill="#5D6C7B"/>
<path d="M83.4 603.821L81.5 606.121L83.8 604.221C85.9 602.421 86.5 601.621 85.7 601.621C85.5 601.621 84.5 602.621 83.4 603.821Z" fill="#5D6C7B"/>
<path d="M366.2 642.821C364.2 645.421 362 652.021 362 655.721C362 658.921 362.4 659.621 363.9 659.621C366.2 659.621 367.8 655.521 368.7 647.321C369.3 641.621 368.4 640.121 366.2 642.821Z" fill="#5D6C7B"/>
<path d="M358.9 669.321C357.7 672.521 356.5 678.421 356.2 682.421C355.8 688.421 356 690.021 357.5 691.621C362.1 696.721 365.4 691.021 365.5 678.121C365.5 662.721 362.9 659.121 358.9 669.321Z" fill="#5D6C7B"/>
<path d="M1234.9 673.321C1233.6 674.921 1233.7 675.021 1235.3 673.721C1236.9 672.421 1237.4 671.621 1236.6 671.621C1236.4 671.621 1235.6 672.421 1234.9 673.321Z" fill="#5D6C7B"/>
<path d="M362.1 704.821C361 707.221 359.8 711.821 359.5 715.121C358.4 724.921 361.8 744.421 364.7 745.321C368.1 746.521 371.3 708.321 368.2 702.821C366.3 699.521 364.4 700.121 362.1 704.821Z" fill="#5D6C7B"/>
<path d="M747.2 737.821C746.5 738.521 746 739.421 746 739.821C746 740.921 749.2 740.821 751 739.621C752.3 738.721 752.3 738.521 751 737.621C749.1 736.321 748.6 736.421 747.2 737.821Z" fill="#5D6C7B"/>
<path d="M760 738.121C759.4 738.921 758.6 741.421 758.3 743.721C757.8 747.321 757.9 747.821 759.6 747.421C762.2 746.921 764.4 742.521 763.6 739.321C762.9 736.321 761.8 735.921 760 738.121Z" fill="#5D6C7B"/>
<path d="M720.6 743.921L716.8 745.121L718.9 747.021L720.9 748.921L718.4 750.821C716 752.721 712.9 757.921 710.9 763.421C710.1 765.821 710.4 765.621 713.7 762.021C715.8 759.821 719.4 755.621 721.8 752.821C724.2 749.921 726.8 747.621 727.5 747.621C728.3 747.621 730 749.221 731.2 751.121C733.1 754.021 738.2 757.621 740.3 757.621C741.8 757.621 744 754.121 744 751.721C744 747.721 741.1 745.721 733.9 744.521C730.4 744.021 726.8 743.421 726 743.121C725.2 742.921 722.8 743.321 720.6 743.921Z" fill="#5D6C7B"/>
<path d="M752.1 761.321C745.3 769.221 738.6 784.621 742 784.621C744.4 784.621 751.7 775.921 754.9 769.421C761.1 756.621 759.7 752.521 752.1 761.321Z" fill="#5D6C7B"/>
<path d="M364.1 776.521C361.4 779.221 360.5 784.921 361.8 791.621C362.9 797.921 366.8 806.821 368.7 807.421C369.4 807.621 370.4 805.021 371.4 800.721C375.4 783.121 371.2 769.421 364.1 776.521Z" fill="#5D6C7B"/>
<path d="M718.3 789.821C716.2 792.521 716.2 794.621 718 796.821L720 799.121L722.5 796.321C723.9 794.821 725 792.421 725 791.021C725 789.021 724.5 788.621 722.1 788.621C720.5 788.621 718.8 789.221 718.3 789.821Z" fill="#5D6C7B"/>
<path d="M208.7 792.021C207.8 794.421 211.6 798.321 218.2 801.521C221.6 803.221 225.1 805.221 225.9 806.021C227.8 807.621 239.7 809.021 240.5 807.621C241.3 806.321 229.9 798.021 225.2 796.521C223.2 795.921 219.4 794.321 216.8 793.021C211.3 790.221 209.4 790.021 208.7 792.021Z" fill="#5D6C7B"/>
<path d="M691.5 795.821L688.7 799.121L692.9 799.421C697.7 799.821 700.2 798.221 699.8 795.221C699.3 791.621 694.8 791.921 691.5 795.821Z" fill="#5D6C7B"/>
<path d="M1146.3 799.821C1140 806.521 1133.8 822.821 1135.9 827.321C1136.7 829.021 1137.6 829.621 1138.6 829.221C1139.5 828.921 1140.5 828.621 1141 828.621C1142.1 828.621 1151.6 808.821 1152.5 804.821C1153.3 801.221 1152.2 796.621 1150.6 796.621C1149.9 796.621 1148 798.121 1146.3 799.821Z" fill="#5D6C7B"/>
<path d="M179.7 803.621C182.9 809.021 189.8 816.321 193.5 818.021C196.8 819.621 197.2 819.621 200.6 818.021C206 815.421 211 810.321 211 807.321C211 803.721 209 803.421 203 806.221C200.2 807.521 197.3 808.621 196.6 808.621C195.9 808.621 192.4 806.821 188.7 804.621C185.1 802.421 181.2 800.621 180 800.621C177.9 800.621 177.9 800.621 179.7 803.621Z" fill="#5D6C7B"/>
<path d="M222 812.521C220.2 816.021 220.8 822.121 223.3 824.321C228.1 828.721 233 828.021 233 822.921C233 819.921 231.5 816.921 228.2 813.321C225.2 810.121 223.5 809.921 222 812.521Z" fill="#5D6C7B"/>
<path d="M669.1 822.821C666 826.021 663 833.621 663 838.321C663 842.521 665.7 847.421 668.9 849.121C670.6 849.921 672 850.521 672 850.321C672 850.021 671.3 847.921 670.5 845.621C668.6 840.221 668.6 840.021 671 837.621C672.5 836.121 674.3 835.621 678.6 835.621C685.8 835.621 688 834.421 688 830.421C688 828.221 686.9 826.321 684.1 823.521C680.9 820.321 679.5 819.621 676.2 819.621C673.1 819.621 671.6 820.321 669.1 822.821Z" fill="#5D6C7B"/>
<path d="M244.8 825.621C247.2 827.821 251.2 830.921 253.8 832.621C260.8 837.221 268.8 836.421 264.3 831.421C261.7 828.421 247.2 821.621 243.6 821.621L240.5 821.721L244.8 825.621Z" fill="#5D6C7B"/>
<path d="M372 830.121C372 837.621 378.8 854.121 383.9 859.021C387.9 862.921 388.7 860.921 386.5 852.421C384.4 844.021 381 836.821 377 832.321C373.6 828.421 372 827.721 372 830.121Z" fill="#5D6C7B"/>
<path d="M616 833.421C616 837.521 624.6 862.621 626 862.621C626.5 862.621 627.2 860.521 627.6 857.821C628.9 848.621 633.7 841.221 640.1 838.521C643.2 837.321 643.7 836.221 641.9 835.021C639.9 833.821 626.7 831.621 621.3 831.621C616.8 831.621 616 831.921 616 833.421Z" fill="#5D6C7B"/>
<path d="M218.8 837.321C212.8 839.821 208.1 842.121 208.3 842.221C208.4 842.421 214 841.921 220.5 841.121C237.5 839.121 242.6 839.221 244.9 841.521C247.2 843.821 247 845.221 242.4 855.621C240.6 859.721 239.3 863.221 239.5 863.421C240.5 864.421 249.5 856.521 251.9 852.521C257.6 843.221 249.8 833.721 236.2 832.921C230 832.621 228.7 832.921 218.8 837.321Z" fill="#5D6C7B"/>
<path d="M596.4 840.621C592 842.821 583.8 850.621 585.9 850.621C589.6 850.621 602.2 846.021 604.1 844.021C608.7 839.121 603.8 837.021 596.4 840.621Z" fill="#5D6C7B"/>
<path d="M279 843.521C279 844.021 281 846.221 283.5 848.521C286.5 851.221 288.9 852.621 290.7 852.621C294.5 852.621 305.1 848.821 308.1 846.421L310.5 844.421L307.8 845.021C299.1 846.921 293.3 846.821 288.5 844.721C283.6 842.521 279 841.921 279 843.521Z" fill="#5D6C7B"/>
<path d="M1061.3 858.821C1061.6 863.421 1063.3 872.721 1065 879.521C1067.2 887.921 1068.2 894.521 1068.3 899.821V907.721L1061.4 914.821C1054.6 921.721 1051.7 924.021 1038.9 932.321C1030.5 937.821 1027 940.521 1027 941.721C1027 943.321 1037.8 942.721 1053.9 940.221C1065.1 938.521 1070.3 938.121 1072.7 938.821C1080.6 941.021 1086.2 949.521 1093.5 970.621C1097.3 981.821 1101.1 988.621 1103.5 988.621C1105.2 988.621 1108 979.921 1108 974.421C1108 972.421 1106.8 967.221 1105.4 962.921C1102 952.721 1101.6 942.621 1104.5 937.621C1107.7 932.021 1113.7 929.621 1127.2 928.621C1144.1 927.321 1162.2 921.421 1167.5 915.621L1169.5 913.421L1167.2 911.621C1164.1 909.121 1157.5 908.521 1138 908.821C1123.8 909.021 1120.9 908.821 1117.3 907.321C1105 901.921 1108.6 888.821 1126.4 874.721C1133.5 869.121 1138 861.721 1138 855.921C1138 851.821 1137.1 851.821 1129.3 855.321C1116.1 861.521 1110.4 865.721 1105.9 872.821C1100.4 881.621 1098.9 883.021 1095.3 882.121C1087.4 880.321 1083.8 877.321 1076.5 866.921C1068.5 855.321 1064.3 850.621 1062.2 850.621C1061 850.621 1060.8 852.021 1061.3 858.821Z" fill="#5D6C7B"/>
<path d="M269.8 857.521C266 859.921 264 862.221 264 864.221C264 865.121 270.8 867.621 273 867.621C276 867.621 281 862.321 281 859.221C281 856.721 278.6 854.621 275.8 854.621C275 854.621 272.3 855.921 269.8 857.521Z" fill="#5D6C7B"/>
<path d="M600.1 855.521C598.8 856.321 598.8 857.021 600.1 860.321C601.9 864.821 612.1 882.321 614.9 885.721L616.9 888.121L617 884.821C617 880.621 614.2 867.121 612.5 862.921C609.7 856.221 604.1 853.021 600.1 855.521Z" fill="#5D6C7B"/>
<path d="M305 866.721C305 867.321 306.2 869.321 307.7 871.221C309.7 873.921 313.7 876.421 323.9 881.321C341 889.521 342.7 890.721 344 895.821C345.4 900.621 346.1 900.121 349.4 892.121C351.6 886.721 352.1 886.121 355 886.021C359 885.821 359.6 885.121 358.2 882.121C356.9 879.321 354.3 878.921 349.3 880.621C346.6 881.621 344.8 881.021 332.6 875.621C319.6 869.921 308.3 865.621 306 865.621C305.5 865.621 305 866.121 305 866.721Z" fill="#5D6C7B"/>
<path d="M539.6 870.421C538.8 871.821 539.5 872.221 546.2 873.521C555.4 875.421 558.8 879.421 555.9 884.821C554 888.421 556.1 889.121 563.6 887.221C567.3 886.321 571.5 884.821 572.9 883.921L575.4 882.321L571.5 878.921C564.6 873.021 557.5 870.121 548.4 869.821C543.5 869.521 540 869.821 539.6 870.421Z" fill="#5D6C7B"/>
<path d="M438.1 874.721C436.4 879.621 436.8 881.521 439.9 884.721C445 889.821 450.9 887.921 449.5 881.621C448.6 877.721 443.4 871.621 441 871.621C439.9 871.621 438.8 872.821 438.1 874.721Z" fill="#5D6C7B"/>
<path d="M392.2 881.121C392.5 884.721 393.9 889.121 396.4 894.121C400.2 901.821 403.7 905.321 406.6 904.221C412 902.121 399.8 875.621 393.4 875.621C392 875.621 391.8 876.421 392.2 881.121Z" fill="#5D6C7B"/>
<path d="M470 879.221C463.2 882.121 459.8 887.121 459.8 894.121C459.8 899.421 461.8 903.321 466.5 907.521C470.9 911.421 475 911.621 479.6 908.121C487.4 902.221 491.2 889.421 487.1 882.921C484 878.021 476.6 876.421 470 879.221Z" fill="#5D6C7B"/>
<path d="M511 896.021L502.5 898.321L509.4 899.121C518.5 900.121 530 899.221 534.4 897.121C536.4 896.121 537.8 895.121 537.6 894.721C537.4 894.421 533.2 894.021 528.3 893.921C521.8 893.821 517.3 894.321 511 896.021Z" fill="#5D6C7B"/>
<path d="M425.4 896.121C425 896.921 425.3 898.321 426 899.121C428.2 901.821 438.4 907.421 442.3 908.121C446.6 908.921 453 908.021 453 906.521C453 904.821 447.1 900.021 441.6 897.221C435.6 894.121 426.3 893.521 425.4 896.121Z" fill="#5D6C7B"/>
<path d="M410.4 914.121C410 914.921 410.1 917.321 410.5 919.321C412.6 930.921 419.5 941.121 426 942.321L429.5 942.921L426.9 940.021C425.4 938.421 422.4 932.421 420.1 926.621C415 913.921 412 909.921 410.4 914.121Z" fill="#5D6C7B"/>
<path d="M1062.1 955.721C1057.5 960.521 1051.5 971.421 1050.5 976.721C1049.4 982.621 1051.7 982.721 1057 976.921C1068.9 964.021 1073.8 943.521 1062.1 955.721Z" fill="#5D6C7B"/>
<path d="M439 958.521C439 961.221 445.9 969.721 451.6 973.821C457.6 978.221 463.7 981.221 464.7 980.221C467.1 977.821 453.8 963.621 444.9 959.121C439.1 956.121 439 956.121 439 958.521Z" fill="#5D6C7B"/>
<path d="M470 985.121C470 989.021 482.3 997.821 485.2 996.021C486.4 995.221 477.2 986.621 473.6 985.121C470.4 983.721 470 983.721 470 985.121Z" fill="#5D6C7B"/>
<path d="M1030.9 1001.32C1028.6 1003.42 1025.7 1007.42 1024.4 1010.42C1023.1 1013.32 1021.1 1017.02 1020 1018.62C1017.6 1021.92 1018.3 1022.22 1023.9 1020.62C1028.5 1019.32 1031.7 1016.22 1035 1009.62C1040.8 998.221 1038.8 994.221 1030.9 1001.32Z" fill="#5D6C7B"/>
<path d="M855 1000.62C835.2 1003.72 824.8 1013.02 801 1048.62C788.1 1068.02 787.5 1069.72 789.1 1081.42C792.2 1103.62 805.8 1132.72 819.3 1146.02C822.3 1149.02 830.5 1154.72 838.9 1159.62C846.8 1164.32 853.5 1168.72 853.7 1169.32C854.1 1170.22 857.2 1170.62 864.4 1170.62C871.3 1170.72 875.3 1171.12 877 1172.12C882.4 1175.22 892.9 1173.32 905.5 1166.92C929.5 1154.82 953.2 1126.42 959.5 1102.12C964.1 1084.22 957.3 1050.42 945.6 1032.72C936 1018.32 920.1 1006.92 903.3 1002.52C897.2 1000.92 891.7 1000.32 878 1000.12C868.4 999.921 858 1000.12 855 1000.62ZM896.4 1009.62C921.6 1016.02 941.6 1036.42 949.2 1063.22C951.9 1073.22 952.2 1089.62 949.6 1100.12C946 1115.12 934.9 1132.92 921.3 1145.72C909.5 1156.82 901 1161.82 891.8 1163.12C887.4 1163.82 887 1163.72 886.1 1161.32C885.6 1159.92 884.1 1158.72 882.8 1158.42C880.1 1157.92 874 1159.32 874 1160.52C874 1161.32 859.5 1157.42 848.5 1153.52C833.5 1148.22 817.7 1134.52 810.7 1120.42C802.5 1104.22 799.8 1082.52 804 1066.32C811 1038.92 833 1017.02 861 1009.72C871.2 1007.02 886.1 1007.02 896.4 1009.62ZM872.7 1164.82C872.4 1165.62 872.1 1165.32 872.1 1164.22C872 1163.12 872.3 1162.52 872.6 1162.92C872.9 1163.22 873 1164.12 872.7 1164.82Z" fill="#5D6C7B"/>
<path d="M876.7 1016.82C870 1020.72 873.7 1025.62 883.6 1025.92C890.9 1026.22 892.9 1021.02 887.2 1016.62C884 1014.02 881.4 1014.12 876.7 1016.82Z" fill="#5D6C7B"/>
<path d="M855 1037.12C855 1038.52 855.2 1039.62 855.4 1039.62C855.6 1039.62 856.5 1039.92 857.4 1040.22C859.3 1040.92 859.6 1037.62 857.8 1035.82C855.9 1033.92 855 1034.42 855 1037.12Z" fill="#5D6C7B"/>
<path d="M880 1041.52C880 1042.72 880.6 1043.62 881.6 1043.62C882.5 1043.62 883 1042.92 882.8 1041.92C882.3 1039.42 880 1039.12 880 1041.52Z" fill="#5D6C7B"/>
<path d="M907.3 1043.22C906.6 1045.02 908 1047.82 909.8 1048.42C910.5 1048.62 911 1047.92 911 1046.82C911 1042.22 908.6 1039.92 907.3 1043.22Z" fill="#5D6C7B"/>
<path d="M829 1054.62C825.5 1058.12 827.2 1065.52 832.2 1069.02C839.2 1074.02 843.6 1066.62 839 1057.72C836.2 1052.22 832.5 1051.12 829 1054.62Z" fill="#5D6C7B"/>
<path d="M929.5 1058.22C927 1060.72 925.1 1065.02 923.5 1071.82C921.7 1079.62 921.6 1083.62 923.3 1083.62C925.7 1083.62 932.3 1077.32 934.1 1073.22C936.4 1068.12 936.6 1060.32 934.4 1058.22C932.5 1056.22 931.5 1056.22 929.5 1058.22Z" fill="#5D6C7B"/>
<path d="M859.4 1064.22C857.5 1068.82 858.9 1072.92 863.1 1074.62C869.4 1077.22 870.8 1070.92 865.4 1063.92C864 1062.12 862.4 1060.62 861.9 1060.62C861.3 1060.62 860.2 1062.22 859.4 1064.22Z" fill="#5D6C7B"/>
<path d="M878 1063.62C878 1064.72 878.7 1065.62 879.5 1065.62C881.2 1065.62 881.3 1065.42 880.4 1063.22C879.5 1060.92 878 1061.22 878 1063.62Z" fill="#5D6C7B"/>
<path d="M892.6 1069.82C890.6 1072.92 889.4 1079.62 890.9 1079.62C893.4 1079.62 896 1075.62 896 1071.62C896 1067.12 894.8 1066.52 892.6 1069.82Z" fill="#5D6C7B"/>
<path d="M825 1087.32C825 1089.32 826.8 1091.62 828.3 1091.62C828.7 1091.62 829 1090.42 828.8 1088.92C828.4 1085.72 825 1084.32 825 1087.32Z" fill="#5D6C7B"/>
<path d="M869.5 1091.62C868.7 1094.32 870.7 1096.82 873.4 1096.42C875 1096.22 875.5 1095.42 875.5 1093.12C875.5 1090.62 875.1 1090.02 872.8 1089.82C870.9 1089.62 870 1090.02 869.5 1091.62Z" fill="#5D6C7B"/>
<path d="M904 1091.52C903.5 1092.62 903 1094.52 903 1095.82L903.1 1098.12L905 1095.72C907.1 1093.32 907.7 1089.62 906 1089.62C905.5 1089.62 904.6 1090.52 904 1091.52Z" fill="#5D6C7B"/>
<path d="M917.7 1094.12C916 1095.82 913.5 1105.42 914.5 1106.42C914.9 1106.82 916.5 1105.62 918.1 1103.82C922.3 1099.12 922 1089.82 917.7 1094.12Z" fill="#5D6C7B"/>
<path d="M848.2 1099.82C846.5 1101.52 846.7 1106.32 848.6 1107.02C851.7 1108.22 854.1 1107.62 855.1 1105.22C857.3 1100.52 851.8 1096.22 848.2 1099.82Z" fill="#5D6C7B"/>
<path d="M899 1109.12C897.3 1111.12 898.5 1113.62 901 1113.62C902.1 1113.62 903.3 1112.92 903.6 1112.12C904.2 1110.62 902.5 1107.62 901 1107.62C900.6 1107.62 899.7 1108.32 899 1109.12Z" fill="#5D6C7B"/>
<path d="M865 1123.62C862.4 1126.22 862.4 1130.82 865 1133.12C867.9 1135.72 872.9 1135.52 875.2 1132.72C877.5 1129.72 877.5 1127.52 874.9 1124.22C872.4 1121.02 867.9 1120.72 865 1123.62Z" fill="#5D6C7B"/>
<path d="M893.3 1131.22C892.5 1133.32 894.6 1135.42 896.1 1133.92C897.4 1132.62 896.6 1129.62 895 1129.62C894.4 1129.62 893.7 1130.32 893.3 1131.22Z" fill="#5D6C7B"/>
<path d="M493.3 1004.22C492.3 1006.82 495.1 1010.52 501.2 1014.62C510 1020.42 517 1021.22 517 1016.22C517 1012.22 509.9 1007.42 499.2 1004.32C494.5 1002.82 493.8 1002.82 493.3 1004.22Z" fill="#5D6C7B"/>
<path d="M560.5 1019.22C559.4 1019.52 553.3 1020.62 547 1021.82C540.7 1022.92 535 1024.22 534.4 1024.52C533.7 1024.82 540.6 1029.82 549.7 1035.62C567.9 1047.22 576.6 1054.92 580.6 1062.82C583.7 1068.92 584.3 1077.02 582.1 1082.62C579.4 1089.32 572.1 1098.22 563.1 1106.02C554 1113.72 551.4 1116.82 552.5 1118.52C553.3 1119.92 562.4 1121.62 568.8 1121.62C581.9 1121.62 594.6 1115.92 605.5 1105.12C613 1097.62 617 1090.82 619.5 1081.12C626.6 1053.32 607.5 1024.22 579 1019.62C572.6 1018.62 564.4 1018.42 560.5 1019.22ZM590.8 1034.22C605.5 1041.42 615 1060.12 612.1 1076.22C610 1087.92 598.9 1106.02 589.8 1112.62C586.3 1115.22 582 1116.62 582 1115.22C582 1112.62 585.5 1099.42 587.6 1094.02C589.6 1088.82 590.4 1084.72 590.7 1077.02C591.4 1064.42 589.8 1058.22 583 1047.12C576.4 1036.22 575.6 1034.12 577.7 1032.02C579.7 1030.02 583.5 1030.62 590.8 1034.22Z" fill="#5D6C7B"/>
<path d="M997.9 1030.62C993.3 1033.02 983.5 1041.92 979.8 1047.02C976.6 1051.52 976 1056.62 978.8 1056.62C980.9 1056.62 988.8 1051.32 995.4 1045.52C1008.2 1034.22 1009.9 1024.32 997.9 1030.62Z" fill="#5D6C7B"/>
<path d="M617.5 1105.42C618.9 1107.02 632.2 1109.62 637.8 1109.52L642.5 1109.42L638.1 1107.42C633.1 1105.12 615.7 1103.52 617.5 1105.42Z" fill="#5D6C7B"/>
<path d="M641.7 1113.22C641.4 1113.62 641.5 1114.72 642.1 1115.72C642.9 1117.42 644.3 1117.62 652.3 1117.62C663.9 1117.62 667 1116.12 657.4 1115.12C653.6 1114.82 649.2 1114.02 647.6 1113.52C644.2 1112.42 642.6 1112.42 641.7 1113.22Z" fill="#5D6C7B"/>
<path d="M683.9 1117.62C678.7 1118.52 675 1120.22 675 1121.72C675 1123.32 681 1125.42 689 1126.42C698.3 1127.72 707 1126.32 707 1123.62C707 1119.52 693.6 1116.02 683.9 1117.62Z" fill="#5D6C7B"/>
<path d="M723.8 1123.22C721.1 1124.02 719 1125.02 719 1125.52C719 1126.02 720.9 1127.62 723.1 1129.12C728.9 1132.92 733.6 1132.82 737.3 1128.62C741.5 1123.92 740.6 1122.12 734 1121.92C731 1121.82 726.4 1122.42 723.8 1123.22Z" fill="#5D6C7B"/>
<path d="M750.3 1125.02C748.5 1125.82 747 1127.22 747 1128.02C747 1130.72 763.8 1135.62 773 1135.62C783.3 1135.62 786.5 1130.52 778.8 1126.52C773.2 1123.62 755.4 1122.72 750.3 1125.02Z" fill="#5D6C7B"/>
</svg>
