<svg
        xmlns="http://www.w3.org/2000/svg"
        width="100%"
        height="100%"
        viewBox={vb}
        preserveAspectRatio="none"
        >
<defs>
<linearGradient
        id="linear-gradient"
        x1="0.177"
        y1="0.104"
        x2="0.949"
        y2="0.947"
        gradientUnits="objectBoundingBox"
>
    <stop offset="0" stopColor="#e7a28f" />
    <stop offset="0.482" stopColor="#f9d6ac" />
    <stop offset="1" stopColor="#fbfefc" />
</linearGradient>

<filter
        id="Subtraction_15"
        x="0"
        y="0"
        width="1326"
        height="932"
        filterUnits="userSpaceOnUse"
>
    <feOffset dy="10" input="SourceAlpha" />
    <feGaussianBlur stdDeviation="10" result="blur" />
    <feFlood floodOpacity="0.59" />
    <feComposite operator="in" in2="blur" />
    <feComposite in="SourceGraphic" />
</filter>
</defs>

<path
filter="url(#Subtraction_15)"
id="Subtraction_16"
data-name="Subtraction 16"
d="M1243,872H87a3.972,3.972,0,0,1-3.192-1.592A26.94,26.94,0,0,1,107,850.164a27.556,27.556,0,0,0-3-.165H204a27.031,27.031,0,0,0,27-27v-1a27.031,27.031,0,0,0-27-27H104.11a27.513,27.513,0,0,0,2.891-.165A26.952,26.952,0,0,1,83,768V694a26.951,26.951,0,0,0-24-26.835A27.635,27.635,0,0,1,62,667H27A26.979,26.979,0,0,1,0,640v-1a26.976,26.976,0,0,1,27-27H83v-.018c.327.012.662.018,1,.018h35a27.031,27.031,0,0,0,27-27v-1a27.031,27.031,0,0,0-27-27H84c-.312,0-.648.006-1,.018V557H55a26.975,26.975,0,0,1-27-27v-1a26.976,26.976,0,0,1,27-27h4.3A27.006,27.006,0,0,0,83,475.2V249a26.953,26.953,0,0,1,24-26.836,27.577,27.577,0,0,0-3-.165h77a27.03,27.03,0,0,0,27-27v-1a27.031,27.031,0,0,0-27-27h-76.89a27.333,27.333,0,0,0,2.89-.165A26.952,26.952,0,0,1,83,140V23A22.98,22.98,0,0,1,106,0H1243a22.98,22.98,0,0,1,23,23V849a22.98,22.98,0,0,1-23,23Z"
transform="translate(0)"
fill="url(#linear-gradient)"
/>
        </svg>





<svg xmlns="http://www.w3.org/2000/svg" xmlns:xlink="http://www.w3.org/1999/xlink"
     width="1326" height="932" viewBox="0 0 1326 932">

<g transform="matrix(1, 0, 0, 1, 0, 0)" filter="url(#Subtraction_16)">
    <path id="Subtraction_16-2" data-name="Subtraction 16" d="M1243,872H106a22.982,22.982,0,0,1-23-23V554a26.951,26.951,0,0,0-24-26.835A27.479,27.479,0,0,1,62,527H27A26.978,26.978,0,0,1,0,500v-1a26.976,26.976,0,0,1,27-27H83v-.019c.318.012.654.018,1,.018h35a27.031,27.031,0,0,0,27-27v-1a27.031,27.031,0,0,0-27-27H84c-.328,0-.664.006-1,.018V417H55a26.977,26.977,0,0,1-27-27v-1a26.977,26.977,0,0,1,27-27h4.3A27,27,0,0,0,83,335.2V179a26.953,26.953,0,0,1,24-26.835,27.571,27.571,0,0,0-3-.165h77a27.031,27.031,0,0,0,27-27v-1a27.03,27.03,0,0,0-27-27h-76.89a27.515,27.515,0,0,0,2.89-.165A26.952,26.952,0,0,1,83,70V23A22.98,22.98,0,0,1,106,0H1243a22.98,22.98,0,0,1,23,23V849a22.98,22.98,0,0,1-23,23Z"
          transform="translate(30 20)" fill="url(#linear-gradient)"/>
</g>
</svg>
