<svg xmlns="http://www.w3.org/2000/svg" viewBox="0 0 1080 365" width="1080" height="365"
     preserveAspectRatio="xMidYMid meet"
     style="width: 100%; height: 100%; transform: translate3d(0px, 0px, 0px); content-visibility: visible;">
    <defs>
        <clipPath id="__lottie_element_2">
            <rect width="1080" height="365" x="0" y="0"></rect>
        </clipPath>
    </defs>
    <g clip-path="url(#__lottie_element_2)">

        <g transform="matrix(1,0,0,1,603.75,260.7510070800781)" opacity="1" style="display: block;">
            <g opacity="1" transform="matrix(1,0,0,1,238.25,52.25)">
                <path fill="rgb(67,34,119)" fill-opacity="1"
                      d=" M20,27 C20,27 -117,-4 -117,-4 C-117,-4 -238,52 -238,52 C-238,52 238,52 238,52 C238,52 238,-17 238,-17 C238,-17 164,-52 164,-52 C164,-52 20,27 20,27z"></path>
            </g>
        </g>
        <g transform="matrix(1,0,0,1,497.75,302.75)" opacity="1" style="display: block;">
            <g opacity="1" transform="matrix(1,0,0,1,229.75,31.25)">
                <path fill="rgb(46,9,95)" fill-opacity="1"
                      d=" M229.5,31 C229.5,31 122.5,-31 122.5,-31 C122.5,-31 -15.5,13 -15.5,13 C-15.5,13 -114.5,-2 -114.5,-2 C-114.5,-2 -229.5,31 -229.5,31 C-229.5,31 229.5,31 229.5,31z"></path>
            </g>
        </g>
        <g transform="matrix(0.9999994039535522,0,0,0.9999994039535522,864.47998046875,54.069061279296875)" opacity="1"
           style="display: block;">
            <g opacity="1" transform="matrix(1,0,0,1,55.3849983215332,60.81100082397461)">
                <path fill="rgb(255,255,255)" fill-opacity="1"
                      d=" M55.1349983215332,-2.296999931335449 C55.1349983215332,32.42100143432617 26.9950008392334,60.56100082397461 -7.7230000495910645,60.56100082397461 C-26.641000747680664,60.56100082397461 -43.61000061035156,52.202999114990234 -55.1349983215332,38.979000091552734 C-47.84400177001953,41.94200134277344 -39.86600112915039,43.573001861572266 -31.507999420166016,43.573001861572266 C3.2109999656677246,43.573001861572266 31.35099983215332,15.432000160217285 31.35099983215332,-19.285999298095703 C31.35099983215332,-35.077999114990234 25.527999877929688,-49.51900100708008 15.904999732971191,-60.56100082397461 C38.91400146484375,-51.2239990234375 55.1349983215332,-28.6560001373291 55.1349983215332,-2.296999931335449z"></path>
            </g>
        </g>
        <g transform="matrix(1,0,0,1,751.7509765625,321.75)" opacity="1" style="display: block;">
            <g opacity="1" transform="matrix(1,0,0,1,164.24899291992188,21.75)">
                <path fill="rgb(31,0,65)" fill-opacity="1"
                      d=" M-32,16.5 C-32,16.5 -89,-3.5 -89,-3.5 C-89,-3.5 -163.99899291992188,21.5 -163.99899291992188,21.5 C-163.99899291992188,21.5 163.99899291992188,21.5 163.99899291992188,21.5 C163.99899291992188,21.5 163.99899291992188,5.5 163.99899291992188,5.5 C163.99899291992188,5.5 89,-21.5 89,-21.5 C89,-21.5 -32,16.5 -32,16.5z"></path>
            </g>
        </g>
        <g transform="matrix(1,0,0,1,486.75,58.75000762939453)" opacity="1" style="display: block;">
            <g opacity="1" transform="matrix(1,0,0,1,522.25,116.25)">
                <path fill="rgb(255,255,255)" fill-opacity="1"
                      d=" M0,3 C1.656999945640564,3 3,1.656999945640564 3,0 C3,-1.656999945640564 1.656999945640564,-3 0,-3 C-1.656999945640564,-3 -3,-1.656999945640564 -3,0 C-3,1.656999945640564 -1.656999945640564,3 0,3z"></path>
            </g>
            <g opacity="1" transform="matrix(1,0,0,1,306.25,5.25)">
                <path fill="rgb(255,255,255)" fill-opacity="1"
                      d=" M0,3 C1.656999945640564,3 3,1.656999945640564 3,0 C3,-1.656999945640564 1.656999945640564,-3 0,-3 C-1.656999945640564,-3 -3,-1.656999945640564 -3,0 C-3,1.656999945640564 -1.656999945640564,3 0,3z"></path>
            </g>
            <g opacity="1" transform="matrix(1,0,0,1,219.25,76.25)">
                <path fill="rgb(255,255,255)" fill-opacity="1"
                      d=" M0,3 C1.656999945640564,3 3,1.656999945640564 3,0 C3,-1.656999945640564 1.656999945640564,-3 0,-3 C-1.656999945640564,-3 -3,-1.656999945640564 -3,0 C-3,1.656999945640564 -1.656999945640564,3 0,3z"></path>
            </g>
            <g opacity="1" transform="matrix(1,0,0,1,8.25,8.25)">
                <path fill="rgb(255,255,255)" fill-opacity="1"
                      d=" M-3,0 C-3,1.656999945640564 -1.656999945640564,3 0,3 C1.656999945640564,3 3,1.656999945640564 3,0 C3,-1.656000018119812 1.656999945640564,-3 0,-3 C-1.656999945640564,-3 -3,-1.656000018119812 -3,0z"></path>
            </g>
            <g opacity="1" transform="matrix(1,0,0,1,69.50399780273438,133.2010040283203)">
                <path fill="rgb(255,255,255)" fill-opacity="1"
                      d=" M0,3 C1.656999945640564,3 3,1.656999945640564 3,0 C3,-1.656999945640564 1.656999945640564,-3 0,-3 C-1.656999945640564,-3 -3,-1.656999945640564 -3,0 C-3,1.656999945640564 -1.656999945640564,3 0,3z"></path>
            </g>
            <g opacity="1" transform="matrix(1,0,0,1,288.5039978027344,150.2010040283203)">
                <path fill="rgb(255,255,255)" fill-opacity="1"
                      d=" M0,3 C1.656999945640564,3 3,1.656999945640564 3,0 C3,-1.656999945640564 1.656999945640564,-3 0,-3 C-1.656999945640564,-3 -3,-1.656999945640564 -3,0 C-3,1.656999945640564 -1.656999945640564,3 0,3z"></path>
            </g>
        </g>
    </g>
</svg>