<svg width="1208" height="584" viewBox="0 0 1208 584" fill="none" xmlns="http://www.w3.org/2000/svg">
    <path d="M841.169 551.354L610.012 508.05L405.852 586.276H1208.99V489.891L1084.14 441L841.169 551.354Z"
          fill="#432277"/>
    <path d="M1001.46 586.275L820.921 499.668L588.077 561.131L421.037 540.177L227 586.275H1001.46Z" fill="#2E095F"/>
    <path d="M878.288 579.29L782.113 551.352L655.569 586.274H1208.99V563.924L1082.45 526.208L878.288 579.29Z"
          fill="#1F0041"/>
    <g filter="url(#filter0_df_128_33)">
        <path d="M1033.23 145.602C1036.9 204.952 995.103 257.854 929.275 261.922C893.405 264.139 851.765 250.339 828.515 229.083C842.653 233.294 857.952 235.147 873.799 234.168C939.629 230.1 990.011 178.696 986.344 119.346C984.676 92.3497 972.109 68.3452 952.697 50.5966C997.31 63.8621 1030.45 100.541 1033.23 145.602Z"
              fill="white"/>
    </g>
    <g filter="url(#filter1_df_128_33)">
        <path d="M1033.23 145.602C1036.9 204.952 995.103 257.854 929.275 261.922C893.405 264.139 851.765 250.339 828.515 229.083C842.653 233.294 857.952 235.147 873.799 234.168C939.629 230.1 990.011 178.696 986.344 119.346C984.676 92.3497 972.109 68.3452 952.697 50.5966C997.31 63.8621 1030.45 100.541 1033.23 145.602Z"
              fill="white"/>
    </g>
    <g filter="url(#filter2_df_128_33)">
        <path d="M1106.1 255.875C1107.85 255.875 1109.27 254.606 1109.27 253.041C1109.27 251.477 1107.85 250.208 1106.1 250.208C1104.35 250.208 1102.93 251.477 1102.93 253.041C1102.93 254.606 1104.35 255.875 1106.1 255.875Z"
              fill="white"/>
    </g>
    <g filter="url(#filter3_df_128_33)">
        <path d="M877.94 151.051C879.691 151.051 881.109 149.783 881.109 148.218C881.109 146.653 879.691 145.385 877.94 145.385C876.19 145.385 874.771 146.653 874.771 148.218C874.771 149.783 876.19 151.051 877.94 151.051Z"
              fill="white"/>
    </g>
    <g filter="url(#filter4_df_128_33)">
        <path d="M786.044 218.1C787.794 218.1 789.213 216.832 789.213 215.267C789.213 213.702 787.794 212.434 786.044 212.434C784.294 212.434 782.875 213.702 782.875 215.267C782.875 216.832 784.294 218.1 786.044 218.1Z"
              fill="white"/>
    </g>
    <g filter="url(#filter5_df_128_33)">
        <path d="M560 151.051C560 152.616 561.419 153.884 563.169 153.884C564.919 153.884 566.338 152.616 566.338 151.051C566.338 149.487 564.919 148.218 563.169 148.218C561.419 148.218 560 149.487 560 151.051Z"
              fill="white"/>
    </g>
    <g filter="url(#filter6_df_128_33)">
        <path d="M627.87 271.882C629.62 271.882 631.039 270.614 631.039 269.049C631.039 267.484 629.62 266.216 627.87 266.216C626.12 266.216 624.701 267.484 624.701 269.049C624.701 270.614 626.12 271.882 627.87 271.882Z"
              fill="white"/>
    </g>
    <g filter="url(#filter7_df_128_33)">
        <path d="M859.196 287.936C860.946 287.936 862.365 286.668 862.365 285.103C862.365 283.539 860.946 282.27 859.196 282.27C857.445 282.27 856.027 283.539 856.027 285.103C856.027 286.668 857.445 287.936 859.196 287.936Z"
              fill="white"/>
    </g>
    <defs>
        <filter id="filter0_df_128_33" x="778.516" y="0.596573" width="304.942" height="311.558"
                filterUnits="userSpaceOnUse" color-interpolation-filters="sRGB">
            <feFlood flood-opacity="0" result="BackgroundImageFix"/>
            <feColorMatrix in="SourceAlpha" type="matrix" values="0 0 0 0 0 0 0 0 0 0 0 0 0 0 0 0 0 0 127 0"
                           result="hardAlpha"/>
            <feOffset/>
            <feGaussianBlur stdDeviation="19.5"/>
            <feComposite in2="hardAlpha" operator="out"/>
            <feColorMatrix type="matrix" values="0 0 0 0 1 0 0 0 0 1 0 0 0 0 1 0 0 0 0.25 0"/>
            <feBlend mode="normal" in2="BackgroundImageFix" result="effect1_dropShadow_128_33"/>
            <feBlend mode="normal" in="SourceGraphic" in2="effect1_dropShadow_128_33" result="shape"/>
            <feGaussianBlur stdDeviation="25" result="effect2_foregroundBlur_128_33"/>
        </filter>
        <filter id="filter1_df_128_33" x="823.516" y="45.5966" width="222.942" height="229.558"
                filterUnits="userSpaceOnUse" color-interpolation-filters="sRGB">
            <feFlood flood-opacity="0" result="BackgroundImageFix"/>
            <feColorMatrix in="SourceAlpha" type="matrix" values="0 0 0 0 0 0 0 0 0 0 0 0 0 0 0 0 0 0 127 0"
                           result="hardAlpha"/>
            <feOffset dx="4" dy="4"/>
            <feGaussianBlur stdDeviation="4.5"/>
            <feComposite in2="hardAlpha" operator="out"/>
            <feColorMatrix type="matrix" values="0 0 0 0 1 0 0 0 0 1 0 0 0 0 1 0 0 0 0.25 0"/>
            <feBlend mode="normal" in2="BackgroundImageFix" result="effect1_dropShadow_128_33"/>
            <feBlend mode="normal" in="SourceGraphic" in2="effect1_dropShadow_128_33" result="shape"/>
            <feGaussianBlur stdDeviation="0.75" result="effect2_foregroundBlur_128_33"/>
        </filter>
        <filter id="filter2_df_128_33" x="1097.93" y="248.708" width="16.3379" height="16.1661"
                filterUnits="userSpaceOnUse" color-interpolation-filters="sRGB">
            <feFlood flood-opacity="0" result="BackgroundImageFix"/>
            <feColorMatrix in="SourceAlpha" type="matrix" values="0 0 0 0 0 0 0 0 0 0 0 0 0 0 0 0 0 0 127 0"
                           result="hardAlpha"/>
            <feOffset dy="4"/>
            <feGaussianBlur stdDeviation="2.5"/>
            <feComposite in2="hardAlpha" operator="out"/>
            <feColorMatrix type="matrix" values="0 0 0 0 0 0 0 0 0 0 0 0 0 0 0 0 0 0 0.25 0"/>
            <feBlend mode="normal" in2="BackgroundImageFix" result="effect1_dropShadow_128_33"/>
            <feBlend mode="normal" in="SourceGraphic" in2="effect1_dropShadow_128_33" result="shape"/>
            <feGaussianBlur stdDeviation="0.75" result="effect2_foregroundBlur_128_33"/>
        </filter>
        <filter id="filter3_df_128_33" x="869.771" y="143.885" width="16.3379" height="16.1661"
                filterUnits="userSpaceOnUse" color-interpolation-filters="sRGB">
            <feFlood flood-opacity="0" result="BackgroundImageFix"/>
            <feColorMatrix in="SourceAlpha" type="matrix" values="0 0 0 0 0 0 0 0 0 0 0 0 0 0 0 0 0 0 127 0"
                           result="hardAlpha"/>
            <feOffset dy="4"/>
            <feGaussianBlur stdDeviation="2.5"/>
            <feComposite in2="hardAlpha" operator="out"/>
            <feColorMatrix type="matrix" values="0 0 0 0 0 0 0 0 0 0 0 0 0 0 0 0 0 0 0.25 0"/>
            <feBlend mode="normal" in2="BackgroundImageFix" result="effect1_dropShadow_128_33"/>
            <feBlend mode="normal" in="SourceGraphic" in2="effect1_dropShadow_128_33" result="shape"/>
            <feGaussianBlur stdDeviation="0.75" result="effect2_foregroundBlur_128_33"/>
        </filter>
        <filter id="filter4_df_128_33" x="777.875" y="210.934" width="16.3379" height="16.1661"
                filterUnits="userSpaceOnUse" color-interpolation-filters="sRGB">
            <feFlood flood-opacity="0" result="BackgroundImageFix"/>
            <feColorMatrix in="SourceAlpha" type="matrix" values="0 0 0 0 0 0 0 0 0 0 0 0 0 0 0 0 0 0 127 0"
                           result="hardAlpha"/>
            <feOffset dy="4"/>
            <feGaussianBlur stdDeviation="2.5"/>
            <feComposite in2="hardAlpha" operator="out"/>
            <feColorMatrix type="matrix" values="0 0 0 0 0 0 0 0 0 0 0 0 0 0 0 0 0 0 0.25 0"/>
            <feBlend mode="normal" in2="BackgroundImageFix" result="effect1_dropShadow_128_33"/>
            <feBlend mode="normal" in="SourceGraphic" in2="effect1_dropShadow_128_33" result="shape"/>
            <feGaussianBlur stdDeviation="0.75" result="effect2_foregroundBlur_128_33"/>
        </filter>
        <filter id="filter5_df_128_33" x="555" y="146.718" width="16.3379" height="16.1661" filterUnits="userSpaceOnUse"
                color-interpolation-filters="sRGB">
            <feFlood flood-opacity="0" result="BackgroundImageFix"/>
            <feColorMatrix in="SourceAlpha" type="matrix" values="0 0 0 0 0 0 0 0 0 0 0 0 0 0 0 0 0 0 127 0"
                           result="hardAlpha"/>
            <feOffset dy="4"/>
            <feGaussianBlur stdDeviation="2.5"/>
            <feComposite in2="hardAlpha" operator="out"/>
            <feColorMatrix type="matrix" values="0 0 0 0 0 0 0 0 0 0 0 0 0 0 0 0 0 0 0.25 0"/>
            <feBlend mode="normal" in2="BackgroundImageFix" result="effect1_dropShadow_128_33"/>
            <feBlend mode="normal" in="SourceGraphic" in2="effect1_dropShadow_128_33" result="shape"/>
            <feGaussianBlur stdDeviation="0.75" result="effect2_foregroundBlur_128_33"/>
        </filter>
        <filter id="filter6_df_128_33" x="619.701" y="264.716" width="16.3379" height="16.1661"
                filterUnits="userSpaceOnUse" color-interpolation-filters="sRGB">
            <feFlood flood-opacity="0" result="BackgroundImageFix"/>
            <feColorMatrix in="SourceAlpha" type="matrix" values="0 0 0 0 0 0 0 0 0 0 0 0 0 0 0 0 0 0 127 0"
                           result="hardAlpha"/>
            <feOffset dy="4"/>
            <feGaussianBlur stdDeviation="2.5"/>
            <feComposite in2="hardAlpha" operator="out"/>
            <feColorMatrix type="matrix" values="0 0 0 0 0 0 0 0 0 0 0 0 0 0 0 0 0 0 0.25 0"/>
            <feBlend mode="normal" in2="BackgroundImageFix" result="effect1_dropShadow_128_33"/>
            <feBlend mode="normal" in="SourceGraphic" in2="effect1_dropShadow_128_33" result="shape"/>
            <feGaussianBlur stdDeviation="0.75" result="effect2_foregroundBlur_128_33"/>
        </filter>
        <filter id="filter7_df_128_33" x="851.027" y="280.77" width="16.3379" height="16.1661"
                filterUnits="userSpaceOnUse" color-interpolation-filters="sRGB">
            <feFlood flood-opacity="0" result="BackgroundImageFix"/>
            <feColorMatrix in="SourceAlpha" type="matrix" values="0 0 0 0 0 0 0 0 0 0 0 0 0 0 0 0 0 0 127 0"
                           result="hardAlpha"/>
            <feOffset dy="4"/>
            <feGaussianBlur stdDeviation="2.5"/>
            <feComposite in2="hardAlpha" operator="out"/>
            <feColorMatrix type="matrix" values="0 0 0 0 0 0 0 0 0 0 0 0 0 0 0 0 0 0 0.25 0"/>
            <feBlend mode="normal" in2="BackgroundImageFix" result="effect1_dropShadow_128_33"/>
            <feBlend mode="normal" in="SourceGraphic" in2="effect1_dropShadow_128_33" result="shape"/>
            <feGaussianBlur stdDeviation="0.75" result="effect2_foregroundBlur_128_33"/>
        </filter>
    </defs>
</svg>
