<svg width="1208" height="435" viewBox="0 0 1208 435" fill="none" xmlns="http://www.w3.org/2000/svg">
    <path d="M911.644 401.517L722.638 360.897L555.706 434.276H1212.4V343.862L1110.31 298L911.644 401.517Z"
          fill="#432277"/>
    <path d="M1042.71 434.275L895.089 353.033L704.704 410.688L568.122 391.033L409.468 434.275H1042.71Z" fill="#2E095F"/>
    <path d="M941.996 427.723L863.358 401.516L759.889 434.275H1212.4V413.309L1108.93 377.93L941.996 427.723Z"
          fill="#1F0041"/>
    <path d="M1027.18 55.0222C1027.18 87.8083 1002.17 115.5 965.5 115.5C945.517 115.5 922.881 106.49 910.708 94.0014C918.409 96.7996 926.836 98.3398 935.664 98.3398C972.337 98.3398 1002.06 71.7647 1002.06 38.9785C1002.06 24.0652 995.91 10.4278 985.746 0.000198364C1010.05 8.81766 1027.18 30.1299 1027.18 55.0222Z"
          fill="white"/>
    <path d="M1066.1 116.875C1067.85 116.875 1069.27 115.606 1069.27 114.041C1069.27 112.477 1067.85 111.208 1066.1 111.208C1064.35 111.208 1062.93 112.477 1062.93 114.041C1062.93 115.606 1064.35 116.875 1066.1 116.875Z"
          fill="white"/>
    <path d="M837.941 12.0509C839.691 12.0509 841.109 10.7826 841.109 9.21784C841.109 7.65304 839.691 6.38477 837.941 6.38477C836.19 6.38477 834.772 7.65304 834.772 9.21784C834.772 10.7826 836.19 12.0509 837.941 12.0509Z"
          fill="white"/>
    <path d="M746.044 79.1003C747.794 79.1003 749.213 77.832 749.213 76.2672C749.213 74.7024 747.794 73.4341 746.044 73.4341C744.294 73.4341 742.875 74.7024 742.875 76.2672C742.875 77.832 744.294 79.1003 746.044 79.1003Z"
          fill="white"/>
    <path d="M520 12.0509C520 13.6157 521.419 14.884 523.169 14.884C524.919 14.884 526.338 13.6157 526.338 12.0509C526.338 10.4871 524.919 9.21783 523.169 9.21783C521.419 9.21783 520 10.4871 520 12.0509Z"
          fill="white"/>
    <path d="M587.87 132.882C589.621 132.882 591.039 131.614 591.039 130.049C591.039 128.484 589.621 127.216 587.87 127.216C586.12 127.216 584.701 128.484 584.701 130.049C584.701 131.614 586.12 132.882 587.87 132.882Z"
          fill="white"/>
    <path d="M819.196 148.936C820.946 148.936 822.365 147.668 822.365 146.103C822.365 144.539 820.946 143.27 819.196 143.27C817.445 143.27 816.027 144.539 816.027 146.103C816.027 147.668 817.445 148.936 819.196 148.936Z"
          fill="white"/>
</svg>
