<svg width="527" height="291" viewBox="0 0 527 291" fill="none" xmlns="http://www.w3.org/2000/svg">
<g filter="url(#filter0_df_151_75)">
<path d="M417.905 135.731C421.209 189.2 383.552 236.86 324.248 240.524C291.933 242.521 254.419 230.089 233.473 210.94C246.21 214.733 259.993 216.403 274.27 215.521C333.576 211.856 378.965 165.546 375.661 112.077C374.158 87.7565 362.837 66.1308 345.349 50.1411C385.54 62.092 415.397 95.1363 417.905 135.731Z" fill="white"/>
</g>
<g filter="url(#filter1_df_151_75)">
<path d="M417.905 135.731C421.209 189.2 383.552 236.86 324.248 240.524C291.933 242.521 254.419 230.089 233.473 210.94C246.21 214.733 259.993 216.403 274.27 215.521C333.576 211.856 378.965 165.546 375.661 112.077C374.158 87.7565 362.837 66.1308 345.349 50.1411C385.54 62.092 415.397 95.1363 417.905 135.731Z" fill="white"/>
</g>
<path d="M10.25 117.814C10.3333 117.717 10.8194 115.453 11.3194 112.777C11.9444 109.457 12.3333 107.714 12.5556 107.288C13.1111 106.191 13.6667 105.903 16.6806 105.162C19.4167 104.503 20 104.283 20 103.927C20 103.57 19.4167 103.35 16.6806 102.692C13.6667 101.951 13.1111 101.662 12.5556 100.565C12.3333 100.139 11.9444 98.3964 11.3194 95.0893C10.8194 92.4135 10.375 90.1767 10.3333 90.1081C10.2361 89.9709 9.76389 89.9572 9.66667 90.1081C9.63889 90.163 9.19444 92.3998 8.68056 95.0756C8.05556 98.4376 7.66667 100.139 7.45834 100.565C6.88889 101.676 6.33333 101.951 3.31944 102.692C0.583332 103.35 0 103.57 0 103.927C0 104.283 0.583332 104.503 3.31944 105.162C6.33333 105.903 6.88889 106.177 7.45834 107.288C7.66667 107.714 8.05556 109.415 8.68056 112.777C9.66667 117.978 9.79167 118.362 10.25 117.814Z" fill="white"/>
<path d="M151.325 107.76C151.433 107.637 152.065 104.726 152.715 101.285C153.528 97.0157 154.033 94.775 154.322 94.2281C155.044 92.8166 155.767 92.4461 159.685 91.4934C163.242 90.6465 164 90.3642 164 89.9055C164 89.4468 163.242 89.1645 159.685 88.3177C155.767 87.3649 155.044 86.9944 154.322 85.583C154.033 85.0361 153.528 82.7954 152.715 78.5434C152.065 75.103 151.487 72.2272 151.433 72.139C151.307 71.9626 150.693 71.9449 150.567 72.139C150.531 72.2096 149.953 75.0854 149.285 78.5258C148.472 82.8483 147.967 85.0361 147.696 85.583C146.956 87.0121 146.233 87.3649 142.315 88.3177C138.758 89.1645 138 89.4468 138 89.9055C138 90.3642 138.758 90.6465 142.315 91.4934C146.233 92.4461 146.956 92.799 147.696 94.2281C147.967 94.775 148.472 96.9627 149.285 101.285C150.567 107.972 150.729 108.466 151.325 107.76Z" fill="white"/>
<path d="M199.125 178.907C199.167 178.859 199.41 177.727 199.66 176.389C199.972 174.728 200.167 173.857 200.278 173.644C200.556 173.095 200.833 172.951 202.34 172.581C203.708 172.251 204 172.142 204 171.963C204 171.785 203.708 171.675 202.34 171.346C200.833 170.975 200.556 170.831 200.278 170.282C200.167 170.07 199.972 169.198 199.66 167.545C199.41 166.207 199.187 165.088 199.167 165.054C199.118 164.985 198.882 164.979 198.833 165.054C198.819 165.082 198.597 166.2 198.34 167.538C198.028 169.219 197.833 170.07 197.729 170.282C197.444 170.838 197.167 170.975 195.66 171.346C194.292 171.675 194 171.785 194 171.963C194 172.142 194.292 172.251 195.66 172.581C197.167 172.951 197.444 173.088 197.729 173.644C197.833 173.857 198.028 174.708 198.34 176.389C198.833 178.989 198.896 179.181 199.125 178.907Z" fill="white"/>
<path d="M270.075 252.947C270.1 252.919 270.246 252.272 270.396 251.508C270.583 250.559 270.7 250.061 270.767 249.94C270.933 249.626 271.1 249.544 272.004 249.332C272.825 249.144 273 249.081 273 248.979C273 248.877 272.825 248.814 272.004 248.626C271.1 248.414 270.933 248.332 270.767 248.018C270.7 247.897 270.583 247.399 270.396 246.454C270.246 245.69 270.112 245.05 270.1 245.031C270.071 244.992 269.929 244.988 269.9 245.031C269.892 245.047 269.758 245.686 269.604 246.45C269.417 247.411 269.3 247.897 269.238 248.018C269.067 248.336 268.9 248.414 267.996 248.626C267.175 248.814 267 248.877 267 248.979C267 249.081 267.175 249.144 267.996 249.332C268.9 249.544 269.067 249.622 269.238 249.94C269.3 250.061 269.417 250.547 269.604 251.508C269.9 252.994 269.938 253.104 270.075 252.947Z" fill="white"/>
<path d="M292.075 115.947C292.1 115.919 292.246 115.272 292.396 114.508C292.583 113.559 292.7 113.061 292.767 112.94C292.933 112.626 293.1 112.544 294.004 112.332C294.825 112.144 295 112.081 295 111.979C295 111.877 294.825 111.814 294.004 111.626C293.1 111.414 292.933 111.332 292.767 111.018C292.7 110.897 292.583 110.399 292.396 109.454C292.246 108.69 292.112 108.05 292.1 108.031C292.071 107.992 291.929 107.988 291.9 108.031C291.892 108.047 291.758 108.686 291.604 109.45C291.417 110.411 291.3 110.897 291.238 111.018C291.067 111.336 290.9 111.414 289.996 111.626C289.175 111.814 289 111.877 289 111.979C289 112.081 289.175 112.144 289.996 112.332C290.9 112.544 291.067 112.622 291.238 112.94C291.3 113.061 291.417 113.547 291.604 114.508C291.9 115.994 291.938 116.104 292.075 115.947Z" fill="white"/>
<path d="M45.15 234.893C45.2 234.839 45.4917 233.545 45.7917 232.016C46.1667 230.118 46.4 229.122 46.5333 228.879C46.8667 228.252 47.2 228.087 49.0083 227.664C50.65 227.287 51 227.162 51 226.958C51 226.754 50.65 226.629 49.0083 226.252C47.2 225.829 46.8667 225.664 46.5333 225.037C46.4 224.794 46.1667 223.798 45.7917 221.908C45.4917 220.379 45.225 219.101 45.2 219.062C45.1417 218.983 44.8583 218.976 44.8 219.062C44.7833 219.093 44.5167 220.371 44.2083 221.9C43.8333 223.821 43.6 224.794 43.475 225.037C43.1333 225.672 42.8 225.829 40.9917 226.252C39.35 226.629 39 226.754 39 226.958C39 227.162 39.35 227.287 40.9917 227.664C42.8 228.087 43.1333 228.244 43.475 228.879C43.6 229.122 43.8333 230.095 44.2083 232.016C44.8 234.988 44.875 235.207 45.15 234.893Z" fill="white"/>
<path d="M521.638 215.893C521.683 215.839 521.951 214.545 522.226 213.016C522.569 211.118 522.783 210.122 522.906 209.879C523.211 209.252 523.517 209.087 525.174 208.664C526.679 208.287 527 208.162 527 207.958C527 207.754 526.679 207.629 525.174 207.252C523.517 206.829 523.211 206.664 522.906 206.037C522.783 205.794 522.569 204.798 522.226 202.908C521.951 201.379 521.706 200.101 521.683 200.062C521.63 199.983 521.37 199.976 521.317 200.062C521.301 200.093 521.057 201.371 520.774 202.9C520.431 204.821 520.217 205.794 520.102 206.037C519.789 206.672 519.483 206.829 517.826 207.252C516.321 207.629 516 207.754 516 207.958C516 208.162 516.321 208.287 517.826 208.664C519.483 209.087 519.789 209.244 520.102 209.879C520.217 210.122 520.431 211.095 520.774 213.016C521.317 215.988 521.385 216.207 521.638 215.893Z" fill="white"/>
<defs>
<filter id="filter0_df_151_75" x="183.473" y="0.141052" width="284.633" height="290.593" filterUnits="userSpaceOnUse" color-interpolation-filters="sRGB">
<feFlood flood-opacity="0" result="BackgroundImageFix"/>
<feColorMatrix in="SourceAlpha" type="matrix" values="0 0 0 0 0 0 0 0 0 0 0 0 0 0 0 0 0 0 127 0" result="hardAlpha"/>
<feOffset/>
<feGaussianBlur stdDeviation="19.5"/>
<feComposite in2="hardAlpha" operator="out"/>
<feColorMatrix type="matrix" values="0 0 0 0 1 0 0 0 0 1 0 0 0 0 1 0 0 0 0.25 0"/>
<feBlend mode="normal" in2="BackgroundImageFix" result="effect1_dropShadow_151_75"/>
<feBlend mode="normal" in="SourceGraphic" in2="effect1_dropShadow_151_75" result="shape"/>
<feGaussianBlur stdDeviation="25" result="effect2_foregroundBlur_151_75"/>
</filter>
<filter id="filter1_df_151_75" x="228.473" y="45.1411" width="202.633" height="208.593" filterUnits="userSpaceOnUse" color-interpolation-filters="sRGB">
<feFlood flood-opacity="0" result="BackgroundImageFix"/>
<feColorMatrix in="SourceAlpha" type="matrix" values="0 0 0 0 0 0 0 0 0 0 0 0 0 0 0 0 0 0 127 0" result="hardAlpha"/>
<feOffset dx="4" dy="4"/>
<feGaussianBlur stdDeviation="4.5"/>
<feComposite in2="hardAlpha" operator="out"/>
<feColorMatrix type="matrix" values="0 0 0 0 1 0 0 0 0 1 0 0 0 0 1 0 0 0 0.25 0"/>
<feBlend mode="normal" in2="BackgroundImageFix" result="effect1_dropShadow_151_75"/>
<feBlend mode="normal" in="SourceGraphic" in2="effect1_dropShadow_151_75" result="shape"/>
<feGaussianBlur stdDeviation="1.5" result="effect2_foregroundBlur_151_75"/>
</filter>
</defs>
</svg>
