<svg width="560" height="291" viewBox="0 0 560 291" fill="none" xmlns="http://www.w3.org/2000/svg">
    <g filter="url(#filter0_df_151_75)">
        <path d="M446.905 135.731C450.209 189.2 412.552 236.86 353.248 240.524C320.933 242.521 283.419 230.089 262.473 210.94C275.21 214.733 288.993 216.403 303.27 215.521C362.576 211.856 407.965 165.546 404.661 112.077C403.158 87.7565 391.837 66.1308 374.349 50.1411C414.54 62.092 444.397 95.1363 446.905 135.731Z"
              fill="white"/>
    </g>
    <g filter="url(#filter1_df_151_75)">
        <path d="M446.905 135.731C450.209 189.2 412.552 236.86 353.248 240.524C320.933 242.521 283.419 230.089 262.473 210.94C275.21 214.733 288.993 216.403 303.27 215.521C362.576 211.856 407.965 165.546 404.661 112.077C403.158 87.7565 391.837 66.1308 374.349 50.1411C414.54 62.092 444.397 95.1363 446.905 135.731Z"
              fill="white"/>
    </g>
    <g filter="url(#filter2_df_151_75)">
        <path d="M551.097 215.875C552.847 215.875 554.266 214.606 554.266 213.041C554.266 211.477 552.847 210.208 551.097 210.208C549.347 210.208 547.928 211.477 547.928 213.041C547.928 214.606 549.347 215.875 551.097 215.875Z"
              fill="white"/>
    </g>
    <g filter="url(#filter3_df_151_75)">
        <path d="M322.94 111.051C324.691 111.051 326.109 109.783 326.109 108.218C326.109 106.653 324.691 105.385 322.94 105.385C321.19 105.385 319.771 106.653 319.771 108.218C319.771 109.783 321.19 111.051 322.94 111.051Z"
              fill="white"/>
    </g>
    <g filter="url(#filter4_df_151_75)">
        <path d="M231.044 178.1C232.794 178.1 234.213 176.832 234.213 175.267C234.213 173.702 232.794 172.434 231.044 172.434C229.294 172.434 227.875 173.702 227.875 175.267C227.875 176.832 229.294 178.1 231.044 178.1Z"
              fill="white"/>
    </g>
    <g filter="url(#filter5_df_151_75)">
        <path d="M5 111.051C5 112.616 6.41859 113.884 8.16885 113.884C9.91911 113.884 11.3377 112.616 11.3377 111.051C11.3377 109.487 9.91911 108.218 8.16885 108.218C6.41859 108.218 5 109.487 5 111.051Z"
              fill="white"/>
    </g>
    <g filter="url(#filter6_df_151_75)">
        <path d="M72.87 231.882C74.6203 231.882 76.0389 230.614 76.0389 229.049C76.0389 227.484 74.6203 226.216 72.87 226.216C71.1198 226.216 69.7012 227.484 69.7012 229.049C69.7012 230.614 71.1198 231.882 72.87 231.882Z"
              fill="white"/>
    </g>
    <g filter="url(#filter7_df_151_75)">
        <path d="M304.196 247.936C305.946 247.936 307.365 246.668 307.365 245.103C307.365 243.539 305.946 242.27 304.196 242.27C302.445 242.27 301.027 243.539 301.027 245.103C301.027 246.668 302.445 247.936 304.196 247.936Z"
              fill="white"/>
    </g>
    <defs>
        <filter id="filter0_df_151_75" x="212.473" y="0.141052" width="284.633" height="290.593"
                filterUnits="userSpaceOnUse" color-interpolation-filters="sRGB">
            <feFlood flood-opacity="0" result="BackgroundImageFix"/>
            <feColorMatrix in="SourceAlpha" type="matrix" values="0 0 0 0 0 0 0 0 0 0 0 0 0 0 0 0 0 0 127 0"
                           result="hardAlpha"/>
            <feOffset/>
            <feGaussianBlur stdDeviation="19.5"/>
            <feComposite in2="hardAlpha" operator="out"/>
            <feColorMatrix type="matrix" values="0 0 0 0 1 0 0 0 0 1 0 0 0 0 1 0 0 0 0.25 0"/>
            <feBlend mode="normal" in2="BackgroundImageFix" result="effect1_dropShadow_151_75"/>
            <feBlend mode="normal" in="SourceGraphic" in2="effect1_dropShadow_151_75" result="shape"/>
            <feGaussianBlur stdDeviation="25" result="effect2_foregroundBlur_151_75"/>
        </filter>
        <filter id="filter1_df_151_75" x="257.473" y="45.1411" width="202.633" height="208.593"
                filterUnits="userSpaceOnUse" color-interpolation-filters="sRGB">
            <feFlood flood-opacity="0" result="BackgroundImageFix"/>
            <feColorMatrix in="SourceAlpha" type="matrix" values="0 0 0 0 0 0 0 0 0 0 0 0 0 0 0 0 0 0 127 0"
                           result="hardAlpha"/>
            <feOffset dx="4" dy="4"/>
            <feGaussianBlur stdDeviation="2.5"/>
            <feComposite in2="hardAlpha" operator="out"/>
            <feColorMatrix type="matrix" values="0 0 0 0 1 0 0 0 0 1 0 0 0 0 1 0 0 0 0.25 0"/>
            <feBlend mode="normal" in2="BackgroundImageFix" result="effect1_dropShadow_151_75"/>
            <feBlend mode="normal" in="SourceGraphic" in2="effect1_dropShadow_151_75" result="shape"/>
            <feGaussianBlur stdDeviation="1.5" result="effect2_foregroundBlur_151_75"/>
        </filter>
        <filter id="filter2_df_151_75" x="542.928" y="208.708" width="16.3379" height="16.1661"
                filterUnits="userSpaceOnUse" color-interpolation-filters="sRGB">
            <feFlood flood-opacity="0" result="BackgroundImageFix"/>
            <feColorMatrix in="SourceAlpha" type="matrix" values="0 0 0 0 0 0 0 0 0 0 0 0 0 0 0 0 0 0 127 0"
                           result="hardAlpha"/>
            <feOffset dy="4"/>
            <feGaussianBlur stdDeviation="2.5"/>
            <feComposite in2="hardAlpha" operator="out"/>
            <feColorMatrix type="matrix" values="0 0 0 0 0 0 0 0 0 0 0 0 0 0 0 0 0 0 0.25 0"/>
            <feBlend mode="normal" in2="BackgroundImageFix" result="effect1_dropShadow_151_75"/>
            <feBlend mode="normal" in="SourceGraphic" in2="effect1_dropShadow_151_75" result="shape"/>
            <feGaussianBlur stdDeviation="0.75" result="effect2_foregroundBlur_151_75"/>
        </filter>
        <filter id="filter3_df_151_75" x="314.771" y="103.885" width="16.3379" height="16.1661"
                filterUnits="userSpaceOnUse" color-interpolation-filters="sRGB">
            <feFlood flood-opacity="0" result="BackgroundImageFix"/>
            <feColorMatrix in="SourceAlpha" type="matrix" values="0 0 0 0 0 0 0 0 0 0 0 0 0 0 0 0 0 0 127 0"
                           result="hardAlpha"/>
            <feOffset dy="4"/>
            <feGaussianBlur stdDeviation="2.5"/>
            <feComposite in2="hardAlpha" operator="out"/>
            <feColorMatrix type="matrix" values="0 0 0 0 0 0 0 0 0 0 0 0 0 0 0 0 0 0 0.25 0"/>
            <feBlend mode="normal" in2="BackgroundImageFix" result="effect1_dropShadow_151_75"/>
            <feBlend mode="normal" in="SourceGraphic" in2="effect1_dropShadow_151_75" result="shape"/>
            <feGaussianBlur stdDeviation="0.75" result="effect2_foregroundBlur_151_75"/>
        </filter>
        <filter id="filter4_df_151_75" x="222.875" y="170.934" width="16.3379" height="16.1661"
                filterUnits="userSpaceOnUse" color-interpolation-filters="sRGB">
            <feFlood flood-opacity="0" result="BackgroundImageFix"/>
            <feColorMatrix in="SourceAlpha" type="matrix" values="0 0 0 0 0 0 0 0 0 0 0 0 0 0 0 0 0 0 127 0"
                           result="hardAlpha"/>
            <feOffset dy="4"/>
            <feGaussianBlur stdDeviation="2.5"/>
            <feComposite in2="hardAlpha" operator="out"/>
            <feColorMatrix type="matrix" values="0 0 0 0 0 0 0 0 0 0 0 0 0 0 0 0 0 0 0.25 0"/>
            <feBlend mode="normal" in2="BackgroundImageFix" result="effect1_dropShadow_151_75"/>
            <feBlend mode="normal" in="SourceGraphic" in2="effect1_dropShadow_151_75" result="shape"/>
            <feGaussianBlur stdDeviation="0.75" result="effect2_foregroundBlur_151_75"/>
        </filter>
        <filter id="filter5_df_151_75" x="0" y="106.718" width="16.3379" height="16.1661" filterUnits="userSpaceOnUse"
                color-interpolation-filters="sRGB">
            <feFlood flood-opacity="0" result="BackgroundImageFix"/>
            <feColorMatrix in="SourceAlpha" type="matrix" values="0 0 0 0 0 0 0 0 0 0 0 0 0 0 0 0 0 0 127 0"
                           result="hardAlpha"/>
            <feOffset dy="4"/>
            <feGaussianBlur stdDeviation="2.5"/>
            <feComposite in2="hardAlpha" operator="out"/>
            <feColorMatrix type="matrix" values="0 0 0 0 0 0 0 0 0 0 0 0 0 0 0 0 0 0 0.25 0"/>
            <feBlend mode="normal" in2="BackgroundImageFix" result="effect1_dropShadow_151_75"/>
            <feBlend mode="normal" in="SourceGraphic" in2="effect1_dropShadow_151_75" result="shape"/>
            <feGaussianBlur stdDeviation="0.75" result="effect2_foregroundBlur_151_75"/>
        </filter>
        <filter id="filter6_df_151_75" x="64.7012" y="224.716" width="16.3379" height="16.1661"
                filterUnits="userSpaceOnUse" color-interpolation-filters="sRGB">
            <feFlood flood-opacity="0" result="BackgroundImageFix"/>
            <feColorMatrix in="SourceAlpha" type="matrix" values="0 0 0 0 0 0 0 0 0 0 0 0 0 0 0 0 0 0 127 0"
                           result="hardAlpha"/>
            <feOffset dy="4"/>
            <feGaussianBlur stdDeviation="2.5"/>
            <feComposite in2="hardAlpha" operator="out"/>
            <feColorMatrix type="matrix" values="0 0 0 0 0 0 0 0 0 0 0 0 0 0 0 0 0 0 0.25 0"/>
            <feBlend mode="normal" in2="BackgroundImageFix" result="effect1_dropShadow_151_75"/>
            <feBlend mode="normal" in="SourceGraphic" in2="effect1_dropShadow_151_75" result="shape"/>
            <feGaussianBlur stdDeviation="0.75" result="effect2_foregroundBlur_151_75"/>
        </filter>
        <filter id="filter7_df_151_75" x="296.027" y="240.77" width="16.3379" height="16.1661"
                filterUnits="userSpaceOnUse" color-interpolation-filters="sRGB">
            <feFlood flood-opacity="0" result="BackgroundImageFix"/>
            <feColorMatrix in="SourceAlpha" type="matrix" values="0 0 0 0 0 0 0 0 0 0 0 0 0 0 0 0 0 0 127 0"
                           result="hardAlpha"/>
            <feOffset dy="4"/>
            <feGaussianBlur stdDeviation="2.5"/>
            <feComposite in2="hardAlpha" operator="out"/>
            <feColorMatrix type="matrix" values="0 0 0 0 0 0 0 0 0 0 0 0 0 0 0 0 0 0 0.25 0"/>
            <feBlend mode="normal" in2="BackgroundImageFix" result="effect1_dropShadow_151_75"/>
            <feBlend mode="normal" in="SourceGraphic" in2="effect1_dropShadow_151_75" result="shape"/>
            <feGaussianBlur stdDeviation="0.75" result="effect2_foregroundBlur_151_75"/>
        </filter>
    </defs>
</svg>
