<svg
        width="200" height="200"
        viewBox="0 0 1000 562.5"
        xmlns="http://www.w3.org/2000/svg"
        preserveAspectRatio="xMinYMin meet"
        fill="url(#pattern-602e0271028d1)"

         >
    <defs>
        <pattern id="pattern-602e0271028d1" patternUnits="userSpaceOnUse"
                 width="100%" height="100%">
            <image

                   href="https://encrypted-tbn1.gstatic.com/images?q=tbn:ANd9GcTPp7UQ5G0rhPhv6YmpJaW_10JHbxI7sdzcYIEQGTrVPxhBcxV9"
                   width="100%" height="100%"/>
        </pattern>
    </defs>
    <g>
        <path
                d="M8,0 h884 a8,8 0 0 1 8,8 v90.1 a8,8 0 0 1
                    -8,8 h-884 a8,8 0 0 1 -8,-8 v-90.1 a8,8 0 0 1 8,-8"/>
        <path
                d="M108,114.1 h884 a8,8 0 0 1 8,8 v90.1 a8,8
                     0 0 1 -8,8 h-884 a8,8 0 0 1 -8,-8 v-90.1 a8,8 0 0 1 8,-8"/>
        <path
                d="M58,228.2 h784 a8,8 0 0 1 8,8 v90.1 a8,8 0 0 1
                     -8,8 h-784 a8,8 0 0 1 -8,-8 v-90.1 a8,8 0 0 1 8,-8"/>
        <path
                d="M158,342.3 h734 a8,8 0 0 1 8,8 v90.1 a8,8 0 0
                     1 -8,8 h-734 a8,8 0 0 1 -8,-8 v-90.1 a8,8 0 0 1 8,-8"/>
        <path
                d="M8,456.4 h934 a8,8 0 0 1 8,8 v90.1 a8,8 0 0 1
                     -8,8 h-934 a8,8 0 0 1 -8,-8 v-90.1 a8,8 0 0 1 8,-8"/>
    </g>
</svg>