<svg width="320" height="113" viewBox="0 0 320 113" fill="none" xmlns="http://www.w3.org/2000/svg">
    <path d="M62.4958 5.98197H80.4538V113H62.4958V5.98197ZM57.0938 63.798L53.5898 81.756H18.4038V113H0.445801V5.98197H18.4038V63.798H57.0938Z"
          fill="white"/>
    <path d="M153.81 89.64L166.95 93.582C163.64 99.422 158.968 104.143 152.934 107.744C146.996 111.248 140.524 113 133.516 113C122.906 113 113.806 109.253 106.214 101.758C98.719 94.2633 94.9717 85.2113 94.9717 74.602C94.9717 63.9926 98.719 54.9406 106.214 47.446C113.708 39.854 122.809 36.058 133.516 36.058C144.125 36.058 153.177 39.854 160.672 47.446C168.166 54.9406 171.914 63.9926 171.914 74.602C171.914 77.1326 171.67 79.7606 171.184 82.486H109.572C111.226 87.5473 114.244 91.7326 118.624 95.042C123.101 98.254 128.065 99.86 133.516 99.86C141.984 99.86 148.748 96.4533 153.81 89.64ZM149.43 55.038C144.855 51.242 139.55 49.344 133.516 49.344C127.481 49.344 122.128 51.242 117.456 55.038C112.881 58.834 110.01 63.6033 108.842 69.346H158.336C157.07 63.6033 154.102 58.834 149.43 55.038Z"
          fill="white"/>
    <path d="M186.938 113V0.141968H200.078V113H186.938Z" fill="white"/>
    <path d="M214.741 113V0.141968H227.881V113H214.741Z" fill="white"/>
    <path d="M253.785 47.446C261.377 39.854 270.478 36.058 281.087 36.058C291.697 36.058 300.749 39.854 308.243 47.446C315.738 54.9406 319.485 63.9926 319.485 74.602C319.485 85.2113 315.738 94.2633 308.243 101.758C300.749 109.253 291.697 113 281.087 113C270.478 113 261.377 109.253 253.785 101.758C246.291 94.2633 242.543 85.2113 242.543 74.602C242.543 63.9926 246.291 54.9406 253.785 47.446ZM306.345 74.602C306.345 67.6913 303.863 61.754 298.899 56.79C294.033 51.826 288.095 49.344 281.087 49.344C274.177 49.344 268.239 51.826 263.275 56.79C258.311 61.754 255.829 67.6913 255.829 74.602C255.829 81.61 258.311 87.596 263.275 92.56C268.239 97.4266 274.177 99.86 281.087 99.86C288.095 99.86 294.033 97.4266 298.899 92.56C303.863 87.596 306.345 81.61 306.345 74.602Z"
          fill="white"/>
</svg>
