<?xml version="1.0" standalone="no"?>
<svg version="1.0" xmlns="http://www.w3.org/2000/svg"
     width="4178.000000pt" height="3669.000000pt" viewBox="0 0 4178.000000 3669.000000"
     preserveAspectRatio="xMidYMid meet">

    <g transform="translate(0.000000,3669.000000) scale(0.100000,-0.100000)"
       fill="#5D6C7B" stroke="none">
        <path d="M33787 36679 c-114 -66 -29 -391 393 -1504 163 -428 217 -582 222
-630 3 -27 0 -30 -23 -28 -60 4 -445 159 -1033 418 -451 198 -446 196 -446
186 0 -4 52 -99 116 -212 194 -338 245 -457 214 -494 -38 -46 -164 9 -540 235
-213 128 -382 219 -435 234 -11 3 -26 2 -34 -3 -11 -7 -7 -19 22 -58 197 -268
916 -703 1162 -703 85 0 134 64 121 159 -3 25 -26 105 -51 176 -47 138 -49
171 -9 181 66 17 387 -129 644 -294 235 -151 510 -386 579 -496 17 -28 31 -63
31 -80 0 -73 -114 -207 -300 -355 -182 -145 -256 -173 -383 -145 -101 23 -322
101 -602 211 -496 196 -973 369 -1255 454 -158 48 -308 84 -317 75 -8 -8 84
-64 202 -124 169 -84 428 -195 945 -403 680 -275 835 -358 792 -427 -13 -20
-176 -82 -492 -188 -227 -76 -307 -99 -345 -98 -66 1 -439 125 -580 192 -445
213 -630 528 -725 1230 -11 83 -29 219 -40 302 -36 261 -85 418 -143 450 -24
13 -30 13 -54 0 -25 -14 -28 -22 -31 -73 -2 -38 6 -92 22 -157 27 -101 33
-200 17 -243 -15 -38 -70 -96 -113 -118 -104 -53 -57 -51 -1498 -54 -1462 -2
-1704 -8 -2545 -65 -2958 -201 -4570 -679 -6365 -1885 -1358 -913 -2533 -2052
-2909 -2820 -82 -167 -91 -203 -100 -393 -5 -90 -12 -167 -18 -173 -17 -17
-38 0 -83 68 -66 101 -112 217 -112 283 0 82 42 200 146 404 211 416 497 806
647 881 140 71 190 132 400 483 301 505 404 633 969 1205 l335 340 135 -128
c74 -70 159 -144 188 -163 75 -50 80 -41 57 102 -16 97 -17 121 -6 157 27 90
103 173 196 215 94 41 83 69 -30 79 -41 4 -79 13 -85 20 -23 28 75 113 335
291 799 547 1777 1057 2845 1484 960 384 1238 443 3025 645 1393 157 1999 234
2209 282 78 17 75 24 -22 49 -31 8 -68 22 -81 31 -23 15 -24 16 -6 29 34 25
687 15 1110 -16 422 -32 695 -90 695 -149 0 -11 -8 -25 -18 -30 -25 -13 -180
-29 -367 -37 -88 -3 -176 -9 -195 -13 l-35 -7 35 -21 c122 -73 170 -125 170
-187 0 -50 -30 -78 -116 -106 -93 -30 -105 -42 -74 -75 59 -63 426 -160 516
-136 37 10 46 41 11 41 -40 0 -92 41 -95 75 -6 65 63 128 338 315 174 118 303
237 343 315 30 60 47 137 47 209 0 92 28 139 68 117 31 -17 58 -54 292 -401
246 -364 450 -660 456 -660 6 0 -14 46 -62 141 -216 431 -797 1229 -895 1229
-35 0 -39 -32 -39 -322 0 -156 -4 -290 -10 -298 -7 -12 -57 -5 -342 48 -591
110 -718 122 -1348 122 -666 0 -1078 -28 -1800 -121 -1336 -171 -2838 -502
-3940 -869 -1168 -388 -2380 -1047 -3195 -1736 -250 -212 -268 -223 -380 -225
-136 -3 -155 -17 -110 -83 49 -73 33 -105 -175 -336 -590 -659 -1054 -1237
-1515 -1890 -625 -885 -923 -1449 -1243 -2350 -92 -260 -201 -601 -372 -1165
-223 -737 -298 -945 -339 -945 -37 0 -74 86 -86 200 -6 55 -19 90 -29 79 -23
-23 -43 -295 -56 -774 -13 -463 -13 -2602 0 -2970 33 -928 111 -1327 458
-2355 498 -1472 983 -2269 1997 -3285 852 -853 1778 -1579 2669 -2094 679
-392 3109 -1560 4126 -1983 710 -295 1157 -430 2270 -686 839 -194 1054 -234
1400 -263 189 -16 1067 -16 1430 0 1128 49 2256 143 2830 236 207 34 328 64
555 140 489 161 1011 393 1656 736 103 54 191 99 196 99 5 0 0 -55 -10 -122
-14 -88 -20 -181 -20 -323 -2 -236 9 -300 57 -353 29 -31 39 -35 78 -35 56 1
91 19 145 75 57 59 67 103 59 253 -14 236 -37 349 -106 505 -22 51 -39 94 -38
95 2 1 134 89 293 196 756 509 1035 735 1638 1329 241 237 455 462 533 560 29
37 -6 5 -236 -216 -445 -425 -817 -739 -1325 -1119 -592 -442 -856 -609 -1406
-887 -1097 -557 -2059 -817 -3779 -1022 -628 -75 -870 -96 -1225 -103 -594
-12 -1003 45 -2160 297 -1558 340 -2405 582 -2405 687 0 37 295 -10 880 -142
615 -139 987 -203 1653 -285 496 -61 633 -70 1272 -80 874 -14 1631 3 2000 46
801 91 1676 281 2180 471 774 293 2359 1170 3504 1940 463 311 656 457 936
708 274 245 480 405 521 405 54 0 23 -115 -70 -260 -25 -38 -44 -70 -41 -70
10 0 211 259 304 394 492 707 988 1614 1369 2506 315 738 628 1654 951 2781
425 1486 495 2079 406 3429 -154 2327 -776 4187 -1908 5706 -339 456 -566 709
-1277 1429 -700 709 -894 929 -1055 1198 -138 232 -124 319 93 562 239 268
843 1187 1047 1595 69 136 85 183 85 246 0 180 -327 70 -1190 -398 -575 -312
-946 -502 -1223 -627 -176 -80 -225 -96 -261 -87 -64 16 -155 132 -322 410
-164 273 -316 459 -664 807 -471 473 -924 835 -1165 930 -79 32 -83 32 -108
18z m-2677 -2588 c96 -5 197 -15 223 -21 110 -28 211 -216 297 -555 21 -82 37
-195 28 -195 -10 0 -238 80 -496 174 -374 137 -593 210 -807 272 -208 60 -540
130 -656 139 l-74 6 40 -22 c21 -12 227 -84 458 -160 230 -77 518 -176 640
-220 913 -333 1748 -735 1821 -877 30 -59 -10 -95 -227 -203 -182 -92 -283
-153 -414 -250 -271 -204 -607 -573 -705 -773 -42 -88 -51 -162 -23 -190 47
-47 174 -44 490 10 424 73 843 134 1500 219 261 34 515 78 640 110 63 16 158
54 255 100 180 86 341 143 503 179 190 43 306 30 378 -43 68 -68 63 -166 -15
-300 -138 -234 -253 -586 -380 -1157 -244 -1100 -343 -2074 -250 -2449 25
-102 53 -146 113 -177 103 -54 253 -34 431 58 265 137 460 408 970 1349 259
478 362 646 472 768 l53 59 135 -147 c224 -244 454 -549 656 -870 90 -143 224
-393 224 -419 0 -7 18 -30 39 -49 87 -79 194 -75 379 14 193 93 325 257 269
334 -21 27 -59 13 -125 -48 -62 -57 -168 -135 -219 -161 -62 -31 -80 -14 -391
379 -531 671 -730 968 -772 1154 -35 152 36 372 159 497 66 67 91 77 180 72
150 -10 436 -128 613 -254 103 -74 293 -256 416 -399 624 -726 1343 -2079
1832 -3450 256 -717 397 -1438 450 -2305 13 -216 13 -892 0 -961 -8 -40 -19
-63 -45 -89 l-35 -34 -27 20 c-64 47 -114 164 -147 347 -123 670 -1117 2953
-1599 3672 -93 138 -207 250 -207 203 0 -23 56 -131 174 -336 323 -561 658
-1298 1020 -2240 487 -1268 663 -1972 625 -2500 -13 -186 -52 -362 -180 -812
-379 -1325 -866 -2462 -1402 -3270 -973 -1468 -2640 -2735 -4662 -3545 -752
-301 -1506 -522 -2305 -676 -432 -83 -798 -138 -1091 -164 -530 -46 -1895 -46
-2389 1 -511 48 -1034 173 -2115 508 -609 188 -996 325 -1168 413 -87 45 -112
68 -101 96 9 24 58 28 237 16 93 -6 221 -9 283 -7 136 4 162 17 182 94 26 96
-7 256 -56 283 -45 24 -82 14 -131 -36 -25 -27 -60 -69 -77 -94 -42 -61 -116
-99 -194 -99 -33 0 -123 17 -216 40 -87 23 -170 39 -184 38 -43 -5 -38 -83 15
-221 12 -29 -17 -21 -182 55 -1494 684 -2593 1526 -3551 2718 -443 551 -826
1135 -1239 1890 -656 1200 -947 2004 -1082 2990 -102 743 -136 1572 -86 2070
45 451 150 940 342 1600 380 1307 844 2361 1448 3285 302 463 748 1014 1165
1438 150 154 325 307 349 307 6 0 48 -18 92 -40 115 -58 183 -73 304 -68 55 3
111 10 124 17 21 12 23 18 19 66 -5 60 -51 163 -121 273 -26 40 -47 76 -47 80
0 10 167 141 290 228 266 190 719 474 1150 721 1702 978 3175 1353 5810 1477
1143 55 1548 64 1900 47z m-4906 -80 c76 -16 32 -41 -332 -185 -130 -52 -367
-146 -527 -209 -1111 -440 -2324 -1040 -2900 -1434 -146 -100 -248 -180 -433
-341 -145 -125 -156 -132 -176 -119 -255 166 -431 243 -641 283 -106 19 -245
15 -317 -11 -91 -32 -149 -133 -116 -201 35 -73 144 -90 466 -75 248 11 390 3
451 -27 30 -14 37 -23 39 -53 3 -30 -4 -45 -43 -92 -25 -31 -54 -62 -65 -70
-35 -25 -454 -469 -781 -827 -535 -588 -950 -1148 -1254 -1691 -245 -439 -500
-1005 -755 -1679 -754 -1993 -921 -3584 -536 -5135 227 -915 695 -1989 1321
-3030 644 -1072 1361 -1964 2150 -2674 552 -497 1105 -893 1663 -1192 1058
-565 3164 -1276 4412 -1489 208 -36 343 -49 594 -61 296 -14 1618 -6 1786 10
493 48 1158 169 1760 320 1789 450 3415 1237 4750 2300 565 450 1230 1142
1640 1706 538 741 842 1356 1285 2605 154 433 258 678 313 737 21 23 25 24 33
10 35 -61 -202 -934 -423 -1557 -640 -1808 -1604 -3288 -2883 -4425 -60 -54
-114 -102 -120 -108 -36 -36 405 271 510 356 755 607 1502 1643 2110 2926 272
575 390 885 755 1981 203 611 258 762 292 811 15 22 17 23 33 7 27 -26 38
-311 31 -818 -17 -1193 -52 -1517 -216 -2035 -420 -1319 -1549 -2638 -3185
-3720 -206 -136 -1022 -635 -1039 -635 -2 0 -6 71 -9 158 -3 86 -13 198 -21
247 -9 50 -16 98 -16 107 0 10 62 65 153 136 164 129 281 232 298 264 10 18 9
19 -13 7 -54 -29 -250 -147 -340 -206 l-98 -63 0 83 c0 149 -43 252 -117 283
-28 12 -39 12 -61 2 -65 -31 -83 -97 -108 -378 -8 -91 -17 -178 -20 -194 -7
-31 -81 -83 -529 -363 -973 -609 -1609 -940 -2266 -1178 -521 -190 -1212 -334
-1799 -375 -421 -30 -1702 -21 -2075 15 -617 59 -1454 219 -2240 427 -959 254
-1261 315 -1420 287 -84 -14 -91 -9 -76 60 13 63 0 103 -49 145 -43 35 -91 59
-285 141 -219 92 -500 231 -748 371 -183 102 -208 119 -204 138 3 11 8 53 11
91 l6 70 -26 -53 c-40 -80 -51 -82 -147 -27 -187 108 -807 527 -1177 796 -326
236 -665 536 -1159 1024 -457 452 -739 758 -1014 1100 -1532 1905 -2408 3948
-2707 6310 -66 523 -85 963 -77 1790 3 319 11 645 16 725 76 1050 353 2508
603 3180 130 350 379 712 852 1240 339 378 1016 1015 1144 1076 34 16 40 16
98 1 123 -33 209 -14 275 61 45 51 66 105 78 197 9 80 10 80 65 132 80 75 471
331 801 525 1064 627 2248 1088 3370 1313 589 118 1255 203 1379 176z m12441
-2280 c147 -78 755 -759 1126 -1261 718 -970 1189 -2032 1473 -3320 213 -965
380 -2524 363 -3390 -6 -294 -17 -399 -82 -797 -124 -759 -389 -1833 -660
-2678 -83 -260 -376 -1088 -382 -1082 -2 3 -10 57 -18 122 -21 167 -33 1020
-45 3225 -10 1702 -21 2679 -35 2960 -11 199 -70 716 -126 1090 -96 644 -231
1225 -444 1915 -376 1211 -925 2588 -1188 2975 -111 164 -127 193 -127 227 0
59 50 65 145 14z m-275 -1636 c183 -30 458 -113 589 -180 171 -86 261 -186
379 -421 251 -500 462 -1243 617 -2169 62 -371 130 -873 120 -883 -17 -17 -59
68 -227 458 -371 861 -640 1389 -1184 2326 -238 411 -387 672 -443 779 -39 74
-41 80 -25 92 23 17 58 16 174 -2z m-20771 -1017 c28 -35 67 -96 88 -137 l38
-74 3 -201 c5 -309 -11 -436 -123 -941 -164 -738 -176 -892 -191 -2418 l-7
-687 -41 -11 c-23 -5 -76 -19 -118 -31 -43 -11 -139 -50 -215 -88 -291 -142
-500 -317 -413 -345 90 -29 549 143 713 267 28 21 55 38 59 38 29 0 40 -86 78
-665 70 -1053 106 -1235 509 -2532 94 -304 214 -700 265 -880 146 -509 223
-692 459 -1093 289 -489 922 -1355 1499 -2048 478 -574 865 -993 1778 -1922
743 -756 797 -812 783 -817 -7 -3 -52 12 -100 32 -164 68 -273 105 -413 140
-154 38 -254 74 -439 159 -656 300 -1774 1048 -2506 1675 -306 263 -686 635
-914 896 -897 1026 -1449 2169 -1790 3710 -106 478 -188 1000 -226 1435 -34
398 -38 523 -41 1377 l-3 872 43 58 c60 83 104 114 149 106 22 -3 52 1 83 13
l47 18 -6 170 c-23 596 -28 960 -18 1116 21 295 55 418 249 881 424 1009 515
1287 605 1844 18 107 31 145 52 145 8 0 37 -28 64 -62z m17952 -14685 c12 -27
46 -104 77 -172 l56 -124 -28 -22 c-120 -96 -1417 -719 -1846 -887 -369 -145
-560 -198 -560 -154 0 55 60 96 610 413 454 263 693 410 1290 795 254 164 313
197 353 198 24 0 31 -7 48 -47z m-11992 -134 c45 -10 101 -43 101 -59 0 -15
-73 -60 -96 -60 -43 0 -104 101 -73 121 17 11 14 11 68 -2z m244 -110 c78 -26
428 -205 652 -334 199 -114 335 -205 371 -248 25 -29 25 -32 8 -44 -23 -17
-45 -16 -136 1 -190 36 -356 115 -436 206 -72 82 -372 303 -372 275 0 -4 13
-29 29 -54 39 -64 47 -91 26 -91 -32 0 -263 163 -292 206 -20 31 -9 61 30 85
40 24 44 24 120 -2z"/>
        <path d="M22455 30991 c-68 -35 -105 -108 -105 -207 0 -62 20 -132 65 -226 41
-85 43 -117 13 -203 -13 -35 -20 -66 -17 -70 11 -10 292 -27 356 -21 79 7 92
14 183 100 41 39 129 111 195 160 163 121 241 190 292 260 80 108 53 147 -88
128 -100 -14 -176 -40 -338 -117 l-135 -63 -43 65 c-104 159 -161 203 -271
210 -54 3 -75 0 -107 -16z"/>
        <path d="M23515 30202 c-49 -30 -152 -138 -175 -181 -25 -51 -26 -120 -1 -169
10 -21 49 -70 85 -111 42 -47 70 -88 76 -113 8 -26 30 -57 70 -96 84 -82 153
-121 247 -138 102 -18 393 -29 413 -15 24 16 16 104 -14 155 -27 46 -58 72
-131 108 -72 36 -141 50 -284 57 l-125 6 47 53 c26 29 56 71 68 94 19 38 20
47 10 94 -7 28 -25 72 -41 97 -23 36 -38 48 -79 62 -37 12 -62 29 -93 66 l-43
49 -30 -18z"/>
        <path d="M24065 28986 c-51 -24 -141 -105 -164 -150 -20 -36 -9 -52 56 -84
148 -75 311 -97 405 -55 51 23 68 46 68 93 0 49 -27 95 -87 150 -82 75 -181
92 -278 46z"/>
        <path d="M24607 28403 c-15 -14 -6 -86 18 -150 53 -141 177 -344 231 -380 38
-25 46 -4 40 102 -6 112 -34 204 -85 281 -71 108 -171 181 -204 147z"/>
        <path d="M24606 27782 c-12 -20 7 -42 75 -87 141 -95 352 -178 434 -173 59 4
61 16 14 84 -67 98 -235 171 -415 181 -66 4 -103 2 -108 -5z"/>
        <path d="M24480 27209 c-18 -32 -5 -158 21 -220 28 -64 103 -133 163 -148 93
-23 181 -8 229 40 27 27 29 35 25 83 -11 128 -166 239 -366 262 -56 6 -61 5
-72 -17z"/>
        <path d="M24986 27048 c4 -7 39 -60 78 -118 87 -130 115 -197 116 -271 0 -72
-19 -124 -76 -210 l-46 -69 -56 51 c-135 120 -345 172 -687 172 -239 -1 -444
-32 -433 -66 13 -36 261 -124 683 -241 286 -80 325 -93 325 -112 0 -7 -16 -35
-36 -61 -42 -55 -109 -184 -119 -230 -6 -31 -5 -33 23 -33 60 0 187 117 314
290 161 220 358 598 358 686 0 46 -179 159 -324 203 -78 24 -131 28 -120 9z"/>
        <path d="M22265 26585 c-156 -29 -295 -123 -295 -200 0 -71 69 -90 294 -82
238 8 546 55 732 112 82 25 142 61 127 76 -11 11 -225 53 -398 79 -191 28
-359 34 -460 15z"/>
        <path d="M20945 26369 c-218 -33 -543 -191 -688 -335 -75 -75 -74 -112 3 -115
131 -5 277 21 451 80 153 52 249 71 356 71 86 0 122 -9 250 -61 51 -21 58 -4
33 72 -77 229 -203 319 -405 288z"/>
        <path d="M25734 26215 c-19 -15 -19 -15 1 -31 80 -64 326 -117 602 -130 155
-8 165 -4 113 39 -99 84 -645 177 -716 122z"/>
        <path d="M27038 26024 c-17 -16 49 -166 79 -179 10 -5 124 -11 253 -15 264 -7
274 -10 355 -82 63 -56 85 -68 129 -68 31 0 39 6 61 40 38 61 59 55 166 -45
50 -47 99 -85 108 -85 66 0 46 130 -29 193 -69 59 -182 88 -598 157 -169 28
-350 60 -402 71 -104 21 -114 22 -122 13z"/>
        <path d="M19363 25920 c-22 -5 -58 -17 -80 -28 -81 -42 -357 -262 -498 -397
-66 -63 -68 -68 -51 -81 11 -8 55 -21 99 -31 108 -23 135 -43 177 -130 19 -40
37 -73 40 -73 3 0 25 39 49 86 59 115 120 194 194 250 119 89 206 123 397 153
135 22 242 51 278 76 32 23 28 61 -11 100 -58 58 -196 85 -417 84 -74 -1 -154
-5 -177 -9z"/>
        <path d="M28387 25564 c-20 -20 373 -270 613 -390 149 -75 238 -103 275 -86
76 35 13 182 -121 285 -78 60 -203 116 -306 137 -136 28 -450 65 -461 54z"/>
        <path d="M25323 25405 c-92 -25 -203 -112 -203 -158 0 -46 113 -124 225 -153
146 -39 305 15 305 104 0 63 -80 166 -154 197 -52 22 -117 26 -173 10z"/>
        <path d="M29604 25021 c-80 -49 -91 -237 -17 -303 28 -25 148 -78 313 -138 80
-29 195 -75 255 -102 224 -101 317 -140 322 -134 15 14 -137 203 -294 366
-146 153 -302 263 -438 310 -72 25 -102 25 -141 1z"/>
        <path d="M25504 24903 c-47 -46 -78 -116 -101 -223 -14 -69 -18 -129 -17 -315
1 -253 19 -439 76 -785 l32 -194 23 149 c28 191 89 672 104 835 7 69 13 204
13 300 1 147 -2 183 -17 223 -16 41 -22 47 -47 47 -20 0 -41 -11 -66 -37z"/>
        <path d="M25827 24813 c-13 -12 -7 -80 12 -134 55 -162 211 -409 257 -409 44
0 24 208 -31 328 -60 130 -198 255 -238 215z"/>
        <path d="M31141 23691 c-81 -52 352 -405 638 -520 46 -18 115 -38 152 -44 58
-9 71 -8 93 7 31 20 32 35 7 84 -55 108 -284 283 -508 389 -144 68 -339 111
-382 84z"/>
        <path d="M26145 23574 c74 -97 175 -258 190 -304 16 -48 16 -54 0 -103 -30
-92 -87 -188 -205 -347 -182 -243 -240 -339 -240 -394 0 -129 262 128 477 467
89 142 201 370 215 440 17 89 1 116 -104 166 -88 42 -244 94 -318 106 l-44 7
29 -38z"/>
        <path d="M25590 23520 c-20 -20 -22 -30 -17 -76 6 -58 43 -149 81 -199 34 -45
117 -86 185 -92 69 -7 147 23 187 70 90 107 -117 297 -342 314 -65 5 -73 4
-94 -17z"/>
        <path d="M33540 22830 c-377 -44 -848 -224 -1201 -459 -184 -122 -283 -203
-429 -350 -344 -347 -597 -794 -720 -1277 -64 -248 -83 -402 -84 -664 0 -318
41 -561 139 -825 144 -388 405 -752 554 -772 53 -7 91 16 177 106 273 284 674
921 870 1383 204 480 357 1052 284 1066 -44 8 -441 -351 -456 -412 -6 -26 -2
-33 29 -59 23 -17 37 -38 37 -51 0 -26 -61 -156 -118 -247 -64 -105 -197 -288
-384 -530 -96 -123 -187 -242 -203 -264 l-30 -40 40 32 c22 17 148 129 280
248 260 235 366 325 384 325 48 0 -42 -159 -342 -610 -372 -556 -487 -685
-593 -665 -109 20 -264 324 -267 519 -2 130 28 192 129 266 30 23 54 45 54 49
0 13 -57 31 -99 31 -42 0 -116 32 -149 63 -13 12 -33 40 -44 61 -31 60 -21
209 21 331 104 302 362 698 734 1125 140 160 576 594 731 725 624 533 1109
735 1544 646 177 -37 228 -82 226 -201 -1 -83 -24 -143 -115 -296 -252 -421
-424 -867 -564 -1454 -20 -85 -57 -237 -81 -337 -241 -986 -599 -1530 -1339
-2035 -128 -88 -184 -118 -220 -118 -21 0 -25 5 -25 28 0 39 64 166 152 302
41 63 126 194 188 290 348 537 623 1119 866 1835 165 483 300 1030 320 1291
10 141 -28 244 -90 244 -20 0 -30 -11 -50 -52 -38 -79 -62 -179 -101 -423
-111 -685 -303 -1313 -574 -1870 -188 -386 -374 -689 -771 -1250 -190 -269
-281 -402 -324 -477 l-27 -47 121 -61 c339 -170 1041 -484 1183 -529 53 -17
102 -31 108 -31 13 0 221 165 319 254 41 38 190 184 330 325 412 414 552 508
633 423 47 -49 60 -103 61 -252 1 -106 -3 -147 -18 -192 -37 -113 -212 -296
-436 -455 l-105 -75 75 7 c388 34 642 95 872 211 277 139 545 414 843 864 263
396 404 748 479 1195 118 702 44 1372 -197 1800 -220 389 -772 862 -1310 1123
-232 113 -415 170 -627 197 -145 19 -578 28 -690 15z m-345 -342 c-25 -29
-158 -161 -295 -293 -340 -328 -602 -604 -900 -945 -173 -198 -535 -563 -604
-608 -88 -57 -93 -45 -42 104 71 211 206 503 312 674 110 179 280 370 444 501
79 62 283 198 400 264 132 75 721 366 729 359 2 -2 -18 -27 -44 -56z m1703
-403 c5 -77 -30 -219 -198 -790 -133 -454 -180 -646 -286 -1170 -85 -421 -129
-574 -225 -790 -123 -275 -277 -495 -594 -845 -230 -255 -350 -408 -332 -426
30 -31 415 240 552 388 155 167 311 396 433 635 178 351 241 541 402 1213 235
981 414 1439 647 1648 114 104 158 114 207 49 47 -63 9 -269 -105 -571 -139
-366 -159 -438 -139 -491 9 -25 13 -26 53 -20 23 3 101 20 174 37 134 31 163
32 163 2 0 -10 -67 -83 -149 -163 -81 -80 -169 -174 -194 -208 -62 -85 -103
-190 -128 -324 -75 -410 -104 -526 -193 -789 -81 -235 -211 -512 -274 -582
-23 -26 -52 -43 -96 -58 -155 -51 -277 -166 -576 -540 -492 -615 -802 -739
-1180 -472 -82 59 -158 128 -176 164 -50 96 5 163 323 396 395 289 530 432
672 710 122 239 205 474 412 1157 268 884 381 1189 612 1653 89 178 136 245
171 240 18 -3 22 -11 24 -53z m1251 -904 c21 -21 41 -80 41 -122 0 -43 -30
-129 -90 -259 -32 -69 -61 -135 -64 -147 -8 -24 14 -43 101 -87 113 -56 161
-144 170 -306 6 -103 -7 -233 -33 -338 -33 -136 -93 -222 -153 -222 -15 0 -32
-5 -39 -12 -15 -15 -16 -154 -1 -380 15 -231 3 -294 -50 -261 -52 32 -93 145
-146 404 -42 202 -45 298 -14 409 28 102 98 248 159 330 27 37 50 72 50 78 0
14 -26 7 -300 -83 -124 -40 -245 -76 -270 -79 -100 -13 -92 30 29 156 48 51
93 103 100 115 13 25 5 48 -35 103 -40 54 -30 116 40 255 150 296 418 533 505
446z m-679 -1439 c92 -95 192 -307 236 -500 31 -135 41 -324 25 -446 -16 -120
-61 -255 -115 -346 -153 -260 -462 -487 -677 -498 -73 -4 -78 -3 -108 24 -42
38 -50 92 -26 180 12 44 28 77 50 100 44 46 86 46 185 -1 40 -20 83 -35 94
-33 28 4 31 45 11 150 -36 183 -28 600 15 853 38 217 125 476 180 535 42 45
74 40 130 -18z"/>
        <path d="M26117 21390 c-37 -10 -74 -23 -82 -30 -42 -35 12 -148 119 -248 115
-107 234 -145 290 -93 56 53 58 146 6 238 -35 62 -76 95 -158 128 -71 29 -84
29 -175 5z"/>
        <path d="M25837 20926 c-77 -28 -98 -69 -49 -98 57 -33 137 -50 273 -55 148
-6 237 1 264 21 44 32 -62 102 -201 131 -86 18 -237 19 -287 1z"/>
        <path d="M25292 20650 c8 -14 68 -117 133 -230 351 -607 542 -897 674 -1023
52 -50 65 -58 93 -55 49 5 71 52 65 140 -10 163 -132 326 -623 833 -300 310
-366 374 -342 335z"/>
        <path d="M26366 20638 c-48 -73 -69 -191 -70 -384 -1 -142 10 -194 40 -194 20
0 71 89 100 175 21 63 27 104 31 195 3 103 1 121 -19 170 -27 63 -56 77 -82
38z"/>
        <path d="M25394 19653 c-64 -109 -82 -237 -45 -318 47 -100 194 -175 285 -145
105 34 102 160 -8 329 -42 64 -145 171 -165 171 -5 0 -16 3 -24 6 -11 4 -24
-10 -43 -43z"/>
        <path d="M26062 19183 c-11 -27 -25 -68 -32 -93 -18 -70 -78 -176 -121 -215
-65 -59 -113 -67 -504 -86 -251 -12 -406 -26 -417 -37 -23 -23 80 -69 213 -97
126 -27 405 -16 704 26 169 24 235 42 272 73 27 24 28 27 27 118 -1 73 -7 111
-29 178 -30 94 -71 180 -84 180 -5 0 -18 -21 -29 -47z"/>
        <path d="M25622 17514 c-41 -28 -26 -101 49 -226 153 -258 352 -274 353 -28 0
108 -42 179 -134 225 -86 44 -225 59 -268 29z"/>
        <path d="M35290 17158 c-36 -170 -33 -319 11 -523 41 -192 170 -500 209 -500
26 0 38 82 39 265 1 206 -16 345 -59 470 -48 144 -152 340 -180 340 -4 0 -13
-24 -20 -52z"/>
        <path d="M25294 17130 c-41 -13 -50 -37 -26 -70 28 -37 83 -66 203 -105 204
-66 349 -81 349 -36 0 43 -148 147 -262 185 -83 28 -216 41 -264 26z"/>
        <path d="M25781 16733 c-35 -33 -83 -164 -125 -341 -30 -124 -31 -195 -5 -200
38 -7 148 142 187 252 33 94 43 253 18 291 -21 32 -39 32 -75 -2z"/>
        <path d="M25004 16468 c-22 -43 -20 -135 5 -239 72 -301 286 -739 362 -739 39
0 81 117 81 228 1 55 -6 83 -36 157 -72 174 -255 505 -324 586 -41 48 -66 50
-88 7z"/>
        <path d="M24628 15981 c-63 -50 -105 -219 -78 -316 14 -50 72 -122 124 -154
65 -41 158 -23 181 34 46 108 -8 309 -110 411 -49 49 -78 55 -117 25z"/>
        <path d="M24110 14364 c-110 -17 -157 -32 -98 -33 49 -1 152 -34 193 -62 18
-13 39 -37 47 -54 23 -52 102 -44 153 17 33 40 32 71 -5 102 -58 48 -123 55
-290 30z"/>
        <path d="M16468 24800 c-21 -68 -35 -182 -19 -160 16 24 43 145 39 181 -3 33
-4 32 -20 -21z"/>
        <path d="M11634 35027 c-76 -56 -266 -253 -326 -338 -58 -80 -83 -139 -110
-249 -23 -98 -29 -242 -11 -261 39 -39 255 213 402 471 75 132 143 299 149
368 4 50 4 52 -21 52 -14 0 -51 -19 -83 -43z"/>
        <path d="M10570 35014 c-69 -58 -105 -176 -104 -339 1 -130 19 -210 70 -311
34 -68 86 -134 105 -134 16 0 37 44 50 105 18 82 19 563 1 622 -12 41 -52 83
-78 83 -7 0 -27 -12 -44 -26z"/>
        <path d="M9856 34905 c-25 -26 -36 -84 -36 -200 0 -127 13 -230 36 -283 l15
-37 24 28 c42 48 60 128 60 267 0 107 -3 132 -22 172 -25 56 -54 75 -77 53z"/>
        <path d="M15000 34653 c-20 -11 -51 -42 -73 -77 -22 -32 -47 -61 -57 -63 -25
-7 -30 -31 -30 -163 0 -184 25 -370 49 -370 9 0 32 51 61 134 33 99 79 164
213 302 l128 132 -43 37 c-89 76 -182 102 -248 68z"/>
        <path d="M12045 34498 c-95 -34 -174 -134 -292 -365 -90 -178 -110 -255 -76
-288 34 -34 142 13 359 157 243 161 300 240 264 370 -29 103 -150 163 -255
126z"/>
        <path d="M8233 34401 c-48 -22 -91 -80 -100 -135 -14 -86 125 -264 326 -415
165 -125 261 -168 276 -122 14 44 -44 221 -126 384 -123 243 -255 344 -376
288z"/>
        <path d="M15450 34277 c-132 -207 -336 -624 -316 -644 23 -23 692 206 791 271
48 32 25 48 -98 68 -92 14 -135 36 -185 94 -55 62 -83 138 -90 247 -2 48 -8
89 -11 92 -4 2 -45 -56 -91 -128z"/>
        <path d="M14145 34275 c-121 -31 -276 -128 -348 -217 -40 -49 -47 -119 -18
-165 40 -63 154 -130 241 -140 88 -10 160 47 160 127 1 60 33 112 118 189 110
100 126 152 58 196 -34 23 -140 27 -211 10z"/>
        <path d="M17202 34278 c-32 -32 0 -151 62 -236 117 -158 394 -301 676 -347 47
-7 117 -17 155 -20 l70 -7 -100 102 c-115 117 -169 160 -200 160 -13 0 -42 -9
-66 -20 -24 -11 -66 -20 -92 -20 -88 0 -142 41 -296 227 -52 62 -114 126 -139
143 -51 34 -53 35 -70 18z"/>
        <path d="M17072 33910 c-173 -36 -490 -201 -614 -321 -64 -60 -62 -74 9 -95
164 -48 499 61 666 216 27 24 55 57 63 72 18 35 18 102 0 117 -20 17 -73 21
-124 11z"/>
        <path d="M10026 33840 c-530 -61 -978 -327 -1261 -750 -127 -189 -192 -365
-259 -703 -71 -356 -79 -516 -37 -735 38 -196 102 -352 199 -482 77 -105 320
-343 427 -418 268 -190 659 -387 866 -437 202 -49 535 -58 740 -21 556 101
1067 557 1254 1120 60 180 85 465 66 741 -14 196 -33 301 -80 443 -217 647
-745 1109 -1399 1223 -134 23 -393 33 -516 19z"/>
        <path d="M12760 33766 c-131 -46 -255 -122 -407 -250 -92 -76 -223 -209 -223
-226 0 -25 73 7 215 95 132 82 241 133 356 168 47 15 101 37 119 50 48 32 80
83 80 126 0 67 -33 76 -140 37z"/>
        <path d="M18384 33616 c-17 -44 45 -133 193 -278 122 -117 179 -149 279 -156
69 -4 73 -3 89 22 16 24 16 28 -5 70 -55 115 -375 339 -504 353 -36 4 -47 2
-52 -11z"/>
        <path d="M7951 33532 c-16 -12 -10 -78 15 -162 36 -123 169 -188 306 -150 45
13 58 34 58 91 0 77 -55 145 -160 199 -49 25 -193 39 -219 22z"/>
        <path d="M17220 33325 c-193 -32 -516 -113 -503 -126 8 -8 189 -21 572 -39
394 -19 500 -48 520 -140 14 -64 -35 -184 -154 -380 -106 -175 -139 -258 -97
-243 27 10 241 151 311 206 81 63 103 88 138 157 37 73 39 188 5 263 -44 98
-170 204 -302 255 -138 54 -336 73 -490 47z"/>
        <path d="M7488 33094 c-62 -19 -83 -55 -74 -128 22 -168 158 -251 416 -251 95
0 121 3 143 18 68 44 54 101 -53 207 -75 75 -175 132 -271 155 -78 18 -100 18
-161 -1z"/>
        <path d="M12950 33016 c-108 -33 -220 -80 -345 -144 l-109 -57 49 -6 c85 -11
213 17 370 80 119 48 205 106 205 138 0 20 -85 15 -170 -11z"/>
        <path d="M19168 32904 c-31 -31 31 -123 195 -288 133 -133 181 -161 262 -153
76 8 111 27 107 57 -12 107 -507 443 -564 384z"/>
        <path d="M5359 32557 c-78 -67 -129 -122 -129 -139 0 -11 11 -4 76 52 54 46
149 150 137 150 -6 0 -43 -29 -84 -63z"/>
        <path d="M18610 32494 c-86 -22 -194 -80 -256 -136 -56 -52 -75 -82 -67 -106
13 -32 156 -94 249 -106 100 -14 201 42 248 136 49 97 28 170 -58 209 -48 22
-46 22 -116 3z"/>
        <path d="M13005 32412 c-186 -58 -335 -161 -335 -231 0 -115 309 -197 502
-132 120 40 188 106 196 191 6 63 -23 114 -90 160 -70 48 -147 51 -273 12z"/>
        <path d="M7180 32365 c-210 -31 -451 -90 -530 -130 -40 -20 -51 -30 -48 -47 5
-32 44 -55 139 -82 190 -54 463 -86 740 -86 401 0 554 79 414 214 -54 53 -121
89 -215 116 -97 28 -357 36 -500 15z"/>
        <path d="M5658 32354 c-16 -8 -28 -17 -28 -19 0 -9 59 -35 80 -35 24 0 27 31
4 54 -19 19 -22 19 -56 0z"/>
        <path d="M5081 32232 c-218 -223 -401 -480 -401 -563 0 -107 213 -26 450 171
80 68 358 386 346 398 -2 2 -36 -6 -74 -18 -81 -25 -91 -23 -184 31 -36 21
-70 39 -73 39 -4 0 -32 -26 -64 -58z"/>
        <path d="M7308 31712 c-113 -31 -214 -114 -233 -194 -10 -40 29 -113 78 -149
47 -34 95 -37 197 -13 161 38 360 181 360 259 0 81 -245 140 -402 97z"/>
        <path d="M12904 31680 c-47 -10 -154 -61 -178 -85 -29 -29 -19 -60 31 -104 63
-56 174 -109 255 -123 121 -20 227 18 258 92 28 69 -36 162 -138 200 -61 23
-169 33 -228 20z"/>
        <path d="M4705 31216 c-126 -30 -242 -78 -543 -223 l-164 -79 54 -36 c75 -49
138 -69 238 -75 91 -6 182 12 305 57 33 12 85 24 116 27 111 11 253 -52 359
-157 82 -81 133 -159 182 -275 113 -269 156 -282 145 -45 -9 187 -76 403 -176
565 -74 121 -121 169 -206 211 -65 32 -85 37 -162 40 -54 2 -111 -2 -148 -10z"/>
        <path d="M7910 31180 c-195 -41 -529 -170 -689 -266 -99 -58 -158 -118 -140
-140 26 -32 192 -6 396 62 299 99 521 222 569 315 13 26 12 29 -5 39 -25 13
-28 12 -131 -10z"/>
        <path d="M12346 30992 c-18 -8 -18 -9 0 -27 70 -70 450 -254 669 -325 66 -21
130 -34 187 -37 131 -9 168 14 168 103 0 138 -139 205 -550 265 -145 21 -443
34 -474 21z"/>
        <path d="M8028 30600 c-94 -32 -242 -103 -325 -156 -175 -111 -235 -233 -164
-331 37 -51 81 -83 125 -90 104 -17 287 152 482 444 50 75 64 104 62 128 -3
28 -6 30 -48 33 -29 1 -75 -8 -132 -28z"/>
        <path d="M4454 30525 c-11 -28 54 -184 166 -395 114 -215 160 -271 208 -255
27 8 42 60 42 147 0 74 13 93 38 57 83 -119 239 -214 318 -195 15 4 42 22 61
41 28 28 33 40 33 82 0 71 -26 136 -76 192 -85 94 -189 118 -312 72 -60 -23
-65 -23 -97 -8 -19 9 -80 61 -137 115 -57 54 -123 113 -147 130 -47 34 -88 41
-97 17z"/>
        <path d="M3430 30407 c-64 -22 -74 -32 -73 -71 1 -50 45 -120 120 -193 150
-145 310 -165 343 -42 28 105 -54 257 -158 294 -62 22 -187 28 -232 12z"/>
        <path d="M8596 30385 c-280 -149 -525 -428 -526 -599 0 -44 4 -53 39 -86 22
-21 57 -42 85 -50 73 -20 121 3 232 114 203 205 345 505 292 621 -15 33 -59
33 -122 0z"/>
        <path d="M11820 30368 c0 -59 150 -280 274 -403 126 -125 244 -183 330 -161
62 15 126 103 126 174 0 48 -33 94 -110 151 -112 82 -396 214 -534 246 -80 19
-86 19 -86 -7z"/>
        <path d="M11320 30006 c0 -50 122 -380 189 -515 87 -171 223 -234 306 -141 44
49 8 169 -91 300 -100 133 -357 380 -395 380 -5 0 -9 -11 -9 -24z"/>
        <path d="M9159 29971 c-87 -37 -140 -75 -223 -159 -138 -140 -246 -334 -246
-442 0 -109 158 -71 302 73 54 54 78 88 117 170 71 146 149 387 125 387 -5 0
-39 -13 -75 -29z"/>
        <path d="M9607 29731 c-47 -52 -61 -81 -93 -188 -21 -69 -27 -111 -28 -198 -1
-100 1 -115 26 -168 30 -64 82 -117 114 -117 12 0 40 18 63 41 79 79 123 217
124 384 0 121 -21 201 -68 251 -47 49 -90 48 -138 -5z"/>
        <path d="M3662 29685 c-66 -19 -83 -28 -153 -81 -137 -105 -165 -233 -68 -304
53 -38 125 -54 234 -53 164 2 280 57 329 155 34 68 33 111 -4 186 -26 51 -39
64 -78 83 -59 29 -183 36 -260 14z"/>
        <path d="M10401 29601 c-41 -44 -55 -118 -48 -261 6 -139 31 -224 85 -295 27
-36 45 -50 62 -50 32 0 66 50 81 123 16 78 6 240 -20 322 -23 72 -74 155 -108
178 -21 13 -25 12 -52 -17z"/>
        <path d="M4072 29133 c-39 -56 -152 -270 -183 -348 -26 -63 -33 -95 -33 -150
0 -65 3 -77 49 -163 27 -51 55 -98 62 -104 17 -14 76 40 166 152 82 103 130
202 123 256 -10 75 -136 384 -157 384 -4 0 -16 -12 -27 -27z"/>
        <path d="M3070 28751 c-142 -44 -282 -209 -311 -366 -39 -216 146 -233 346
-31 129 130 183 263 141 345 -27 51 -104 74 -176 52z"/>
        <path d="M3047 27716 c-26 -7 -59 -23 -72 -36 -23 -22 -24 -27 -22 -149 2
-124 1 -127 -30 -192 -44 -89 -131 -181 -298 -315 -232 -185 -339 -311 -464
-545 -83 -156 -190 -438 -179 -471 3 -7 47 42 100 107 108 136 146 173 244
237 38 24 108 81 157 126 89 83 144 115 308 182 159 64 190 98 224 240 43 181
133 279 290 315 90 21 127 37 186 81 55 40 99 106 99 148 0 38 -56 141 -94
173 -69 59 -243 114 -353 112 -26 0 -70 -6 -96 -13z"/>
        <path d="M2105 27529 c-72 -17 -83 -60 -38 -150 34 -68 142 -176 208 -209 70
-34 151 -39 187 -10 41 32 52 87 34 161 -19 72 -75 163 -113 183 -62 32 -196
44 -278 25z"/>
        <path fill="#3719ca" d="M504 26321 c-50 -31 -178 -219 -292 -431 -88 -163 -159 -413 -194
-680 -19 -146 -16 -511 5 -650 53 -347 164 -652 352 -964 127 -213 216 -328
380 -492 293 -295 622 -486 1017 -588 222 -58 325 -71 573 -71 247 0 351 13
570 70 582 151 1049 508 1436 1097 92 140 196 343 234 457 14 43 40 147 57
232 26 130 31 177 32 304 1 133 -2 156 -22 205 -26 64 -95 156 -148 197 -36
27 -42 28 -138 27 -226 -2 -433 -89 -863 -362 -395 -250 -637 -360 -934 -423
-156 -33 -377 -31 -512 4 -309 82 -531 260 -770 620 -152 227 -256 442 -382
782 -165 449 -256 634 -327 671 -34 18 -37 18 -74 -5z m-19 -1395 c55 -26 181
-135 415 -360 324 -311 435 -398 640 -501 350 -175 661 -256 990 -256 252 -1
409 27 705 127 251 84 338 104 455 104 77 0 101 -4 128 -20 134 -82 16 -389
-262 -678 -162 -168 -291 -256 -497 -339 -246 -98 -492 -139 -794 -130 -421
12 -792 133 -1093 357 -364 272 -782 905 -888 1348 -41 170 -34 240 33 317 52
60 92 67 168 31z"/>
        <path d="M15762 23530 c-200 -96 -523 -363 -618 -509 -47 -71 -59 -81 -106
-81 -70 0 -168 -69 -281 -199 -57 -65 -117 -168 -117 -201 0 -47 69 -53 149
-13 81 41 194 151 230 225 17 34 31 67 31 74 0 29 44 44 127 42 79 -2 83 -1
140 37 109 72 451 431 549 576 66 99 32 115 -104 49z"/>
        <path d="M14276 22115 c-65 -23 -138 -80 -253 -198 -202 -207 -408 -513 -468
-696 -17 -52 -25 -145 -13 -156 35 -35 453 349 659 606 172 213 282 422 238
450 -21 13 -119 10 -163 -6z"/>
        <path d="M1445 21893 c22 -131 111 -399 185 -559 76 -164 187 -310 316 -413
92 -75 171 -116 261 -137 77 -18 135 -8 153 26 28 52 -2 148 -75 245 -57 77
-117 136 -270 268 -193 167 -307 283 -400 407 -104 139 -155 200 -166 200 -6
0 -7 -16 -4 -37z"/>
        <path d="M626 21177 c-46 -46 -62 -258 -27 -360 34 -98 121 -201 208 -245 102
-52 265 -68 371 -37 70 21 80 42 43 91 -73 102 -535 574 -561 574 -6 0 -21
-10 -34 -23z"/>
        <path d="M13105 20682 c-172 -105 -403 -619 -407 -904 -1 -83 16 -128 50 -128
50 0 165 105 257 235 86 121 186 367 215 530 18 101 10 237 -14 264 -24 26
-61 27 -101 3z"/>
        <path d="M1379 20387 c-38 -25 -79 -97 -79 -138 0 -117 374 -259 805 -304 60
-6 115 5 115 24 0 20 -106 112 -235 206 -138 100 -304 193 -394 219 -82 24
-170 21 -212 -7z"/>
        <path d="M502 20099 c-52 -26 -99 -81 -113 -134 -18 -63 -5 -178 25 -228 52
-90 195 -129 291 -79 158 81 195 291 71 400 -69 60 -196 79 -274 41z"/>
        <path d="M1277 19708 c-306 -320 -357 -478 -343 -1048 6 -265 13 -330 41 -396
l17 -39 34 67 c59 116 74 225 100 728 l16 315 107 199 c116 217 144 276 133
276 -4 0 -51 -46 -105 -102z"/>
        <path d="M1745 19708 c-91 -48 -189 -138 -197 -181 -14 -75 46 -166 167 -252
92 -66 127 -79 168 -61 79 32 127 137 135 293 6 122 -3 148 -66 203 -61 54
-99 54 -207 -2z"/>
        <path d="M12393 19113 c-57 -79 -146 -302 -194 -481 -33 -119 -45 -271 -24
-282 34 -17 202 451 242 678 19 105 10 135 -24 85z"/>
        <path d="M1657 18809 c-122 -24 -258 -124 -293 -215 -15 -40 -15 -45 0 -68 10
-16 35 -31 68 -41 61 -18 213 -31 252 -21 33 8 98 66 128 114 38 61 24 213
-21 226 -40 12 -90 14 -134 5z"/>
        <path d="M4665 18249 c-815 -75 -1133 -112 -1342 -154 -159 -32 -204 -52 -237
-102 -65 -99 -151 -364 -267 -827 -155 -616 -246 -826 -358 -826 -112 0 -282
217 -327 419 -15 66 -16 87 -5 160 25 172 131 446 241 621 29 47 47 80 39 74
-8 -6 -72 -55 -144 -110 -391 -298 -665 -584 -782 -819 -106 -211 -183 -530
-230 -955 -21 -192 -24 -653 -5 -815 67 -577 236 -1035 585 -1590 161 -255
397 -532 576 -677 425 -343 973 -505 1776 -525 352 -9 595 17 880 92 603 158
1121 539 1552 1141 325 454 500 889 569 1419 22 165 25 620 6 775 -77 608
-313 1129 -719 1585 -224 252 -553 496 -868 646 -167 79 -215 93 -311 94 -74
0 -84 -2 -118 -29 -72 -54 -115 -189 -150 -471 -67 -522 -56 -1168 29 -1777
14 -97 25 -221 25 -275 0 -108 -27 -291 -66 -453 -29 -118 -41 -147 -55 -133
-15 15 -63 215 -113 468 -57 290 -72 395 -90 625 -42 519 -44 789 -11 1230 18
233 92 1081 101 1153 l6 47 -49 -1 c-26 -1 -88 -5 -138 -10z m-725 -379 c76
-14 138 -47 155 -81 22 -41 18 -116 -10 -202 -13 -42 -78 -201 -143 -354 -189
-441 -207 -499 -224 -707 -18 -226 10 -537 81 -901 36 -186 92 -428 187 -810
111 -444 170 -700 218 -950 70 -362 123 -790 133 -1065 6 -175 0 -210 -36
-210 -63 0 -121 163 -286 800 -150 581 -220 810 -523 1690 -111 324 -137 482
-137 840 0 311 14 428 100 870 79 407 112 650 87 650 -47 0 -263 -460 -318
-677 -38 -151 -46 -307 -41 -778 6 -611 15 -655 287 -1520 216 -685 320 -1149
350 -1555 20 -278 -14 -449 -106 -529 -30 -27 -42 -32 -68 -27 -42 9 -79 47
-119 125 -62 117 -99 254 -147 541 -40 239 -55 310 -86 401 -23 72 -53 119
-74 119 -13 0 -73 -53 -205 -181 -60 -58 -120 -111 -132 -118 -47 -24 -43 23
17 180 62 167 83 285 84 484 1 192 5 173 -99 440 -169 430 -264 855 -295 1318
l-10 158 76 87 c136 158 163 240 234 727 57 386 99 577 167 760 111 297 274
459 488 484 94 11 316 6 395 -9z m602 -23 c17 -42 15 -268 -6 -604 -52 -825
29 -1661 261 -2693 83 -367 84 -398 30 -735 -63 -394 -86 -702 -52 -689 32 13
103 170 186 414 28 85 56 159 60 164 5 6 18 -14 31 -45 57 -140 152 -311 202
-364 44 -47 57 -55 89 -55 50 0 61 23 54 116 -6 87 -67 273 -191 587 -47 121
-86 229 -86 241 0 28 107 563 115 576 12 20 25 9 55 -44 44 -78 57 -86 83 -56
67 82 197 478 197 602 0 51 -13 65 -75 77 -66 14 -90 154 -74 431 12 210 20
285 84 755 18 138 36 273 39 300 l5 50 -15 -35 c-8 -19 -53 -159 -99 -312
-111 -364 -160 -507 -202 -596 -42 -89 -63 -93 -76 -17 -20 116 57 1270 98
1466 32 150 92 249 153 249 68 -1 261 -110 393 -223 133 -113 199 -236 199
-372 0 -54 -4 -67 -30 -100 -33 -41 -38 -72 -15 -81 8 -3 59 8 114 25 125 39
164 39 222 3 109 -70 179 -216 216 -454 12 -84 17 -173 17 -343 -2 -1146 -495
-2752 -1022 -3327 -138 -149 -452 -337 -646 -385 -61 -15 -69 -15 -111 1 -108
42 -133 138 -155 596 -33 673 -88 977 -295 1615 -122 375 -138 428 -180 595
-78 311 -114 584 -122 930 -10 440 39 775 166 1142 111 319 298 654 354 633 8
-4 21 -21 29 -38z m-2569 -1251 c18 -7 46 -29 62 -47 32 -38 95 -164 95 -190
0 -26 -47 -77 -93 -100 -24 -13 -73 -24 -126 -29 -96 -9 -121 -16 -121 -34 0
-19 49 -91 141 -208 106 -135 193 -273 285 -456 216 -425 339 -894 257 -984
-28 -31 -109 -20 -203 27 -187 94 -438 294 -539 430 -140 188 -245 474 -258
700 -13 238 78 520 237 734 64 86 107 126 165 152 48 22 57 23 98 5z m4927
-558 c21 -50 51 -197 76 -383 25 -182 25 -609 1 -785 -40 -285 -105 -506 -212
-715 -198 -389 -665 -1094 -665 -1003 0 16 34 130 90 303 123 379 258 910 355
1400 112 559 213 1004 260 1135 35 100 65 115 95 48z m-5413 -1183 c100 -67
330 -296 421 -420 110 -149 130 -223 142 -524 5 -122 11 -226 14 -229 9 -9 48
31 217 224 187 215 271 294 310 294 48 0 47 -11 -12 -197 -37 -117 -49 -205
-30 -218 5 -3 28 -7 51 -9 55 -6 88 -29 111 -80 31 -72 42 -177 36 -361 -11
-321 -85 -548 -187 -570 -70 -15 -144 61 -180 185 -10 36 -26 126 -35 200 -19
162 -30 206 -54 219 -10 6 -54 8 -103 4 -105 -7 -160 9 -239 71 -74 58 -139
146 -204 280 -66 134 -87 212 -89 331 -1 104 13 149 55 171 16 8 29 22 29 31
0 32 -43 104 -160 270 -159 225 -214 316 -205 342 10 32 52 26 112 -14z"/>
        <path d="M11755 17977 c-95 -99 -176 -269 -240 -503 -41 -149 -67 -311 -63
-390 4 -82 27 -85 96 -10 132 145 334 725 320 919 -3 36 -7 43 -27 45 -19 3
-38 -11 -86 -61z"/>
        <path d="M2665 17872 c-5 -4 -28 -27 -50 -51 l-40 -44 47 38 c26 21 50 45 52
52 6 15 5 16 -9 5z"/>
        <path d="M11456 16607 c-66 -70 -136 -283 -136 -414 0 -89 10 -113 49 -113 40
0 76 45 101 128 45 146 66 396 35 422 -13 11 -21 7 -49 -23z"/>
        <path d="M11303 15928 c-82 -90 -159 -368 -170 -618 -7 -151 3 -192 54 -243
97 -94 169 -36 209 169 14 67 18 138 18 289 0 209 -13 325 -42 385 -21 43 -41
48 -69 18z"/>
        <path d="M38610 15665 c-19 -19 -29 -35 -24 -35 13 0 69 58 63 65 -3 2 -21
-11 -39 -30z"/>
        <path d="M11387 14760 c-63 -55 -125 -229 -148 -415 -21 -171 8 -499 67 -736
28 -114 70 -204 94 -204 70 0 150 602 137 1040 -6 217 -19 278 -68 319 -17 14
-35 26 -39 26 -5 0 -24 -13 -43 -30z"/>
        <path d="M23350 13624 c-40 -46 -36 -68 12 -72 45 -4 128 30 128 53 0 19 -57
55 -86 55 -13 0 -36 -16 -54 -36z"/>
        <path d="M23762 13626 c-34 -39 -62 -137 -65 -231 -2 -54 0 -60 18 -63 35 -5
88 39 118 97 31 63 36 140 13 196 -19 45 -45 45 -84 1z"/>
        <path d="M22535 13440 c-38 -10 -83 -23 -98 -29 l-28 -11 62 -58 62 -58 -56
-42 c-31 -23 -76 -71 -101 -106 -49 -68 -151 -271 -161 -321 -6 -27 2 -21 71
50 42 44 130 140 194 215 127 147 233 250 256 250 8 0 36 -23 62 -51 183 -198
271 -265 338 -257 37 4 89 72 102 133 23 109 -36 193 -162 230 -74 22 -378 75
-428 74 -24 0 -74 -8 -113 -19z"/>
        <path d="M23624 13011 c-161 -116 -409 -525 -456 -751 -10 -53 -10 -62 4 -76
14 -14 18 -14 44 0 103 56 305 316 390 503 99 217 128 353 75 353 -10 0 -36
-13 -57 -29z"/>
        <path d="M11445 12467 c-16 -8 -46 -32 -66 -54 -108 -120 -115 -359 -19 -647
52 -153 132 -306 161 -306 19 0 41 54 69 165 75 295 79 593 10 752 -37 87 -91
118 -155 90z"/>
        <path d="M22492 12029 c-40 -12 -82 -71 -89 -128 -6 -45 23 -105 72 -151 l27
-25 50 55 c88 96 128 223 79 250 -24 12 -94 12 -139 -1z"/>
        <path d="M6553 11970 c-47 -19 -38 -91 20 -157 44 -50 111 -95 257 -173 74
-40 162 -90 195 -112 87 -58 178 -80 344 -81 104 -2 135 1 139 11 9 28 -193
189 -337 269 -35 20 -127 62 -205 93 -77 32 -173 73 -211 92 -53 27 -174 72
-179 67 -1 0 -11 -4 -23 -9z"/>
        <path d="M21699 11890 c-20 -11 -66 -52 -103 -92 l-66 -73 28 -6 c52 -12 202
-9 235 5 37 15 62 42 70 74 8 32 -11 90 -33 102 -29 16 -91 11 -131 -10z"/>
        <path d="M35904 11762 c-152 -111 -314 -395 -389 -681 -40 -150 -28 -279 26
-296 36 -12 102 6 129 35 51 55 269 507 326 678 21 62 25 90 22 143 -6 72 -33
142 -59 147 -8 1 -33 -10 -55 -26z"/>
        <path d="M5591 11661 c-46 -30 263 -411 410 -503 30 -19 76 -43 102 -53 46
-17 51 -17 100 -2 116 38 275 155 343 252 34 50 39 65 39 112 0 103 -45 106
-255 17 -73 -31 -150 -59 -170 -61 -41 -6 -95 18 -258 114 -165 97 -281 143
-311 124z"/>
        <path d="M6977 11339 c-56 -33 -84 -194 -53 -303 46 -156 262 -255 330 -151
57 88 8 239 -124 379 -75 79 -113 98 -153 75z"/>
        <path d="M21029 11057 c-90 -34 -183 -148 -244 -300 -35 -86 -65 -212 -65
-269 0 -78 53 -206 112 -273 31 -36 145 -102 156 -90 3 3 -13 61 -36 129 -54
159 -54 183 0 242 60 66 89 74 270 84 171 9 214 21 251 72 28 37 27 120 -2
176 -29 56 -143 177 -199 210 -37 21 -61 26 -126 29 -51 2 -94 -2 -117 -10z"/>
        <path d="M7605 10935 c109 -104 296 -248 375 -289 81 -43 160 -66 221 -66 58
0 76 7 90 31 37 71 -170 215 -494 344 -94 37 -134 48 -195 51 l-77 5 80 -76z"/>
        <path d="M11637 10783 c-4 -3 -7 -25 -7 -49 0 -171 146 -570 285 -779 63 -95
138 -167 169 -163 63 9 -24 387 -145 631 -67 136 -111 199 -199 290 -73 74
-89 85 -103 70z"/>
        <path d="M19325 10694 c-11 -3 -30 -7 -41 -9 -45 -10 -41 -53 31 -300 84 -286
221 -645 246 -645 14 0 29 46 50 158 54 283 177 477 362 572 83 43 117 67 117
81 0 40 -144 83 -395 118 -145 20 -335 33 -370 25z"/>
        <path d="M7170 10645 c-36 -8 -78 -20 -95 -27 -85 -33 -401 -171 -475 -207
l-85 -41 75 6 c41 3 152 14 245 25 426 49 626 59 727 38 41 -9 63 -21 97 -55
44 -44 44 -44 39 -102 -6 -56 -16 -85 -152 -412 -58 -140 -64 -160 -45 -160
25 0 150 100 246 196 80 81 109 119 139 179 34 68 38 84 38 153 0 62 -5 88
-27 135 -53 115 -191 216 -354 257 -105 27 -287 35 -373 15z"/>
        <path d="M18720 10447 c-82 -28 -140 -62 -233 -137 -77 -62 -187 -174 -187
-191 0 -42 459 108 561 184 28 21 69 88 69 113 0 56 -96 70 -210 31z"/>
        <path d="M8726 10341 c-4 -6 2 -24 13 -39 33 -46 168 -170 229 -210 54 -35 61
-37 137 -36 65 1 102 9 201 42 67 22 156 56 198 76 73 34 181 104 173 112 -2
2 -48 -6 -103 -18 -80 -18 -132 -22 -274 -22 -161 -1 -180 1 -235 23 -33 12
-91 34 -130 48 -78 29 -198 42 -209 24z"/>
        <path d="M33164 10063 c-19 -99 31 -476 102 -778 97 -412 113 -513 121 -765
l6 -195 -204 -206 c-234 -236 -315 -299 -711 -562 -253 -167 -378 -264 -378
-292 0 -21 29 -26 151 -26 147 1 338 21 693 73 229 34 310 41 436 42 150 1
157 0 210 -26 208 -103 360 -348 558 -898 127 -353 203 -519 272 -591 65 -69
97 -47 144 101 77 239 74 310 -24 654 -71 247 -84 326 -84 496 -1 209 29 295
137 397 113 107 269 152 647 187 580 55 1125 243 1276 442 l24 30 -52 39
c-117 87 -209 97 -893 100 -594 2 -589 1 -716 65 -194 98 -242 276 -135 495
80 161 189 288 414 478 159 134 238 220 304 329 91 148 127 347 69 378 -27 14
-101 -10 -266 -88 -411 -194 -558 -311 -740 -587 -157 -238 -192 -263 -321
-231 -222 56 -337 150 -550 450 -291 409 -394 526 -462 526 -16 0 -23 -8 -28
-37z"/>
        <path d="M8522 9938 c-153 -79 -257 -173 -264 -238 -3 -22 6 -29 62 -57 67
-33 170 -63 215 -63 56 0 149 73 206 162 40 61 44 122 13 165 -22 31 -97 73
-129 73 -11 0 -58 -19 -103 -42z"/>
        <path d="M18802 9970 c-90 -21 -92 -74 -9 -242 108 -219 356 -633 439 -734
l37 -45 7 26 c22 90 -86 634 -155 779 -72 150 -208 242 -319 216z"/>
        <path d="M9540 9605 c0 -29 14 -53 78 -137 63 -84 180 -157 520 -324 535 -263
561 -283 621 -466 13 -37 27 -71 33 -75 18 -10 53 43 99 151 58 139 99 216
123 231 12 7 53 16 91 20 83 8 105 18 105 48 -1 36 -37 104 -66 123 -38 25
-112 23 -213 -6 l-83 -23 -77 22 c-42 12 -200 76 -351 141 -473 204 -781 320
-850 320 -25 0 -30 -4 -30 -25z"/>
        <path d="M16950 9503 c-87 -13 -90 -14 -90 -33 0 -27 17 -34 171 -68 208 -47
303 -92 350 -168 27 -45 30 -125 4 -174 -49 -96 -37 -125 52 -123 118 3 382
82 487 147 l49 30 -59 55 c-155 144 -345 253 -518 296 -123 31 -361 52 -446
38z"/>
        <path d="M13742 9425 c-55 -46 -93 -185 -71 -264 19 -69 126 -173 199 -195 68
-20 110 -13 147 26 25 26 28 37 28 92 0 80 -41 166 -120 254 -97 107 -137 126
-183 87z"/>
        <path d="M12260 9294 c-12 -31 2 -190 24 -275 50 -190 205 -477 297 -550 26
-21 55 -33 84 -36 38 -5 45 -2 60 21 25 37 16 156 -20 266 -60 189 -213 461
-305 544 -68 62 -124 73 -140 30z"/>
        <path d="M14761 9235 c-87 -25 -191 -85 -254 -147 -142 -141 -176 -372 -82
-564 44 -91 166 -216 248 -256 119 -59 244 -27 365 92 151 150 243 378 229
569 -11 141 -92 252 -217 297 -64 23 -222 28 -289 9z"/>
        <path d="M16280 8744 c-149 -19 -510 -103 -533 -124 -16 -14 252 -35 443 -34
313 2 496 40 593 123 18 15 17 16 -15 24 -38 8 -435 18 -488 11z"/>
        <path d="M13342 8719 c-57 -17 -67 -75 -22 -132 46 -58 333 -222 455 -260 103
-32 271 -29 344 6 40 19 37 42 -14 96 -98 105 -321 238 -460 276 -73 20 -258
28 -303 14z"/>
        <path d="M12846 8151 c-40 -44 -29 -179 30 -361 73 -228 197 -415 330 -500 50
-31 84 -43 164 -55 l44 -7 -49 54 c-71 78 -124 176 -241 450 -115 267 -161
357 -207 406 -36 37 -47 39 -71 13z"/>
        <path d="M33285 6902 c-106 -77 -229 -242 -341 -456 -129 -248 -161 -435 -71
-412 57 14 234 206 330 357 56 88 132 246 161 335 20 59 26 97 24 140 -3 58
-4 59 -33 62 -21 2 -43 -6 -70 -26z"/>
        <path d="M13727 6773 c-42 -41 89 -242 268 -411 97 -92 272 -213 385 -266 88
-41 128 -48 143 -24 33 50 -181 314 -393 484 -104 83 -156 118 -266 175 -90
47 -123 57 -137 42z"/>
        <path d="M14690 5910 c0 -106 307 -350 440 -350 48 0 37 23 -52 116 -167 174
-388 307 -388 234z"/>
        <path d="M32302 5460 c-69 -46 -161 -141 -213 -220 -20 -30 -64 -110 -98 -178
-34 -67 -82 -155 -106 -195 -25 -39 -45 -77 -45 -84 0 -19 44 -16 129 7 95 27
136 48 199 105 65 58 129 155 191 287 72 151 96 248 75 302 -11 29 -67 19
-132 -24z"/>
        <path d="M26790 5424 c-77 -7 -211 -34 -302 -60 -465 -131 -802 -469 -1475
-1479 -261 -393 -329 -519 -359 -665 -15 -75 -15 -100 -5 -210 57 -596 385
-1413 774 -1925 171 -224 344 -362 797 -635 201 -121 408 -256 440 -285 44
-41 77 -47 337 -55 280 -10 346 -19 430 -57 115 -54 318 -41 537 32 535 179
1082 604 1511 1174 232 308 427 689 500 977 36 139 46 233 46 434 0 365 -68
762 -196 1144 -140 419 -305 689 -587 962 -373 360 -831 581 -1318 634 -101
11 -1034 22 -1130 14z m1045 -248 c805 -128 1493 -734 1784 -1569 77 -220 101
-371 108 -678 6 -254 -3 -391 -38 -564 -97 -482 -475 -1097 -929 -1513 -341
-312 -574 -452 -846 -507 -44 -9 -107 -15 -139 -13 -58 3 -59 4 -80 45 -57
115 -128 134 -307 82 -38 -11 -68 -24 -68 -29 0 -53 -727 159 -995 289 -345
168 -677 459 -893 782 -163 242 -286 588 -344 964 -26 171 -31 532 -10 685 56
389 244 809 511 1139 398 494 1010 836 1611 900 126 14 516 6 635 -13z m-559
-4841 c8 -20 -4 -65 -16 -65 -6 0 -10 18 -10 40 0 40 15 54 26 25z"/>
        <path d="M27455 4937 c-154 -74 -198 -152 -127 -220 80 -76 325 -112 422 -62
120 62 76 215 -87 299 -53 27 -128 21 -208 -17z"/>
        <path d="M26730 4331 c-11 -21 -13 -74 -4 -107 8 -29 78 -51 101 -33 25 21 10
85 -28 125 -38 39 -54 42 -69 15z"/>
        <path d="M27508 4164 c-16 -35 7 -79 42 -79 20 0 26 6 28 28 4 32 -21 77 -43
77 -9 0 -21 -12 -27 -26z"/>
        <path d="M28371 4116 c-35 -42 -16 -139 35 -173 40 -26 54 -11 54 54 0 95 -51
164 -89 119z"/>
        <path d="M25975 3776 c-39 -18 -79 -55 -101 -97 -27 -49 -24 -157 5 -231 58
-149 235 -254 326 -194 105 69 76 325 -52 467 -61 67 -113 84 -178 55z"/>
        <path d="M29044 3606 c-63 -65 -112 -163 -153 -306 -67 -236 -89 -439 -48
-464 50 -32 264 160 336 302 37 72 61 186 61 286 0 115 -13 162 -57 203 -50
48 -76 44 -139 -21z"/>
        <path d="M26897 3503 c-102 -165 -77 -317 63 -389 20 -10 58 -18 88 -18 45 -1
56 3 72 24 26 34 26 114 -1 182 -34 88 -154 238 -189 238 -5 0 -20 -17 -33
-37z"/>
        <path d="M27451 3491 c-27 -49 3 -106 51 -99 26 3 27 23 0 77 -20 42 -37 49
-51 22z"/>
        <path d="M27920 3284 c-39 -45 -62 -98 -84 -191 -18 -82 -20 -112 -6 -133 8
-12 13 -12 43 2 42 20 81 69 103 129 27 77 18 229 -15 229 -5 0 -23 -16 -41
-36z"/>
        <path d="M25804 2752 c-19 -13 -23 -40 -12 -78 11 -41 57 -94 82 -94 39 0 29
108 -14 152 -30 29 -38 32 -56 20z"/>
        <path d="M27196 2607 c-18 -18 -26 -37 -26 -62 0 -70 41 -114 106 -115 59 0
74 21 74 102 0 77 -8 86 -78 95 -45 5 -53 3 -76 -20z"/>
        <path d="M28266 2593 c-29 -44 -49 -124 -44 -179 l3 -37 45 62 c72 98 91 182
43 189 -16 2 -29 -7 -47 -35z"/>
        <path d="M28702 2515 c-42 -31 -91 -151 -118 -291 -20 -109 -12 -125 42 -86
80 58 141 169 150 274 8 96 -23 138 -74 103z"/>
        <path d="M26554 2346 c-64 -28 -96 -105 -75 -183 15 -54 39 -73 103 -80 99
-10 155 47 146 149 -6 55 -33 92 -85 114 -39 17 -49 17 -89 0z"/>
        <path d="M28111 2039 c-37 -36 -48 -72 -32 -105 22 -50 116 -56 147 -9 13 20
14 30 4 59 -15 47 -47 86 -70 86 -10 0 -32 -14 -49 -31z"/>
        <path d="M27093 1614 c-117 -58 -156 -219 -76 -314 80 -96 258 -98 331 -5 33
42 55 110 48 148 -10 53 -74 137 -125 164 -53 27 -130 30 -178 7z"/>
        <path d="M27931 1354 c-12 -15 -21 -33 -21 -40 0 -29 25 -65 48 -71 50 -12 81
65 46 115 -20 29 -48 28 -73 -4z"/>
        <path d="M15420 5304 c-23 -60 25 -146 132 -235 232 -193 502 -289 575 -204
74 86 -28 220 -250 329 -111 54 -322 125 -394 133 -51 6 -53 5 -63 -23z"/>
        <path d="M17565 4841 c-156 -24 -832 -159 -854 -171 -23 -12 99 -100 604 -432
543 -358 784 -599 877 -878 31 -91 32 -102 32 -260 1 -156 -1 -169 -26 -232
-88 -221 -298 -477 -643 -783 -225 -200 -295 -278 -295 -329 0 -56 249 -110
510 -110 263 -1 466 50 708 179 238 127 495 354 653 578 242 344 328 820 223
1241 -155 622 -671 1092 -1296 1181 -127 18 -417 28 -493 16z m700 -388 c187
-59 359 -164 495 -302 247 -250 382 -568 383 -901 1 -214 -40 -360 -173 -625
-189 -377 -422 -658 -635 -766 -57 -29 -89 -39 -115 -37 l-35 3 3 45 c6 73 86
375 157 587 36 109 72 234 80 278 23 117 38 372 32 520 -11 261 -60 403 -252
725 -186 313 -212 387 -159 449 44 52 107 59 219 24z"/>
        <path d="M31285 4521 c-128 -46 -264 -144 -454 -326 -181 -173 -256 -275 -285
-389 -18 -69 -11 -114 20 -128 84 -39 578 336 760 577 98 130 130 236 82 269
-29 20 -61 20 -123 -3z"/>
        <path d="M19327 2163 c-105 -16 137 -91 413 -128 58 -8 152 -14 210 -14 l105
0 -50 26 c-109 57 -271 93 -500 113 -122 10 -129 10 -178 3z"/>
        <path d="M20063 1903 c-18 -6 -16 -38 3 -74 27 -53 58 -59 311 -58 258 0 355
11 331 35 -7 6 -133 27 -273 44 -55 7 -142 23 -193 36 -87 23 -151 29 -179 17z"/>
        <path d="M21400 1763 c-149 -23 -300 -84 -300 -122 0 -38 70 -75 213 -110 271
-67 628 -69 738 -4 117 69 -53 187 -331 229 -87 13 -259 17 -320 7z"/>
        <path d="M22710 1604 c-86 -15 -214 -59 -230 -79 -17 -20 89 -108 189 -158 77
-38 91 -42 160 -42 58 0 86 6 117 22 48 26 134 116 158 168 16 33 16 38 2 60
-9 13 -33 29 -53 34 -52 15 -252 12 -343 -5z"/>
        <path d="M23590 1559 c-98 -12 -157 -32 -203 -70 -63 -52 -49 -76 76 -134 134
-62 381 -123 590 -145 194 -21 361 18 401 93 17 30 17 36 3 69 -34 80 -167
142 -371 173 -132 19 -395 27 -496 14z"/>
    </g>
</svg>
