<svg xmlns="http://www.w3.org/2000/svg" viewBox="0 0 128 60" width="128" height="60" preserveAspectRatio="xMidYMid meet"
     style="width: 100%; height: 100%; transform: translate3d(0px, 0px, 0px);">
    <defs>
        <clipPath id="__lottie_element_2">
            <rect width="128" height="60" x="0" y="0"/>
        </clipPath>
    </defs>
    <g clip-path="url(#__lottie_element_2)">
        <g transform="matrix(0.3199999928474426,0,0,0.3199999928474426,-17.919998168945312,-51.91999816894531)"
           opacity="1" style="display: block;">
            <g opacity="1" transform="matrix(1,0,0,1,174.9340057373047,253.66000366210938)">
                <path fill="#efd8bc" fill-opacity="0.6816696428571192"
                      d=" M-46.060001373291016,58.310001373291016 C-52.625999450683594,64.66500091552734 -52.65700149536133,74.98400115966797 -45.96200180053711,81.4540023803711 C-45.96200180053711,81.4540023803711 -48,79.47899627685547 -48,79.47899627685547 C-41.40299987792969,85.88200378417969 -30.69700050354004,85.93199920654297 -24.1299991607666,79.54299926757812 C-24.1299991607666,79.54299926757812 46.058998107910156,11.557000160217285 46.058998107910156,11.557000160217285 C52.62300109863281,5.184000015258789 52.65599822998047,-5.151000022888184 46.058998107910156,-11.539999961853027 C46.058998107910156,-11.539999961853027 -24.1299991607666,-79.52799987792969 -24.1299991607666,-79.52799987792969 C-30.69700050354004,-85.89900207519531 -41.33700180053711,-85.93199920654297 -48,-79.46199798583984 C-48,-79.46199798583984 -45.96200180053711,-81.43699645996094 -45.96200180053711,-81.43699645996094 C-52.59299850463867,-75.03099822998047 -52.52899932861328,-64.58499908447266 -46.060001373291016,-58.292999267578125 C-46.060001373291016,-58.292999267578125 2.1989998817443848,-11.52299976348877 2.1989998817443848,-11.52299976348877 C8.765000343322754,-5.151000022888184 8.699000358581543,5.249000072479248 2.1989998817443848,11.539999961853027 C2.1989998817443848,11.539999961853027 -46.060001373291016,58.310001373291016 -46.060001373291016,58.310001373291016z"/>
            </g>
        </g>
        <g transform="matrix(0.3199999928474426,0,0,0.3199999928474426,8.080001831054688,-51.91999816894531)"
           opacity="1" style="display: block;">
            <g opacity="1" transform="matrix(1,0,0,1,174.9340057373047,253.66000366210938)">
                <path fill="#f9d6ac" fill-opacity="0.7974261363636213"
                      d=" M-46.060001373291016,58.310001373291016 C-52.625999450683594,64.66500091552734 -52.65700149536133,74.98400115966797 -45.96200180053711,81.4540023803711 C-45.96200180053711,81.4540023803711 -48,79.47899627685547 -48,79.47899627685547 C-41.40299987792969,85.88200378417969 -30.69700050354004,85.93199920654297 -24.1299991607666,79.54299926757812 C-24.1299991607666,79.54299926757812 46.058998107910156,11.557000160217285 46.058998107910156,11.557000160217285 C52.62300109863281,5.184000015258789 52.65599822998047,-5.151000022888184 46.058998107910156,-11.539999961853027 C46.058998107910156,-11.539999961853027 -24.1299991607666,-79.52799987792969 -24.1299991607666,-79.52799987792969 C-30.69700050354004,-85.89900207519531 -41.33700180053711,-85.93199920654297 -48,-79.46199798583984 C-48,-79.46199798583984 -45.96200180053711,-81.43699645996094 -45.96200180053711,-81.43699645996094 C-52.59299850463867,-75.03099822998047 -52.52899932861328,-64.58499908447266 -46.060001373291016,-58.292999267578125 C-46.060001373291016,-58.292999267578125 2.1989998817443848,-11.52299976348877 2.1989998817443848,-11.52299976348877 C8.765000343322754,-5.151000022888184 8.699000358581543,5.249000072479248 2.1989998817443848,11.539999961853027 C2.1989998817443848,11.539999961853027 -46.060001373291016,58.310001373291016 -46.060001373291016,58.310001373291016z"/>
            </g>
        </g>
        <g transform="matrix(0.3199999928474426,0,0,0.3199999928474426,8.080001831054688,-51.91999816894531)"
           opacity="1" style="display: block;">
            <g opacity="1" transform="matrix(1,0,0,1,254.9340057373047,253.66000366210938)">
                <path fill="#e7a28f" fill-opacity="0.8689227941176373"
                      d=" M-46.060001373291016,58.310001373291016 C-52.625999450683594,64.66500091552734 -52.65700149536133,74.98400115966797 -45.96200180053711,81.4540023803711 C-45.96200180053711,81.4540023803711 -48,79.47899627685547 -48,79.47899627685547 C-41.40299987792969,85.88200378417969 -30.69700050354004,85.93199920654297 -24.1299991607666,79.54299926757812 C-24.1299991607666,79.54299926757812 46.058998107910156,11.557000160217285 46.058998107910156,11.557000160217285 C52.62300109863281,5.184000015258789 52.65599822998047,-5.151000022888184 46.058998107910156,-11.539999961853027 C46.058998107910156,-11.539999961853027 -24.1299991607666,-79.52799987792969 -24.1299991607666,-79.52799987792969 C-30.69700050354004,-85.89900207519531 -41.33700180053711,-85.93199920654297 -48,-79.46199798583984 C-48,-79.46199798583984 -45.96200180053711,-81.43699645996094 -45.96200180053711,-81.43699645996094 C-52.59299850463867,-75.03099822998047 -52.52899932861328,-64.58499908447266 -46.060001373291016,-58.292999267578125 C-46.060001373291016,-58.292999267578125 2.1989998817443848,-11.52299976348877 2.1989998817443848,-11.52299976348877 C8.765000343322754,-5.151000022888184 8.699000358581543,5.249000072479248 2.1989998817443848,11.539999961853027 C2.1989998817443848,11.539999961853027 -46.060001373291016,58.310001373291016 -46.060001373291016,58.310001373291016z"/>
            </g>
        </g>
    </g>
</svg>