<svg xmlns="http://www.w3.org/2000/svg" width="1302.799" height="1302.8" viewBox="0 0 1302.799 1302.8">
  <g id="Moonlight" transform="translate(0)">
    <path id="Path_57" data-name="Path 57" d="M651.4,1302.8A651.468,651.468,0,0,1,397.724,51.352a651.465,651.465,0,0,1,507.353,1200.09A647.531,647.531,0,0,1,651.4,1302.8" transform="translate(0 0)" fill="rgba(255,255,250,0.05)" fill-rule="evenodd"/>
    <path id="Path_58" data-name="Path 58" d="M655.545,1241.09A585.612,585.612,0,0,1,427.524,116.15,585.609,585.609,0,0,1,883.568,1194.935a582.036,582.036,0,0,1-228.023,46.155" transform="translate(-4.145 -4.145)" fill="rgba(255,255,250,0.05)" fill-rule="evenodd"/>
    <path id="Path_59" data-name="Path 59" d="M659.69,1179.38a518.925,518.925,0,1,1,202.369-40.953A516.55,516.55,0,0,1,659.69,1179.38" transform="translate(-8.29 -8.29)" fill="rgba(255,255,250,0.05)" fill-rule="evenodd"/>
    <path id="Path_60" data-name="Path 60" d="M663.835,1117.67a453.091,453.091,0,1,1,176.714-35.75,451.052,451.052,0,0,1-176.714,35.75" transform="translate(-12.435 -12.435)" fill="rgba(255,255,250,0.05)" fill-rule="evenodd"/>
    <path id="Path_61" data-name="Path 61" d="M667.98,1055.96a387.225,387.225,0,1,1,151.059-30.547A385.549,385.549,0,0,1,667.98,1055.96" transform="translate(-16.58 -16.58)" fill="rgba(255,255,250,0.05)" fill-rule="evenodd"/>
    <path id="Path_62" data-name="Path 62" d="M672.125,994.25a321.364,321.364,0,1,1,125.406-25.345A320.066,320.066,0,0,1,672.125,994.25" transform="translate(-20.725 -20.725)" fill="rgba(255,255,250,0.05)" fill-rule="evenodd"/>
  </g>
</svg>
