<svg xmlns="http://www.w3.org/2000/svg" xmlns:xlink="http://www.w3.org/1999/xlink" width="458.252" height="183.862" viewBox="0 0 458.252 183.862">
  <defs>
    <linearGradient id="linear-gradient" x1="0.413" y1="0.05" x2="0.699" y2="0.698" gradientUnits="objectBoundingBox">
      <stop offset="0" stop-color="#ecbaa9"/>
      <stop offset="1" stop-color="#fff"/>
    </linearGradient>
  </defs>
  <g id="Henok" transform="translate(-125.464 -175.618)">
    <path id="Union_11" data-name="Union 11" d="M-1859.422-2103.52c-3.884-.31-7.474-.847-7.244-1.207a3.82,3.82,0,0,1,2.269.049,28.7,28.7,0,0,0,4.73.338c2.027-.049,2.22-.1.869-.241-1.013-.1-1.834-.434-1.834-.676,0-.289.241-.337.482-.193a46.736,46.736,0,0,0,7.482.338c4.634.049,7,.241,7,.58,0,.386.145.337.386,0,.193-.29,2.945-.917,6.178-1.352a61.382,61.382,0,0,0,8.689-1.689c1.544-.482,4.151-1.255,5.744-1.737a83.8,83.8,0,0,0,9.267-3.86c12.937-6.177,22.252-13.368,30.651-23.647a87.307,87.307,0,0,0,10.895-16.908c-18.576-1.426-31.353-14.319-31.353-34.836,0-20.282,12.488-33.115,30.719-34.784a86.87,86.87,0,0,0-14.315-24.029,23.975,23.975,0,0,1-2.8-3.812,10.368,10.368,0,0,1,1.013-2.027l1.062-1.689,2.365,2.364a68.606,68.606,0,0,1,10.137,13.078,174.116,174.116,0,0,1,7.909,15.946c19.787.515,33.605,13.368,33.605,34.348a39.484,39.484,0,0,1-.363,5.324H-1764.4c-.054,1.195-.247,2.912-.53,4.84h27.964c-2.9,14.52-16.214,25.41-33.4,25.41q-.612,0-1.216-.016c-4.174,8.682-9.267,15.584-17.083,23.258-16.339,15.986-36.657,25.254-58.639,26.832Zm87.727-71.492a6.394,6.394,0,0,0,5.638-2.839q.448-2.575.756-5.2c.027-.279.061-.546.1-.8h-13.753C-1778.592-2176.947-1775.325-2175.011-1771.7-2175.011Zm8.954-20.569a6.586,6.586,0,0,0-1.595-4.536v3.584a9.537,9.537,0,0,1-.21.951Zm-15.972,0h11.905a36.017,36.017,0,0,1-.182-3.972c0-1.075-.012-1.828-.064-2.364a9.573,9.573,0,0,0-3.31-.561C-1774.841-2202.477-1777.866-2200.3-1778.713-2195.581Zm-76.223,88.827c-1.013-.868-.917-.868,3.765-.676a28.5,28.5,0,0,0,5.744-.193,24.753,24.753,0,0,1,4.344-.676,62.354,62.354,0,0,0,7.964-1.592c2.51-.676,5.165-1.351,5.937-1.5a2.735,2.735,0,0,0,1.593-.676c.193-.29-.145-.386-.821-.194-1.11.338-1.11.29.193-.868a10.754,10.754,0,0,1,3.717-1.93,69.262,69.262,0,0,0,10.715-5.019c.966-.531,1.834-.917,1.979-.772a8.77,8.77,0,0,0,2.558-1.688,8.788,8.788,0,0,1,2.559-1.689,4,4,0,0,1,.338,1.641c.1,1.3-.194,1.688-2.606,3.234-3.717,2.364-7.434,4.246-8.158,4.1-.338-.1-.627.049-.627.241,0,.241-.676.821-1.5,1.3-1.062.627-1.4.675-1.158.241.29-.482.145-.435-.531.1a18.661,18.661,0,0,1-6.709,2.9,13.47,13.47,0,0,0-2.945.966,4.816,4.816,0,0,1-1.931.579,6.707,6.707,0,0,0-1.882.435c-.869.531-8.64,1.833-12.551,2.075-3.856.28-6.049.435-7.389.435C-1854-2105.98-1854.348-2106.219-1854.936-2106.753Zm-4.73.435a83.755,83.755,0,0,1-20.466-4.247,86.8,86.8,0,0,1-50.3-43.48,31.694,31.694,0,0,0-2.462-4.536c-.724.675,6.951,13.994,11.344,19.785a109.521,109.521,0,0,0,14,14.38c1.641,1.3,2.993,2.751,2.993,3.136,0,.628-.145.628-.724.146-.386-.338-.579-.821-.434-1.062s-.1-.386-.58-.29-.917-.1-.917-.434c0-.724-.724-1.448-.724-.676,0,.29-.773-.049-1.69-.772-.965-.772-1.447-1.448-1.157-1.641.385-.241.385-.434,0-.627a1.079,1.079,0,0,0-1.014-.049c-.241.145-.724-.241-1.062-.917-.29-.675-.821-1.255-1.11-1.255-.676,0-6.468-6.322-8.93-9.7-.917-1.3-2.606-3.62-3.717-5.115-2.365-3.234-7.772-13.947-9.22-18.29a171.593,171.593,0,0,1-4.972-17.807c-.072-.43-.136-.928-.193-1.483v-19c.126-1.752.288-3.333.482-4.608a92.288,92.288,0,0,1,8.978-28.278c2.993-5.84,5.164-9.122,6.034-9.122a.61.61,0,0,0,.675-.53c0-1.111,12.406-14.719,16.074-17.663.724-.58,2.028-1.544,2.9-2.172a17.156,17.156,0,0,0,1.786-1.351c.29-.338,4.634-3.185,7.482-4.875a8.222,8.222,0,0,0,2.075-1.5,1.247,1.247,0,0,1,1.014-.387,2.06,2.06,0,0,0,1.3-.482c1.4-1.4,16.8-6.949,20.755-7.431a31.6,31.6,0,0,0,4.007-.869,34.423,34.423,0,0,1,5.31-.868,100.117,100.117,0,0,1,29.733,1.641c1.593.386,3.62.82,4.441,1.013,1.544.29,1.544.338.772,1.5-.627.966-1.062,1.158-2.028.917-1.206-.29-1.206-.29-.289.434,1.979,1.448.145,1.689-4.586.483a90.644,90.644,0,0,0-22.2-1.931,86.82,86.82,0,0,0-28.141,6.514c-1.3.58-2.606.869-2.848.676-.29-.145-.386-.048-.193.242.145.289-.193.675-.773.82-2.123.676-12.4,7-15.928,9.844-4.924,3.957-13.756,13.223-16.073,16.794-1.834,2.847-2.655,3.667-2.655,2.558a.5.5,0,0,1,.531-.482c.241,0,.386-.194.193-.435-.145-.241.1-.772.482-1.158a3.319,3.319,0,0,0,.724-1.062,6.756,6.756,0,0,1,1.207-1.786,5.234,5.234,0,0,0,1.207-1.978c0-.772-3.813,4.488-7.1,9.748a131.907,131.907,0,0,0-6.613,13.56,30.367,30.367,0,0,1-1.013,2.9c-1.3,3.378-2.655,8.493-2.655,9.989a2.937,2.937,0,0,1-.435,1.833,1.282,1.282,0,0,0-.482,1.111c0,.434-.241,3.088-.531,5.887-1.158,10.328.386,26.011,3.186,33.057a21.841,21.841,0,0,1,.966,2.8c.24,1.4,3.185,7.625,3.475,7.336a4.308,4.308,0,0,0-.579-1.882,14.437,14.437,0,0,1-1.063-3.282c-.193-.869-.82-3.233-1.4-5.211-3.185-10.472-3.765-14.381-3.813-25.577,0-7.48.193-10.954.869-14.236,1.545-8.01,3.427-13.753,4.441-13.753.966,0,.869.869-.772,5.887-2.606,8.011-3.09,11.631-3.041,22.826a125.278,125.278,0,0,0,.531,12.789c.821,4.681,3.427,14.911,4.054,15.925.482.821,2.654,5.5,3.282,7a74.233,74.233,0,0,0,4.441,8.542,6,6,0,0,1,.869,1.543,49.3,49.3,0,0,0,3.38,4.826c4.1,5.5,14.239,15.25,19.6,18.869,4.055,2.7,15.4,8.927,16.315,8.927a5.251,5.251,0,0,1,1.786.676,53.547,53.547,0,0,0,9.751,2.944c1.979.386,2.9,1.157,1.158.965-.627-.1-2.462-.482-4.151-.917-4.054-1.013-4.73-.965-1.5.194,2.558.868,7.047,1.786,7.868,1.544.241-.049.29.1.1.386s.386.482,1.543.482a15.423,15.423,0,0,1,3.427.435c.966.289,1.545.289,1.545,0,0-.242.579-.29,1.352-.1a9.667,9.667,0,0,0,2.22.241,2.763,2.763,0,0,1,1.689.725c.43.461.469.648-.647.648C-1857.135-2106.153-1858.144-2106.214-1859.667-2106.319Zm29.154-18.917c-3.04-4.488-4.1-7.046-5.985-14.381a39.8,39.8,0,0,0-1.786-5.935c-.385.386,1.931,11.292,2.993,13.9.58,1.543.917,2.654.676,2.508-.628-.386-.482.338.29,1.738,1.206,2.074.772,2.268-.483.241-1.3-2.075-1.544-2.9-.675-2.365.337.194.482.049.337-.337s-.482-.628-.724-.58c-.29.048-1.013-1.013-1.641-2.364-1.013-2.172-1.158-2.317-1.4-1.3s-.435.82-1.207-1.4c-.676-1.834-1.3-2.751-2.365-3.234-1.738-.917-1.738-.917-1.738.1-.049.773-.1.773-.821-.1-.627-.772-.724-.82-.482-.145.627,1.787-.724.772-1.544-1.206-1.642-3.812-2.365-6.8-4.683-19.641-.1-.676-.289-2.172-.434-3.379s-.339-2.847-.531-3.619a78.423,78.423,0,0,1-.194-8.107l.049-6.611h-1.158c-1.448,0-1.786.725-1.883,4l-.048,2.51-.387-2.172c-.193-1.207-.29,2.027-.193,7.48.241,12.74,1.689,20.123,5.261,27.024,1.979,3.86,2.027,3.956,1.013,3.136-1.062-.868-4.1-7.19-5.455-11.341-1.641-4.97-2.606-11.775-2.848-20.172-.241-7.286-.338-8.107-1.062-7.769-.434.144-3.33,1.255-6.516,2.413a46.891,46.891,0,0,0-6.42,2.7c-.58.482-.676,1.4-.434,4.729.579,8.252.869,15.683.626,15.442a31.839,31.839,0,0,1-.82-5.308c-.773-6.611-1.593-8.011-1.255-2.172.145,2.9.1,3.909-.193,2.992a27.121,27.121,0,0,1-.58-4.729c-.049-1.833-.289-3.33-.482-3.33-.58,0-1.448,1.883-1.111,2.413a8.34,8.34,0,0,1,.483,2.558c.241,2.9,1.689,13.416,1.978,14.622a1.591,1.591,0,0,1-.482,1.592c-.531.435-.627.917-.241,1.786a14.625,14.625,0,0,1,.435,3.765,19.966,19.966,0,0,0,.965,5.356,11.181,11.181,0,0,1,.773,2.993c-.29.337-3.235-5.212-4.393-8.252-.58-1.641-1.689-5.453-2.462-8.493-.772-3.137-1.448-5.067-1.545-4.44-.289,1.834.869,9.266,1.835,12.017.917,2.7.579,3.185-.483.627-.338-.772-.772-1.3-.966-1.206a.533.533,0,0,1-.724-.242.564.564,0,0,0-.676-.289c-.386.289-2.944-4.536-2.944-5.549a6.565,6.565,0,0,0-.966-2.269,4.107,4.107,0,0,1-.772-1.978c.145-.193-.049-.821-.435-1.3-.627-.82-.675-.772-.386.772a6.908,6.908,0,0,0,.724,2.268c.627.772.869,4.344.386,5.6-.338,1.013-.386.965-.724-.386a6.885,6.885,0,0,0-1.11-2.316,9.323,9.323,0,0,1-1.352-2.414c-.338-.868-1.158-2.991-1.786-4.729-1.786-4.682-2.945-14.622-1.883-16.167a41.058,41.058,0,0,1,4.1-3.04c2.075-1.447,3.668-2.7,3.524-2.8-.1-.145-1.931.772-4.055,1.978a44.1,44.1,0,0,1-4.1,2.22c-.193,0-.339-.531-.339-1.158,0-1.254-.627-1.833-2.123-2.074-.772-.145-.869.048-.58,1.786.338,2.123-.048,4.343-.772,4.343-.241,0-.338-1.833-.145-4.681.241-3.571.483-4.826,1.111-5.308.434-.338,3.668-2.075,7.1-3.812,7.771-4,5.792-3.667-2.849.482-3.475,1.689-6.8,3.186-7.385,3.379-1.4.434-1.834-.435-.917-1.882a4.39,4.39,0,0,0,.772-1.785c0-.531,2.9-2.8,3.571-2.8a109.937,109.937,0,0,0,10.427-5.067c0-.385-8.447,2.992-9.9,3.958-1.351.916-2.22.82-1.834-.242.29-.724.242-.724-.482-.193a3.854,3.854,0,0,0-1.061,1.592c-.194.482-.532.917-.821.917-.917,0,.048-2.944,1.544-4.632.772-.917,1.3-1.93,1.158-2.317s.145-.917.724-1.207c1.3-.724,1.641-.675,1.3.193-.146.386-.049.724.193.724.29,0,.482-.386.482-.917a1.3,1.3,0,0,1,.869-1.158c.434-.1,1.255-.386,1.786-.579.531-.145.339.049-.386.482-1.834,1.062-1.3,1.5.58.531.821-.435,1.351-1.062,1.255-1.4-.241-.58,1.834-1.544,9.895-4.536,1.738-.627,2.51-1.062,1.69-.966a73.643,73.643,0,0,0-7.578,2.414c-6.082,2.219-7.144,2.365-5.214.675.773-.627.966-1.4.966-3.475,0-3.667,2.945-15.2,5.309-20.9a53.6,53.6,0,0,0,2.124-5.694,8.579,8.579,0,0,1,1.159-2.461,33.1,33.1,0,0,0,1.833-2.9c1.4-2.268,7.144-8.927,7.338-8.4a6.058,6.058,0,0,1-.773,2.317,78.916,78.916,0,0,0-2.993,8.348c-1.11,3.571-2.124,6.854-2.22,7.239-.145.435-.1.531.193.241.241-.289,1.448-3.088,2.751-6.273,4.054-10.134,10.86-23.116,11.632-22.3a5.728,5.728,0,0,1-.724,2.51c-1.207,2.7-1.3,3.474-.29,2.654,1.013-.868.966-.627-1.255,4.1-1.93,4.15-7.337,19.833-7.1,20.605.1.241,1.111-2.268,2.269-5.5,3.331-9.458,6.854-16.311,10.039-19.688.339-.386-.724,2.219-2.027,4.922-1.111,2.219-1.111,2.413-.241,1.351l1.013-1.206-.772,1.544c-.386.869-1.689,4.922-2.848,9.072-1.207,4.1-2.269,7.674-2.461,7.962-.146.241-.1.483.144.483s.917-1.255,1.5-2.8c.58-1.5,1.448-3.475,1.931-4.392l.869-1.641,1.061,1.062c1.449,1.447,1.3,3.185-.869,9.893-2.172,6.659-2.606,9.217-1.5,9.217.434,0,.82-.724,1.061-1.93.531-2.654,2.849-9.555,3.331-10.134.676-.676.531-.194-1.255,5.212-2.318,6.949-2.365,6.708,1.593,6.322a37.919,37.919,0,0,0,4.682-.675,27.174,27.174,0,0,1,3.475-.724c1.931-.289,2.075-.434,2.606-2.316a107.039,107.039,0,0,1,4.779-14.961c3.475-8.879,7.916-17.565,10.909-21.426a42.977,42.977,0,0,0,4.006-5.984,38.652,38.652,0,0,1,4.731-6.273c1.833-1.978,4.247-4.681,5.357-6.081,2.269-2.75,5.986-5.453,7.53-5.453.821,0,.724.241-.821,1.834a10.469,10.469,0,0,0-1.786,2.172,14.648,14.648,0,0,1-1.641,2.654c-1.449,2.026-3.379,6.321-2.993,6.708a54.069,54.069,0,0,0,3.862-5.6c3.572-5.5,6.709-9.217,7.288-8.637.145.145-.531,1.3-1.5,2.605-2.8,3.716-2.9,4.006-.676,1.5,2.51-2.848,3.089-2.654.917.337-.869,1.206-1.448,2.317-1.3,2.461.29.29,3.33-4.536,3.523-5.55.1-.579,1.641-.82,1.979-.337.048.048-1.738,2.8-3.958,6.129s-3.958,6.224-3.91,6.514c.1.241-.193.772-.676,1.207-.966.82-3.476,5.356-3.137,5.694.145.1.676-.724,1.255-1.834s1.159-1.931,1.3-1.786-1.013,2.751-2.51,5.743c-2.8,5.549-3.716,7.625-3.427,7.625a39.042,39.042,0,0,0,2.607-4.777c6.516-12.692,15.108-25.095,22.976-33.25,1.659-1.7,3.142-3.158,3.757-3.716h.266a52.43,52.43,0,0,1-4.457,5.019c-2.173,2.364-2.462,2.8-1.207,1.93,2.992-2.172,3.186-2.074.917.338-2.751,2.943-6.275,7.431-5.117,6.514.724-.579.821-.482.821.917,0,1.254.145,1.447.627,1.013.386-.29.821-.386.966-.192.193.144.338,0,.338-.387,0-.82,2.8-3.088,3.235-2.654s-.386,1.834-6.179,9.941a101.129,101.129,0,0,0-9.219,15.346c-2.124,4.295-3.765,7.962-3.62,8.156.193.145.53-.241.772-.868,2.124-5.5,9.219-17.18,11.15-18.387.531-.338.966-.869.966-1.206,0-.579,6.226-6.418,6.9-6.418.193,0,0,.579-.434,1.3-.482.821,0,.483,1.207-.82,1.062-1.207,1.979-2.027,1.979-1.833a38.987,38.987,0,0,1-2.7,4.584c-2.993,4.633-10.524,19.4-15.061,29.582a201.946,201.946,0,0,0-7.337,19.4c-.676,2.172-1.3,3.281-1.786,3.281-.725,0-.725-.289.1-2.654.145-.531-.049-.386-.482.337-1.159,2.028-2.124,2.317-7.82,2.365a70.852,70.852,0,0,0-7.627.386c-1.3.193.966.241,5.117.145,5.359-.194,7.627-.1,7.868.337.241.386.628.386,1.255.049.531-.29,1.013-.29,1.158-.049a8.823,8.823,0,0,0,3.282.772,42.048,42.048,0,0,1,6.806,1.544c2.028.627,3.958,1.012,4.3.82s.386-.144.193.193-.1.58.145.58c.724,0,.675,1.207-.1,1.882-.483.386-1.545.242-4.007-.434a51.8,51.8,0,0,0-5.744-1.3c-4.489-.531-12.551-.675-14.481-.241-1.544.337-.338.482,5.792.772,8.447.386,10.764.772,14.626,2.317,2.848,1.157,3.089,1.688,1.207,2.123-2.124.531-2.27.772-1.063,1.737.773.676.869.869.338.676-.482-.145-.869-.1-.917.1,0,.193-.1.772-.193,1.351-.193.772.145,1.111,1.593,1.544l1.786.531-1.931-.193c-1.062-.145-4.875-.338-8.447-.483-5.84-.193-6.13-.145-2.654.242,2.124.289,5.309.724,7.1,1.013l3.186.531-.966.965c-.868.868-1.5,1.013-4.442.868-9.508-.482-21.576.337-23.458,1.544-.482.289-.193.337,1.014.145a47.517,47.517,0,0,1,5.406-.29c3.04-.049,3.91.145,4.972.965,1.062.868,1.979,1.013,5.7,1.062,2.414.048,5.6.193,7.048.386l2.654.338-2.172.337c-1.207.146-4.006.482-6.275.772-3.524.386-4.248.628-5.165,1.738a5.694,5.694,0,0,0-1.3,2.316c-.145.58-.676,2.992-1.207,5.405-2.172,9.458-2.22,10.23-2.172,25.094.1,12.885.193,14.96,1.11,18.725,1.207,4.97,1.207,5.211.339,4.054-.627-.772-.676-.676-.483,1.206.193,1.641.145,1.882-.29,1.207-.289-.435-.724-.725-.917-.58-.579.337-1.255-.676-2.027-2.9-.338-1.062-.724-1.593-.772-1.158-.193.725,2.606,8.879,3.765,11.147.293.569.421.864.365.864A29.893,29.893,0,0,1-1830.513-2125.236Zm-40.69-55.4c-.966.24-1.5,1.447-1.5,3.619,0,1.5.531,1.737,1.448.627.482-.58.435-.723-.29-.772-.869,0-.869-.048.049-.434,1.351-.58,1.786-.58,1.4.1-.241.386,0,.434.724.241.917-.241.965-.145.434.531s-.482.724.241.434a5.8,5.8,0,0,1,1.111-.338c.145,0,.145-.192,0-.435s.58-.772,1.642-1.206c2.317-.917,3.089-.966,2.606-.193-.193.338-.145.387.241.193.29-.193.434-.531.338-.724-.145-.193.821-.724,2.173-1.207,1.3-.482,2.365-1.062,2.365-1.3,0-.58.193-.628-3.138.772a19.58,19.58,0,0,1-3.62,1.157c-.386,0,.58-.482,2.173-1.11s3.282-1.255,3.717-1.5c.917-.386,1.592-1.93,1.11-2.655-.386-.626,0-.724-6.323,1.545-4.489,1.592-5.406,2.074-5.889,3.184-.338.821-.435.917-.29.242.144-.613.1-.849-.253-.849A2.032,2.032,0,0,0-1871.2-2180.635Zm229.7-7.927c0-21.78,15.488-34.969,36.058-34.969s36.058,13.189,36.058,34.969-15.488,34.969-36.058,34.969S-1641.5-2166.782-1641.5-2188.562Zm27.225,0c0,8.107,3.993,11.737,8.833,11.737,4.719,0,8.833-3.63,8.833-11.737s-4.114-11.737-8.833-11.737S-1614.274-2196.67-1614.274-2188.562Zm99.463,34.122-16.819-27.225v27.225h-26.862v-89.54h26.862v46.827l17.06-25.53h31.218l-25.531,34.364,26.136,33.88Zm-163.834,0v-36.179c0-6.534-3.751-10.527-9.559-10.527-5.929,0-9.559,3.993-9.559,10.527v36.179h-26.862v-68.243h26.862v10.406c3.872-5.929,10.648-10.89,20.932-10.89,15.73,0,24.926,11.495,24.926,29.161v39.567Zm-217.126-49.165c2.461-10.231,5.261-16.89,8.689-20.606a14.328,14.328,0,0,1,2.172-2.123c.241,0,.145.145-2.075,3.523a10.246,10.246,0,0,0-1.641,3.234,3.789,3.789,0,0,1-.724,1.688c-1.448,1.834-5.647,15.781-5.985,19.689-.29,3.522-.821,4.632-2.124,4.681C-1897.992-2193.521-1897.461-2196.8-1895.772-2203.606Z" transform="translate(2066.464 2463)" fill="url(#linear-gradient)"/>
  </g>
</svg>
