<svg id="border" data-name="29171633"
     xmlns="http://www.w3.org/2000/svg"
     width="100%" height="100%"

     viewBox="0 0 254.283 261.885">
    <g fill="#a4b5c0">
        <path id="Path_50"
              d="M441.484-647.284a49.883,49.883,0,0,0-7.621,1.234,45.885,45.885,0,0,1-5.75,1.234c-5.681.686-27.781,8.569-29.79,10.558a2.975,2.975,0,0,1-1.871.685,1.8,1.8,0,0,0-1.455.549,11.814,11.814,0,0,1-2.979,2.125c-4.087,2.4-10.323,6.444-10.738,6.924a24.433,24.433,0,0,1-2.563,1.92c-1.247.891-3.118,2.262-4.157,3.085-5.265,4.182-23.07,23.515-23.07,25.091a.875.875,0,0,1-.97.754c-1.247,0-4.365,4.662-8.66,12.957a130.131,130.131,0,0,0-12.886,40.174c-1.386,8.981-1.593,28.656-.416,35.649a241.61,241.61,0,0,0,7.136,25.3c2.078,6.17,9.838,21.39,13.232,25.983,1.593,2.125,4.018,5.416,5.334,7.267,3.533,4.8,11.847,13.78,12.817,13.78.416,0,1.178.823,1.594,1.782.485.96,1.178,1.508,1.524,1.3a1.564,1.564,0,0,1,1.455.068c.554.274.554.549,0,.891-.416.274.277,1.234,1.663,2.331,1.316,1.028,2.425,1.508,2.425,1.1,0-1.1,1.039-.069,1.039.96,0,.48.624.754,1.316.617s1.039.068.831.411.069,1.028.624,1.508c.831.686,1.039.686,1.039-.206,0-.548-1.94-2.605-4.3-4.456a156.443,156.443,0,0,1-20.091-20.43c-6.3-8.227-17.32-27.148-16.281-28.108a45.045,45.045,0,0,1,3.533,6.444,124.216,124.216,0,0,0,72.189,61.769A121.29,121.29,0,0,0,445.018-400c6.027.411,6.443.343,5.473-.686a3.988,3.988,0,0,0-2.425-1.028,14.055,14.055,0,0,1-3.187-.343c-1.108-.274-1.94-.206-1.94.137,0,.411-.831.411-2.217,0a22.437,22.437,0,0,0-4.919-.617c-1.663,0-2.494-.274-2.217-.686s.208-.617-.138-.548c-1.178.343-7.621-.96-11.292-2.194-4.642-1.645-3.672-1.714,2.148-.274,2.425.617,5.057,1.166,5.958,1.3,2.494.274,1.178-.823-1.663-1.371-3.672-.617-11.916-3.085-13.994-4.182a7.589,7.589,0,0,0-2.563-.96c-1.316,0-17.6-8.844-23.416-12.683-7.69-5.142-22.239-18.99-28.127-26.805a70.387,70.387,0,0,1-4.85-6.856,8.484,8.484,0,0,0-1.247-2.194,105.1,105.1,0,0,1-6.374-12.134c-.9-2.125-4.018-8.775-4.711-9.941-.9-1.44-4.642-15.973-5.82-22.623-.416-2.057-.693-10.283-.762-18.167-.069-15.905.623-21.047,4.365-32.427,2.356-7.13,2.494-8.364,1.109-8.364-1.455,0-4.157,8.158-6.374,19.539-.97,4.662-1.247,9.6-1.247,20.224.069,15.9.9,21.458,5.473,36.335.831,2.811,1.732,6.17,2.009,7.4a20.372,20.372,0,0,0,1.524,4.662,6.059,6.059,0,0,1,.831,2.674c-.416.411-4.642-8.432-4.988-10.421a30.7,30.7,0,0,0-1.386-3.976c-4.018-10.009-6.235-32.29-4.572-46.961.416-3.976.762-7.747.762-8.364a1.81,1.81,0,0,1,.693-1.577,4.144,4.144,0,0,0,.624-2.605c0-2.125,1.94-9.392,3.81-14.191a42.993,42.993,0,0,0,1.455-4.114c.554-2.125,7.413-15.905,9.491-19.264,4.711-7.473,10.184-14.945,10.184-13.848a7.41,7.41,0,0,1-1.732,2.811,9.573,9.573,0,0,0-1.732,2.537,4.7,4.7,0,0,1-1.039,1.508c-.554.548-.9,1.3-.693,1.645.277.343.069.617-.277.617a.709.709,0,0,0-.762.686c0,1.577,1.178.411,3.81-3.633,3.326-5.073,16-18.236,23.07-23.858C386.2-619.862,400.956-628.843,404-629.8c.831-.206,1.316-.754,1.108-1.165-.277-.411-.138-.549.277-.343.346.274,2.217-.137,4.088-.96a125.669,125.669,0,0,1,40.39-9.255c8.937-.548,23.832.754,31.868,2.742,6.789,1.714,9.422,1.371,6.581-.686-1.316-1.028-1.316-1.028.416-.617,1.386.343,2.009.068,2.91-1.3,1.109-1.645,1.109-1.714-1.108-2.125-1.178-.274-4.087-.891-6.374-1.44C472.313-647.7,455.271-648.656,441.484-647.284Z"
              transform="translate(-327.792 657.568)"/>
        <path id="Path_51"
              d="M639.455-591.8A14.693,14.693,0,0,0,638-588.921c0,.343,1.8,2.742,4.018,5.416,10.115,12.34,16.488,23.172,21.684,37.089a46.877,46.877,0,0,0,2.771,6.239c.9,1.028,4.087,14.123,4.087,16.728,0,1.577.346,2.262,1.385,2.536,1.247.343,1.386.96,1.386,5.347,0,8.912,1.385,11.723,3.256,6.444,1.247-3.565,1.039-7.884-.831-17.071-.97-4.593-1.524-9.049-1.316-9.872.762-3.222-6.235-19.744-15.519-36.2a97.606,97.606,0,0,0-14.549-18.579l-3.395-3.359Z"
              transform="translate(-423.091 640.681)"/>

        <path id="Path_53"
              d="M627.979-446.943a124.876,124.876,0,0,1-27.919,65.677c-12.055,14.6-25.425,24.817-43.992,33.592a121.178,121.178,0,0,1-13.3,5.484c-2.286.686-6.027,1.782-8.244,2.468a89.082,89.082,0,0,1-12.47,2.4c-4.642.617-8.59,1.508-8.868,1.92-.346.48-.554.548-.554,0,0-.48-3.395-.754-10.045-.823-5.473,0-10.323-.206-10.738-.48-.346-.206-.693-.137-.693.274,0,.343,1.178.823,2.633.96,1.94.206,1.663.274-1.247.343a41.577,41.577,0,0,1-6.789-.48c-1.593-.343-3.048-.343-3.256-.068-.485.754,10.946,2.057,18.082,2.057,35.263,0,68.032-13.437,93.873-38.46,11.57-11.243,18.982-21.321,25.079-34.21,4.434-9.324,5.2-11.037,5.681-13.368l.416-2.057L624.585-420c-1.455,2.331-1.386,1.165.277-3.908,2.494-7.953,5.335-25.914,4.157-26.6C628.672-450.714,628.187-449.068,627.979-446.943Z"
              transform="translate(-375.313 595.504)"/>
        <path id="Path_54"
              d="M574.917-321.006c-1.871,1.508-3.533,2.537-3.672,2.4-.208-.206-1.455.343-2.84,1.1a99.916,99.916,0,0,1-15.38,7.13,15.48,15.48,0,0,0-5.334,2.742c-1.87,1.645-1.87,1.714-.277,1.234.97-.274,1.455-.137,1.178.274a3.939,3.939,0,0,1-2.286.96c-1.109.206-4.919,1.165-8.521,2.125a90.651,90.651,0,0,1-11.431,2.262,35.926,35.926,0,0,0-6.235.96,41.34,41.34,0,0,1-8.244.274c-6.72-.274-6.859-.274-5.4.96,1.524,1.371,1.94,1.371,14.341.48,5.612-.343,16.765-2.194,18.013-2.948a9.747,9.747,0,0,1,2.7-.617,6.962,6.962,0,0,0,2.771-.823,19.53,19.53,0,0,1,4.226-1.371c4.018-.96,7.759-2.605,9.63-4.113.97-.754,1.178-.823.762-.137-.347.617.138.548,1.663-.343,1.178-.686,2.147-1.508,2.147-1.851,0-.274.416-.48.9-.343,1.039.206,6.374-2.468,11.708-5.827,3.464-2.194,3.88-2.742,3.741-4.593a5.6,5.6,0,0,0-.485-2.331C578.45-323.543,576.788-322.514,574.917-321.006Z"
              transform="translate(-382.455 555.536)"/>
    </g>
</svg>
