<svg xmlns="http://www.w3.org/2000/svg" width="97" height="103" fill="none">
    <path d="M79.707 2.211c-4.307 4.557-9.012 11.484-12.58 18.578-.415.923-.892 1.815-1.427 2.669-.159 0 .343-1.159 1.877-4.26.819-1.672 1.453-3.128 1.373-3.209s-.396.378-.713.998-.608 1.078-.687 1.023c-.185-.189 1.189-2.723 1.717-3.181.264-.243.423-.539.37-.674-.026-.162.925-1.78 2.141-3.64l2.167-3.424c-.185-.27-1.03-.135-1.083.189-.106.566-1.771 3.264-1.929 3.101-.079-.081.238-.701.713-1.377 1.189-1.672.872-1.78-.502-.189-1.216 1.402-1.163 1.241.37-.836.529-.728.899-1.377.819-1.455-.317-.324-2.035 1.753-3.991 4.826a30.28 30.28 0 0 1-2.114 3.128c-.211-.216.846-2.615 1.64-3.748.35-.46.651-.957.898-1.483a5.83 5.83 0 0 1 .976-1.211c.846-.89.898-1.025.449-1.025-.846 0-2.88 1.51-4.123 3.047-.608.782-1.929 2.292-2.934 3.397a21.56 21.56 0 0 0-2.59 3.505c-.639 1.176-1.373 2.294-2.193 3.343-1.64 2.157-4.07 7.01-5.973 11.972a60.67 60.67 0 0 0-2.617 8.358c-.291 1.052-.37 1.132-1.427 1.294a14.69 14.69 0 0 0-1.903.404 20.34 20.34 0 0 1-2.563.378c-2.167.215-2.141.35-.872-3.532.978-3.02 1.057-3.289.687-2.91-.264.324-1.533 4.179-1.823 5.664-.132.674-.343 1.078-.581 1.078-.608 0-.37-1.429.819-5.15 1.189-3.748 1.268-4.72.476-5.527l-.581-.593-.476.917c-.264.511-.74 1.618-1.057 2.454-.317.863-.687 1.564-.819 1.564s-.159-.135-.079-.27c.106-.162.687-2.157 1.348-4.449.634-2.32 1.348-4.584 1.559-5.069l.423-.863-.555.674c-.476.593-.476.485.132-.755.713-1.51 1.295-2.966 1.11-2.75-1.745 1.888-3.674 5.716-5.497 11.001-.634 1.806-1.189 3.209-1.242 3.074-.132-.433 2.828-9.195 3.885-11.513 1.216-2.643 1.242-2.777.687-2.292-.555.459-.502.027.159-1.483.291-.674.476-1.321.396-1.402-.423-.459-4.149 6.795-6.37 12.457-.714 1.78-1.373 3.343-1.506 3.505-.159.162-.185.108-.106-.135.053-.216.608-2.049 1.216-4.044a44.5 44.5 0 0 1 1.64-4.665c.264-.566.476-1.16.423-1.294-.106-.297-3.25 3.424-4.017 4.692-.307.557-.643 1.097-1.004 1.618a4.84 4.84 0 0 0-.634 1.377c-.328 1.083-.717 2.145-1.163 3.182-1.295 3.182-2.907 9.626-2.907 11.675 0 1.159-.106 1.591-.528 1.941-1.057.944-.476.863 2.854-.378 1.359-.526 2.744-.976 4.149-1.348.449-.054.026.189-.925.539-4.413 1.672-5.55 2.211-5.417 2.534.053.189-.238.539-.687.782-1.03.539-1.322.297-.317-.296.396-.243.502-.351.211-.27-.291.108-.74.27-.978.324-.133.047-.249.133-.334.248a.74.74 0 0 0-.142.398c0 .297-.106.511-.264.511-.132 0-.185-.189-.106-.404.185-.485 0-.511-.714-.108-.317.162-.476.458-.396.674s-.211.782-.634 1.294c-.819.944-1.348 2.588-.846 2.588.159 0 .343-.243.449-.511a2.16 2.16 0 0 1 .581-.89c.396-.297.423-.297.264.108-.211.593.264.647 1.004.135.793-.539 5.417-2.427 5.417-2.211 0 .135-5.471 2.832-5.708 2.832-.37 0-1.956 1.267-1.956 1.564a2.47 2.47 0 0 1-.423.998c-.502.809-.264 1.294.502 1.051.317-.108 2.141-.944 4.044-1.888 4.73-2.32 5.814-2.508 1.559-.269-1.876.971-3.647 1.941-3.885 2.13-.343.27-.476.971-.608 2.966-.106 1.591-.053 2.615.079 2.615.396 0 .608-1.24.423-2.427-.159-.971-.106-1.078.317-.997.819.135 1.163.458 1.163 1.159 0 .35.079.647.185.647a24.07 24.07 0 0 0 2.247-1.24c1.163-.674 2.167-1.186 2.22-1.106.079.054-.793.755-1.929 1.564-.782.518-1.533 1.085-2.247 1.699-.581.863.053 6.417 1.03 9.033.343.971.793 2.157.978 2.643a5.25 5.25 0 0 0 .74 1.348 3.89 3.89 0 0 1 .608 1.294c.185.755.211.782.396.216.264-.701.132-2.696-.211-3.128-.203-.395-.337-.824-.396-1.267-.159-.863-.132-.89.211-.433.211.27.317.62.238.728a2.32 2.32 0 0 0 .423 1.105 3.7 3.7 0 0 1 .529 1.267c0 .566 1.401 3.264 1.612 3.101.07-.023.146-.019.214.011s.123.083.156.151a.3.3 0 0 0 .071.094.29.29 0 0 0 .1.059c.037.013.076.017.114.014s.077-.014.111-.032c.106-.054.343.243.529.674.581 1.429.766 1.16.264-.35-.528-1.537-1.163-5.689-1.004-6.714.053-.35.423.728.846 2.481.423 1.699 1.03 3.829 1.348 4.746.634 1.699 2.246 4.798 2.403 4.611a6.34 6.34 0 0 0-.423-1.672c-.309-.968-.487-1.975-.529-2.993.011-.709-.069-1.416-.238-2.103-.211-.485-.159-.755.132-.998a.89.89 0 0 0 .255-.406.91.91 0 0 0 .01-.484c-.159-.674-.951-6.552-1.083-8.17a4.76 4.76 0 0 0-.264-1.429c-.185-.297.291-1.348.608-1.348.106 0 .238.836.264 1.86a15.41 15.41 0 0 0 .317 2.643c.159.511.185-.054.106-1.672-.185-3.264.264-2.481.687 1.213.067 1 .218 1.992.449 2.966.132.135-.026-4.018-.343-8.628-.132-1.86-.079-2.373.238-2.643.211-.189 1.797-.863 3.515-1.51l3.568-1.348c.396-.189.449.27.581 4.341.132 4.692.661 8.495 1.559 11.27.74 2.321 2.403 5.851 2.986 6.337.555.458.529.404-.555-1.752-1.956-3.854-2.748-7.981-2.881-15.099-.053-3.047 0-4.853.106-4.179l.211 1.213.026-1.402c.053-1.834.238-2.238 1.03-2.238h.634l-.026 3.694a44.66 44.66 0 0 0 .106 4.53c.106.433.211 1.348.291 2.022l.238 1.888c1.268 7.172 1.665 8.844 2.564 10.973.449 1.106 1.189 1.672.846.674-.132-.378-.079-.35.264.081.396.485.423.485.449.054 0-.566 0-.566.951-.054.581.269.925.782 1.295 1.806.423 1.24.528 1.348.661.782s.211-.485.766.728c.343.755.74 1.348.898 1.321.132-.027.317.108.396.324s0 .297-.185.189c-.476-.297-.343.162.37 1.321.687 1.132.925 1.025.264-.135-.423-.782-.502-1.187-.159-.971.132.081-.053-.539-.37-1.402-.581-1.455-1.85-7.551-1.64-7.765.053-.054.502 1.429.978 3.316 1.03 4.098 1.612 5.528 3.277 8.035 1.401 2.076 1.717 2.481 1.242 1.537-.634-1.267-2.167-5.824-2.06-6.228.026-.243.238.054.423.647.423 1.24.793 1.806 1.11 1.618.106-.081.343.081.502.324.238.377.264.243.159-.674-.106-1.052-.079-1.106.264-.674.476.647.476.511-.185-2.265-.502-2.103-.555-3.264-.608-10.462-.026-8.305 0-8.736 1.189-14.021l.661-3.02a3.2 3.2 0 0 1 .713-1.294c.502-.62.899-.755 2.828-.971l3.436-.433 1.189-.189-1.453-.189c-.793-.108-2.537-.189-3.859-.215-2.035-.027-2.537-.108-3.119-.593-.581-.458-1.057-.566-2.722-.539a25.48 25.48 0 0 0-2.96.162c-.661.108-.819.081-.555-.081 1.03-.674 7.638-1.132 12.844-.863 1.612.081 1.956 0 2.432-.485l.529-.539-1.744-.297c-.978-.162-2.722-.404-3.885-.566-1.903-.215-1.744-.243 1.453-.135 1.956.081 4.044.189 4.625.269l1.057.108-.978-.297c-.793-.243-.978-.433-.872-.863.053-.324.106-.647.106-.755.026-.108.238-.135.502-.054.291.108.238 0-.185-.378-.661-.539-.581-.674.581-.971 1.03-.243.899-.539-.661-1.187-2.114-.863-3.383-1.078-8.007-1.294-3.357-.162-4.017-.243-3.172-.433 1.057-.243 5.471-.162 7.928.135 1.061.181 2.111.425 3.145.728 1.348.378 1.929.458 2.193.243.423-.378.449-1.052.053-1.052-.132 0-.185-.135-.079-.324s.079-.215-.106-.108-1.242-.108-2.352-.458c-1.217-.392-2.463-.681-3.726-.863-.899-.108-1.717-.297-1.797-.433s-.343-.135-.634.027c-.343.189-.555.189-.687-.027-.132-.243-1.373-.297-4.307-.189-2.273.054-3.515.027-2.801-.081 1.387-.148 2.781-.22 4.176-.215 3.118-.027 3.647-.189 4.281-1.321.238-.404.343-.485.264-.189-.449 1.321-.449 1.483-.053 1.483.264 0 .608-.62.978-1.834 1.157-3.682 2.497-7.3 4.017-10.839 2.484-5.689 6.607-13.94 8.246-16.528a21.86 21.86 0 0 0 1.48-2.562c0-.108-.502.35-1.084 1.025-.661.728-.925.917-.661.458.238-.404.343-.728.238-.728-.37 0-3.779 3.264-3.779 3.586 0 .189-.238.485-.529.674-1.057.674-4.942 7.197-6.104 10.273-.132.35-.317.566-.423.485-.079-.108.819-2.157 1.984-4.557 1.432-3.007 3.121-5.876 5.048-8.574 3.171-4.53 3.62-5.312 3.383-5.554s-1.771 1.025-1.771 1.483c0 .216-.079.297-.185.216-.079-.108-.317-.054-.529.108-.264.243-.343.135-.343-.566 0-.782-.053-.836-.449-.511-.634.511 1.295-1.995 2.802-3.64 1.242-1.348 1.136-1.402-.502-.189-.687.485-.529.243.661-1.078C81.343.917 82.11 0 81.925 0c-.051 0-1.055.998-2.218 2.211zm-34.065 55.22c.264.404-.106 1.267-.608 1.483-.238.135-1.163.485-2.035.836s-1.401.62-1.189.62c.68-.149 1.344-.366 1.984-.647 1.824-.782 1.717-.755 1.717-.433 0 .135-.581.458-1.295.728-.74.27-1.268.566-1.189.674.053.108-.026.296-.185.404-.211.108-.238.081-.132-.108.264-.433-.159-.404-1.427.108-.581.243-.978.539-.899.674s.079.243 0 .243a3.1 3.1 0 0 0-.608.189c-.396.162-.423.135-.132-.243s.264-.433-.238-.297c-.396.108-.529.081-.396-.135.211-.378-.026-.378-.766-.054-.502.216-.502.243-.026.243.396.027.423.108.159.433-.502.62-.793.485-.793-.35 0-1.213.291-1.888.819-2.022.423-.108.502-.027.396.433-.079.378-.026.324.159-.135.264-.62.766-.89 3.224-1.78 3.461-1.266 3.25-1.214 3.461-.863v-.001z"
          fill="url(#A)"/>
    <path d="M43.37 4.044a18.5 18.5 0 0 0-2.907.485 17.05 17.05 0 0 1-2.193.485c-2.167.27-10.598 3.37-11.364 4.152-.201.172-.453.267-.714.269a.67.67 0 0 0-.301.043c-.096.037-.183.096-.254.173a4.51 4.51 0 0 1-1.136.836c-1.559.944-3.938 2.534-4.096 2.723a9.36 9.36 0 0 1-.978.755c-.476.35-1.189.89-1.586 1.213-2.008 1.645-8.8 9.248-8.8 9.868-.012.09-.057.171-.126.227s-.157.081-.244.07c-.476 0-1.665 1.834-3.304 5.096C2.906 35.397 1.245 40.734.451 46.242-.077 49.774-.156 57.512.293 60.263c.732 3.365 1.64 6.687 2.722 9.95.793 2.427 3.753 8.413 5.048 10.219l2.035 2.858c1.348 1.888 4.519 5.42 4.889 5.42.159 0 .449.324.608.701.185.378.449.593.581.511a.58.58 0 0 1 .281-.057c.097.005.191.034.274.084.211.108.211.216 0 .35-.159.108.106.485.634.917.502.404.925.593.925.433 0-.433.396-.027.396.378 0 .189.238.296.502.243s.396.027.317.162.026.404.238.593c.317.27.396.27.396-.081 0-.216-.74-1.025-1.64-1.753-2.788-2.431-5.353-5.121-7.664-8.035C8.432 79.92 4.229 72.478 4.625 72.1a17.89 17.89 0 0 1 1.348 2.534c5.694 11.54 15.599 20.278 27.538 24.294a45.05 45.05 0 0 0 11.208 2.373c2.299.161 2.458.135 2.088-.27a1.5 1.5 0 0 0-.925-.404 5.24 5.24 0 0 1-1.216-.135c-.423-.108-.74-.081-.74.054 0 .161-.317.161-.846 0a8.31 8.31 0 0 0-1.876-.243c-.634 0-.951-.108-.846-.27s.079-.243-.053-.215c-.449.135-2.907-.378-4.308-.863-1.771-.647-1.401-.674.819-.108.925.243 1.929.459 2.273.511.951.108.449-.324-.634-.539-1.401-.243-4.546-1.213-5.338-1.645a2.84 2.84 0 0 0-.978-.378c-.502 0-6.714-3.478-8.932-4.988-2.934-2.022-8.484-7.469-10.73-10.543-.668-.86-1.286-1.76-1.85-2.697-.116-.31-.276-.601-.476-.863-.91-1.534-1.723-3.129-2.432-4.772-.343-.836-1.533-3.451-1.797-3.91-.343-.566-1.771-6.282-2.22-8.898-.159-.809-.264-4.044-.291-7.145-.026-6.255.238-8.278 1.665-12.754.899-2.804.951-3.289.423-3.289-.555 0-1.586 3.209-2.431 7.685-.37 1.834-.476 3.776-.476 7.954.026 6.254.343 8.44 2.088 14.291.317 1.106.661 2.427.766 2.91a8.19 8.19 0 0 0 .581 1.834c.184.32.292.68.317 1.052-.159.162-1.771-3.316-1.903-4.099a12.33 12.33 0 0 0-.529-1.564c-1.533-3.937-2.378-12.7-1.744-18.47l.291-3.29a.73.73 0 0 1 .056-.345.71.71 0 0 1 .208-.276 1.67 1.67 0 0 0 .238-1.024c0-.836.74-3.694 1.453-5.581a17.26 17.26 0 0 0 .555-1.618c.211-.836 2.828-6.255 3.621-7.577 1.797-2.939 3.885-5.878 3.885-5.446a2.93 2.93 0 0 1-.661 1.106c-.271.294-.494.631-.661.998a1.85 1.85 0 0 1-.396.593c-.211.216-.343.511-.264.647.106.135.026.243-.106.243-.036-.003-.073.002-.108.014a.27.27 0 0 0-.094.057c-.027.025-.049.056-.064.09s-.024.071-.025.109c0 .62.449.162 1.453-1.429 1.269-1.995 6.104-7.172 8.801-9.383 1.929-1.59 7.558-5.122 8.719-5.498.317-.081.502-.296.423-.458-.106-.162-.053-.216.106-.135.132.108.846-.054 1.559-.378 4.905-2.084 10.112-3.314 15.408-3.64 3.409-.216 9.091.297 12.157 1.078 2.59.674 3.594.539 2.51-.27-.502-.404-.502-.404.159-.243.529.135.766.027 1.11-.511.423-.647.423-.674-.423-.836l-2.431-.566C55.131 3.881 48.63 3.505 43.37 4.044z"
          fill="url(#A)"/>
    <path d="M82.536 19.225c-.225.355-.411.735-.555 1.132 0 .135.687 1.079 1.533 2.13 3.859 4.853 6.29 9.114 8.272 14.587a18.73 18.73 0 0 0 1.057 2.454c.343.404 1.559 5.555 1.559 6.579 0 .62.132.89.528.997.476.135.529.378.529 2.103 0 3.505.528 4.611 1.242 2.535.476-1.402.396-3.101-.317-6.714-.37-1.806-.581-3.559-.502-3.883.291-1.267-2.379-7.765-5.92-14.237a38.25 38.25 0 0 0-5.55-7.307l-1.295-1.321-.581.945z"
          fill="url(#A)"/>
    <path d="M29.704 35.429c-1.876 2.076-3.409 5.797-4.757 11.514-.925 3.802-1.216 5.635-.925 5.635.714-.027 1.004-.647 1.163-2.616.185-2.184 2.484-9.977 3.277-11.001.206-.276.342-.6.396-.944 0-.243.396-1.052.898-1.806 1.216-1.888 1.268-1.967 1.136-1.967-.436.35-.834.748-1.189 1.185z"
          fill="url(#A)"/>
    <path d="M96.386 58.429c-1.037 9.495-4.739 18.472-10.65 25.831-4.599 5.742-9.699 9.761-16.781 13.212-1.648.822-3.343 1.542-5.074 2.157l-3.145.971a33.12 33.12 0 0 1-4.757.944c-1.771.242-3.277.593-3.383.755-.132.189-.211.215-.211 0 0-.189-1.295-.297-3.832-.324-2.088 0-3.938-.081-4.096-.189-.132-.081-.264-.054-.264.108 0 .135.449.324 1.004.378.74.081.634.107-.476.135-.867.01-1.733-.053-2.59-.189-.608-.135-1.163-.135-1.242-.027-.185.297 4.176.809 6.898.809 13.452 0 25.952-5.285 35.81-15.126 4.414-4.422 7.241-8.386 9.567-13.455 1.691-3.667 1.984-4.341 2.167-5.258l.159-.809-.398.674c-.555.917-.529.458.106-1.537.951-3.128 2.035-10.192 1.586-10.462-.132-.081-.317.566-.397 1.402z"
          fill="url(#A)"/>
    <path d="M73.417 92.241c-.714.593-1.348.998-1.401.944-.079-.081-.555.135-1.083.433-1.875 1.104-3.838 2.043-5.867 2.804-.74.219-1.431.586-2.035 1.078-.713.647-.713.674-.106.485.37-.108.555-.054.449.108a1.48 1.48 0 0 1-.872.378c-.423.081-1.876.458-3.251.836a33.6 33.6 0 0 1-4.361.889c-.802.054-1.598.18-2.378.378-1.042.144-2.096.18-3.145.108-2.563-.108-2.616-.108-2.06.377.581.539.74.539 5.471.189 2.141-.135 6.395-.863 6.871-1.159a3.61 3.61 0 0 1 1.03-.243c.37-.03.731-.141 1.057-.324.516-.242 1.057-.423 1.612-.539 1.533-.377 2.96-1.025 3.674-1.618.37-.297.449-.324.291-.054-.132.243.053.215.634-.135.449-.27.819-.593.819-.728 0-.108.159-.189.343-.135.396.081 2.432-.971 4.466-2.292 1.322-.863 1.48-1.078 1.427-1.806a2.26 2.26 0 0 0-.185-.917c-.054-.055-.688.349-1.402.942z"
          fill="url(#A)"/>
    <defs>
        <linearGradient id="A" x1="17.291" y1="12.343" x2="48.49" y2="62.737" gradientUnits="userSpaceOnUse">
            <stop stop-color="#566373"/>
            <stop offset=".483" stop-color="#a4b5c0"/>
            <stop offset="1" stop-color="#fff"/>
        </linearGradient>
    </defs>
</svg>