<svg xmlns="http://www.w3.org/2000/svg" width="514" height="546" fill="none">
    <path d="M422.363 11.717c-22.826 24.146-47.754 60.856-66.66 98.442a116.51 116.51 0 0 1-7.562 14.145c-.84 0 1.82-6.144 9.944-22.575 4.342-8.857 7.701-16.573 7.277-17.002s-2.101 2.001-3.78 5.287-3.22 5.715-3.639 5.419c-.98-1 6.303-14.43 9.096-16.858 1.401-1.286 2.24-2.857 1.961-3.572-.139-.856 4.902-9.43 11.344-19.288l11.484-18.144c-.981-1.43-5.458-.715-5.741 1-.56 3.001-9.383 17.298-10.222 16.431-.421-.429 1.261-3.716 3.78-7.294 6.302-8.857 4.621-9.43-2.66-1-6.443 7.43-6.161 6.573 1.96-4.429 2.802-3.858 4.763-7.294 4.342-7.711-1.679-1.715-10.782 9.287-21.145 25.574-3.393 5.762-7.134 11.298-11.203 16.575-1.12-1.142 4.481-13.859 8.692-19.859a43.47 43.47 0 0 0 4.76-7.859c1.437-2.369 3.176-4.528 5.171-6.419 4.482-4.714 4.76-5.429 2.381-5.429-4.481 0-15.263 8.001-21.847 16.146-3.22 4.143-10.222 12.144-15.544 18.002-5.177 5.693-9.775 11.916-13.724 18.574-3.386 6.23-7.274 12.155-11.623 17.714-8.692 11.429-21.566 37.147-31.649 63.438-5.676 14.39-10.31 29.195-13.864 44.291-1.541 5.573-1.961 6-7.562 6.859-3.402.49-6.77 1.206-10.083 2.143-4.483.955-9.02 1.623-13.584 2-11.483 1.142-11.344 1.857-4.621-18.717 5.181-16.002 5.602-17.431 3.639-15.422-1.401 1.715-8.122 22.145-9.662 30.011-.7 3.572-1.82 5.714-3.081 5.714-3.222 0-1.961-7.573 4.342-27.289 6.301-19.859 6.721-25.009 2.521-29.29l-3.081-3.143-2.521 4.858c-1.4 2.71-3.921 8.572-5.601 13.003-1.68 4.573-3.638 8.286-4.342 8.286s-.841-.714-.42-1.429c.56-.857 3.638-11.432 7.141-23.576 3.362-12.296 7.142-24.29 8.262-26.861l2.239-4.573-2.941 3.572c-2.52 3.143-2.52 2.572.7-3.999 3.78-8.001 6.862-15.716 5.882-14.574-9.244 10.003-19.466 30.29-29.128 58.294-3.362 9.572-6.301 17.002-6.582 16.287-.699-2.292 14.985-48.722 20.586-61.008 6.442-14.003 6.582-14.715 3.638-12.146-2.941 2.43-2.66.144.841-7.857 1.541-3.572 2.703-7.399 2.283-7.828-2.24-2.43-22.169 36.403-33.94 66.408-3.782 9.431-7.277 17.715-7.982 18.573-.841.857-.981.572-.56-.714.281-1.142 3.22-10.858 6.442-21.431a235.7 235.7 0 0 1 8.692-24.717c1.401-3.002 2.521-6.144 2.242-6.859-.56-1.572-17.224 18.146-21.285 24.861-1.629 2.951-3.406 5.812-5.323 8.572a25.64 25.64 0 0 0-3.361 7.294c-1.741 5.737-3.798 11.366-6.162 16.861-6.862 16.86-15.405 51.006-15.405 61.866 0 6.144-.56 8.43-2.799 10.287-5.601 5.002-2.521 4.573 15.124-2.001 7.199-2.785 14.539-5.17 21.987-7.144 2.381-.285.139 1-4.902 2.857-23.386 8.858-29.41 11.715-28.704 13.43.281 1.001-1.261 2.858-3.639 4.143-5.457 2.858-7.002 1.572-1.679-1.571 2.1-1.286 2.66-1.857 1.119-1.43-1.54.571-3.921 1.43-5.18 1.715a3.74 3.74 0 0 0-1.769 1.317 3.92 3.92 0 0 0-.752 2.112c0 1.571-.56 2.709-1.401 2.709-.699 0-.98-1-.56-2.142.981-2.572 0-2.71-3.782-.571-1.68.856-2.521 2.428-2.1 3.572s-1.12 4.143-3.362 6.859c-4.342 5.001-7.141 13.715-4.481 13.715.841 0 1.819-1.286 2.381-2.709a11.44 11.44 0 0 1 3.081-4.714c2.1-1.572 2.239-1.572 1.401.571-1.12 3.142 1.4 3.428 5.322.714 4.2-2.857 28.704-12.858 28.704-11.716 0 .715-28.989 15.005-30.248 15.005-1.961 0-10.364 6.715-10.364 8.286-.349 1.915-1.115 3.723-2.24 5.288-2.66 4.287-1.401 6.859 2.66 5.571 1.68-.571 11.344-5.002 21.427-10.004 25.065-12.296 30.808-13.288 8.261-1.428-9.943 5.144-19.326 10.287-20.585 11.288-1.82 1.427-2.521 5.143-3.22 15.716-.56 8.43-.281 13.859.42 13.859 2.1 0 3.22-6.573 2.24-12.859-.841-5.143-.56-5.714 1.679-5.285 4.342.715 6.162 2.428 6.162 6.144 0 1.857.42 3.428.98 3.428A127.38 127.38 0 0 0 149 337.782c6.161-3.572 11.484-6.286 11.762-5.858.421.285-4.2 3.999-10.222 8.286a119.03 119.03 0 0 0-11.904 9.001c-3.08 4.573.279 34.004 5.458 47.864 1.819 5.143 4.201 11.429 5.181 14.003.954 2.57 2.276 4.978 3.921 7.144a20.64 20.64 0 0 1 3.221 6.859c.98 4.001 1.119 4.143 2.1 1.144 1.401-3.716.699-14.289-1.12-16.575a20.73 20.73 0 0 1-2.1-6.715c-.841-4.572-.7-4.716 1.12-2.292 1.119 1.429 1.679 3.286 1.261 3.857.231 2.123 1.004 4.144 2.24 5.859a19.61 19.61 0 0 1 2.801 6.715c0 3.001 7.423 17.298 8.543 16.431a1.6 1.6 0 0 1 1.132.057c.359.157.653.44.828.799a1.58 1.58 0 0 0 .374.5 1.55 1.55 0 0 0 .531.312 1.51 1.51 0 0 0 .607.075c.206-.016.406-.075.589-.172.56-.285 1.819 1.286 2.801 3.572 3.081 7.572 4.061 6.144 1.401-1.857-2.8-8.144-6.161-30.146-5.322-35.575.279-1.857 2.239 3.857 4.481 13.144 2.24 9.001 5.458 20.289 7.142 25.147 3.361 9.001 11.904 25.426 12.734 24.432a33.56 33.56 0 0 0-2.239-8.86c-1.639-5.128-2.582-10.465-2.802-15.86a44.08 44.08 0 0 0-1.259-11.143c-1.12-2.572-.841-4.002.699-5.288a4.71 4.71 0 0 0 1.35-2.152c.247-.832.265-1.72.051-2.562-.841-3.572-5.041-34.719-5.741-43.291a25.2 25.2 0 0 0-1.401-7.571c-.98-1.572 1.541-7.145 3.221-7.145.559 0 1.259 4.429 1.4 9.858a81.75 81.75 0 0 0 1.68 14.003c.841 2.709.981-.285.56-8.857-.98-17.298 1.401-13.145 3.639 6.429a95.64 95.64 0 0 0 2.381 15.716c.699.715-.14-21.289-1.819-45.721-.7-9.857-.421-12.573 1.259-14.003 1.12-1 9.523-4.572 18.625-8l18.906-7.145c2.1-1 2.381 1.43 3.081 23.005.699 24.861 3.501 45.016 8.261 59.721 3.922 12.297 12.735 31.006 15.824 33.577 2.941 2.428 2.801 2.143-2.942-9.286-10.363-20.425-14.564-42.293-15.265-80.011-.279-16.146 0-25.718.56-22.146l1.12 6.43.139-7.43c.281-9.716 1.259-11.858 5.458-11.858h3.361l-.139 19.573c-.22 8.007-.033 16.019.56 24.005.56 2.293 1.12 7.144 1.54 10.716l1.26 10.004c6.721 38.006 8.823 46.863 13.583 58.146 2.381 5.859 6.303 8.86 4.482 3.573-.7-2.001-.421-1.857 1.4.429 2.101 2.572 2.24 2.572 2.382.285 0-3.001 0-3.001 5.041-.285 3.081 1.427 4.902 4.143 6.863 9.572 2.239 6.573 2.799 7.144 3.501 4.143s1.12-2.571 4.061 3.858c1.819 3.999 3.921 7.144 4.76 7 .699-.141 1.68.571 2.1 1.716s0 1.571-.98 1c-2.521-1.571-1.819.857 1.961 7 3.638 6.001 4.902 5.43 1.4-.714-2.239-4.143-2.66-6.288-.84-5.144.699.429-.281-2.857-1.961-7.43-3.081-7.711-9.804-40.014-8.692-41.148.279-.286 2.66 7.571 5.181 17.573 5.457 21.716 8.542 29.29 17.365 42.578 7.423 11.002 9.097 13.145 6.582 8.145-3.361-6.715-11.483-30.862-10.915-33.004.139-1.286 1.261.285 2.241 3.428 2.24 6.574 4.201 9.573 5.883 8.572.559-.429 1.819.43 2.66 1.715 1.261 2.001 1.401 1.286.841-3.572-.56-5.573-.421-5.858 1.4-3.572 2.521 3.429 2.521 2.709-.98-12.002-2.66-11.144-2.941-17.298-3.22-55.437-.14-44.006 0-46.292 6.301-74.296l3.501-16.002c.714-2.563 2.01-4.914 3.78-6.859 2.66-3.286 4.762-4.001 14.984-5.143l18.205-2.293 6.303-1-7.702-1c-4.2-.571-13.444-1.001-20.446-1.143-10.782-.141-13.445-.571-16.525-3.142-3.081-2.428-5.601-3.001-14.425-2.858-5.239-.018-10.476.269-15.684.859-3.501.571-4.342.427-2.941-.429 5.458-3.572 40.472-6 68.06-4.573 8.543.43 10.364 0 12.885-2.572l2.801-2.857-9.241-1.571c-5.181-.857-14.425-2.143-20.586-2.999-10.083-1.142-9.242-1.286 7.701-.715 10.364.429 21.427 1 24.508 1.427l5.601.572-5.181-1.572c-4.2-1.286-5.181-2.292-4.621-4.572.281-1.716.56-3.431.56-4.002.14-.571 1.261-.715 2.66-.285 1.541.571 1.26 0-.98-2.001-3.501-2.857-3.081-3.572 3.08-5.144 5.458-1.286 4.763-2.857-3.501-6.287-11.202-4.573-17.925-5.715-42.431-6.859-17.788-.857-21.287-1.286-16.805-2.293 5.601-1.285 28.988-.856 42.012.715a147.63 147.63 0 0 1 16.664 3.858c7.142 2.001 10.223 2.428 11.623 1.286 2.242-2.001 2.382-5.573.281-5.573-.699 0-.98-.715-.42-1.715s.42-1.142-.56-.571-6.582-.571-12.464-2.428a120.11 120.11 0 0 0-19.745-4.573c-4.762-.571-9.096-1.571-9.523-2.292s-1.819-.715-3.361.143c-1.819 1.001-2.941 1.001-3.639-.143-.699-1.286-7.277-1.572-22.825-1.001-12.044.286-18.625.144-14.845-.429a201.66 201.66 0 0 1 22.126-1.142c16.525-.142 19.324-1.001 22.686-7.001 1.261-2.142 1.819-2.571 1.401-1-2.381 7.001-2.382 7.859-.281 7.859 1.401 0 3.22-3.286 5.181-9.716a604.8 604.8 0 0 1 21.287-57.438c13.163-30.146 35.01-73.866 43.692-87.584a115.76 115.76 0 0 0 7.841-13.574c0-.571-2.66 1.857-5.743 5.429-3.501 3.858-4.901 4.858-3.501 2.428 1.262-2.143 1.82-3.858 1.262-3.858-1.961 0-20.026 17.298-20.026 19.003 0 1-1.262 2.572-2.802 3.572-5.601 3.572-26.187 38.139-32.342 54.436-.7 1.857-1.68 3.001-2.24 2.572-.42-.571 4.342-11.431 10.512-24.146 7.588-15.934 16.539-31.139 26.747-45.434C421.651 43.145 424.031 39 422.771 37.716s-9.383 5.429-9.383 7.859c0 1.142-.421 1.572-.98 1.142-.421-.571-1.68-.286-2.802.571-1.401 1.286-1.819.715-1.819-3.001 0-4.143-.281-4.429-2.382-2.709-3.361 2.709 6.863-10.573 14.845-19.288 6.582-7.144 6.022-7.43-2.66-1-3.638 2.572-2.801 1.286 3.501-5.715C431.035 4.858 435.096 0 434.115 0c-.273 0-5.591 5.287-11.752 11.717zm-180.51 292.607c1.4 2.142-.56 6.715-3.22 7.859-1.262.715-6.162 2.572-10.782 4.429s-7.423 3.286-6.303 3.286c3.603-.79 7.123-1.938 10.511-3.428 9.662-4.143 9.096-4.001 9.096-2.292 0 .714-3.08 2.428-6.862 3.857-3.922 1.43-6.721 3.001-6.303 3.572.281.571-.14 1.572-.98 2.143-1.12.571-1.26.429-.7-.571 1.401-2.293-.841-2.143-7.562.571-3.08 1.286-5.181 2.857-4.762 3.572s.42 1.286 0 1.286c-1.104.222-2.183.557-3.222 1-2.101.857-2.24.715-.7-1.286s1.401-2.292-1.261-1.571c-2.1.571-2.802.429-2.1-.715 1.12-2.001-.14-2.001-4.061-.285-2.66 1.142-2.66 1.286-.14 1.286 2.1.141 2.24.571.841 2.292-2.66 3.287-4.2 2.572-4.2-1.857 0-6.429 1.54-10.004 4.342-10.716 2.239-.571 2.66-.142 2.1 2.292-.421 2.001-.14 1.715.841-.715 1.401-3.286 4.061-4.714 17.085-9.43 18.34-6.709 17.22-6.432 18.34-4.573l.002-.006z"
          fill="url(#A)"/>
    <path d="M229.819 21.431c-5.192.446-10.343 1.305-15.405 2.572a90.35 90.35 0 0 1-11.623 2.572c-11.484 1.43-56.157 17.859-60.218 22.004-1.064.91-2.399 1.414-3.782 1.428-.542-.048-1.087.03-1.596.228s-.969.511-1.345.916c-1.772 1.79-3.803 3.284-6.022 4.429-8.261 5.002-20.866 13.43-21.705 14.43-1.64 1.449-3.371 2.786-5.181 4.001-2.521 1.857-6.303 4.714-8.403 6.43-10.643 8.716-46.633 49.008-46.633 52.292a1.84 1.84 0 0 1-.668 1.201 1.73 1.73 0 0 1-1.293.371c-2.521 0-8.823 9.716-17.505 27.004-13.042 26.262-21.84 54.542-26.048 83.726-2.802 18.717-3.22 59.722-.841 74.296a515.73 515.73 0 0 0 14.425 52.728c4.2 12.859 19.886 44.578 26.747 54.151l10.782 15.145c7.141 10.004 23.947 28.719 25.908 28.719.841 0 2.381 1.715 3.222 3.714.98 2 2.381 3.142 3.081 2.709a3.09 3.09 0 0 1 1.488-.304c.512.025 1.011.178 1.454.446 1.12.571 1.12 1.144 0 1.857-.841.571.56 2.571 3.362 4.858 2.66 2.142 4.902 3.143 4.902 2.292 0-2.292 2.1-.144 2.1 2.001 0 1 1.66-.141 1.66 2.509 1.399-.286 3.101-1.081 2.68-.367s.14 2.143 1.262 3.143c1.679 1.43 2.1 1.43 2.1-.429 0-1.142-3.922-5.429-8.692-9.287-14.772-12.882-28.366-27.134-40.612-42.578-12.735-17.146-35.01-56.579-32.91-58.58 2.731 4.269 5.12 8.76 7.142 13.43 30.173 61.152 82.658 107.454 145.923 128.733 19.216 6.709 39.165 10.933 59.39 12.575 12.183.857 13.024.715 11.063-1.43-1.351-1.265-3.08-2.021-4.902-2.142-2.166.016-4.328-.224-6.442-.715-2.24-.571-3.921-.429-3.921.286 0 .856-1.68.856-4.482 0-3.258-.806-6.593-1.238-9.943-1.286-3.362 0-5.041-.571-4.481-1.43s.42-1.286-.279-1.142c-2.382.715-15.405-2.001-22.826-4.572-9.383-3.429-7.422-3.573 4.342-.572 4.902 1.286 10.222 2.431 12.043 2.71 5.042.571 2.382-1.715-3.361-2.857-7.423-1.286-24.087-6.43-28.287-8.716a15.07 15.07 0 0 0-5.181-2.001c-2.66 0-35.577-18.432-47.333-26.433-15.545-10.716-44.954-39.576-56.856-55.864-3.541-4.557-6.815-9.328-9.804-14.288-.614-1.645-1.464-3.187-2.521-4.573a221.49 221.49 0 0 1-12.884-25.288c-1.819-4.429-8.122-18.288-9.523-20.718-1.819-3.001-9.383-33.29-11.764-47.149-.841-4.287-1.401-21.431-1.54-37.862-.139-33.147 1.259-43.864 8.823-67.581 4.762-14.859 5.041-17.431 2.242-17.431-2.941 0-8.403 17.002-12.884 40.721-1.961 9.716-2.521 20.008-2.521 42.149.139 33.137 1.819 44.721 11.063 75.726 1.68 5.858 3.501 12.859 4.061 15.422.644 3.355 1.678 6.617 3.081 9.716a12.91 12.91 0 0 1 1.68 5.573c-.841.856-9.383-17.573-10.083-21.718a65.36 65.36 0 0 0-2.802-8.287c-8.122-20.86-12.603-67.295-9.242-97.871l1.54-17.432a3.88 3.88 0 0 1 .297-1.826c.245-.573.624-1.075 1.104-1.46a8.85 8.85 0 0 0 1.261-5.429c0-4.429 3.922-19.574 7.702-29.576 1.12-2.804 2.102-5.666 2.941-8.574 1.12-4.428 14.985-33.147 19.185-40.148 9.523-15.574 20.586-31.146 20.586-28.86-.725 2.199-1.921 4.202-3.501 5.858-1.436 1.557-2.618 3.342-3.501 5.288-.493 1.179-1.207 2.247-2.1 3.142-1.12 1.142-1.819 2.71-1.401 3.429.56.714.14 1.286-.56 1.286-.193-.015-.387.01-.571.075a1.41 1.41 0 0 0-.496.3 1.47 1.47 0 0 0-.342.477c-.081.181-.126.378-.132.577 0 3.287 2.381.857 7.701-7.571 6.723-10.573 32.342-38.006 46.634-49.723 10.222-8.424 40.05-27.141 46.203-29.136 1.68-.429 2.66-1.572 2.239-2.428-.56-.857-.279-1.144.56-.715.7.571 4.482-.286 8.264-2.001 25.992-11.043 53.581-17.561 81.644-19.288 18.065-1.142 48.174 1.571 64.417 5.715 13.724 3.572 19.046 2.857 13.303-1.43-2.66-2.142-2.66-2.142.841-1.286 2.802.715 4.061.142 5.882-2.709 2.242-3.428 2.242-3.572-2.239-4.429l-12.885-3.001c-23.939-5.733-58.388-7.726-86.256-4.866z"
          fill="url(#A)"/>
    <path d="M437.353 101.873c-1.191 1.883-2.177 3.895-2.941 6 0 .715 3.638 5.715 8.122 11.287 20.446 25.718 33.329 48.293 43.832 77.297 1.558 4.469 3.43 8.815 5.601 13.003 1.819 2.143 8.261 29.434 8.261 34.863 0 3.287.7 4.714 2.8 5.285 2.521.715 2.802 2.001 2.802 11.144 0 18.573 2.799 24.432 6.581 13.43 2.521-7.43 2.101-16.431-1.679-35.578-1.961-9.572-3.081-18.859-2.661-20.574 1.541-6.715-12.603-41.148-31.37-75.444-8.248-14.086-18.123-27.088-29.409-38.721l-6.862-7-3.077 5.008z"
          fill="url(#A)"/>
    <path d="M157.403 187.739c-9.943 11.002-18.065 30.718-25.207 61.01-4.902 20.145-6.442 29.861-4.902 29.861 3.782-.142 5.323-3.428 6.162-13.859.98-11.573 13.163-52.865 17.365-58.294 1.091-1.463 1.813-3.181 2.101-5.002 0-1.286 2.1-5.573 4.76-9.572 6.442-10.004 6.721-10.421 6.022-10.421-2.31 1.857-4.422 3.961-6.301 6.277z"
          fill="url(#A)"/>
    <path d="M510.747 309.616c-5.497 50.314-25.11 97.883-56.436 136.877-24.367 30.428-51.393 51.721-88.925 70.009a240.83 240.83 0 0 1-26.884 11.429l-16.664 5.144a175.21 175.21 0 0 1-25.207 5.001c-9.383 1.286-17.364 3.143-17.926 4.002-.699 1-1.12 1.142-1.12 0 0-1.001-6.862-1.572-20.304-1.715-11.064 0-20.867-.43-21.706-1.001-.7-.429-1.401-.285-1.401.571 0 .715 2.381 1.716 5.322 2.001 3.922.429 3.362.571-2.52.715-4.594.054-9.183-.281-13.724-1-3.22-.715-6.161-.715-6.581-.142-.981 1.571 22.126 4.287 36.551 4.287 71.28 0 137.519-28.004 189.754-80.155 23.387-23.431 38.37-44.435 50.694-71.297 8.963-19.432 10.511-23.002 11.483-27.86l.841-4.287-2.108 3.572c-2.941 4.858-2.802 2.428.56-8.144 5.041-16.575 10.784-54.008 8.403-55.437-.702-.43-1.682 3.001-2.102 7.43z"
          fill="url(#A)"/>
    <path d="M389.037 488.782c-3.782 3.143-7.142 5.287-7.423 5.002-.42-.429-2.941.715-5.741 2.292a199.09 199.09 0 0 1-31.089 14.86c-3.921 1.162-7.583 3.103-10.782 5.715-3.78 3.428-3.78 3.572-.56 2.571 1.961-.571 2.941-.285 2.381.571-1.291 1.163-2.911 1.864-4.62 2.001-2.242.429-9.944 2.428-17.225 4.429a178.34 178.34 0 0 1-23.106 4.714 70.62 70.62 0 0 0-12.604 2.001 81.11 81.11 0 0 1-16.664.571c-13.584-.571-13.865-.571-10.915 2.001 3.08 2.857 3.921 2.857 28.988 1 11.344-.715 33.889-4.573 36.412-6.144a19.22 19.22 0 0 1 5.457-1.286 13.77 13.77 0 0 0 5.602-1.715c2.732-1.285 5.598-2.243 8.542-2.857 8.122-2.001 15.684-5.429 19.466-8.572 1.961-1.572 2.381-1.716 1.54-.286-.701 1.286.279 1.142 3.362-.715 2.381-1.429 4.34-3.143 4.34-3.857 0-.571.841-1.001 1.819-.715 2.1.429 12.884-5.144 23.667-12.144 7.002-4.573 7.843-5.715 7.562-9.573.014-1.673-.32-3.329-.981-4.858-.287-.293-3.646 1.851-7.428 4.994z"
          fill="url(#A)"/>
    <defs>
        <linearGradient id="A" x1="91.626" y1="65.405" x2="256.946" y2="332.441" gradientUnits="userSpaceOnUse">
            <stop stop-color="#566373"/>
            <stop offset=".483" stop-color="#a4b5c0"/>
            <stop offset="1" stop-color="#fff"/>
        </linearGradient>
    </defs>
</svg>