<svg xmlns="http://www.w3.org/2000/svg" width="1172.016" height="339.656" viewBox="0 0 1172.016 339.656">
    <path id="item-home-a1-2"
          d="M-108.6,354.143l14.186,1.414,14.666,1.278,15.051,1.22,15.342,1.242,15.54,1.34,15.643,1.518,15.651,1.775,15.566,2.11,15.387,2.523,15.114,3.016,14.746,3.585L72.578,379.4l13.728,4.963,13.078,5.769,12.334,6.653,11.5,7.617h0l10.6,8.617,9.8,9.493,9.132,10.2,8.6,10.741,8.192,11.115,7.919,11.322,7.779,11.362L193,488.486l7.894,10.941,8.15,10.481,8.538,9.852,9.058,9.058,9.709,8.1,10.493,6.968,11.409,5.672,12.457,4.209h0l13.584,2.627L298.87,557.5l15.38-.292,16-1.581,16.424-2.758,16.666-3.82,16.718-4.769,16.584-5.6,16.26-6.328,15.75-6.937L443.7,517.98l14.165-7.816,13.091-8.084,11.828-8.24,10.379-8.283,8.742-8.211h0l6.966-8.039,5.255-7.811,3.658-7.539,2.176-7.224.807-6.865-.446-6.462-1.586-6.016-2.611-5.526-3.521-4.992-4.318-4.414-5-3.794-5.568-3.129-6.021-2.42-6.36-1.669-6.585-.872-6.7-.034h0l-6.7.831-6.614,1.643-6.452,2.384-6.21,3.053-5.891,3.653-5.491,4.18-5.013,4.638-4.456,5.023-3.819,5.338-3.1,5.581L416,442.619l-1.437,5.855-.484,5.887.547,5.846,1.658,5.735,2.847,5.552h0l4.084,5.318,5.246,5.114,6.3,4.958,7.247,4.852,8.085,4.794,8.818,4.786,9.443,4.826,9.96,4.916,10.371,5.054,10.674,5.242,10.869,5.478,10.958,5.764,10.94,6.1,10.813,6.482,10.581,6.914,10.239,7.4h0l9.819,7.9L583,575.725l9.087,8.676,8.8,8.919,8.573,9.066,8.4,9.117,8.276,9.073,8.21,8.932,8.2,8.7,8.241,8.364,8.338,7.935,8.489,7.411,8.7,6.792,8.956,6.076,9.271,5.264,9.641,4.356h0l10.05,3.377,10.439,2.415,10.793,1.494,11.111.616,11.4-.22,11.644-1.016,11.857-1.769,12.035-2.481,12.179-3.152,12.287-3.78,12.36-4.367,12.4-4.912,12.4-5.416,12.368-5.878,12.3-6.3,12.2-6.677h0l12.067-7.015,11.92-7.308,11.767-7.559,11.6-7.765,11.433-7.929,11.254-8.05,11.066-8.126,10.871-8.159,10.666-8.149,10.453-8.1,10.23-8,10.01-7.859,9.76-7.675,9.52-7.447,9.27-7.177,9-6.863"
          transform="translate(108.671 -353.397)" fill="none" stroke="#78809e" stroke-linejoin="bevel"
          stroke-width="2.5"/>
</svg>
