<svg id="home-b_svg" viewBox="0 0 1328.390625 1328.390625" width="1328.390625" height="1328.390625"
     xmlns="http://www.w3.org/2000/svg" version="1.1" style="width: 1328.39px; height: 1328.39px;">
    <polyline id="item-home-b1-2"
              points="-118.65592193603516,493.69580078125 -106.57194519042969,498.4815673828125 -93.93446350097656,503.1123352050781 -80.82156372070312,507.569091796875 -67.31134033203125,511.8328552246094 -53.48189163208008,515.884521484375 -39.411319732666016,519.7051391601562 -25.177722930908203,523.2756958007812 -10.859197616577148,526.5770874023438 3.466157913208008,529.5903930664062 17.720247268676758,532.2965087890625 31.824970245361328,534.676513671875 45.702232360839844,536.7112426757812 59.273929595947266,538.3817749023438 72.46196746826172,539.6691284179688 85.1882553100586,540.5541381835938 97.37467956542969,541.0179443359375 97.37468719482422,541.0179443359375 108.96116638183594,541.056396484375 119.95964813232422,540.7257690429688 130.40008544921875,540.09716796875 140.31240844726562,539.24169921875 149.72657775878906,538.2305908203125 158.67254638671875,537.1349487304688 167.18026733398438,536.0260009765625 175.27969360351562,534.974853515625 183.00076293945312,534.052734375 190.37342834472656,533.3306884765625 197.42764282226562,532.8800048828125 204.193359375,532.771728515625 210.70053100585938,533.0770874023438 216.97909545898438,533.8672485351562 223.0590057373047,535.2133178710938 228.97023010253906,537.1865234375 228.97023010253906,537.1865234375 234.74215698242188,539.8417358398438 240.40206909179688,543.1690063476562 245.97669982910156,547.1422729492188 251.4927978515625,551.7351684570312 256.97705078125,556.9216918945312 262.4562683105469,562.675537109375 267.9571228027344,568.9705810546875 273.50634765625,575.7805786132812 279.1307067871094,583.0794677734375 284.85693359375,590.8410034179688 290.71173095703125,599.0390014648438 296.7218933105469,607.6472778320312 302.9140930175781,616.6396484375 309.3150634765625,625.989990234375 315.95159912109375,635.6720581054688 322.8503723144531,645.6597290039062 322.8503723144531,645.6597290039062 330.03759765625,655.916015625 337.5372314453125,666.3607788085938 345.3726806640625,676.9031372070312 353.56732177734375,687.4522094726562 362.14459228515625,697.9170532226562 371.1278381347656,708.2068481445312 380.5405578613281,718.2306518554688 390.40606689453125,727.8975830078125 400.7478332519531,737.11669921875 411.5892028808594,745.797119140625 422.9536437988281,753.8480224609375 434.864501953125,761.1784057617188 447.3452453613281,767.6974487304688 460.4192199707031,773.314208984375 474.1098327636719,777.937744140625 488.4405212402344,781.477294921875 488.4405212402344,781.477294921875 503.4219970703125,783.8760986328125 519.0144653320312,785.2144775390625 535.165283203125,785.6071166992188 551.822021484375,785.16845703125 568.9320678710938,784.01318359375 586.4429321289062,782.2557983398438 604.3021240234375,780.0109252929688 622.45703125,777.39306640625 640.855224609375,774.516845703125 659.444091796875,771.496826171875 678.171142578125,768.4476318359375 696.9838256835938,765.4837646484375 715.8296508789062,762.7198486328125 734.6560668945312,760.2704467773438 753.4105224609375,758.2501220703125 772.0404663085938,756.7734375 772.0404663085938,756.7734375 790.4987182617188,755.9283447265625 808.7589111328125,755.6966552734375 826.800048828125,756.0332641601562 844.60107421875,756.8933715820312 862.140869140625,758.2319946289062 879.3984985351562,760.0042114257812 896.3528442382812,762.1650390625 912.98291015625,764.6696166992188 929.2677001953125,767.4730224609375 945.18603515625,770.5303344726562 960.7169799804688,773.7965698242188 975.8394775390625,777.226806640625 990.532470703125,780.7761840820312 1004.7749633789062,784.3997192382812 1018.5458374023438,788.0524291992188 1031.8240966796875,791.6895141601562 1031.8240966796875,791.6895141601562 1044.600830078125,795.2778930664062 1056.916015625,798.8323974609375 1068.8216552734375,802.3796997070312 1080.3699951171875,805.9464721679688 1091.6129150390625,809.5594482421875 1102.6025390625,813.245361328125 1113.39111328125,817.0308227539062 1124.030517578125,820.942626953125 1134.572998046875,825.0074462890625 1145.0704345703125,829.251953125 1155.5751953125,833.7029418945312 1166.13916015625,838.3870239257812 1176.814453125,843.3309326171875 1187.653076171875,848.5613403320312 1198.707275390625,854.1050415039062 1210.029052734375,859.9887084960938 1210.029052734375,859.9886474609375 1221.65478515625,866.2232666015625 1233.5582275390625,872.75732421875 1245.697265625,879.5234985351562 1258.0299072265625,886.45458984375 1270.51416015625,893.4832763671875 1283.1077880859375,900.5424194335938 1295.76904296875,907.5647583007812 1308.4556884765625,914.4829711914062 1321.1258544921875,921.2299194335938 1333.7374267578125,927.7382202148438 1346.248291015625,933.9407958984375 1358.6165771484375,939.7702026367188 1370.80029296875,945.1593627929688 1382.7572021484375,950.0409545898438 1394.4454345703125,954.3477783203125 1405.8228759765625,958.0125122070312 "
              class="pts-svgform pts-polygon "
              style="fill: none;stroke: #78809E;stroke-width: 1.5;stroke-linejoin: bevel;stroke-linecap: sqaure;opacity: 1"></polyline>
</svg>