<svg id="home-a_svg" viewBox="0 0 1102.9375 1102.9375" width="1102.9375" height="1102.9375"
     xmlns="http://www.w3.org/2000/svg" version="1.1" style="width: 1102.94px; height: 1102.94px;">
    <polyline id="item-home-a1-2"
              points="-101.10260772705078,352.9400329589844 -86.74772644042969,355.7059020996094 -71.99974060058594,358.5229797363281 -56.939453125,361.4425048828125 -41.647682189941406,364.515625 -26.20522689819336,367.7935791015625 -10.692901611328125,371.3276062011719 4.808483123779297,375.1688537597656 20.218116760253906,379.36859130859375 35.45519256591797,383.97796630859375 50.438899993896484,389.0482482910156 65.08842468261719,394.6305847167969 79.32296752929688,400.7762451171875 93.06170654296875,407.536376953125 106.22383880615234,414.9622497558594 118.72855377197266,423.1050109863281 130.4950408935547,432.01593017578125 130.49505615234375,432.01593017578125 141.4755096435547,441.7145080566406 151.7541961669922,452.093505859375 161.4483642578125,463.01409912109375 170.67527770996094,474.3373718261719 179.5522003173828,485.9244079589844 188.19638061523438,497.6363830566406 196.72508239746094,509.3343505859375 205.2555694580078,520.8794555664062 213.90509033203125,532.1328125 222.79092407226562,542.9555053710938 232.0303192138672,553.2086791992188 241.74053955078125,562.7534790039062 252.03884887695312,571.450927734375 263.0425109863281,579.1622314453125 274.8687438964844,585.7484741210938 287.6348876953125,591.0706787109375 287.6348876953125,591.0706787109375 301.4097595214844,595.02587890625 316.0687561035156,597.6537475585938 331.43890380859375,599.030029296875 347.3471984863281,599.230224609375 363.62066650390625,598.3298950195312 380.0862731933594,596.40478515625 396.5710754394531,593.5303344726562 412.9020690917969,589.7821655273438 428.90625,585.2359619140625 444.41064453125,579.9672241210938 459.24224853515625,574.0515747070312 473.22808837890625,567.5646362304688 486.1951599121094,560.5819702148438 497.970458984375,553.1791381835938 508.3809814453125,545.4318237304688 517.2537841796875,537.41552734375 517.2537841796875,537.41552734375 524.4620971679688,529.2059326171875 530.0640258789062,520.8785400390625 534.1638793945312,512.5090942382812 536.8660278320312,504.1731872558594 538.2748413085938,495.94635009765625 538.4946899414062,487.9042663574219 537.6298217773438,480.1225280761719 535.78466796875,472.6767578125 533.0634765625,465.642578125 529.5707397460938,459.0956115722656 525.41064453125,453.1114807128906 520.6876831054688,447.7657775878906 515.506103515625,443.1341247558594 509.9702453613281,439.29217529296875 504.18450927734375,436.31549072265625 498.2532043457031,434.27972412109375 498.2532043457031,434.2796936035156 492.2762756347656,433.23699951171875 486.33599853515625,433.14569091796875 480.5101623535156,433.94073486328125 474.8766784667969,435.5569152832031 469.5133056640625,437.92919921875 464.4979553222656,440.9924621582031 459.9084167480469,444.6815490722656 455.8226013183594,448.931396484375 452.3182678222656,453.6768798828125 449.47332763671875,458.8529052734375 447.3656005859375,464.3943176269531 446.0729064941406,470.23602294921875 445.673095703125,476.31292724609375 446.2440185546875,482.5599060058594 447.863525390625,488.911865234375 450.6094665527344,495.3036804199219 450.60943603515625,495.30364990234375 454.5317077636719,501.68292236328125 459.568603515625,508.048095703125 465.6304626464844,514.410400390625 472.62762451171875,520.781005859375 480.4704895019531,527.1710815429688 489.0693664550781,533.5917358398438 498.33465576171875,540.0543212890625 508.1766662597656,546.5698852539062 518.5057983398438,553.1495971679688 529.2323608398438,559.8047485351562 540.2667846679688,566.5464477539062 551.519287109375,573.3859252929688 562.900390625,580.3342895507812 574.3203125,587.4027709960938 585.6895141601562,594.6025390625 596.9182739257812,601.9447631835938 596.918212890625,601.9447631835938 607.9359130859375,609.43115234375 618.7479248046875,617.0252075195312 629.3785400390625,624.6810302734375 639.8521728515625,632.3525390625 650.1931762695312,639.9937744140625 660.42578125,647.5588989257812 670.5745239257812,655.0018310546875 680.6636352539062,662.276611328125 690.7174682617188,669.3372802734375 700.7604370117188,676.1378784179688 710.8168334960938,682.6323852539062 720.9110107421875,688.77490234375 731.0673828125,694.5194702148438 741.3102416992188,699.8200073242188 751.6639404296875,704.6306762695312 762.1528930664062,708.9053955078125 762.15283203125,708.9053955078125 772.7960205078125,712.60498046875 783.5914306640625,715.717041015625 794.5316162109375,718.2359008789062 805.6091918945312,720.1558837890625 816.81689453125,721.4713745117188 828.1472778320312,722.1766357421875 839.5929565429688,722.26611328125 851.1465454101562,721.7340087890625 862.8007202148438,720.5747680664062 874.548095703125,718.78271484375 886.3812866210938,716.3521728515625 898.29296875,713.2774658203125 910.2756958007812,709.5529174804688 922.3220825195312,705.1729125976562 934.4248657226562,700.1317138671875 946.5765380859375,694.4237670898438 946.5765380859375,694.4237670898438 958.7679443359375,688.0546875 970.9822387695312,681.0756225585938 983.2008666992188,673.549072265625 995.4051513671875,665.5375366210938 1007.576416015625,657.1034545898438 1019.6961059570312,648.3093872070312 1031.7454833984375,639.2177124023438 1043.705810546875,629.8910522460938 1055.5587158203125,620.3917846679688 1067.285400390625,610.7824096679688 1078.8671875,601.12548828125 1090.2855224609375,591.4833984375 1101.5216064453125,581.9187622070312 1112.5570068359375,572.4939575195312 1123.3729248046875,563.271484375 1133.950927734375,554.3139038085938 "
              class="pts-svgform pts-polygon "
              style="fill: none;stroke: #78809E;stroke-width: 1.5;stroke-linejoin: bevel;stroke-linecap: sqaure;opacity: 1"></polyline>
</svg>